<svg  viewBox="0 0 340 50" fill="none" xmlns="http://www.w3.org/2000/svg">
<path d="M19.2665 38.0219L25.1209 48.1621C26.5358 50.6126 30.0729 50.6126 31.4878 48.1621L53.3393 10.3141H35.2636L19.2665 38.0219Z" fill="#0BDCA0"/>
<path d="M37.8448 5.84337H55.9204L56.1107 5.51384C57.5256 3.06326 55.757 0 52.9273 0H41.2184L37.8448 5.84337Z" fill="#0BDCA0"/>
<path d="M36.0561 0L32.6825 5.84337H0.68821L0.497954 5.51384C-0.91689 3.06326 0.851689 0 3.68138 0H36.0561Z" fill="#0BDCA0"/>
<path d="M30.1013 10.3141L16.6854 33.5512L3.26933 10.3141H30.1013Z" fill="#0BDCA0"/>
<path d="M67.6538 13.889H73.2538L79.0316 30.5112L84.5427 13.889H89.876L82.0983 36.1112H75.876L67.6538 13.889Z" fill="#0BDCA0"/>
<path d="M100.532 36.5112C97.9249 36.5112 95.8656 35.7112 94.3545 34.1112C92.8434 32.4816 92.0878 30.0372 92.0878 26.7779V13.889H97.2434V26.7779C97.2434 28.4075 97.6286 29.6372 98.3989 30.4668C99.1693 31.2964 100.177 31.7112 101.421 31.7112C102.932 31.7112 104.132 31.2816 105.021 30.4223C105.94 29.5631 106.429 28.4223 106.488 27.0001V13.889H111.643V36.1112H107.599L107.199 33.6668C106.399 34.5853 105.436 35.2964 104.31 35.8001C103.184 36.2742 101.925 36.5112 100.532 36.5112Z" fill="#0BDCA0"/>
<path d="M125.885 36.5112C124.285 36.5112 122.848 36.2742 121.574 35.8001C120.3 35.2964 119.203 34.5853 118.285 33.6668C117.366 32.7186 116.655 31.5779 116.151 30.2446C115.677 28.9112 115.44 27.4001 115.44 25.7112V24.289C115.44 22.6001 115.677 21.089 116.151 19.7557C116.655 18.4223 117.366 17.2964 118.285 16.3779C119.203 15.4298 120.3 14.7186 121.574 14.2446C122.848 13.7409 124.285 13.489 125.885 13.489C129.114 13.489 131.662 14.4816 133.529 16.4668C135.396 18.452 136.329 21.2964 136.329 25.0001V26.7335H120.596C120.744 28.6001 121.262 29.9483 122.151 30.7779C123.04 31.5779 124.285 31.9779 125.885 31.9779C127.455 31.9779 128.596 31.7112 129.307 31.1779C130.048 30.6149 130.537 29.9631 130.774 29.2223H136.107C135.87 30.2594 135.5 31.2223 134.996 32.1112C134.492 33.0001 133.825 33.7705 132.996 34.4223C132.166 35.0742 131.159 35.5927 129.974 35.9779C128.788 36.3335 127.425 36.5112 125.885 36.5112ZM125.885 18.0223C124.374 18.0223 123.188 18.3927 122.329 19.1335C121.47 19.8742 120.922 21.0446 120.685 22.6446H131.085C130.877 20.9853 130.329 19.8001 129.44 19.089C128.581 18.3779 127.396 18.0223 125.885 18.0223Z" fill="#0BDCA0"/>
<path d="M138.173 13.8889H142.173V7.66667H147.328V13.8889H152.84V18.4222H147.328V28.2444C147.328 29.4 147.58 30.2444 148.084 30.7778C148.617 31.3111 149.402 31.5778 150.44 31.5778H153.284V36.1111H149.506C147.136 36.1111 145.314 35.4889 144.04 34.2444C142.795 32.9704 142.173 31.1482 142.173 28.7778V18.4222H138.173V13.8889Z" fill="black"/>
<path d="M165.3 36.5111C163.7 36.5111 162.263 36.2741 160.988 35.8C159.714 35.2963 158.618 34.5852 157.7 33.6667C156.781 32.7185 156.07 31.5778 155.566 30.2444C155.092 28.9111 154.855 27.4 154.855 25.7111V24.2889C154.855 22.6 155.092 21.0889 155.566 19.7556C156.07 18.4222 156.781 17.2963 157.7 16.3778C158.618 15.4296 159.714 14.7185 160.988 14.2444C162.263 13.7407 163.7 13.4889 165.3 13.4889C168.529 13.4889 171.077 14.4815 172.944 16.4667C174.811 18.4519 175.744 21.2963 175.744 25V26.7333H160.011C160.159 28.6 160.677 29.9482 161.566 30.7778C162.455 31.5778 163.7 31.9778 165.3 31.9778C166.87 31.9778 168.011 31.7111 168.722 31.1778C169.463 30.6148 169.951 29.963 170.188 29.2222H175.522C175.285 30.2593 174.914 31.2222 174.411 32.1111C173.907 33 173.24 33.7704 172.411 34.4222C171.581 35.0741 170.574 35.5926 169.388 35.9778C168.203 36.3333 166.84 36.5111 165.3 36.5111ZM165.3 18.0222C163.788 18.0222 162.603 18.3926 161.744 19.1333C160.885 19.8741 160.337 21.0444 160.1 22.6444H170.5C170.292 20.9852 169.744 19.8 168.855 19.0889C167.996 18.3778 166.811 18.0222 165.3 18.0222Z" fill="black"/>
<path d="M186.812 36.1111C184.472 36.1111 182.664 35.4889 181.39 34.2444C180.146 32.9704 179.524 31.1482 179.524 28.7778V5H184.679V28.2444C184.679 29.4 184.931 30.2444 185.435 30.7778C185.938 31.3111 186.709 31.5778 187.746 31.5778H188.857V36.1111H186.812Z" fill="black"/>
<path d="M200.642 36.5111C199.042 36.5111 197.605 36.2741 196.33 35.8C195.056 35.2963 193.96 34.5852 193.042 33.6667C192.123 32.7185 191.412 31.5778 190.908 30.2444C190.434 28.9111 190.197 27.4 190.197 25.7111V24.2889C190.197 22.6 190.434 21.0889 190.908 19.7556C191.412 18.4222 192.123 17.2963 193.042 16.3778C193.96 15.4296 195.056 14.7185 196.33 14.2444C197.605 13.7407 199.042 13.4889 200.642 13.4889C203.871 13.4889 206.419 14.4815 208.286 16.4667C210.153 18.4519 211.086 21.2963 211.086 25V26.7333H195.353C195.501 28.6 196.019 29.9482 196.908 30.7778C197.797 31.5778 199.042 31.9778 200.642 31.9778C202.212 31.9778 203.353 31.7111 204.064 31.1778C204.805 30.6148 205.293 29.963 205.53 29.2222H210.864C210.627 30.2593 210.256 31.2222 209.753 32.1111C209.249 33 208.582 33.7704 207.753 34.4222C206.923 35.0741 205.916 35.5926 204.73 35.9778C203.545 36.3333 202.182 36.5111 200.642 36.5111ZM200.642 18.0222C199.13 18.0222 197.945 18.3926 197.086 19.1333C196.227 19.8741 195.679 21.0444 195.442 22.6444H205.842C205.634 20.9852 205.086 19.8 204.197 19.0889C203.338 18.3778 202.153 18.0222 200.642 18.0222Z" fill="black"/>
<path d="M214.866 13.8889H218.91L219.31 16.3333C220.08 15.4148 221.014 14.7185 222.11 14.2444C223.236 13.7407 224.466 13.4889 225.799 13.4889C227.31 13.4889 228.643 13.8 229.799 14.4222C230.984 15.0148 231.932 15.9037 232.643 17.0889C233.414 15.9333 234.421 15.0444 235.666 14.4222C236.91 13.8 238.317 13.4889 239.888 13.4889C242.406 13.4889 244.421 14.3037 245.932 15.9333C247.443 17.563 248.199 19.9926 248.199 23.2222V36.1111H243.043V23.2222C243.043 21.563 242.658 20.3333 241.888 19.5333C241.147 18.7037 240.11 18.2889 238.777 18.2889C237.443 18.2889 236.332 18.7481 235.443 19.6667C234.554 20.5556 234.11 21.7407 234.11 23.2222V36.1111H228.954V23.2222C228.954 21.5926 228.569 20.363 227.799 19.5333C227.029 18.7037 225.991 18.2889 224.688 18.2889C223.354 18.2889 222.258 18.7185 221.399 19.5778C220.54 20.437 220.08 21.5778 220.021 23V36.1111H214.866V13.8889Z" fill="black"/>
<path d="M262.199 36.5111C260.599 36.5111 259.162 36.2741 257.888 35.8C256.614 35.2963 255.517 34.5852 254.599 33.6667C253.68 32.7185 252.969 31.5778 252.466 30.2444C251.991 28.9111 251.754 27.4 251.754 25.7111V24.2889C251.754 22.6 251.991 21.0889 252.466 19.7556C252.969 18.4222 253.68 17.2963 254.599 16.3778C255.517 15.4296 256.614 14.7185 257.888 14.2444C259.162 13.7407 260.599 13.4889 262.199 13.4889C265.429 13.4889 267.977 14.4815 269.843 16.4667C271.71 18.4519 272.643 21.2963 272.643 25V26.7333H256.91C257.058 28.6 257.577 29.9482 258.466 30.7778C259.354 31.5778 260.599 31.9778 262.199 31.9778C263.769 31.9778 264.91 31.7111 265.621 31.1778C266.362 30.6148 266.851 29.963 267.088 29.2222H272.421C272.184 30.2593 271.814 31.2222 271.31 32.1111C270.806 33 270.14 33.7704 269.31 34.4222C268.48 35.0741 267.473 35.5926 266.288 35.9778C265.103 36.3333 263.74 36.5111 262.199 36.5111ZM262.199 18.0222C260.688 18.0222 259.503 18.3926 258.643 19.1333C257.784 19.8741 257.236 21.0444 256.999 22.6444H267.399C267.191 20.9852 266.643 19.8 265.754 19.0889C264.895 18.3778 263.71 18.0222 262.199 18.0222Z" fill="black"/>
<path d="M273.756 13.8889H277.756V7.66667H282.912V13.8889H288.423V18.4222H282.912V28.2444C282.912 29.4 283.164 30.2444 283.667 30.7778C284.201 31.3111 284.986 31.5778 286.023 31.5778H288.867V36.1111H285.09C282.719 36.1111 280.897 35.4889 279.623 34.2444C278.378 32.9704 277.756 31.1482 277.756 28.7778V18.4222H273.756V13.8889Z" fill="black"/>
<path d="M291.772 13.8889H295.816L296.216 16.3778C296.987 15.4296 297.935 14.7185 299.061 14.2444C300.216 13.7407 301.49 13.4889 302.883 13.4889H305.105V18.2889H302.883C300.838 18.2889 299.327 18.7333 298.35 19.6222C297.401 20.5111 296.927 21.7111 296.927 23.2222V36.1111H291.772V13.8889Z" fill="black"/>
<path d="M315.124 36.1111L306.19 13.8889H311.79L317.835 29.8L323.524 13.8889H328.857L317.079 45H311.746L315.124 36.1111Z" fill="black"/>
</svg>
