<svg viewBox="0 0 372 50" fill="none" xmlns="http://www.w3.org/2000/svg">
<g clip-path="url(#clip0)">
<path d="M103.261 6.92188L94.6272 35.9229C94.3321 36.956 93.6532 37.4726 92.5905 37.4726H87.3659C86.8936 37.4726 86.4656 37.3397 86.0819 37.0741C85.7277 36.7789 85.4915 36.3952 85.3735 35.9229L76.6953 6.92188H82.407L88.6499 29.857C88.7385 30.2112 88.8713 30.7868 89.0484 31.5838C89.2255 32.3513 89.3584 32.9121 89.4469 33.2663H90.5538C90.7309 32.3217 91.0113 31.1853 91.3951 29.857L97.5495 6.92188H103.261Z" fill="black"/>
<path d="M125.339 15.7771V37.4726H121.088L120.69 34.5503C117.62 36.8822 114.594 38.0482 111.613 38.0482C107.599 38.0482 105.592 36.041 105.592 32.0266V15.7771H110.993V30.4326C110.964 31.5838 111.141 32.3808 111.525 32.8235C111.908 33.2663 112.617 33.4877 113.65 33.4877C115.126 33.4877 117.236 32.6907 119.981 31.0968V15.7771H125.339Z" fill="black"/>
<path d="M144.958 28.8829H136.102C136.309 30.7721 136.84 32.0413 137.696 32.6907C138.552 33.3106 139.954 33.6205 141.903 33.6205C144.116 33.6205 146.714 33.4434 149.695 33.0892L150.182 36.5428C148.146 37.5168 145.164 38.0039 141.238 38.0039C137.313 38.0039 134.523 37.1331 132.87 35.3916C131.217 33.65 130.391 30.713 130.391 26.5806C130.391 22.3596 131.203 19.4078 132.826 17.7253C134.449 16.0133 137.136 15.1573 140.884 15.1573C144.338 15.1573 146.847 15.7919 148.411 17.0612C149.976 18.3009 150.758 20.1753 150.758 22.6843C150.758 26.8167 148.824 28.8829 144.958 28.8829ZM136.014 25.1195H143.452C144.751 25.1195 145.4 24.2782 145.4 22.5957C145.4 21.415 145.091 20.5885 144.471 20.1162C143.851 19.6439 142.729 19.4078 141.106 19.4078C139.217 19.4078 137.903 19.8063 137.165 20.6033C136.457 21.3707 136.073 22.8761 136.014 25.1195Z" fill="black"/>
<path d="M189.945 11.6593H180.514V37.4725H174.935V11.6593H165.593V6.92177H189.945V11.6593Z" fill="#0BDCA0"/>
<path d="M202.713 28.8828H193.858C194.064 30.772 194.596 32.0412 195.452 32.6906C196.308 33.3105 197.71 33.6204 199.658 33.6204C201.872 33.6204 204.469 33.4433 207.451 33.0891L207.938 36.5427C205.901 37.5167 202.92 38.0038 198.994 38.0038C195.068 38.0038 192.279 37.133 190.626 35.3915C188.973 33.6499 188.146 30.7129 188.146 26.5805C188.146 22.3595 188.958 19.4077 190.581 17.7252C192.205 16.0132 194.891 15.1572 198.64 15.1572C202.093 15.1572 204.602 15.7918 206.167 17.0611C207.731 18.3008 208.513 20.1752 208.513 22.6842C208.513 26.8166 206.58 28.8828 202.713 28.8828ZM193.769 25.1194H201.208C202.506 25.1194 203.156 24.2781 203.156 22.5956C203.156 21.4149 202.846 20.5884 202.226 20.1161C201.606 19.6438 200.484 19.4077 198.861 19.4077C196.972 19.4077 195.658 19.8062 194.92 20.6032C194.212 21.3706 193.828 22.876 193.769 25.1194Z" fill="#0BDCA0"/>
<path d="M218.823 6.479V30.6982C218.793 31.5542 218.985 32.1888 219.399 32.6021C219.841 33.0153 220.505 33.2219 221.391 33.2219H223.251L223.87 37.2068C222.867 37.7086 221.332 37.9595 219.266 37.9595C217.465 37.9595 216.034 37.4429 214.971 36.4098C213.938 35.3767 213.421 33.9156 213.421 32.0265V6.479H218.823Z" fill="#0BDCA0"/>
<path d="M240.893 28.8828H232.037C232.244 30.772 232.775 32.0412 233.631 32.6906C234.487 33.3105 235.889 33.6204 237.838 33.6204C240.051 33.6204 242.649 33.4433 245.63 33.0891L246.117 36.5427C244.081 37.5167 241.099 38.0038 237.173 38.0038C233.248 38.0038 230.458 37.133 228.805 35.3915C227.152 33.6499 226.326 30.7129 226.326 26.5805C226.326 22.3595 227.137 19.4077 228.761 17.7252C230.384 16.0132 233.071 15.1572 236.819 15.1572C240.273 15.1572 242.782 15.7918 244.346 17.0611C245.911 18.3008 246.693 20.1752 246.693 22.6842C246.693 26.8166 244.759 28.8828 240.893 28.8828ZM231.949 25.1194H239.387C240.686 25.1194 241.335 24.2781 241.335 22.5956C241.335 21.4149 241.025 20.5884 240.406 20.1161C239.786 19.6438 238.664 19.4077 237.041 19.4077C235.152 19.4077 233.838 19.8062 233.1 20.6032C232.392 21.3706 232.008 22.876 231.949 25.1194Z" fill="#0BDCA0"/>
<path d="M255.94 15.777L256.25 18.9649C259.143 16.4264 261.976 15.1572 264.751 15.1572C267.673 15.1572 269.518 16.3674 270.286 18.7878C273.001 16.3674 275.746 15.1572 278.521 15.1572C280.44 15.1572 281.901 15.6737 282.904 16.7068C283.908 17.74 284.41 19.2306 284.41 21.1788V37.4725H279.141V22.817C279.111 21.6953 278.905 20.8983 278.521 20.4261C278.137 19.9538 277.444 19.7176 276.44 19.7176C275.584 19.7176 274.772 19.8947 274.005 20.249C273.267 20.6032 272.13 21.2968 270.596 22.3299V37.4725H265.415V22.817C265.445 21.6658 265.238 20.8688 264.795 20.4261C264.382 19.9538 263.688 19.7176 262.714 19.7176C261.888 19.7176 261.091 19.8947 260.323 20.249C259.556 20.6032 258.42 21.2821 256.914 22.2857V37.4725H251.557V15.777H255.94Z" fill="#0BDCA0"/>
<path d="M303.891 28.8828H295.036C295.243 30.772 295.774 32.0412 296.63 32.6906C297.486 33.3105 298.888 33.6204 300.836 33.6204C303.05 33.6204 305.648 33.4433 308.629 33.0891L309.116 36.5427C307.079 37.5167 304.098 38.0038 300.172 38.0038C296.246 38.0038 293.457 37.133 291.804 35.3915C290.151 33.6499 289.324 30.7129 289.324 26.5805C289.324 22.3595 290.136 19.4077 291.76 17.7252C293.383 16.0132 296.069 15.1572 299.818 15.1572C303.271 15.1572 305.78 15.7918 307.345 17.0611C308.909 18.3008 309.692 20.1752 309.692 22.6842C309.692 26.8166 307.758 28.8828 303.891 28.8828ZM294.948 25.1194H302.386C303.685 25.1194 304.334 24.2781 304.334 22.5956C304.334 21.4149 304.024 20.5884 303.404 20.1161C302.784 19.6438 301.663 19.4077 300.039 19.4077C298.15 19.4077 296.837 19.8062 296.099 20.6032C295.39 21.3706 295.007 22.876 294.948 25.1194Z" fill="#0BDCA0"/>
<path d="M321.772 19.6734V30.6982C321.772 31.6427 321.964 32.3069 322.348 32.6906C322.732 33.0448 323.411 33.2219 324.385 33.2219H327.351L327.927 37.2068C326.362 37.7086 324.503 37.9595 322.348 37.9595C320.459 37.9595 318.998 37.4134 317.965 36.3213C316.961 35.2291 316.459 33.6647 316.459 31.628V19.6734H312.519V15.9984L316.415 15.777V9.53407H321.772V15.777H328.148V19.6734H321.772Z" fill="#0BDCA0"/>
<path d="M346.983 15.1572L346.407 20.2047H344.858C343.323 20.2047 340.932 20.8541 337.685 22.1528V37.4725H332.283V15.777H336.489L336.977 18.9649C340.076 16.4264 343.057 15.1572 345.92 15.1572H346.983Z" fill="#0BDCA0"/>
<path d="M371.162 15.777L363.103 38.1366C362.247 40.5866 360.934 42.6233 359.163 44.2467C357.392 45.8702 355.06 46.6081 352.167 46.4606L351.724 43.0513C353.436 42.579 354.794 41.9296 355.798 41.1031C356.801 40.3061 357.569 39.2583 358.1 37.9595L358.322 37.4725H357.259C356.285 37.4725 355.68 37.0297 355.444 36.1442L348.094 15.777H353.805L358.543 30.6982C358.838 31.6132 359.074 32.5725 359.251 33.5761H359.871C359.989 33.2219 360.137 32.7201 360.314 32.0707C360.521 31.4214 360.668 30.9638 360.757 30.6982L365.406 15.777H371.162Z" fill="#0BDCA0"/>
<path fill-rule="evenodd" clip-rule="evenodd" d="M30.0497 15.8384L20.9054 0L2.51128 31.8595C-1.99915 39.6718 3.6389 49.4372 12.6598 49.4372H49.4479L39.9338 32.9581H20.1656L30.0497 15.8384Z" fill="black"/>
<path fill-rule="evenodd" clip-rule="evenodd" d="M58.2436 32.9581L39.2152 0L30.0815 15.82L39.9763 32.9581L58.2436 32.9581Z" fill="#0BDCA0"/>
</g>
<defs>
<clipPath id="clip0">
<rect width="370.238" height="49.4373" fill="white" transform="translate(0.923828)"/>
</clipPath>
</defs>
</svg>
