<svg viewBox="0 0 348 50" fill="none" xmlns="http://www.w3.org/2000/svg">
<g clip-path="url(#clip0)">
<path d="M20.3245 29.6106L16.4007 36.4072L4.62939 16.0176H12.4769L20.3245 29.6106Z" fill="#09C38D"/>
<path d="M26.7704 0L22.8467 6.79652H30.6942L34.618 0H26.7704Z" fill="#0BDCA0"/>
<path d="M30.6946 6.79652L36.0197 16.0174L32.0959 22.8139L16.4009 50H24.2484L36.0197 29.6104L39.9435 22.8139L46.3897 33.9826L50.3134 27.1861L34.6184 0L30.6946 6.79652Z" fill="#09C38D"/>
<path d="M32.0957 22.8141L36.0195 16.0176H28.1719L16.4006 36.4072L4.62933 16.0176L0.705566 22.8141L16.4006 50.0002L20.3244 43.2037L32.0957 22.8141Z" fill="#0BDCA0"/>
<path d="M36.0195 29.6105L38.542 33.9827H46.3895L39.9433 22.814L36.0195 29.6105Z" fill="#07A97B"/>
<path d="M22.8467 6.79639L28.1718 16.0172H36.0193L30.6942 6.79639H22.8467Z" fill="#07A97B"/>
<path d="M63.7349 13.8888H69.3349L75.1126 30.511L80.6238 13.8888H85.9571L78.1793 36.111H71.9571L63.7349 13.8888Z" fill="#0BDCA0"/>
<path d="M96.6133 36.511C94.0059 36.511 91.9467 35.711 90.4356 34.111C88.9244 32.4814 88.1689 30.0369 88.1689 26.7777V13.8888H93.3244V26.7777C93.3244 28.4073 93.7096 29.6369 94.48 30.4665C95.2504 31.2962 96.2578 31.711 97.5022 31.711C99.0133 31.711 100.213 31.2814 101.102 30.4221C102.021 29.5628 102.51 28.4221 102.569 26.9999V13.8888H107.724V36.111H103.68L103.28 33.6665C102.48 34.5851 101.517 35.2962 100.391 35.7999C99.2652 36.274 98.0059 36.511 96.6133 36.511Z" fill="#0BDCA0"/>
<path d="M121.966 36.511C120.366 36.511 118.929 36.274 117.655 35.7999C116.381 35.2962 115.284 34.5851 114.366 33.6665C113.447 32.7184 112.736 31.5777 112.232 30.2443C111.758 28.911 111.521 27.3999 111.521 25.711V24.2888C111.521 22.5999 111.758 21.0888 112.232 19.7554C112.736 18.4221 113.447 17.2962 114.366 16.3777C115.284 15.4295 116.381 14.7184 117.655 14.2443C118.929 13.7406 120.366 13.4888 121.966 13.4888C125.195 13.4888 127.744 14.4814 129.61 16.4665C131.477 18.4517 132.41 21.2962 132.41 24.9999V26.7332H116.677C116.825 28.5999 117.344 29.948 118.232 30.7777C119.121 31.5777 120.366 31.9777 121.966 31.9777C123.536 31.9777 124.677 31.711 125.388 31.1777C126.129 30.6147 126.618 29.9628 126.855 29.2221H132.188C131.951 30.2591 131.581 31.2221 131.077 32.111C130.573 32.9999 129.907 33.7703 129.077 34.4221C128.247 35.074 127.24 35.5925 126.055 35.9777C124.869 36.3332 123.507 36.511 121.966 36.511ZM121.966 18.0221C120.455 18.0221 119.269 18.3925 118.41 19.1332C117.551 19.874 117.003 21.0443 116.766 22.6443H127.166C126.958 20.9851 126.41 19.7999 125.521 19.0888C124.662 18.3777 123.477 18.0221 121.966 18.0221Z" fill="#0BDCA0"/>
<path d="M134.254 13.8889H138.254V7.66667H143.409V13.8889H148.921V18.4222H143.409V28.2444C143.409 29.4 143.661 30.2444 144.165 30.7778C144.698 31.3111 145.484 31.5778 146.521 31.5778H149.365V36.1111H145.587C143.217 36.1111 141.395 35.4889 140.121 34.2444C138.876 32.9704 138.254 31.1482 138.254 28.7778V18.4222H134.254V13.8889Z" fill="black"/>
<path d="M161.381 36.5111C159.781 36.5111 158.344 36.2741 157.07 35.8C155.795 35.2963 154.699 34.5852 153.781 33.6667C152.862 32.7185 152.151 31.5778 151.647 30.2444C151.173 28.9111 150.936 27.4 150.936 25.7111V24.2889C150.936 22.6 151.173 21.0889 151.647 19.7556C152.151 18.4222 152.862 17.2963 153.781 16.3778C154.699 15.4296 155.795 14.7185 157.07 14.2444C158.344 13.7407 159.781 13.4889 161.381 13.4889C164.61 13.4889 167.158 14.4815 169.025 16.4667C170.892 18.4519 171.825 21.2963 171.825 25V26.7333H156.092C156.24 28.6 156.758 29.9482 157.647 30.7778C158.536 31.5778 159.781 31.9778 161.381 31.9778C162.951 31.9778 164.092 31.7111 164.803 31.1778C165.544 30.6148 166.032 29.963 166.27 29.2222H171.603C171.366 30.2593 170.995 31.2222 170.492 32.1111C169.988 33 169.321 33.7704 168.492 34.4222C167.662 35.0741 166.655 35.5926 165.47 35.9778C164.284 36.3333 162.921 36.5111 161.381 36.5111ZM161.381 18.0222C159.87 18.0222 158.684 18.3926 157.825 19.1333C156.966 19.8741 156.418 21.0444 156.181 22.6444H166.581C166.373 20.9852 165.825 19.8 164.936 19.0889C164.077 18.3778 162.892 18.0222 161.381 18.0222Z" fill="black"/>
<path d="M182.893 36.1111C180.553 36.1111 178.745 35.4889 177.471 34.2444C176.227 32.9704 175.605 31.1482 175.605 28.7778V5H180.76V28.2444C180.76 29.4 181.012 30.2444 181.516 30.7778C182.019 31.3111 182.79 31.5778 183.827 31.5778H184.938V36.1111H182.893Z" fill="black"/>
<path d="M196.723 36.5111C195.123 36.5111 193.686 36.2741 192.412 35.8C191.137 35.2963 190.041 34.5852 189.123 33.6667C188.204 32.7185 187.493 31.5778 186.989 30.2444C186.515 28.9111 186.278 27.4 186.278 25.7111V24.2889C186.278 22.6 186.515 21.0889 186.989 19.7556C187.493 18.4222 188.204 17.2963 189.123 16.3778C190.041 15.4296 191.137 14.7185 192.412 14.2444C193.686 13.7407 195.123 13.4889 196.723 13.4889C199.952 13.4889 202.5 14.4815 204.367 16.4667C206.234 18.4519 207.167 21.2963 207.167 25V26.7333H191.434C191.582 28.6 192.1 29.9482 192.989 30.7778C193.878 31.5778 195.123 31.9778 196.723 31.9778C198.293 31.9778 199.434 31.7111 200.145 31.1778C200.886 30.6148 201.375 29.963 201.612 29.2222H206.945C206.708 30.2593 206.337 31.2222 205.834 32.1111C205.33 33 204.663 33.7704 203.834 34.4222C203.004 35.0741 201.997 35.5926 200.812 35.9778C199.626 36.3333 198.263 36.5111 196.723 36.5111ZM196.723 18.0222C195.212 18.0222 194.026 18.3926 193.167 19.1333C192.308 19.8741 191.76 21.0444 191.523 22.6444H201.923C201.715 20.9852 201.167 19.8 200.278 19.0889C199.419 18.3778 198.234 18.0222 196.723 18.0222Z" fill="black"/>
<path d="M210.947 13.8889H214.991L215.391 16.3333C216.161 15.4148 217.095 14.7185 218.191 14.2444C219.317 13.7407 220.547 13.4889 221.88 13.4889C223.391 13.4889 224.724 13.8 225.88 14.4222C227.065 15.0148 228.013 15.9037 228.724 17.0889C229.495 15.9333 230.502 15.0444 231.747 14.4222C232.991 13.8 234.398 13.4889 235.969 13.4889C238.487 13.4889 240.502 14.3037 242.013 15.9333C243.524 17.563 244.28 19.9926 244.28 23.2222V36.1111H239.124V23.2222C239.124 21.563 238.739 20.3333 237.969 19.5333C237.228 18.7037 236.191 18.2889 234.858 18.2889C233.524 18.2889 232.413 18.7481 231.524 19.6667C230.636 20.5556 230.191 21.7407 230.191 23.2222V36.1111H225.036V23.2222C225.036 21.5926 224.65 20.363 223.88 19.5333C223.11 18.7037 222.073 18.2889 220.769 18.2889C219.436 18.2889 218.339 18.7185 217.48 19.5778C216.621 20.437 216.161 21.5778 216.102 23V36.1111H210.947V13.8889Z" fill="black"/>
<path d="M258.28 36.5111C256.68 36.5111 255.243 36.2741 253.969 35.8C252.695 35.2963 251.598 34.5852 250.68 33.6667C249.761 32.7185 249.05 31.5778 248.547 30.2444C248.073 28.9111 247.836 27.4 247.836 25.7111V24.2889C247.836 22.6 248.073 21.0889 248.547 19.7556C249.05 18.4222 249.761 17.2963 250.68 16.3778C251.598 15.4296 252.695 14.7185 253.969 14.2444C255.243 13.7407 256.68 13.4889 258.28 13.4889C261.51 13.4889 264.058 14.4815 265.924 16.4667C267.791 18.4519 268.724 21.2963 268.724 25V26.7333H252.991C253.139 28.6 253.658 29.9482 254.547 30.7778C255.436 31.5778 256.68 31.9778 258.28 31.9778C259.85 31.9778 260.991 31.7111 261.702 31.1778C262.443 30.6148 262.932 29.963 263.169 29.2222H268.502C268.265 30.2593 267.895 31.2222 267.391 32.1111C266.887 33 266.221 33.7704 265.391 34.4222C264.561 35.0741 263.554 35.5926 262.369 35.9778C261.184 36.3333 259.821 36.5111 258.28 36.5111ZM258.28 18.0222C256.769 18.0222 255.584 18.3926 254.724 19.1333C253.865 19.8741 253.317 21.0444 253.08 22.6444H263.48C263.273 20.9852 262.724 19.8 261.836 19.0889C260.976 18.3778 259.791 18.0222 258.28 18.0222Z" fill="black"/>
<path d="M269.837 13.8889H273.837V7.66667H278.993V13.8889H284.504V18.4222H278.993V28.2444C278.993 29.4 279.245 30.2444 279.748 30.7778C280.282 31.3111 281.067 31.5778 282.104 31.5778H284.948V36.1111H281.171C278.8 36.1111 276.978 35.4889 275.704 34.2444C274.459 32.9704 273.837 31.1482 273.837 28.7778V18.4222H269.837V13.8889Z" fill="black"/>
<path d="M287.853 13.8889H291.897L292.297 16.3778C293.068 15.4296 294.016 14.7185 295.142 14.2444C296.297 13.7407 297.571 13.4889 298.964 13.4889H301.186V18.2889H298.964C296.92 18.2889 295.408 18.7333 294.431 19.6222C293.482 20.5111 293.008 21.7111 293.008 23.2222V36.1111H287.853V13.8889Z" fill="black"/>
<path d="M311.205 36.1111L302.271 13.8889H307.871L313.916 29.8L319.605 13.8889H324.938L313.16 45H307.827L311.205 36.1111Z" fill="black"/>
</g>
<defs>
<clipPath id="clip0">
<rect width="346.642" height="50" fill="white" transform="translate(0.705566)"/>
</clipPath>
</defs>
</svg>
