<svg viewBox="0 0 354 50" fill="none" xmlns="http://www.w3.org/2000/svg">
<g clip-path="url(#clip0)">
<path d="M62.8875 1.77873C62.5833 1.23908 62.1412 0.789971 61.6063 0.47742C61.0715 0.164868 60.4632 0.000105661 59.8437 6.80679e-06H44.9255C44.32 0.000358503 43.7249 0.158044 43.1987 0.45761C42.6725 0.757177 42.2331 1.18834 41.9237 1.70884L32.1774 18.0983L22.826 1.74728C22.5187 1.21503 22.0764 0.773233 21.5439 0.466462C21.0113 0.159691 20.4073 -0.00120607 19.7927 6.80679e-06H4.20352C3.58981 -0.000591481 2.98677 0.160443 2.45505 0.46691C1.92334 0.773377 1.48171 1.21446 1.1746 1.7458C0.867483 2.27714 0.705716 2.87999 0.705567 3.4937C0.705417 4.10741 0.866894 4.71034 1.17375 5.24183L26.9915 50L31.157 43.2311L10.2491 6.9891H17.7659L31.5344 31.0421C32.3219 32.4114 33.4528 33.5517 34.8155 34.3506C36.1782 35.1495 37.7256 35.5793 39.3051 35.5977C40.8846 35.616 42.4416 35.2223 43.8224 34.4552C45.2033 33.6882 46.3604 32.5745 47.1795 31.2238L62.8351 5.30124C63.155 4.77134 63.3284 4.16598 63.3376 3.54707C63.3468 2.92816 63.1915 2.31791 62.8875 1.77873ZM41.1968 27.6069C41.0066 27.9151 40.7399 28.1688 40.4225 28.3432C40.1052 28.5177 39.7481 28.607 39.386 28.6024C39.0239 28.5978 38.6692 28.4995 38.3563 28.3171C38.0435 28.1347 37.7832 27.8744 37.6009 27.5615L36.1647 25.0594L46.9139 6.9891H53.6514L41.1968 27.6069Z" fill="#0BDCA0"/>
<path d="M73.8794 13.8888H79.4794L85.2572 30.511L90.7683 13.8888H96.1016L88.3238 36.111H82.1016L73.8794 13.8888Z" fill="#0BDCA0"/>
<path d="M106.758 36.511C104.15 36.511 102.091 35.711 100.58 34.111C99.069 32.4814 98.3134 30.0369 98.3134 26.7777V13.8888H103.469V26.7777C103.469 28.4073 103.854 29.6369 104.625 30.4665C105.395 31.2962 106.402 31.711 107.647 31.711C109.158 31.711 110.358 31.2814 111.247 30.4221C112.165 29.5628 112.654 28.4221 112.713 26.9999V13.8888H117.869V36.111H113.825L113.425 33.6665C112.625 34.5851 111.662 35.2962 110.536 35.7999C109.41 36.274 108.15 36.511 106.758 36.511Z" fill="#0BDCA0"/>
<path d="M132.11 36.511C130.51 36.511 129.073 36.274 127.799 35.7999C126.525 35.2962 125.429 34.5851 124.51 33.6665C123.592 32.7184 122.881 31.5777 122.377 30.2443C121.903 28.911 121.666 27.3999 121.666 25.711V24.2888C121.666 22.5999 121.903 21.0888 122.377 19.7554C122.881 18.4221 123.592 17.2962 124.51 16.3777C125.429 15.4295 126.525 14.7184 127.799 14.2443C129.073 13.7406 130.51 13.4888 132.11 13.4888C135.34 13.4888 137.888 14.4814 139.755 16.4665C141.621 18.4517 142.555 21.2962 142.555 24.9999V26.7332H126.821C126.97 28.5999 127.488 29.948 128.377 30.7777C129.266 31.5777 130.51 31.9777 132.11 31.9777C133.681 31.9777 134.821 31.711 135.533 31.1777C136.273 30.6147 136.762 29.9628 136.999 29.2221H142.333C142.095 30.2591 141.725 31.2221 141.221 32.111C140.718 32.9999 140.051 33.7703 139.221 34.4221C138.392 35.074 137.384 35.5925 136.199 35.9777C135.014 36.3332 133.651 36.511 132.11 36.511ZM132.11 18.0221C130.599 18.0221 129.414 18.3925 128.555 19.1332C127.695 19.874 127.147 21.0443 126.91 22.6443H137.31C137.103 20.9851 136.555 19.7999 135.666 19.0888C134.807 18.3777 133.621 18.0221 132.11 18.0221Z" fill="#0BDCA0"/>
<path d="M144.398 13.8889H148.398V7.66667H153.554V13.8889H159.065V18.4222H153.554V28.2444C153.554 29.4 153.806 30.2444 154.31 30.7778C154.843 31.3111 155.628 31.5778 156.665 31.5778H159.51V36.1111H155.732C153.361 36.1111 151.539 35.4889 150.265 34.2444C149.021 32.9704 148.398 31.1482 148.398 28.7778V18.4222H144.398V13.8889Z" fill="black"/>
<path d="M171.525 36.5111C169.925 36.5111 168.488 36.2741 167.214 35.8C165.94 35.2963 164.844 34.5852 163.925 33.6667C163.007 32.7185 162.296 31.5778 161.792 30.2444C161.318 28.9111 161.081 27.4 161.081 25.7111V24.2889C161.081 22.6 161.318 21.0889 161.792 19.7556C162.296 18.4222 163.007 17.2963 163.925 16.3778C164.844 15.4296 165.94 14.7185 167.214 14.2444C168.488 13.7407 169.925 13.4889 171.525 13.4889C174.755 13.4889 177.303 14.4815 179.17 16.4667C181.036 18.4519 181.97 21.2963 181.97 25V26.7333H166.236C166.384 28.6 166.903 29.9482 167.792 30.7778C168.681 31.5778 169.925 31.9778 171.525 31.9778C173.096 31.9778 174.236 31.7111 174.947 31.1778C175.688 30.6148 176.177 29.963 176.414 29.2222H181.747C181.51 30.2593 181.14 31.2222 180.636 32.1111C180.133 33 179.466 33.7704 178.636 34.4222C177.807 35.0741 176.799 35.5926 175.614 35.9778C174.429 36.3333 173.066 36.5111 171.525 36.5111ZM171.525 18.0222C170.014 18.0222 168.829 18.3926 167.97 19.1333C167.11 19.8741 166.562 21.0444 166.325 22.6444H176.725C176.518 20.9852 175.97 19.8 175.081 19.0889C174.221 18.3778 173.036 18.0222 171.525 18.0222Z" fill="black"/>
<path d="M193.038 36.1111C190.697 36.1111 188.89 35.4889 187.616 34.2444C186.371 32.9704 185.749 31.1482 185.749 28.7778V5H190.905V28.2444C190.905 29.4 191.157 30.2444 191.66 30.7778C192.164 31.3111 192.934 31.5778 193.971 31.5778H195.082V36.1111H193.038Z" fill="black"/>
<path d="M206.867 36.5111C205.267 36.5111 203.83 36.2741 202.556 35.8C201.282 35.2963 200.186 34.5852 199.267 33.6667C198.349 32.7185 197.638 31.5778 197.134 30.2444C196.66 28.9111 196.423 27.4 196.423 25.7111V24.2889C196.423 22.6 196.66 21.0889 197.134 19.7556C197.638 18.4222 198.349 17.2963 199.267 16.3778C200.186 15.4296 201.282 14.7185 202.556 14.2444C203.83 13.7407 205.267 13.4889 206.867 13.4889C210.097 13.4889 212.645 14.4815 214.512 16.4667C216.378 18.4519 217.312 21.2963 217.312 25V26.7333H201.578C201.726 28.6 202.245 29.9482 203.134 30.7778C204.023 31.5778 205.267 31.9778 206.867 31.9778C208.438 31.9778 209.578 31.7111 210.289 31.1778C211.03 30.6148 211.519 29.963 211.756 29.2222H217.089C216.852 30.2593 216.482 31.2222 215.978 32.1111C215.475 33 214.808 33.7704 213.978 34.4222C213.149 35.0741 212.141 35.5926 210.956 35.9778C209.771 36.3333 208.408 36.5111 206.867 36.5111ZM206.867 18.0222C205.356 18.0222 204.171 18.3926 203.312 19.1333C202.452 19.8741 201.904 21.0444 201.667 22.6444H212.067C211.86 20.9852 211.312 19.8 210.423 19.0889C209.563 18.3778 208.378 18.0222 206.867 18.0222Z" fill="black"/>
<path d="M221.091 13.8889H225.136L225.536 16.3333C226.306 15.4148 227.239 14.7185 228.336 14.2444C229.462 13.7407 230.691 13.4889 232.024 13.4889C233.536 13.4889 234.869 13.8 236.024 14.4222C237.21 15.0148 238.158 15.9037 238.869 17.0889C239.639 15.9333 240.647 15.0444 241.891 14.4222C243.136 13.8 244.543 13.4889 246.113 13.4889C248.632 13.4889 250.647 14.3037 252.158 15.9333C253.669 17.563 254.424 19.9926 254.424 23.2222V36.1111H249.269V23.2222C249.269 21.563 248.884 20.3333 248.113 19.5333C247.373 18.7037 246.336 18.2889 245.002 18.2889C243.669 18.2889 242.558 18.7481 241.669 19.6667C240.78 20.5556 240.336 21.7407 240.336 23.2222V36.1111H235.18V23.2222C235.18 21.5926 234.795 20.363 234.024 19.5333C233.254 18.7037 232.217 18.2889 230.913 18.2889C229.58 18.2889 228.484 18.7185 227.624 19.5778C226.765 20.437 226.306 21.5778 226.247 23V36.1111H221.091V13.8889Z" fill="black"/>
<path d="M268.424 36.5111C266.824 36.5111 265.387 36.2741 264.113 35.8C262.839 35.2963 261.743 34.5852 260.824 33.6667C259.906 32.7185 259.195 31.5778 258.691 30.2444C258.217 28.9111 257.98 27.4 257.98 25.7111V24.2889C257.98 22.6 258.217 21.0889 258.691 19.7556C259.195 18.4222 259.906 17.2963 260.824 16.3778C261.743 15.4296 262.839 14.7185 264.113 14.2444C265.387 13.7407 266.824 13.4889 268.424 13.4889C271.654 13.4889 274.202 14.4815 276.069 16.4667C277.936 18.4519 278.869 21.2963 278.869 25V26.7333H263.136C263.284 28.6 263.802 29.9482 264.691 30.7778C265.58 31.5778 266.824 31.9778 268.424 31.9778C269.995 31.9778 271.136 31.7111 271.847 31.1778C272.587 30.6148 273.076 29.963 273.313 29.2222H278.647C278.41 30.2593 278.039 31.2222 277.536 32.1111C277.032 33 276.365 33.7704 275.536 34.4222C274.706 35.0741 273.699 35.5926 272.513 35.9778C271.328 36.3333 269.965 36.5111 268.424 36.5111ZM268.424 18.0222C266.913 18.0222 265.728 18.3926 264.869 19.1333C264.01 19.8741 263.462 21.0444 263.224 22.6444H273.624C273.417 20.9852 272.869 19.8 271.98 19.0889C271.121 18.3778 269.936 18.0222 268.424 18.0222Z" fill="black"/>
<path d="M279.982 13.8889H283.982V7.66667H289.137V13.8889H294.648V18.4222H289.137V28.2444C289.137 29.4 289.389 30.2444 289.893 30.7778C290.426 31.3111 291.211 31.5778 292.248 31.5778H295.093V36.1111H291.315C288.945 36.1111 287.123 35.4889 285.848 34.2444C284.604 32.9704 283.982 31.1482 283.982 28.7778V18.4222H279.982V13.8889Z" fill="black"/>
<path d="M297.997 13.8889H302.042L302.442 16.3778C303.212 15.4296 304.16 14.7185 305.286 14.2444C306.442 13.7407 307.716 13.4889 309.109 13.4889H311.331V18.2889H309.109C307.064 18.2889 305.553 18.7333 304.575 19.6222C303.627 20.5111 303.153 21.7111 303.153 23.2222V36.1111H297.997V13.8889Z" fill="black"/>
<path d="M321.349 36.1111L312.416 13.8889H318.016L324.06 29.8L329.749 13.8889H335.082L323.305 45H317.971L321.349 36.1111Z" fill="black"/>
</g>
<defs>
<clipPath id="clip0">
<rect width="353.155" height="50" fill="white" transform="translate(0.705566)"/>
</clipPath>
</defs>
</svg>
