<svg width="156" height="144">
  <g opacity=".9">
    <path
      opacity=".9"
      d="M41.134 94.582c8.211 0 14.867-6.503 14.867-14.524 0-8.02-6.656-14.523-14.867-14.523-8.21 0-14.866 6.502-14.866 14.523s6.656 14.524 14.866 14.524z"
      fill="#8B8B8B"
      fill-opacity="0.31"
    />
    <g opacity=".9">
      <path
        opacity=".9"
        d="M44.77 80.12c0-.938.786-1.698 1.756-1.698h2.562c.97 0 1.78.76 1.78 1.698 0 .937-.81 1.698-1.78 1.698h-2.562c-.97 0-1.755-.76-1.755-1.698zM39.4 80.123c0-.94.782-1.701 1.745-1.701.963 0 1.745.76 1.745 1.701 0 .941-.782 1.701-1.745 1.701-.963 0-1.745-.763-1.745-1.7z"
        fill="#fff"
      />
      <path
        opacity=".9"
        fill-rule="evenodd"
        clip-rule="evenodd"
        d="M42.842 72.173c.038.917-.691 1.688-1.63 1.725-4.052.164-6.522 3.263-6.404 6.201a1.663 1.663 0 01-1.616 1.725c-.938.038-1.762-.702-1.8-1.619-.196-4.793 3.905-9.532 9.68-9.624.936-.034 1.728.678 1.77 1.592z"
        fill="#fff"
      />
      <path
        opacity=".9"
        fill-rule="evenodd"
        clip-rule="evenodd"
        d="M31.384 80.031c.024 5.792 4.893 9.618 9.82 9.498 5.814-.2 10.013-5.13 9.663-9.528-.08-.914-.91-1.623-1.85-1.579-.938.044-1.66.822-1.615 1.735.133 2.673-2.394 5.946-6.282 6.052-3.088.075-6.176-2.291-6.313-5.973a1.666 1.666 0 01-1.615 1.585c-.94.038-1.763-.702-1.801-1.62-.004-.05-.004-.108-.007-.17z"
        fill="url(#paint0_linear)"
      />
    </g>
  </g>
  <g opacity=".8">
    <path
      opacity=".8"
      d="M68.638 30.7c8.21 0 14.866-6.502 14.866-14.523S76.848 1.653 68.638 1.653c-8.211 0-14.867 6.503-14.867 14.524 0 8.02 6.656 14.523 14.867 14.523z"
      fill="#8B8B8B"
      fill-opacity="0.31"
    />
    <path
      opacity=".8"
      fill-rule="evenodd"
      clip-rule="evenodd"
      d="M63.511 14.175c.684-2.669 2.394-4.005 5.127-4.005 4.1 0 4.613 3.003 6.665 3.504 1.368.334 2.565-.167 3.588-1.503-.684 2.67-2.394 4.006-5.127 4.006-4.1 0-4.613-3.004-6.665-3.505-1.368-.334-2.565.167-3.588 1.503zm-5.127 6.008c.684-2.67 2.395-4.006 5.127-4.006 4.1 0 4.614 3.003 6.666 3.504 1.368.334 2.565-.167 3.587-1.503-.684 2.67-2.394 4.006-5.126 4.006-4.1 0-4.614-3.004-6.666-3.505-1.368-.33-2.565.17-3.587 1.504z"
      fill="#fff"
    />
  </g>
  <g opacity=".9">
    <path
      opacity=".9"
      d="M98.608 59.654c8.211 0 14.867-6.502 14.867-14.523 0-8.02-6.656-14.523-14.867-14.523-8.21 0-14.867 6.502-14.867 14.523s6.656 14.523 14.867 14.523z"
      fill="#8B8B8B"
      fill-opacity="0.31"
    />
    <g opacity=".9">
      <path
        opacity=".9"
        d="M89.608 51.656c0 1.252 1.04 2.267 2.32 2.267h13.356c1.281 0 2.321-1.016 2.321-2.267V38.61c0-1.25-1.04-2.267-2.321-2.267H91.928c-1.28 0-2.32 1.016-2.32 2.267v13.047z"
        stroke="#fff"
        stroke-miterlimit="10"
      />
      <path
        opacity=".9"
        d="M97.072 44.118V41.63h2.244c.213 0 .42.017.618.05.199.035.374.096.527.188a.989.989 0 01.366.372c.091.16.137.361.137.61 0 .447-.136.77-.412.968-.276.198-.625.297-1.054.297h-2.426v.003zm-2.397-4.309v10.644h5.28c.489 0 .963-.058 1.427-.178.465-.119.876-.303 1.236-.552.359-.249.649-.57.862-.961.213-.392.321-.856.321-1.395 0-.664-.164-1.234-.496-1.708-.331-.473-.83-.8-1.504-.992.489-.228.859-.521 1.106-.88.248-.357.374-.804.374-1.342 0-.498-.084-.914-.251-1.252a2.05 2.05 0 00-.709-.811 3.111 3.111 0 00-1.099-.44 7.004 7.004 0 00-1.42-.133h-5.127zm2.397 8.827v-2.922h2.61c.521 0 .936.116 1.254.351.314.235.474.624.474 1.17 0 .28-.049.508-.146.685-.098.177-.227.32-.391.426a1.733 1.733 0 01-.565.225 3.286 3.286 0 01-.67.068h-2.566v-.003z"
        fill="#fff"
      />
    </g>
  </g>
  <g opacity=".4">
    <path
      opacity=".4"
      d="M35.74 56.153c8.21 0 14.866-6.502 14.866-14.523S43.95 27.107 35.739 27.107c-8.21 0-14.866 6.502-14.866 14.523 0 8.02 6.656 14.523 14.866 14.523z"
      fill="#8B8B8B"
      fill-opacity="0.31"
    />
    <g opacity=".4" fill="#fff">
      <path opacity=".4" d="M35.74 32.626h-4.175l4.174 9.641" />
      <path
        opacity=".4"
        d="M35.739 32.626h4.177l-4.177 9.641M35.739 45.05v7.455l-8.906-16.988h4.666M35.739 45.05v7.455l8.906-16.988h-4.662"
      />
    </g>
  </g>
  <g opacity=".9">
    <path
      opacity=".9"
      d="M140.44 77.297c8.211 0 14.867-6.502 14.867-14.523S148.651 48.25 140.44 48.25c-8.21 0-14.866 6.502-14.866 14.523 0 8.02 6.656 14.523 14.866 14.523z"
      fill="#8B8B8B"
      fill-opacity="0.31"
    />
    <g opacity=".9" fill="#fff">
      <path
        opacity=".9"
        d="M149.273 66.575l-5.165-9.007c-.426-.733-1.525-.733-1.951 0l-.551.961.642 1.115.893-1.527 5.151 8.946h-1.835c.094.569-.408 1.128-1.127 1.128h2.969c.845-.003 1.382-.903.974-1.616z"
      />
      <path
        opacity=".9"
        d="M136.804 67.063h-4.202l6.345-11.03 2.062 3.55.6-1.05-1.804-3.13a.994.994 0 00-1.724.004l-6.477 11.311c-.38.662.122 1.473.911 1.473h5.42c-.723-.003-1.229-.56-1.131-1.128z"
      />
      <path
        opacity=".9"
        d="M146.453 67.063a.92.92 0 00-.108-.304l-4.097-7.115-.642-1.115-.6 1.05-4.094 7.18a.98.98 0 00-.108.3c-.094.57.409 1.129 1.127 1.129H145.326c.719 0 1.222-.556 1.127-1.125zm-8.473 0l3.658-6.328 3.636 6.328h-7.294z"
      />
    </g>
  </g>
  <g opacity=".8">
    <path
      opacity=".8"
      d="M125.574 119.926c8.21 0 14.866-6.502 14.866-14.523s-6.656-14.524-14.866-14.524c-8.211 0-14.867 6.503-14.867 14.524 0 8.021 6.656 14.523 14.867 14.523z"
      fill="#8B8B8B"
      fill-opacity="0.31"
    />
    <g opacity=".8">
      <path
        opacity=".8"
        d="M131.339 98.66l-5.765 9.75-5.762-9.75h-3.842l9.604 16.251 9.607-16.252h-3.842z"
        fill="#fff"
      />
      <path
        opacity=".8"
        d="M127.793 98.66l-2.219 3.753-2.22-3.754h-3.545l5.761 9.751 5.762-9.75h-3.539z"
        fill="#fff"
      />
    </g>
  </g>
  <g opacity=".7">
    <path
      opacity=".7"
      d="M44.77 142.202c8.211 0 14.867-6.503 14.867-14.524 0-8.021-6.656-14.523-14.866-14.523s-14.867 6.502-14.867 14.523 6.656 14.524 14.867 14.524z"
      fill="#8B8B8B"
      fill-opacity="0.31"
    />
    <path
      opacity=".7"
      d="M38.915 122.657l5.13-4.964 6.39 6.194-3.7 3.791 5.13 5.083-7.904 4.903-6.285-6.464 1.239-8.543z"
      fill="#fff"
    />
  </g>
  <g opacity=".9">
    <path
      opacity=".9"
      d="M133.764 39.414c6.569 0 11.894-5.202 11.894-11.619s-5.325-11.618-11.894-11.618c-6.568 0-11.893 5.201-11.893 11.618 0 6.417 5.325 11.619 11.893 11.619z"
      fill="#8B8B8B"
      fill-opacity="0.31"
    />
    <g opacity=".9">
      <path
        opacity=".9"
        d="M136.675 27.843c0-.75.628-1.36 1.406-1.36h2.049c.774 0 1.424.607 1.424 1.36 0 .75-.65 1.36-1.424 1.36h-2.049c-.778 0-1.406-.607-1.406-1.36zM132.375 27.846c0-.75.625-1.36 1.396-1.36.771 0 1.396.61 1.396 1.36 0 .75-.625 1.36-1.396 1.36-.771 0-1.396-.61-1.396-1.36z"
        fill="#fff"
      />
      <path
        opacity=".9"
        fill-rule="evenodd"
        clip-rule="evenodd"
        d="M135.13 21.488c.031.733-.552 1.35-1.302 1.38-3.242.134-5.217 2.609-5.123 4.965a1.331 1.331 0 01-1.291 1.38c-.75.031-1.41-.562-1.441-1.295-.157-3.835 3.123-7.626 7.743-7.698.747-.034 1.382.535 1.414 1.268z"
        fill="#fff"
      />
      <path
        opacity=".9"
        fill-rule="evenodd"
        clip-rule="evenodd"
        d="M125.965 27.775c.017 4.633 3.915 7.694 7.855 7.599 4.652-.164 8.009-4.105 7.73-7.623-.066-.73-.729-1.299-1.48-1.262-.75.035-1.329.659-1.294 1.392.104 2.137-1.916 4.759-5.026 4.84-2.47.059-4.941-1.834-5.049-4.776a1.332 1.332 0 01-1.292 1.268c-.75.031-1.409-.562-1.441-1.295 0-.048-.003-.095-.003-.143z"
        fill="url(#paint1_linear)"
      />
    </g>
  </g>
  <g opacity=".25">
    <path
      opacity=".25"
      d="M11.893 114.355c6.569 0 11.894-5.202 11.894-11.619 0-6.416-5.325-11.618-11.894-11.618C5.325 91.118 0 96.32 0 102.736c0 6.417 5.325 11.619 11.893 11.619z"
      fill="#8B8B8B"
      fill-opacity="0.31"
    />
    <g opacity=".25">
      <path
        opacity=".25"
        d="M16.503 97.34l-4.61 7.8-4.61-7.8H4.21l7.684 13.002 7.685-13.002h-3.075z"
        fill="#fff"
      />
      <path
        opacity=".8"
        d="M13.67 97.34l-1.777 3.003-1.776-3.003H7.28l4.61 7.8 4.61-7.8h-2.83z"
        fill="#fff"
      />
    </g>
  </g>
  <g opacity=".9">
    <path
      opacity=".9"
      d="M108.613 20.333c5.748 0 10.407-4.552 10.407-10.167C119.02 4.552 114.361 0 108.613 0c-5.747 0-10.406 4.552-10.406 10.166 0 5.615 4.659 10.167 10.406 10.167z"
      fill="#8B8B8B"
      fill-opacity="0.31"
    />
    <g opacity=".9" fill="#fff">
      <path
        opacity=".9"
        d="M108.614 3.866h-2.925l2.925 6.747M108.614 3.866h2.921l-2.921 6.747M108.614 12.56v5.222l-6.237-11.89h3.267"
      />
      <path opacity=".9" d="M108.614 12.563v5.22l6.232-11.892h-3.266" />
    </g>
  </g>
  <path
    opacity=".59"
    d="M87.152 143.04c11.617 0 21.035-4.111 21.035-9.183 0-5.071-9.418-9.182-21.035-9.182-11.618 0-21.036 4.111-21.036 9.182 0 5.072 9.418 9.183 21.036 9.183z"
    fill="#414042"
  />
  <path
    d="M60.826 119.605c.058-10.912-1.278-13.102.823-15.646.242-.291 1.473-1.781 3.452-2.118 1.576-.269 2.987.303 3.652.728 4.035 2.578 2.577 13.263-.274 19.96-.62 1.46-2.289 5.376-4.207 5.231-.786-.061-1.352-.78-1.747-1.3-1.756-2.295-1.709-5.209-1.699-6.855z"
    fill="#BCBEC0"
  />
  <path
    d="M109.67 106.309c0 .097 0 .188-.003.279a6.923 6.923 0 01-.318 1.844c-2.712 8.841-4.34 13.502-6.62 17.272a27.84 27.84 0 01-1.252 1.89 34.54 34.54 0 01-1.929 2.441c-1.576 1.826-3.956 2.653-4.726 2.941-2.808 1.057-5.288.866-6.938.881h-.287c-1.652-.018-4.129.176-6.938-.881-.766-.285-3.155-1.112-4.725-2.941-4.331-5.027-5.998-9.204-9.801-21.6a6.778 6.778 0 01-.315-1.729 6.718 6.718 0 01-.003-.718c.082-1.481.645-2.935 1.647-4.261 1.713-2.275 4.36-3.522 7.097-3.535l13.186-.057 12.948-.055a9.118 9.118 0 017.281 3.544c.858 1.117 1.406 2.323 1.608 3.565.028.175.051.357.068.533.008.187.02.387.02.587z"
    fill="#BCBEC0"
  />
  <path
    d="M87.74 98.126l-13.186.057c-2.738.013-5.382 1.26-7.098 3.535-1 1.326-1.562 2.78-1.647 4.261.068-1.52.653-3.01 1.698-4.367 1.773-2.305 4.485-3.556 7.282-3.544l12.95.058z"
    fill="url(#paint2_linear)"
  />
  <path
    d="M100.846 118.845c-.193-10.909-1.576-13.066.466-15.661.236-.297 1.431-1.82 3.399-2.208 1.571-.309 2.994.227 3.667.633 4.092 2.474 2.88 13.195.182 19.961-.588 1.475-2.164 5.434-4.087 5.34-.787-.04-1.369-.745-1.775-1.254-1.804-2.25-1.823-5.167-1.852-6.811z"
    fill="#BCBEC0"
  />
  <path
    d="M102.726 125.701a27.84 27.84 0 01-1.252 1.89c-.142-.154-.267-.312-.381-.454-1.803-2.25-1.823-5.164-1.852-6.811-.193-10.909-1.579-13.063.466-15.658.15-.194.696-.888 1.588-1.463-2.017 2.586-.642 4.761-.449 15.637.028 1.644.051 4.561 1.852 6.814.011.015.022.03.028.045z"
    fill="#414042"
  />
  <path
    d="M108.5 109.762c-.057-1.172-.264-2.035-.676-3.759-.54-2.256-1.216-3.355-.775-3.791.286-.285.849-.091.976-.049 1.934.657 2.534 4.525 2.448 6.948-.051 1.481-.389 3.14-.9 3.213a.556.556 0 01-.423-.133c-.568-.536-.605-1.539-.65-2.429zM109.826 113.899c0 .236-.179.427-.401.427-.221 0-.4-.191-.4-.427s.179-.427.4-.427c.222 0 .401.191.401.427z"
    fill="#fff"
  />
  <path
    d="M95.792 27.727l-1.553-1.616-9.953 10.877 1.553 1.616 9.953-10.877z"
    fill="#BCBEC0"
  />
  <path
    d="M97.671 28.265c-1.072 1.172-2.833 1.195-3.932.051-1.1-1.144-1.12-3.021-.048-4.194 1.072-1.172 2.833-1.195 3.932-.05 1.1 1.143 1.121 3.02.048 4.193z"
    fill="#414042"
  />
  <path
    d="M97.82 26.806a.81.81 0 01-1.2.015.946.946 0 01-.014-1.28.81.81 0 011.2-.015c.336.35.343.921.015 1.28zM93.948 39.861c-.07.01-.115-.422-.452-1.092 0 0-.159-.314-.341-.58-.584-.855-2.558-.836-2.713-.836-3.078.028-5.057-.178-5.057-.16 0 .016 1.445-.015 2.502-.037 2.983-.066 4.76-.235 5.523.617.318.353.476.814.476.814.218.626.144 1.262.062 1.274z"
    fill="#fff"
  />
  <path
    d="M92.497 46.892H77.5c-1.107 0-2.003-.955-2.003-2.136v-5.715c0-1.18.896-2.136 2.003-2.136h14.997c1.107 0 2.003.955 2.003 2.136v5.715c-.003 1.18-.898 2.136-2.003 2.136z"
    fill="#414042"
  />
  <path
    d="M118.994 80.11c0 9.231-7.018 16.716-15.675 16.716H66.676C58.054 96.826 51 89.304 51 80.11v-8.684c0-16.36 12.551-29.744 27.892-29.744h12.216C106.45 41.681 119 55.066 119 71.425v8.684h-.006z"
    fill="#BCBEC0"
  />
  <path
    d="M108.299 78.528a6.22 6.22 0 01-2.901.714H64.594a6.22 6.22 0 01-2.902-.714c-2.185-1.153-3.418-3.48-3.11-5.866l.024-.172c1.045-8.083 7.911-14.299 16.327-14.766a181.307 181.307 0 0120.043-.006c8.448.464 15.364 6.655 16.412 14.769l.024.175c.308 2.387-.928 4.713-3.113 5.866z"
    fill="#414042"
  />
  <path
    d="M74.243 77.46c4.25 0 7.694-3.673 7.694-8.205 0-4.531-3.444-8.205-7.694-8.205-4.249 0-7.694 3.674-7.694 8.205 0 4.532 3.445 8.205 7.694 8.205z"
    fill="url(#paint3_radial)"
    fill-opacity="0.3"
  />
  <path
    d="M74.243 75.146c3.05 0 5.524-2.638 5.524-5.891s-2.473-5.89-5.524-5.89c-3.05 0-5.523 2.637-5.523 5.89 0 3.253 2.472 5.89 5.523 5.89z"
    fill="#EFF8FC"
  />
  <path
    d="M74.243 74.203c2.563 0 4.64-2.215 4.64-4.948 0-2.733-2.077-4.948-4.64-4.948-2.562 0-4.64 2.215-4.64 4.948 0 2.733 2.078 4.948 4.64 4.948z"
    fill="#414042"
  />
  <path
    d="M77.215 67.974c0 1.012-.77 1.832-1.718 1.832s-1.718-.82-1.718-1.832c0-1.011.77-1.832 1.718-1.832.949-.003 1.718.818 1.718 1.832zM73.556 73.777c.378 0 .684-.326.684-.73 0-.403-.306-.73-.684-.73-.378 0-.684.328-.684.73 0 .404.306.73.684.73zM71.856 71.951c0 .2-.153.367-.344.367-.188 0-.343-.163-.343-.367 0-.2.152-.366.343-.366.191 0 .344.163.344.366z"
    fill="#EFF8FC"
  />
  <path
    d="M95.028 77.46c4.25 0 7.694-3.673 7.694-8.205 0-4.531-3.444-8.205-7.694-8.205-4.249 0-7.693 3.674-7.693 8.205 0 4.532 3.444 8.205 7.694 8.205z"
    fill="url(#paint4_radial)"
    fill-opacity="0.3"
  />
  <path
    d="M95.028 75.146c3.051 0 5.524-2.638 5.524-5.891s-2.473-5.89-5.524-5.89c-3.05 0-5.523 2.637-5.523 5.89 0 3.253 2.473 5.89 5.523 5.89z"
    fill="#EFF8FC"
  />
  <path
    d="M95.029 74.203c2.562 0 4.64-2.215 4.64-4.948 0-2.733-2.078-4.948-4.64-4.948-2.563 0-4.64 2.215-4.64 4.948 0 2.733 2.077 4.948 4.64 4.948z"
    fill="#414042"
  />
  <path
    d="M98 67.974c0 1.012-.769 1.832-1.718 1.832-.948 0-1.717-.82-1.717-1.832 0-1.011.769-1.832 1.718-1.832.948-.003 1.717.818 1.717 1.832zM94.344 73.777c.378 0 .685-.326.685-.73 0-.403-.307-.73-.685-.73-.377 0-.684.328-.684.73 0 .404.306.73.684.73zM92.644 71.951c0 .2-.153.367-.344.367-.188 0-.343-.163-.343-.367 0-.2.152-.366.343-.366.188 0 .344.163.344.366z"
    fill="#EFF8FC"
  />
  <path
    d="M108.954 51.195c.038 1.384-1.022 3.04-2.238 3.185-1.139.131-2.047-1.109-2.986-2.387-.925-1.262-2.946-4.5-2.141-5.414 1.063-1.212 7.277 1.35 7.365 4.616zM98.552 45.915c.534 0 .967-.461.967-1.03 0-.57-.433-1.03-.967-1.03-.533 0-.966.46-.966 1.03 0 .569.433 1.03.966 1.03zM108.816 70.41c-.311.236-2.473-4.465-8.278-8.54-2.041-1.43-4.056-2.451-3.935-2.749.12-.3 2.39.26 4.208 1.159 5.785 2.865 8.375 9.855 8.005 10.13z"
    fill="#fff"
  />
  <path fill="#414042" d="M76.708 85.626h16.643v3.014H76.708z" />
  <defs>
    <linearGradient
      id="paint0_linear"
      x1="41.137"
      y1="89.534"
      x2="41.137"
      y2="78.424"
      gradientUnits="userSpaceOnUse"
    >
      <stop stop-color="#fff" stop-opacity=".95" />
      <stop offset="1" stop-color="#fff" stop-opacity=".5" />
    </linearGradient>
    <linearGradient
      id="paint1_linear"
      x1="133.766"
      y1="35.376"
      x2="133.766"
      y2="26.488"
      gradientUnits="userSpaceOnUse"
    >
      <stop stop-color="#fff" stop-opacity=".95" />
      <stop offset="1" stop-color="#fff" stop-opacity=".5" />
    </linearGradient>
    <linearGradient
      id="paint2_linear"
      x1="71.915"
      y1="106.977"
      x2="93.884"
      y2="82.922"
      gradientUnits="userSpaceOnUse"
    >
      <stop offset=".04" stop-color="#44BFE2" />
      <stop offset="1" stop-color="#DCE38C" />
    </linearGradient>
    <radialGradient
      id="paint3_radial"
      cx="0"
      cy="0"
      r="1"
      gradientUnits="userSpaceOnUse"
      gradientTransform="matrix(7.61493 0 0 8.1207 74.242 69.254)"
    >
      <stop offset=".13" stop-color="#414042" />
      <stop offset="1" stop-color="#020203" />
    </radialGradient>
    <radialGradient
      id="paint4_radial"
      cx="0"
      cy="0"
      r="1"
      gradientUnits="userSpaceOnUse"
      gradientTransform="matrix(7.61493 0 0 8.1207 95.029 69.254)"
    >
      <stop offset=".13" stop-color="#414042" />
      <stop offset="1" stop-color="#020203" />
    </radialGradient>
  </defs>
</svg>