<svg viewBox="0 0 453 436" fill="none" class="block" xmlns="http://www.w3.org/2000/svg">
    <path d="M287.506 76.246a2.33 2.33 0 100-4.66 2.33 2.33 0 000 4.66zM450.622 130.743a2.33 2.33 0 100-4.661 2.33 2.33 0 000 4.661zM422.438 237.799a2.329 2.329 0 01-3.974 1.665 2.328 2.328 0 01-.511-2.541 2.333 2.333 0 012.155-1.442 2.331 2.331 0 012.33 2.318zm-149.426 12.022a2.33 2.33 0 11-2.318-2.33 2.32 2.32 0 012.145 1.439c.116.283.175.586.173.891zM393.72 351.884a2.34 2.34 0 01-1.433 2.164 2.328 2.328 0 01-2.546-.503 2.324 2.324 0 01-.638-1.197 2.325 2.325 0 01.999-2.394 2.334 2.334 0 013.618 1.93zm-227.343 42.269a2.328 2.328 0 01-2.782 2.3 2.33 2.33 0 01.464-4.617 2.318 2.318 0 012.318 2.317zm237.938-184.64a.51.51 0 11-.509-.496.497.497 0 01.509.496zm-60.684-99.948a.513.513 0 01-.318.472.508.508 0 01-.693-.381.514.514 0 01.228-.521.516.516 0 01.642.07.5.5 0 01.141.36zm79.317-46.88a.51.51 0 11-1.019 0 .51.51 0 011.019 0zM225.661 295.76a.512.512 0 01-.503.429.511.511 0 01-.49-.648.504.504 0 01.277-.324.505.505 0 01.601.132.504.504 0 01.115.411zm215.549 60.774a.511.511 0 11-.98-.195.513.513 0 01.471-.315.51.51 0 01.509.51zm-90.409 29.979a.51.51 0 11-1.019 0 .51.51 0 011.019 0zM180.768 247.491a.507.507 0 01-.6.514.517.517 0 01-.408-.397.516.516 0 01.215-.527.506.506 0 01.284-.087.497.497 0 01.509.497zm-10.124 93.606a.51.51 0 11-1.019 0 .51.51 0 011.019 0zm121.93-56.469a.503.503 0 01-.149.36.512.512 0 01-.87-.36.512.512 0 01.87-.361.514.514 0 01.149.361zm92.396 31.113a.512.512 0 01-.609.499.506.506 0 01-.4-.4.51.51 0 01.5-.609.494.494 0 01.509.51zM225.152 370.3a.516.516 0 01-.034.194.492.492 0 01-.463.315.51.51 0 11.193-.98.507.507 0 01.27.277.509.509 0 01.034.194zM76.248 303.311a.512.512 0 01-.61.499.506.506 0 01-.37-.694.511.511 0 01.83-.165c.096.095.15.225.15.36zm50.865 16.976a.5.5 0 01-.303.471.507.507 0 01-.553-.111.507.507 0 11.716-.719.487.487 0 01.14.359zm-79.164-43.339a.51.51 0 11-1.018 0 .51.51 0 011.018 0zm332.36-48.662a1.168 1.168 0 01-.714 1.091 1.167 1.167 0 01-1.282-.246 1.17 1.17 0 01.172-1.806 1.174 1.174 0 011.824.961zm-87.073-24.822a1.168 1.168 0 01-.714 1.092 1.175 1.175 0 01-1.606-.846 1.169 1.169 0 01.496-1.207 1.174 1.174 0 011.824.961zm122.58-44.702a1.17 1.17 0 01-1.401 1.149 1.172 1.172 0 111.401-1.149zm24.885 140.728a1.175 1.175 0 01-.717 1.093 1.174 1.174 0 01-1.535-1.535 1.175 1.175 0 011.093-.717 1.16 1.16 0 011.159 1.159zm-139.136 55.871a1.163 1.163 0 01-.715 1.071 1.16 1.16 0 01-1.088-2.035 1.163 1.163 0 011.464.144c.217.218.339.513.339.82zm-65.664-22.924a1.176 1.176 0 01-.718 1.093 1.172 1.172 0 11.718-1.093zm188.855 69.714a1.163 1.163 0 01-.724 1.062 1.16 1.16 0 11.724-1.062zM172.885 300.598a1.163 1.163 0 01-.715 1.071 1.16 1.16 0 11.715-1.071zm-4.139-129.24c.003.461-.132.913-.387 1.298a2.337 2.337 0 01-3.587.367 2.328 2.328 0 01-.511-2.542c.176-.426.475-.791.858-1.048a2.337 2.337 0 012.94.285c.437.434.684 1.024.687 1.64zM2.33 290.586a2.33 2.33 0 10.001-4.66 2.33 2.33 0 000 4.66zM109.781 105.602a2.331 2.331 0 11-4.663 0 2.331 2.331 0 014.663 0zm40.843 37.481a.51.51 0 11-1.019 0 .51.51 0 011.019 0zm-61.882-18.925a.51.51 0 11-1.02 0 .51.51 0 011.02 0zM200.076 72.4a.502.502 0 01-.149.36.514.514 0 01-.36.15.512.512 0 01-.51-.51.512.512 0 01.51-.509.51.51 0 01.509.51zm29.47-64.047a.51.51 0 11-1.019 0 .51.51 0 011.019 0zM332.297 58.24a.509.509 0 11-1.018 0 .509.509 0 011.018 0zm-177.98 3.935a.506.506 0 01-.317.472.51.51 0 11-.179-.982.497.497 0 01.496.51zm185.825-54.33a.508.508 0 01-.51.51.51.51 0 11.51-.51zm-40.168 24.108a.513.513 0 01-.034.194.496.496 0 01-.463.316.508.508 0 11.356-.869.514.514 0 01.107.165.514.514 0 01.034.194zm92.18-24.617a.51.51 0 11-1.019 0 .51.51 0 011.019 0zM126.617 161.842a1.171 1.171 0 11-2.342.028 1.171 1.171 0 012.342-.028zm24.656-61.729a1.163 1.163 0 01-.715 1.071 1.164 1.164 0 01-1.263-.251 1.162 1.162 0 01.176-1.784 1.156 1.156 0 011.714.52c.058.141.088.292.088.444zm71.574-63.22a1.17 1.17 0 01-1.392 1.164 1.172 1.172 0 01.221-2.322 1.157 1.157 0 011.171 1.159zM80.26 278.616a1.17 1.17 0 11-2.34.025 1.17 1.17 0 012.34-.025zM61.666 361.893a1.156 1.156 0 01-1.385 1.137 1.161 1.161 0 01-.911-.91 1.16 1.16 0 112.296-.227zm352.978-266.53a1.162 1.162 0 01-.715 1.072 1.16 1.16 0 01-1.515-1.515 1.164 1.164 0 011.071-.715 1.162 1.162 0 011.159 1.159zM304.036 3.49a1.173 1.173 0 11-1.159-1.159 1.158 1.158 0 011.159 1.159zm141.645-2.331a1.154 1.154 0 01-.716 1.07A1.158 1.158 0 11444.522 0a1.17 1.17 0 011.159 1.159zM306.43 101.273a1.163 1.163 0 01-.715 1.071 1.164 1.164 0 01-1.263-.251 1.164 1.164 0 01-.252-1.263 1.163 1.163 0 011.071-.716 1.175 1.175 0 011.159 1.159zM306.659 435.465H175.56a4.152 4.152 0 01-2.953-1.215 4.167 4.167 0 01-.001-5.903 4.178 4.178 0 012.954-1.223h131.099a4.168 4.168 0 012.958 1.219 4.177 4.177 0 01-1.36 6.809 4.152 4.152 0 01-1.598.313zm112.06-4.19h-92.88a4.18 4.18 0 01-4.177-4.177 4.18 4.18 0 014.177-4.177h92.88a4.178 4.178 0 110 8.354zm-259.525 0h-92.88a4.178 4.178 0 01-2.954-7.131 4.178 4.178 0 012.954-1.223h92.88a4.178 4.178 0 110 8.354z" fill="#E3E4E5"/><path d="M340.294 169.331c5.464-4.292 38.207 8.66 38.207 8.66 1.273-8.825 1.796-30.998 1.796-30.998l5.476-1.808s4.827 37.378-.268 42.536c-5.094 5.158-41.721 0-41.721 0l-3.49-18.39z" fill="#0BDCA0"/><path d="M387.377 425.087a15.265 15.265 0 01-2.241-2.93 5.385 5.385 0 00-5.337-2.254c-1.095.943-1.273 5.273-1.273 6.292h-1.363c-.471-1.274-2.127-6.801-1.63-8.915.42-1.681 1.681-5.566 2.216-7.425.164-.486.267-.991.306-1.503-1.516-6.368-6.725-28.018-15.792-45.517-7.196-13.882-9.514-19.396-10.94-31.839-1.427-12.442-12.736-43.555-12.736-43.555s15.932-43.301 22.491-16.353c6.559 26.949 7.45 59.857 8.546 66.493 1.095 6.635 10.965 52.763 16.836 72.108 1.121 3.681 6.559 11.029 8.686 12.736a7.724 7.724 0 012.827 1.49 7.14 7.14 0 011.006 1.121l-11.602.051z" fill="#D86"/><path d="M387.377 426.194c-1.159 0-3.413-2.432-4.992-3.668a4.067 4.067 0 00-2.343-1.095c-1.083.942-1.516 3.744-1.541 4.763h-1.363c-.471-1.273-2.127-6.801-1.63-8.915a38.217 38.217 0 001.681-7.157c4.266-2.42 7.921 5.782 13.41 10.417 2.764 2.318 4.483 1.911 4.483 1.911a15.4 15.4 0 013.401 1.057 5.388 5.388 0 012.623 2.662l-13.729.025z" fill="#164353"/><path d="M311.041 279.786c-1.758 27.42 3.438 34.233 5.463 45.504 1.529 8.533-2.814 20.899 1.567 34.641 2.916 9.157 9.399 47.949 9.399 47.949v16.098h10.838s-4.267-17.83-4.267-24.516c0-28.91-3.986-63.385-3.4-76.49.586-12.812 4.877-38.066 4.877-38.066l-24.477-5.12z" fill="#F3A17A"/><path d="M370.006 321.165s-9.654 4.381-28.961 5.438c-7.221.395-12.812.382-17.027.191-1.529-4.598-6.368-19.587-8.227-31.775 0 0-3.299 16.989-1.057 30.858-1.019-.191-1.49-.331-1.49-.331-13.373-65.728 11.296-88.003 11.296-88.003 15.932-7.297 31.393-1.464 31.393-1.464s10.469 23.229 14.073 85.086z" fill="#145B6B"/><path d="M340.295 169.332s-4.713 4.266-14.43 6.521c-9.717 2.254-16.454-1.121-22.02 4.126-8.736 8.227 5.884 27.025 12.265 36.016 2.381 3.35 7.399 12.634 8.418 21.549 0 0 16.862 4.89 31.393-1.465l1.146-20.682s9.106-27.866-16.772-46.065z" fill="#fff"/><path d="M310.34 137.48a9.384 9.384 0 00-7.641-2.547c-4.903.484-5.222 10.902-2.675 15.882 2.547 4.979-6.215 8.787-5.412 12.926.802 4.139 6.202 7.807 1.744 9.246-4.457 1.439.561 6.839 6.088 3.502 5.527-3.336-1.796-10.99 2.827-11.78 4.623-.79 7.412-12.646 5.095-18.505-2.318-5.858-.026-8.724-.026-8.724z" fill="#FFC24E"/><path d="M315.46 135.836s18.606-6.228 22.351 6.864c3.744 13.092.522 25.688-9.501 25.357-12.341-.408-27.28-24.86-12.85-32.221z" fill="#F3A17A"/><path d="M324.833 154.227a1.632 1.632 0 001.617 1.617 1.654 1.654 0 001.936-1.273 1.83 1.83 0 00-1.624-1.604 1.829 1.829 0 00-1.929 1.221v.039z" fill="#ED7D66"/><path d="M329.902 149.895s-1.096-1.031-1.758-.878a2.975 2.975 0 00-1.273 1.069l-1.478-.496 1.274.089c.14-.273.349-.504.606-.671.257-.168.553-.266.858-.284 1.007.012 1.771 1.171 1.771 1.171zm5.692-.293c0 .841.535 1.49 1.057 1.452.523-.038.93-.738.867-1.579-.064-.84-.523-1.49-1.057-1.465-.535.026-.917.752-.867 1.592z" fill="#1A4850"/><path d="M335.085 149.388s.446-1.936 1.134-1.987c.688-.051 1.834 1.274 1.834 1.274l1.273-.917-1.273.471s-1.044-1.477-2-1.172c-.955.306-.968 2.331-.968 2.331z" fill="#1A4850"/><path d="M326.273 146.203a.455.455 0 00.171-.057.456.456 0 00.134-.121 2.546 2.546 0 012.28-1.07.377.377 0 00.29-.079.376.376 0 00.143-.265.394.394 0 00-.084-.282.394.394 0 00-.26-.138 3.313 3.313 0 00-3.018 1.414.393.393 0 00.114.534.37.37 0 00.23.064zm8.571-1.987a.505.505 0 00.229-.089 2.544 2.544 0 012.547-.318.366.366 0 00.416-.078.373.373 0 00.081-.126.39.39 0 00.011-.295.385.385 0 00-.202-.214 3.35 3.35 0 00-3.312.433.385.385 0 000 .547.394.394 0 00.23.14z" fill="#D14E4E"/><path d="M335.136 151.998s3.324 0 2.993 1.197a7.703 7.703 0 01-2.241 2.687s-1.503-2.432-.752-3.884z" fill="#DD774E"/><path d="M322.872 142.561a21.2 21.2 0 00-4.05 12.481s-3.12-3.821-4.75-.509c-1.631 3.311 4.903 8.189 4.903 8.189s-.331 2.139-4.076.229c-2.547-1.274-9.386-7.756-7.641-13.258 1.745-5.502 6.877-10.978 15.614-7.132z" fill="#FFC24E"/><path d="M319.204 159.779c1.439 3.821 6.788 9.705 12.583 7.807 0 0-.675 4.598 1.732 6.686v7.553l-14.786-7.833c1.184-11.462-1.592-12.85-1.592-12.85 1.566 1.032 2.063-1.363 2.063-1.363z" fill="#D86"/><path d="M330.59 157.654a5.86 5.86 0 012.547.395 3.822 3.822 0 011.388 1.057c.161.207.294.434.395.675a3.399 3.399 0 00-.471-.598 3.335 3.335 0 00-1.414-.828 4.694 4.694 0 00-1.617-.166c-.244.01-.487.04-.726.089l-.102-.624z" fill="#1A4850"/><path d="M328.832 138.715s-6.813 9.704-13.933 13.041c-7.119 3.337-12.493 2.101-7.959-11.729a13.116 13.116 0 016.457-6.712c13.206-5.604 17.244-1.044 17.244-1.044 8.596-2.102 13.27 7.756 8.074 14.403a5.241 5.241 0 00-2.433-4.699c-2.394-1.477-4.572.026-7.45-3.26z" fill="#F2AE40"/><path d="M325.686 426.194c-.268-2.305.318-6.304.318-8.252a58.267 58.267 0 011.465-8.469 49.857 49.857 0 002.203 9.207c.548 2.191 4.751 1.643 5.591 0 .841-1.642 0-9.207 0-9.207 1.949 3.056 1.363 7.374 3.044 8.915 1.197 1.044 1.273 5.794 1.273 7.857l-13.894-.051z" fill="#164353"/><path d="M351.896 143.492l-13.639 3.006c-.472.102-.65 1.159-.408 2.356.242 1.197.841 2.101 1.274 2.012l13.69-2.7-.917-4.674z" fill="#E3E4E5"/><path d="M370.605 138.753l-19.562 4.292c-.662.14-.93 1.554-.611 3.158.318 1.605 1.146 2.789 1.821 2.662l19.651-3.821-1.299-6.291z" fill="#D1D1D1"/><path d="M391.453 133.761l-25.242 5.565c-.841.191-1.21 1.898-.815 3.821.395 1.923 1.401 3.337 2.254 3.171l25.344-4.916-1.541-7.641z" fill="#E3E4E5"/><path d="M404.048 139.874c-1.273.229-2.699-1.592-3.222-4.076-.522-2.483.089-4.737 1.274-5.018 1.184-.28 2.725 1.541 3.247 4.063.523 2.522-.025 4.776-1.299 5.031z" fill="#fff"/><path d="M402.163 130.779l-16.378 3.643c-1.12.254-1.63 2.356-1.146 4.712s1.796 4.088 2.916 3.82l16.493-3.132-1.885-9.043z" fill="#D1D1D1"/><path d="M403.921 139.289c-1.095.216-2.356-1.376-2.802-3.554-.446-2.177 0-4.139 1.172-4.381 1.171-.242 2.368 1.35 2.827 3.554.458 2.203-.089 4.164-1.197 4.381z" fill="#164353"/><path d="M335.085 170.235s14.392 11.284 12.137 36.933l-.343 34.004 7.284 28.018s9.081-5.54 9.934-9.322l-7.221-24.593s4.559-38.079 1.732-45.848c-4.114-11.347-18.288-20.007-18.288-20.007l-5.235.815z" fill="#0BDCA0"/><path d="M315.307 175.786s-21.039-.267-13.117 18.632c7.921 18.9 19.803 28.49 20.682 40.589 0 0-8.851 15.855-10.991 24.808l29.012 12.125 6.368-29.203s2.687-27.521 0-37.366c-2.687-9.845-26.452-28.222-31.954-29.585z" fill="#0BDCA0"/><path d="M316.097 173.419l2.967-3.54s10.316 3.26 14.977 12.977l-5.731-3.667-5.846 2.394s-5.654-4.445-6.367-8.164z" fill="#E3E4E5"/><path d="M374.795 141.975l1.477 3.209s3.184 1.554 4.037 1.808c.853.255 5.324-.14 5.476-1.808.143-.79.05-1.605-.267-2.343l-3.388.649s-.968-.56-2.992.319c-2.025.878-2.649-1.694-4.343-1.834z" fill="#F3A17A"/><path d="M314.187 172.667s28.655 10.099 33.036 32.705c0 0-13.908-12.647-24.198-15.359l1.274-7.158-14.901-.56a14.162 14.162 0 000-5.705s4.075-1.936 4.789-3.923z" fill="#14BC8C"/><path d="M349.323 155.106l-2.47-3.821s.777 0 1.273-1.414c.497-1.413.281-4.928 1.274-5.935.993-1.006 2.254-2.547 2.865-1.413 0 0 1.669-1.439 2.306.293 0 0-.79.713-.484 1.12.305.408 1.273-1.273 2.483-1.553 1.21-.28.955.637.955.637-.54.808-1.013 1.66-1.413 2.547-.803 1.719.853-.484 1.439-.803.586-.318 1.706-.878 1.706-.878s1.108-.128 0 .929a11.108 11.108 0 00-2.407 5.324 11.136 11.136 0 01-1.783 4.954c-1.566 2.636-5.744.013-5.744.013z" fill="#F3A17A"/><path d="M331.787 170.21s3.018-2.407 14.722 5.553l-1.91 3.744 9.87 8.214s-3.617 14.252-7.145 18.059c0 0 2.216-28.489-15.537-35.57z" fill="#14BC8C"/><path d="M331.787 170.211s5.247 1.273 7.437 8.023h-4.737l-.446 4.623s-3.719-8.66-2.254-12.646z" fill="#E3E4E5"/><path d="M354.138 155.972s-.892 41.353-4.712 45.848c-3.821 4.496-39.302.777-44.384-4.355-2.712-2.738-3.604-7.374-3.285-11.144.28-3.298 1.515-5.947 3.285-6.075 8.049-.624 36.309 10.189 36.309 10.189l7.514-36.08s2.178-1.809 5.273 1.617z" fill="#0BDCA0"/><path d="M354.138 155.973s-.892 41.352-4.712 45.848c-3.821 4.495-39.302.777-44.384-4.356-2.712-2.738-3.604-7.374-3.286-11.144.319-3.769 1.898 8.521 5.897 11.322 3.999 2.802 31.355 6.687 40.754 2.866 2.152-.853 5.731-44.536 5.731-44.536zM64.149 182.857s-14.302 9.578-20.988 26.452c-6.686 16.875.102 19.498 4.56 17.206 4.457-2.293 28.018-25.166 28.018-25.166l-11.59-18.492z" fill="#14BC8C"/><path d="M172.618 237.072c.143-.289.271-.587.382-.891 0 0-.841-.573-1.834.535l-.076.089c.242-.522.369-.879.369-.879s-.841-.573-1.834.535c-.56.611 0 1.274-1.274 1.86a2.758 2.758 0 00-.687-.701 2.951 2.951 0 01-.892-.955v.548a1.588 1.588 0 00-.28-.23 2.793 2.793 0 01-.879-.955v1.363a2.541 2.541 0 00-.662-.662 3.223 3.223 0 01-.879-.956v5.095c.522.063 1.032.102 1.541.114v.153c.395 0 .777.064 1.159.077v.56c.586.064 1.172.114 1.732.127 3.936.064 5.668-5.094 5.668-5.094a1.277 1.277 0 00-1.554.267zm-1.694.077c-.127.433 0 .891-.79 1.273.295-.404.558-.83.79-1.273zm.548 1.847c.187-.246.361-.501.522-.765a1.159 1.159 0 01-.522.765z" fill="#D86"/><path d="M148.026 426.194v-2.98c0-3.439-3.21-9.666-3.21-11.946 0-2.28-8.851 1.859-8.851 1.859a10.951 10.951 0 01-3.044 6.648 8.57 8.57 0 00-2.152 6.368l17.257.051zm-60.43 0l1.528-.726.726.726h5.833c.585-1.681 2.547-8.074.776-12.506-2.063-5.094-8.469-3.821-8.469-3.821s-4.355 6.062-6.864 7.145c-2.51 1.082-12.125 4.979-13.27 7.501-.344.751.241 1.274.076 1.63l19.663.051z" fill="#11393D"/><path d="M107.221 234.626c-3.311 48.089-12.38 111.143-22.198 177.444 0 0 1.923 3.133 12.85 1.503l33.673-140.804a.956.956 0 01.904-.624.965.965 0 01.968.93c.382 10.608 3.82 43.071 1.961 140.944a13.436 13.436 0 0011.87 0s21.65-144.752 16.709-172.478l-56.737-6.915z" fill="#145B6B"/><path d="M164.251 240.051c.076 4.279-8.75 20.708-35.66 16.442-15.283-2.42-22.249-9.896-22.249-9.896s-48.853-41.225-44.816-59.488c1.388-6.304 17.447-15.906 29.559-15.282a82.782 82.782 0 0131.355 8.112c12.786 4.827 41.518 43.811 41.811 60.112z" fill="#0BDCA0"/><path d="M77.929 181.392a29.294 29.294 0 005.527 11.78 382.507 382.507 0 013.286 60.074l2.19 3.948 6.177-4.585s-4.343-41.391-8.584-59.539c0 0 2.547-8.647 6.266-11.245 3.72-2.598-2.317-3.541-2.317-3.541l-12.545 3.108z" fill="#000"/><path d="M81.584 171.802c-3.91 1.655-7.578 8.01-4.292 16.556 0 0 .51-3.54 2.445-3.579 1.936-.038 3.146 2.305 3.146 2.305l5.553-4.661s.19-13.601-6.852-10.621z" fill="#14BC8C"/><path d="M86.398 158.953c3.005 16.429-14.213 21.65-19.358 16.251a28.02 28.02 0 01-4.903-8.813 50.983 50.983 0 01-.892-2.547c-1.808-5.935-2.28-12.188.828-14.404 10.825-7.744 21.307-6.916 24.325 9.513z" fill="#F3A17A"/><path d="M59.718 153.615s5.45-7.081 16.912-6.725c0 0 4.61 8.584 6.266 12.545 0 0 4.368.407 2.547 9.577 0 0 5.094-1.732 2.815-15.97-1.987-12.341-9.514-9.883-9.514-9.883a9.13 9.13 0 00-11.768-3.413c-7.908 3.298-10.76 7.144-13.231 3.744s-4.687 11.156 5.973 10.125z" fill="#6A5750"/><path d="M64.62 161.18c.242.892 0 1.732-.458 1.872-.459.141-1.108-.484-1.35-1.388-.242-.904 0-1.732.47-1.859.472-.127 1.096.484 1.338 1.375z" fill="#1A4850"/><path d="M66.492 162.188s-.955 3.935-2.687 3.82c-1.732-.114.484 3.375 4.56.892a5.223 5.223 0 00-1.873-4.712z" fill="#DD774E"/><path d="M76.885 160.137a1.78 1.78 0 01.368 2.032 1.784 1.784 0 11-2.571-2.262 1.592 1.592 0 012.203.23zM63.78 165.04a1.543 1.543 0 01-1.643 1.35 50.883 50.883 0 01-.891-2.547c.26-.114.543-.17.827-.166a1.58 1.58 0 011.707 1.363z" fill="#ED7D66"/><path d="M67.6 157.411a4.674 4.674 0 012.993-1.528l-2.993 1.528zm-5.145-1.248s-1.987.229-1.948 1.274l1.948-1.274z" fill="#000"/><path d="M82.896 159.436s1.796-3.821 4.725-2.547c2.929 1.273.37 7.972-2.305 8.469-2.675.497-2.42-5.922-2.42-5.922z" fill="#F3A17A"/><path d="M69.702 160.059s.471-2.139 2.967-.93c0 0-2.152-.356-2.967.93zm3.706 6.954s-.395.14-.955.407c-.697.327-1.358.724-1.974 1.185a6.674 6.674 0 00-1.592 1.668c-.14.213-.26.439-.357.675l-.102.267.077-.28c.079-.245.177-.483.293-.713.382-.7.881-1.329 1.477-1.859.87-.77 1.837-1.421 2.878-1.936l.255.586z" fill="#1A4850"/><path d="M87.927 165.867s.662 3.146 7.182 7.96c0 0-3.82 8.991-12.226 10.736 0 0-3.553-5.884-7.144-7.641 0 0 7.144-1.376 10.099-10.444a2.333 2.333 0 002.089-.611z" fill="#D86"/><path d="M90.473 169.764s1.885 4.61 0 8.52a13.402 13.402 0 01-5.094 5.642s3.477 2.394 4.432 4.457c0 0 7.005-6.521 7.323-12.099.318-5.578-6.66-6.52-6.66-6.52zm31.928 10.15c-10.927.522-2.407 17.944 2.458 21.434 4.865 3.489 46.574 5.565 46.574 5.565l-10.061 19.346s-2.05 8.494 6.865 8.367c0 0 21.344-26.134 22.3-35.443.955-9.31-39.481-20.632-68.136-19.269z" fill="#14BC8C"/><path d="M161.169 228.361s-2.471 1.338-1.834 6.266c.637 4.929 4.776 7.476 8.596 8.431 3.821.955 6.687-3.719 6.687-3.719s-.688-.738-1.911.102c-.891.624.14 1.783-3.604 1.618a6.522 6.522 0 00-1.006-2.407c-1.376-1.35-1.172-5.782-1.172-5.782l-5.756-4.509z" fill="#F3A17A"/><path d="M49.134 180.538s-1.426 27.42 0 32.603c1.427 5.184 2.204 14.965-4.7 13.895-6.902-1.07-7.908-16.556-5.896-24.898 2.013-8.342 5.324-22.326 5.324-22.326l5.272.726z" fill="#0BDCA0"/><path d="M43.467 182.563s.726 4.636 5.209 1.439a3.013 3.013 0 002.445-1.655 54.282 54.282 0 012.063-5.094c1.12-1.694 1.274-2.547.471-2.624a15.698 15.698 0 01-4.062-.688c-1.312-.624-5.464 2.84-6.126 8.622z" fill="#D86"/><path d="M53.655 167.154l-5.744 12.2a1.874 1.874 0 00.943 1.873c1.032.496 1.605-.166 2.267-1.503 1.07-2.178 4.623-9.616 4.623-9.616l-2.089-2.954zm2.573-9.195l-1.643.382.166.687a10.088 10.088 0 002.878 12.341l.165.688 1.63-.382c2.115-.497 3.108-3.961 2.216-7.756-.891-3.795-3.31-6.47-5.412-5.96z" fill="#145B6B"/><path d="M60.01 164.326c.879 3.821-.115 7.259-2.216 7.756-2.101.497-4.534-2.178-5.425-5.96-.892-3.783.114-7.26 2.216-7.756 2.1-.497 4.546 2.139 5.425 5.96z" fill="#208191"/><path d="M58.864 164.568c.624 2.649-.076 5.094-1.554 5.413-1.477.318-3.171-1.516-3.82-4.165-.65-2.649.076-5.094 1.553-5.425 1.477-.331 3.197 1.515 3.82 4.177z" fill="#fff"/><path d="M52.292 170.834a19.027 19.027 0 000 4.789c.37 1.846-.382 2.368-.56 2.292a8.195 8.195 0 01-.917-1.274s.955 1.631-.102 2.624c-.267.255-1.388-1.414-1.388-1.414s.624 1.465.178 1.962c-.446.496-1.133-.624-1.133-.624s.267.955-.28 1.031a4.09 4.09 0 01-2.102-1.146c-.114-.191-.828-.115-.828-.115l-.917.268c1.427-4.318 2.751-4.891 2.751-4.891s.459-1.133 1.096-.955c0 0 .79-1.936 1.974-1.515 0-.013 1.413-2.853 2.228-1.032z" fill="#F3A17A"/><path d="M195.682 210.428c-2.547 29.852-11.717 145.07-10.188 207.271h14.595c.798-6.843 1.647-13.682 2.547-20.517a4245.838 4245.838 0 016.1-47.453c2.382-17.83 4.878-35.545 7.705-53.26 2.025-12.659 3.821-25.573 7.31-37.952a34.503 34.503 0 011.363-4.203c1.07-2.547 2.152-2.547 5.196-2.547 3.477 0 4.559 8.329 5.183 10.94 1.452 6.139 2.548 12.354 3.694 18.569 3.044 17.167 5.552 34.449 7.972 51.719 2.42 17.269 4.725 34.933 6.928 52.432a4764.265 4764.265 0 013.757 30.654l.191 1.631h14.595c1.567-62.201-7.641-177.419-10.188-207.272l-66.76-.012z" fill="#327F87"/><path d="M264.569 189.352c-.166 2.929-.344 5.909-.497 8.915-.318 6.075-.599 12.353-.815 18.798 0 0-17.397-3.961-33.113-3.961a181.888 181.888 0 00-34.768 3.961c-.314-6.793-.662-13.194-1.044-19.206-.293-4.979-.611-9.691-.93-14.174-3.884-53.859-8.456-72.835-.229-77.942 3.528-2.19 36.195 2.815 36.195 2.815s31.316-1.274 35.303-1.783c7.577-1.032 2.827 33.087-.102 82.577z" fill="#1A4850"/><path d="M237.849 88.664l-7.896 6.024a16.441 16.441 0 01-9.679.662c.771 4.672.835 9.433.191 14.124l8.164 4.712 8.558-4.05s-1.223-14.149.662-21.472z" fill="#D86"/><path d="M218.173 91.3s-7.641-7.093-7.004-17.587c.636-10.494 5.731-12.086 7.743-12.519 0 0 1.872-4.152 10.774-3.82a16.837 16.837 0 0114.888 9.513c3.298 6.571 1.108 21.956-4.343 24.376l-22.058.038z" fill="#11393D"/><path d="M215.256 81.152s-3.935-3.935-4.432.675c-.56 5.323 4.279 7.476 5.235 5.782.955-1.694-.803-6.457-.803-6.457zm27.611.28s3.948-3.935 4.432.662c.56 5.337-4.279 7.476-5.222 5.782-.942-1.694.79-6.444.79-6.444z" fill="#F3A17A"/><path d="M228.655 100.458c-8.75 0-13.691-5.718-13.691-22.847 0-8.915 4.495-14.277 14.302-14.277 9.806 0 13.92 5.476 13.92 14.276 0 18.416-5.502 22.848-14.531 22.848z" fill="#F3A17A"/><path d="M240.294 83.723a2.076 2.076 0 11-2.267-1.274 1.848 1.848 0 012.267 1.274zm-17.995.471a2.073 2.073 0 01-1.065 2.154 2.078 2.078 0 01-3.014-1.388 2.079 2.079 0 012.168-2.51 1.861 1.861 0 011.911 1.744z" fill="#ED7D66"/><path d="M236.296 74.82a.408.408 0 01-.319-.126 5.094 5.094 0 00-3.375-1.274.446.446 0 010-.879 5.872 5.872 0 014.025 1.49.448.448 0 010 .624.419.419 0 01-.331.166zm-16.48 0a.432.432 0 01-.319-.738 5.871 5.871 0 014.025-1.452.444.444 0 01.37.44.445.445 0 01-.37.44 5.09 5.09 0 00-3.362 1.273.444.444 0 01-.344.038zM235.531 79.47c0 1.082-.484 1.96-1.095 1.96s-1.095-.878-1.095-1.96c0-1.083.496-1.975 1.095-1.975.598 0 1.095.879 1.095 1.974zm-11.678 0c0 1.082-.497 1.96-1.096 1.96-.598 0-1.095-.878-1.095-1.96 0-1.083.484-1.975 1.095-1.975.612 0 1.096.879 1.096 1.974z" fill="#1A4850"/><path d="M228.692 79.47c.79-.497 2.866 7.093.637 7.641s-1.579-7.056-.637-7.641z" fill="#ED7D66"/><path d="M223.853 89.187s7.717.751 11.678-.7c0 0-2.241 4.024-6.457 3.667-4.215-.356-5.221-2.967-5.221-2.967z" fill="#1A4850"/><path d="M220.274 67.14s7.769 6.8 21.141 5.833l1.427 10.8s7.832-22.606-15.028-22.606-12.545 22.083-12.545 22.083a22.316 22.316 0 015.005-16.11z" fill="#11393D"/><path d="M241.785 108.073c-.802 3.922-7.349 9.64-7.349 9.64l-2.98-4.33-2.827 1.847-3.235-1.847-3.719 3.21s-5.973-7.527-5.336-9.679c.637-2.153 4.56-3.261 4.56-3.261a5.3 5.3 0 004.266 5.196l3.388 4.114 3.145-3.057c3.821-.101 5.184-5.399 5.184-5.399a9.379 9.379 0 014.903 3.566z" fill="#0BDCA0"/><path d="M225.139 109.92l3.49 5.311-3.235-1.847-3.719 3.209c.128-.28 2.331-4.712 3.464-6.673zM234.436 117.714l-2.98-4.331-2.827 1.847 3.515-4.534s3.63 3.668 2.292 7.018z" fill="#14BC8C"/><path d="M255.756 177.189l9.182-46.93-12.303-11.691-14.327 10.761-9.615-9.042-12.341 7.017-10.189-10.698-14.645 11.08 7.934 20.084 8.418 25.471c-6.788 2.229-11.462 5.63-14.455 10.482.319 4.483.637 9.195.93 14.174l8.711 9.31 13.219-19.472 15.41 17.562 14.443-17.562 8.723 19.472 9.221-8.915c.153-3.031.331-6.011.497-8.915a87.585 87.585 0 00-15.117-11.958l6.304-.23z" fill="#208191"/><path d="M193.466 106.212s1.987 23.956-3.744 32.349c-5.731 8.392-16.175 39.021-24.478 36.449-8.304-2.573-11.118-13.564 0-29.559 11.118-15.996 20.555-40.283 28.222-39.239z" fill="#14BC8C"/><path d="M159.36 159.231c2.548-8.291 11.055-12.443 13.118-11.296 2.063 1.146 6.368 7.73 3.604 17.282-2.763 9.551-10.659 13.601-15.55 7.552-4.89-6.05-1.172-13.538-1.172-13.538z" fill="#0BDCA0"/><path d="M173.675 145.567s-4.801 7.03-4.801 12.227c-.542.462-1.056.955-1.541 1.477-1.363 1.528-3.21 6.368-.777 8.915 2.432 2.547 5.871-2.331 5.871-2.331 2.139-.14 6.877-5.833 6.724-9.781-.153-3.948-5.476-10.507-5.476-10.507z" fill="#F3A17A"/><path d="M265.931 107.677s-3.897 23.765 1.834 32.158c5.731 8.392 16.174 39.021 24.478 36.449 8.304-2.573 11.118-13.564 0-29.559-11.118-15.996-18.645-40.092-26.312-39.048z" fill="#14BC8C"/><path d="M298.127 160.506c-2.547-8.291-11.055-12.442-13.118-11.284-2.063 1.159-6.368 7.718-3.604 17.27 2.764 9.552 10.66 13.601 15.55 7.552 4.891-6.049 1.172-13.538 1.172-13.538z" fill="#0BDCA0"/><path d="M283.761 146.841s4.801 7.03 4.801 12.226c.542.462 1.057.956 1.541 1.477 1.363 1.529 3.21 6.368.777 8.915-2.432 2.547-5.871-2.343-5.871-2.343-2.139-.14-6.877-5.833-6.724-9.781.153-3.948 5.476-10.494 5.476-10.494z" fill="#F3A17A"/><path d="M290.218 119.992s-11.78 22.274-12.468 34.959c-.688 12.685 2.063 36.245 2.063 36.245H268.53l-10.342 6.368-15.448-1.847-12.073 2.548-12.621-5.922-15.856 3.451-10.278-7.501-13.295 3.196s1.884-28.808-.306-38.206c-2.191-9.399-8.457-35.864-8.457-35.864l18.34-3.82 11.041 12.455 18.836-3.999 13.538 8.788 12.647-7.642 14.544 4.534 11.869-8.8 19.549 1.057z" fill="#fff"/><path d="M203.068 162.505l-.878 33.265-10.278-7.501c.866-48.714-3.744-74.605-3.744-74.605l11.041 12.455 3.859 36.386zM218.059 122.121v70.198l12.608 5.973v-35.786l.917-31.585-13.525-8.8zM244.217 123.331l-2.178 36.869.701 35.571 15.448 1.846s-4.203-34.284-4.203-37.417c0-3.133 4.789-32.335 4.789-32.335l-14.557-4.534zm46.001-3.337s-11.78 22.275-12.468 34.959c-.688 12.685 2.063 36.246 2.063 36.246h-11.284l-2.993-30.999 5.095-41.136 19.587.93z" fill="#E3E4E5"/><path d="M173.675 145.567s4.407-2.305 6.088-2.216c1.681.089 5.782 2.216 5.782 2.216s-.306 2.089-1.682 1.274a3.92 3.92 0 00-4.253 0l3.337.191 3.82 1.732s-.611 1.834-1.515 1.528c-.905-.306-3.044-1.07-3.044-1.07l-1.987 1.096c1.461.238 2.892.635 4.267 1.184.458.458 2.279 1.898 2.279 1.898s-.611 1.604-1.974.687a7.705 7.705 0 00-3.961-.687s2.28.955 2.548 1.732c.412.893.872 1.764 1.375 2.61 0 0-.459 1.07-1.528 0-1.07-1.069-5.336-.7-5.336-.7s-3.859-6.151-4.216-11.475zm110.086 1.274s-4.406-2.305-6.087-2.216c-1.682.089-5.782 2.216-5.782 2.216s.305 2.088 1.681 1.273a3.922 3.922 0 014.253 0l-3.336.191-3.821 1.732s.611 1.834 1.516 1.529c.904-.306 3.043-1.07 3.043-1.07l1.987 1.095a20.43 20.43 0 00-4.266 1.184c-.459.459-2.28 1.898-2.28 1.898s.611 1.605 1.974.688a7.705 7.705 0 013.961-.688s-2.28.955-2.547 1.745c-.268.789-1.376 2.547-1.376 2.547s.459 1.07 1.528 0c1.07-1.07 5.337-.688 5.337-.688s3.909-6.113 4.215-11.436z" fill="#F3A17A"/><path d="M200.801 431.289a92.386 92.386 0 00-2.547-18.48s-11.118-4.572-12.264 2.942c-1.146 7.514-7.234 9.272-10.341 9.947-1.987.42-2.407 3.451-2.446 5.591h27.598zm56.533 0a91.366 91.366 0 012.548-18.48s11.105-4.572 12.264 2.942c1.159 7.514 7.234 9.272 10.341 9.947 1.987.42 2.394 3.451 2.445 5.591h-27.598z" fill="#11393D"/>
  </svg>