<svg width="156" height="147" fill="none">
  <g opacity=".9">
    <path
      opacity=".9"
      d="M41.134 94.582c8.21 0 14.867-6.503 14.867-14.524 0-8.02-6.656-14.523-14.867-14.523-8.21 0-14.866 6.502-14.866 14.523s6.656 14.524 14.866 14.524z"
      fill="#158876"
      fill-opacity="0.31"
    />
    <g opacity=".9">
      <path
        opacity=".9"
        d="M44.77 80.12c0-.938.786-1.698 1.756-1.698h2.562c.97 0 1.78.76 1.78 1.698 0 .937-.81 1.698-1.78 1.698h-2.562c-.97 0-1.755-.76-1.755-1.698zM39.4 80.123c0-.94.782-1.701 1.745-1.701.963 0 1.745.76 1.745 1.701 0 .941-.782 1.701-1.745 1.701-.963 0-1.745-.763-1.745-1.7z"
        fill="#fff"
      />
      <path
        opacity=".9"
        fill-rule="evenodd"
        clip-rule="evenodd"
        d="M42.842 72.173c.038.917-.691 1.688-1.63 1.725-4.052.164-6.523 3.263-6.404 6.201a1.663 1.663 0 01-1.616 1.725c-.938.038-1.762-.702-1.8-1.619-.196-4.793 3.905-9.532 9.68-9.624.936-.034 1.728.678 1.77 1.592z"
        fill="#fff"
      />
      <path
        opacity=".9"
        fill-rule="evenodd"
        clip-rule="evenodd"
        d="M31.384 80.031c.024 5.792 4.893 9.618 9.82 9.498 5.814-.2 10.013-5.13 9.663-9.528-.08-.914-.91-1.623-1.85-1.579-.938.044-1.66.822-1.615 1.735.133 2.673-2.394 5.946-6.282 6.052-3.088.075-6.176-2.291-6.313-5.973a1.666 1.666 0 01-1.615 1.585c-.94.038-1.763-.702-1.801-1.62-.004-.05-.004-.108-.007-.17z"
        fill="url(#paint0_linear)"
      />
    </g>
  </g>
  <g opacity=".8">
    <path
      opacity=".8"
      d="M68.638 30.7c8.21 0 14.866-6.502 14.866-14.523S76.848 1.653 68.637 1.653c-8.21 0-14.866 6.503-14.866 14.524 0 8.02 6.656 14.523 14.867 14.523z"
      fill="#158876"
      fill-opacity="0.31"
    />
    <path
      opacity=".8"
      fill-rule="evenodd"
      clip-rule="evenodd"
      d="M63.51 14.175c.685-2.669 2.395-4.005 5.128-4.005 4.1 0 4.613 3.003 6.665 3.504 1.368.334 2.565-.167 3.588-1.503-.684 2.67-2.395 4.006-5.127 4.006-4.1 0-4.614-3.004-6.665-3.505-1.368-.334-2.566.167-3.588 1.503zm-5.126 6.008c.684-2.67 2.394-4.006 5.127-4.006 4.1 0 4.613 3.003 6.666 3.504 1.367.334 2.564-.167 3.587-1.503-.684 2.67-2.394 4.006-5.126 4.006-4.101 0-4.614-3.004-6.666-3.505-1.368-.33-2.565.17-3.588 1.504z"
      fill="#fff"
    />
  </g>
  <g opacity=".9">
    <path
      opacity=".9"
      d="M98.608 59.654c8.211 0 14.867-6.502 14.867-14.523 0-8.02-6.656-14.523-14.867-14.523-8.21 0-14.867 6.502-14.867 14.523s6.656 14.523 14.867 14.523z"
      fill="#158876"
      fill-opacity="0.31"
    />
    <g opacity=".9">
      <path
        opacity=".9"
        d="M89.608 51.656c0 1.252 1.04 2.267 2.32 2.267h13.356c1.281 0 2.321-1.016 2.321-2.267V38.61c0-1.25-1.04-2.267-2.321-2.267H91.928c-1.28 0-2.32 1.016-2.32 2.267v13.047z"
        stroke="#fff"
        stroke-miterlimit="10"
      />
      <path
        opacity=".9"
        d="M97.073 44.118V41.63h2.244c.212 0 .418.017.617.05.199.035.374.096.527.188a.998.998 0 01.367.372c.09.16.136.361.136.61 0 .447-.136.77-.412.968-.276.198-.625.297-1.054.297h-2.425v.003zm-2.398-4.309v10.644h5.28c.489 0 .963-.058 1.427-.178.465-.119.876-.303 1.236-.552.359-.249.649-.57.862-.961.213-.392.321-.856.321-1.395 0-.664-.164-1.234-.496-1.708-.331-.473-.83-.8-1.504-.992.489-.228.859-.521 1.107-.88.247-.357.373-.804.373-1.342 0-.498-.084-.914-.251-1.252a2.05 2.05 0 00-.709-.811 3.111 3.111 0 00-1.099-.44 6.997 6.997 0 00-1.42-.133h-5.127zm2.398 8.827v-2.922h2.61c.52 0 .935.116 1.253.351.314.235.474.624.474 1.17 0 .28-.049.508-.146.685-.098.177-.227.32-.391.426a1.733 1.733 0 01-.565.225 3.286 3.286 0 01-.67.068h-2.566v-.003z"
        fill="#fff"
      />
    </g>
  </g>
  <g opacity=".4">
    <path
      opacity=".4"
      d="M35.74 56.153c8.21 0 14.866-6.502 14.866-14.523S43.95 27.107 35.739 27.107c-8.21 0-14.866 6.502-14.866 14.523 0 8.02 6.656 14.523 14.866 14.523z"
      fill="#158876"
      fill-opacity="0.31"
    />
    <g opacity=".4" fill="#fff">
      <path opacity=".4" d="M35.74 32.626h-4.175l4.174 9.641" />
      <path
        opacity=".4"
        d="M35.74 32.626h4.176l-4.177 9.641M35.739 45.05v7.455l-8.906-16.988H31.5M35.74 45.05v7.455l8.905-16.988h-4.662"
      />
    </g>
  </g>
  <g opacity=".9">
    <path
      opacity=".9"
      d="M140.44 77.297c8.211 0 14.867-6.502 14.867-14.523S148.651 48.25 140.44 48.25c-8.21 0-14.866 6.502-14.866 14.523 0 8.02 6.656 14.523 14.866 14.523z"
      fill="#158876"
      fill-opacity="0.31"
    />
    <g opacity=".9" fill="#fff">
      <path
        opacity=".9"
        d="M149.273 66.575l-5.165-9.007c-.426-.733-1.525-.733-1.951 0l-.551.961.642 1.115.893-1.527 5.151 8.946h-1.835c.094.569-.408 1.128-1.127 1.128h2.969c.845-.003 1.382-.903.974-1.616z"
      />
      <path
        opacity=".9"
        d="M136.804 67.063h-4.202l6.345-11.03 2.062 3.55.6-1.05-1.804-3.13a.994.994 0 00-1.724.004l-6.477 11.311c-.38.662.122 1.473.911 1.473h5.42c-.723-.003-1.229-.56-1.131-1.128z"
      />
      <path
        opacity=".9"
        d="M146.453 67.063a.92.92 0 00-.108-.304l-4.097-7.115-.642-1.115-.6 1.05-4.094 7.18a.954.954 0 00-.108.3c-.094.57.408 1.129 1.127 1.129H145.326c.719 0 1.222-.556 1.127-1.125zm-8.473 0l3.658-6.328 3.636 6.328h-7.294z"
      />
    </g>
  </g>
  <g opacity=".8">
    <path
      opacity=".8"
      d="M125.574 119.926c8.21 0 14.866-6.502 14.866-14.523s-6.656-14.524-14.866-14.524c-8.211 0-14.867 6.503-14.867 14.524 0 8.021 6.656 14.523 14.867 14.523z"
      fill="#158876"
      fill-opacity="0.31"
    />
    <g opacity=".8">
      <path
        opacity=".8"
        d="M131.339 98.66l-5.765 9.75-5.762-9.75h-3.842l9.604 16.251 9.607-16.252h-3.842z"
        fill="#fff"
      />
      <path
        opacity=".8"
        d="M127.793 98.66l-2.219 3.753-2.22-3.754h-3.545l5.761 9.751 5.762-9.75h-3.539z"
        fill="#fff"
      />
    </g>
  </g>
  <g opacity=".7">
    <path
      opacity=".7"
      d="M44.77 142.202c8.211 0 14.867-6.503 14.867-14.524 0-8.021-6.656-14.523-14.866-14.523s-14.867 6.502-14.867 14.523 6.656 14.524 14.867 14.524z"
      fill="#158876"
      fill-opacity="0.31"
    />
    <path
      opacity=".7"
      d="M38.915 122.657l5.13-4.964 6.39 6.194-3.7 3.791 5.13 5.083-7.904 4.903-6.285-6.464 1.239-8.543z"
      fill="#fff"
    />
  </g>
  <g opacity=".9">
    <path
      opacity=".9"
      d="M133.764 39.414c6.569 0 11.894-5.202 11.894-11.619s-5.325-11.618-11.894-11.618c-6.568 0-11.893 5.201-11.893 11.618 0 6.417 5.325 11.619 11.893 11.619z"
      fill="#158876"
      fill-opacity="0.31"
    />
    <g opacity=".9">
      <path
        opacity=".9"
        d="M136.675 27.843c0-.75.628-1.36 1.406-1.36h2.049c.775 0 1.424.607 1.424 1.36 0 .75-.649 1.36-1.424 1.36h-2.049c-.778 0-1.406-.607-1.406-1.36zM132.375 27.846c0-.75.625-1.36 1.396-1.36.772 0 1.396.61 1.396 1.36 0 .75-.624 1.36-1.396 1.36-.771 0-1.396-.61-1.396-1.36z"
        fill="#fff"
      />
      <path
        opacity=".9"
        fill-rule="evenodd"
        clip-rule="evenodd"
        d="M135.13 21.488c.031.733-.551 1.35-1.302 1.38-3.242.134-5.217 2.609-5.123 4.965a1.33 1.33 0 01-1.291 1.38c-.75.031-1.41-.562-1.441-1.295-.157-3.835 3.123-7.626 7.744-7.698.746-.034 1.382.535 1.413 1.268z"
        fill="#fff"
      />
      <path
        opacity=".9"
        fill-rule="evenodd"
        clip-rule="evenodd"
        d="M125.965 27.775c.017 4.633 3.915 7.694 7.855 7.599 4.652-.164 8.009-4.105 7.73-7.623-.066-.73-.729-1.299-1.479-1.262-.751.035-1.33.659-1.295 1.392.104 2.137-1.916 4.759-5.026 4.84-2.47.059-4.941-1.834-5.049-4.776a1.332 1.332 0 01-1.291 1.268c-.751.031-1.41-.562-1.442-1.295 0-.048-.003-.095-.003-.143z"
        fill="url(#paint1_linear)"
      />
    </g>
  </g>
  <g opacity=".25">
    <path
      opacity=".25"
      d="M11.893 114.355c6.569 0 11.894-5.202 11.894-11.619 0-6.416-5.325-11.618-11.894-11.618C5.325 91.118 0 96.32 0 102.736c0 6.417 5.325 11.619 11.893 11.619z"
      fill="#158876"
      fill-opacity="0.31"
    />
    <g opacity=".25">
      <path
        opacity=".25"
        d="M16.503 97.34l-4.61 7.8-4.61-7.8H4.21l7.684 13.002 7.685-13.002h-3.075z"
        fill="#fff"
      />
      <path
        opacity=".8"
        d="M13.67 97.34l-1.777 3.003-1.776-3.003H7.28l4.61 7.8 4.61-7.8h-2.83z"
        fill="#fff"
      />
    </g>
  </g>
  <g opacity=".9">
    <path
      opacity=".9"
      d="M108.613 20.333c5.748 0 10.407-4.552 10.407-10.167C119.02 4.552 114.361 0 108.613 0c-5.747 0-10.406 4.552-10.406 10.166 0 5.615 4.659 10.167 10.406 10.167z"
      fill="#158876"
      fill-opacity="0.31"
    />
    <g opacity=".9" fill="#fff">
      <path
        opacity=".9"
        d="M108.614 3.866h-2.925l2.925 6.747M108.614 3.866h2.92l-2.92 6.747M108.613 12.56v5.222l-6.236-11.89h3.267M108.614 12.563v5.22l6.232-11.892h-3.266"
      />
    </g>
  </g>
  <path d="M85.958 28.828h-2.163v14.619h2.163V28.828z" fill="#158876" />
  <path
    d="M87.65 27.852c0 1.576-1.242 2.853-2.772 2.853-1.53 0-2.771-1.277-2.771-2.852 0-1.576 1.24-2.853 2.77-2.853 1.531 0 2.772 1.277 2.772 2.852z"
    fill="#137361"
  />
  <path
    d="M86.803 26.741c0 .482-.377.87-.845.87a.857.857 0 01-.846-.87c0-.482.377-.87.846-.87.468 0 .845.388.845.87zM93.797 44.757c-.07.01-.114-.407-.45-1.051 0 0-.158-.301-.34-.558-.582-.822-2.549-.804-2.704-.804-3.067.027-5.039-.171-5.039-.153 0 .015 1.44-.015 2.493-.037 2.973-.063 4.744-.225 5.505.594.316.34.474.783.474.783.216.602.143 1.214.061 1.226z"
    fill="#fff"
  />
  <path
    opacity=".59"
    d="M85.96 146.037c11.971 0 21.676-4.089 21.676-9.133 0-5.045-9.705-9.133-21.675-9.133-11.971 0-21.675 4.088-21.675 9.133 0 5.044 9.704 9.133 21.674 9.133z"
    fill="#137361"
  />
  <path
    d="M58.835 122.728c.06-10.853-1.316-13.03.848-15.561.249-.29 1.517-1.772 3.557-2.107 1.624-.267 3.078.302 3.763.724 4.158 2.565 2.656 13.192-.282 19.852-.64 1.452-2.359 5.347-4.335 5.203-.81-.06-1.393-.776-1.8-1.293-1.81-2.283-1.76-5.181-1.75-6.818z"
    fill="#158876"
  />
  <path
    d="M92.352 51.52H77.407c-1.103 0-1.996-.92-1.996-2.055v-5.497c0-1.136.893-2.055 1.996-2.055h14.945c1.103 0 1.995.92 1.995 2.055v5.497c-.002 1.136-.895 2.054-1.995 2.054z"
    fill="#137361"
  />
  <path
    d="M118.756 83.47c0 8.88-6.994 16.08-15.621 16.08H66.621C58.029 99.55 51 92.313 51 83.47v-8.353c0-15.736 12.506-28.61 27.793-28.61h12.173c15.287 0 27.794 12.874 27.794 28.61v8.353h-.005z"
    fill="#158876"
  />
  <path
    d="M108.098 81.949a6.38 6.38 0 01-2.891.687H64.546a6.378 6.378 0 01-2.891-.687c-2.177-1.109-3.406-3.347-3.1-5.642l.024-.166c1.042-7.774 7.884-13.754 16.27-14.202a187.092 187.092 0 0119.972-.006c8.419.446 15.311 6.4 16.356 14.205.008.057.014.112.023.169.307 2.295-.925 4.533-3.102 5.642z"
    fill="#243746"
  />
  <path
    fill="#fff"
    d="M74.011 88.497h20.901v2.831H74.011zM108.751 55.658c.038 1.332-1.019 2.925-2.23 3.064-1.136.126-2.04-1.067-2.976-2.296-.922-1.214-2.935-4.328-2.133-5.208 1.059-1.166 7.251 1.298 7.339 4.44zM98.386 50.58c.531 0 .962-.444.962-.991 0-.548-.43-.991-.962-.991s-.963.443-.963.99c0 .548.431.992.963.992zM108.613 74.141c-.31.226-2.464-4.295-8.249-8.214-2.034-1.377-4.041-2.359-3.921-2.645.12-.29 2.382.25 4.193 1.115 5.765 2.756 8.346 9.479 7.977 9.744z"
  />
  <path
    d="M109.163 109.504c0 .097 0 .187-.003.278a6.713 6.713 0 01-.327 1.834c-2.795 8.793-4.472 13.428-6.822 17.179a27.039 27.039 0 01-1.29 1.879c-.6.814-1.258 1.609-1.987 2.428-1.624 1.816-4.076 2.639-4.87 2.925-2.894 1.051-5.448.861-7.148.876h-.296c-1.703-.018-4.255.175-7.149-.876-.79-.283-3.251-1.106-4.87-2.925-4.462-5-6.18-9.154-10.098-21.483a6.55 6.55 0 01-.325-1.72 6.466 6.466 0 01-.003-.714c.085-1.473.665-2.919 1.698-4.238 1.764-2.262 4.491-3.503 7.312-3.515l13.587-.058 13.341-.054c2.88-.012 5.671 1.232 7.503 3.525.884 1.111 1.449 2.31 1.657 3.545.029.175.052.355.07.53.009.187.02.386.02.584z"
    fill="#158876"
  />
  <path
    d="M86.566 101.366l-13.587.057c-2.82.012-5.545 1.253-7.312 3.515-1.03 1.319-1.61 2.765-1.698 4.238.07-1.512.673-2.994 1.75-4.343 1.826-2.293 4.621-3.537 7.503-3.525l13.344.058z"
    fill="url(#paint2_linear)"
  />
  <path
    d="M100.071 121.972c-.199-10.85-1.624-12.995.48-15.576.243-.295 1.475-1.81 3.503-2.196 1.618-.307 3.084.226 3.778.63 4.217 2.461 2.967 13.124.187 19.853-.606 1.467-2.23 5.404-4.211 5.311-.81-.04-1.41-.741-1.829-1.248-1.858-2.238-1.879-5.138-1.908-6.774z"
    fill="#158876"
  />
  <path
    d="M102.008 128.792a27.039 27.039 0 01-1.29 1.879c-.146-.153-.275-.31-.392-.452-1.858-2.238-1.879-5.135-1.908-6.774-.2-10.85-1.627-12.992.48-15.573a6.6 6.6 0 011.636-1.455c-2.078 2.572-.662 4.735-.463 15.552.029 1.636.053 4.536 1.908 6.777.012.016.024.031.029.046z"
    fill="#137361"
  />
  <path
    d="M107.958 112.938c-.059-1.165-.272-2.024-.697-3.738-.556-2.244-1.252-3.337-.799-3.771.296-.283.875-.09 1.007-.048 1.993.653 2.61 4.5 2.522 6.91-.052 1.473-.4 3.123-.927 3.196a.584.584 0 01-.436-.133c-.585-.533-.624-1.53-.67-2.416zM109.324 117.053a.418.418 0 01-.412.425.418.418 0 01-.413-.425c0-.235.184-.425.413-.425.228 0 .412.19.412.425zM72.147 75.497h4.189v1.534H78.1v-1.534h1.082v-1.479H78.1v-5.714h-2.31l-3.643 5.74v1.453zm4.223-1.479h-2.365v-.068l2.297-3.635h.068v3.703zm7.463 3.205c2.195 0 3.52-1.67 3.525-4.547.004-2.855-1.339-4.491-3.525-4.491-2.19 0-3.52 1.632-3.524 4.491-.008 2.868 1.326 4.543 3.524 4.547zm0-1.53c-1.001 0-1.649-1.006-1.644-3.017.004-1.981.647-2.979 1.644-2.979.993 0 1.641.998 1.641 2.979.004 2.011-.643 3.017-1.64 3.017zm4.708-.196h4.19v1.534h1.763v-1.534h1.083v-1.479h-1.083v-5.714h-2.31l-3.643 5.74v1.453zm4.223-1.479H90.4v-.068l2.297-3.635h.068v3.703z"
    fill="#fff"
  />
  <defs>
    <linearGradient
      id="paint0_linear"
      x1="41.137"
      y1="89.534"
      x2="41.137"
      y2="78.424"
      gradientUnits="userSpaceOnUse"
    >
      <stop stop-color="#fff" stop-opacity=".95" />
      <stop offset="1" stop-color="#fff" stop-opacity=".5" />
    </linearGradient>
    <linearGradient
      id="paint1_linear"
      x1="133.766"
      y1="35.376"
      x2="133.766"
      y2="26.488"
      gradientUnits="userSpaceOnUse"
    >
      <stop stop-color="#fff" stop-opacity=".95" />
      <stop offset="1" stop-color="#fff" stop-opacity=".5" />
    </linearGradient>
    <linearGradient
      id="paint2_linear"
      x1="70.261"
      y1="110.169"
      x2="92.027"
      y2="85.477"
      gradientUnits="userSpaceOnUse"
    >
      <stop offset=".04" stop-color="#44BFE2" />
      <stop offset="1" stop-color="#DCE38C" />
    </linearGradient>
  </defs>
</svg>