<svg width="49" height="87" class="mb-3">
  <path d="M23.283 2.738h1.535V13.19h-1.535V2.738z" fill="#158876" />
  <path
    d="M22.083 2.04c0 1.126.88 2.04 1.967 2.04 1.086 0 1.967-.914 1.967-2.04C26.017.913 25.136 0 24.05 0c-1.087 0-1.967.913-1.967 2.04z"
    fill="#137361"
  />
  <path
    d="M22.683 1.245a.61.61 0 00.6.623.61.61 0 00.6-.623.61.61 0 00-.6-.623.61.61 0 00-.6.623zM17.72 14.128c.049.007.08-.29.319-.752 0 0 .112-.215.24-.398.414-.588 1.81-.575 1.92-.575 2.177.02 3.577-.123 3.577-.11 0 .01-1.022-.01-1.77-.026-2.11-.045-3.367-.162-3.907.424-.224.244-.336.56-.336.56-.154.431-.102.869-.044.877z"
    fill="#fff"
  />
  <path
    opacity=".59"
    d="M23.281 86.552c-8.496 0-15.384-2.924-15.384-6.53 0-3.608 6.888-6.532 15.384-6.532 8.497 0 15.385 2.924 15.385 6.531 0 3.607-6.888 6.531-15.385 6.531z"
    fill="#137361"
  />
  <path
    d="M42.884 58.266c-7.43.934-9.033.107-10.59 1.898-.178.205-1.09 1.254-1.153 2.773a4.452 4.452 0 00.802 2.692c2.096 2.83 9.253.859 13.576-1.836.942-.587 3.47-2.164 3.21-3.597-.107-.587-.645-.955-1.033-1.21-1.71-1.136-3.692-.862-4.812-.72z"
    fill="#158876"
  />
  <path
    d="M18.745 18.87h10.607c.783 0 1.417-.658 1.417-1.47V13.47c0-.812-.634-1.469-1.417-1.469H18.745c-.783 0-1.417.657-1.417 1.469V17.4c.003.812.636 1.47 1.417 1.47z"
    fill="#137361"
  />
  <path
    d="M.004 41.717c0 6.35 4.964 11.498 11.087 11.498h25.917c6.098 0 11.087-5.174 11.087-11.498v-5.973c0-11.253-8.877-20.46-19.727-20.46h-8.64C8.877 15.285 0 24.492 0 35.745v5.973h.004z"
    fill="#158876"
  />
  <path
    d="M7.569 40.724c.629.323 1.335.49 2.052.49h28.86a4.5 4.5 0 002.052-.49c1.545-.793 2.417-2.393 2.2-4.035l-.017-.118c-.74-5.56-5.596-9.835-11.548-10.156a131.857 131.857 0 00-14.176-.005c-5.976.32-10.867 4.578-11.608 10.159-.007.04-.01.08-.017.12-.218 1.642.656 3.242 2.202 4.035z"
    fill="#243746"
  />
  <path
    d="M31.656 39.99c-3.006 0-5.442-2.528-5.442-5.644 0-3.117 2.436-5.644 5.442-5.644 3.005 0 5.441 2.527 5.441 5.644 0 3.116-2.436 5.643-5.441 5.643z"
    fill="url(#paint0_radial)"
  />
  <path
    d="M31.656 38.397c-2.158 0-3.907-1.814-3.907-4.051 0-2.238 1.749-4.052 3.907-4.052 2.157 0 3.907 1.814 3.907 4.052 0 2.237-1.75 4.051-3.907 4.051z"
    fill="#EFF8FC"
  />
  <path
    d="M31.656 37.749c-1.813 0-3.282-1.524-3.282-3.403 0-1.88 1.47-3.404 3.282-3.404s3.281 1.524 3.281 3.404-1.469 3.403-3.281 3.403z"
    fill="#243746"
  />
  <path
    d="M29.554 33.465c0 .695.544 1.26 1.215 1.26.67 0 1.215-.565 1.215-1.26 0-.696-.544-1.26-1.215-1.26-.671-.003-1.215.562-1.215 1.26zM32.142 37.456a.493.493 0 01-.484-.502c0-.277.216-.502.484-.502.267 0 .484.225.484.502a.493.493 0 01-.484.502zM33.344 36.2c0 .138.108.252.243.252a.248.248 0 00.243-.252.248.248 0 00-.243-.252.247.247 0 00-.243.252z"
    fill="#EFF8FC"
  />
  <path
    d="M16.955 39.99c-3.006 0-5.442-2.528-5.442-5.644 0-3.117 2.436-5.644 5.442-5.644 3.005 0 5.442 2.527 5.442 5.644 0 3.116-2.437 5.643-5.442 5.643z"
    fill="url(#paint1_radial)"
  />
  <path
    d="M16.955 38.397c-2.158 0-3.907-1.814-3.907-4.051 0-2.238 1.749-4.052 3.907-4.052 2.157 0 3.907 1.814 3.907 4.052 0 2.237-1.75 4.051-3.907 4.051z"
    fill="#EFF8FC"
  />
  <path
    d="M16.955 37.749c-1.813 0-3.282-1.524-3.282-3.403 0-1.88 1.47-3.404 3.282-3.404s3.281 1.524 3.281 3.404-1.469 3.403-3.281 3.403z"
    fill="#243746"
  />
  <path
    d="M14.853 33.465c0 .695.544 1.26 1.215 1.26.67 0 1.215-.565 1.215-1.26 0-.696-.544-1.26-1.215-1.26-.671-.003-1.215.562-1.215 1.26zM17.439 37.456a.493.493 0 01-.484-.502c0-.277.216-.502.484-.502.267 0 .484.225.484.502a.493.493 0 01-.484.502zM18.641 36.2c0 .138.108.252.243.252a.248.248 0 00.243-.252.248.248 0 00-.243-.252.248.248 0 00-.243.252z"
    fill="#EFF8FC"
  />
  <path
    d="M7.105 21.924c-.027.951.723 2.091 1.583 2.19.806.09 1.448-.762 2.112-1.641.655-.868 2.084-3.096 1.515-3.724-.752-.834-5.147.928-5.21 3.175zM14.462 18.292a.696.696 0 01-.683-.709c0-.391.306-.708.683-.708.378 0 .684.317.684.708a.696.696 0 01-.684.709zM7.203 35.14c.22.162 1.749-3.071 5.855-5.873 1.444-.985 2.869-1.687 2.783-1.892-.085-.206-1.69.179-2.976.797-4.092 1.971-5.924 6.779-5.662 6.968z"
    fill="#fff"
  />
  <path
    d="M18.172 43.636c.054.54.488.956 1.01 1.01l7.209.722a1.11 1.11 0 001.175-.79c.069-.231.12-.47.156-.716a.265.265 0 00-.048-.192.242.242 0 00-.166-.095l-9.095-.909a.231.231 0 00-.179.06.245.245 0 00-.081.175c-.012.248-.006.494.019.735z"
    fill="#EFF8FC"
  />
  <path
    d="M18.172 43.638c.23 2.318 2.006 4.224 4.328 4.452 2.29.23 4.358-1.243 5.037-3.422-.18.465-.654.75-1.146.697l-7.212-.719a1.132 1.132 0 01-1.007-1.008z"
    fill="#243746"
  />
  <path
    d="M6.813 60.428a4.818 4.818 0 00.235 1.51c1.983 6.288 3.173 9.603 4.84 12.285.29.463.59.906.917 1.344.425.581.893 1.15 1.41 1.736 1.153 1.299 2.893 1.887 3.456 2.091 2.054.752 3.868.616 5.074.627h.21c1.209-.013 3.02.125 5.074-.627.561-.202 2.308-.79 3.456-2.091 3.168-3.576 4.387-6.546 7.168-15.362.067-.203.2-.642.23-1.23.009-.17.013-.34.003-.51-.06-1.054-.472-2.088-1.205-3.032-1.252-1.617-3.188-2.505-5.19-2.513l-9.644-.041-9.469-.039c-2.044-.009-4.025.881-5.325 2.52-.628.795-1.029 1.652-1.176 2.535-.02.125-.037.255-.05.38-.006.133-.014.275-.014.417z"
    fill="#158876"
  />
  <path
    d="M22.851 54.608l9.644.041c2.002.009 3.936.896 5.19 2.514.731.943 1.143 1.977 1.205 3.03-.05-1.08-.478-2.14-1.242-3.105-1.296-1.64-3.28-2.53-5.326-2.52l-9.47.04z"
    fill="url(#paint2_linear)"
  />
  <path
    d="M17.447 60.091c-7.429.937-9.034.112-10.588 1.903-.178.206-1.09 1.255-1.153 2.772-.05 1.21.46 2.225.803 2.69 2.098 2.829 9.255.855 13.575-1.842.942-.588 3.47-2.164 3.21-3.599-.108-.587-.646-.954-1.033-1.209-1.712-1.13-3.695-.857-4.814-.715z"
    fill="#137361"
  />
  <path
    d="M17.145 58.84c-7.428.937-9.033.112-10.588 1.903-.177.206-1.09 1.255-1.153 2.772-.05 1.21.46 2.226.804 2.69 2.098 2.83 9.255.855 13.574-1.842.942-.588 3.47-2.164 3.21-3.599-.107-.587-.646-.954-1.033-1.208-1.712-1.132-3.694-.857-4.814-.716z"
    fill="#158876"
  />
  <path
    d="M11.926 65.088c-.802.074-1.409.004-2.621-.134-1.587-.182-2.403-.58-2.654-.207-.164.244.025.647.067.739.643 1.387 3.33 1.454 4.967 1.15 1-.186 2.093-.604 2.09-.995a.448.448 0 00-.133-.305c-.422-.373-1.106-.302-1.716-.248zM6.048 63.941c0 .168.13.304.293.304a.298.298 0 00.293-.304.298.298 0 00-.293-.303.298.298 0 00-.293.303z"
    fill="#fff"
  />
  <defs>
    <radialGradient
      id="paint0_radial"
      cx="0"
      cy="0"
      r="1"
      gradientUnits="userSpaceOnUse"
      gradientTransform="matrix(-5.38592 0 0 -5.58557 31.656 34.345)"
    >
      <stop offset=".13" stop-color="#4974B9" />
      <stop offset="1" stop-color="#020203" />
    </radialGradient>
    <radialGradient
      id="paint1_radial"
      cx="0"
      cy="0"
      r="1"
      gradientUnits="userSpaceOnUse"
      gradientTransform="matrix(-5.38593 0 0 -5.58557 16.954 34.345)"
    >
      <stop offset=".13" stop-color="#4974B9" />
      <stop offset="1" stop-color="#020203" />
    </radialGradient>
    <linearGradient
      id="paint2_linear"
      x1="34.424"
      y1="60.904"
      x2="18.845"
      y2="43.362"
      gradientUnits="userSpaceOnUse"
    >
      <stop offset=".04" stop-color="#44BFE2" />
      <stop offset="1" stop-color="#DCE38C" />
    </linearGradient>
  </defs>
</svg>