<svg width="71" height="71" viewBox="0 0 71 71" fill="none" xmlns="http://www.w3.org/2000/svg">
<path d="M0 61.8452C0 66.9018 4.09873 71 9.15478 71H61.8452C66.9018 71 71 66.9013 71 61.8452V9.15478C71 4.09818 66.9013 0 61.8452 0H9.15478C4.09818 0 0 4.09873 0 9.15478V61.8452Z" fill="#563D7C"/>
<path d="M29.4424 31.4059V21.3512H38.2929C39.1358 21.3512 39.9486 21.4214 40.7313 21.5619C41.514 21.7024 42.2064 21.9533 42.8085 22.3145C43.4105 22.6758 43.8922 23.1775 44.2534 23.8197C44.6147 24.4619 44.7953 25.2848 44.7953 26.2882C44.7953 28.0945 44.2534 29.399 43.1697 30.2017C42.086 31.0045 40.7012 31.4059 39.0154 31.4059H29.4424ZM19.9897 14.0059V56.9941H40.8216C42.7483 56.9941 44.6247 56.7533 46.451 56.2716C48.2773 55.79 49.9029 55.0474 51.3278 54.044C52.7528 53.0405 53.8867 51.746 54.7296 50.1606C55.5725 48.5751 55.9939 46.6986 55.9939 44.5311C55.9939 41.8419 55.3417 39.544 54.0372 37.6374C52.7327 35.7308 50.7559 34.3962 48.1067 33.6336C50.0334 32.7104 51.4884 31.5263 52.4718 30.0813C53.4552 28.6363 53.9469 26.8301 53.9469 24.6626C53.9469 22.6557 53.6157 20.9699 52.9534 19.6052C52.2912 18.2405 51.358 17.1467 50.1538 16.3239C48.9496 15.501 47.5047 14.909 45.8188 14.5477C44.133 14.1865 42.2666 14.0059 40.2195 14.0059H19.9897ZM29.4424 49.6488V37.8481H39.7379C41.7849 37.8481 43.4306 38.3197 44.6749 39.263C45.9192 40.2062 46.5413 41.7817 46.5413 43.9893C46.5413 45.1132 46.3507 46.0363 45.9694 46.7588C45.588 47.4813 45.0763 48.0533 44.4341 48.4748C43.7918 48.8962 43.0493 49.1972 42.2064 49.3779C41.3635 49.5585 40.4804 49.6488 39.5572 49.6488H29.4424Z" fill="white"/>
</svg>
