<svg width="256" height="189" viewBox="0 0 256 189" fill="none" xmlns="http://www.w3.org/2000/svg">
<path d="M235.135 92.6648C234.921 111.956 223.205 129.349 204.318 141.858C185.434 154.366 159.425 161.957 130.769 161.632C102.112 161.308 76.2781 153.131 57.6758 140.198C39.0709 127.264 27.7432 109.611 27.9569 90.3195C28.1706 71.0278 39.8866 53.6355 58.7734 41.1258C77.6575 28.6179 103.666 21.0277 132.323 21.3521C160.98 21.6765 186.814 29.8536 205.416 42.7858C224.021 55.7199 235.349 73.3731 235.135 92.6648Z" stroke="#41B38A" stroke-opacity="0.13"/>
<path d="M247.742 93.3365C247.949 115.588 235.248 135.906 214.441 150.759C193.636 165.611 164.763 174.966 132.754 175.271C100.744 175.576 71.7022 166.773 50.6238 152.32C29.5437 137.866 16.4658 117.793 16.2583 95.5419C16.0508 73.2908 28.7522 52.9722 49.559 38.119C70.3642 23.267 99.237 13.9124 131.246 13.6075C163.256 13.3025 192.298 22.1053 213.376 36.5583C234.456 51.0124 247.534 71.0854 247.742 93.3365Z" stroke="#41B38A" stroke-opacity="0.13"/>
<path d="M220.519 89.8482C220.34 106.034 210.276 120.639 194.02 131.149C177.769 141.657 155.379 148.033 130.704 147.753C106.028 147.474 83.785 140.593 67.7704 129.72C51.7521 118.844 42.0141 104.016 42.1934 87.8295C42.3727 71.6433 52.4368 57.039 68.6921 46.5287C84.9435 36.0209 107.334 29.6451 132.009 29.9244C156.684 30.2037 178.927 37.0848 194.942 47.9579C210.96 58.8335 220.698 73.6619 220.519 89.8482Z" stroke="#41B38A" stroke-opacity="0.13"/>
<path d="M54 147C59.5229 147 64 142.523 64 137C64 131.477 59.5229 127 54 127C48.4772 127 44 131.477 44 137C44 142.523 48.4772 147 54 147Z" fill="#41B38A"/>
<path fill-rule="evenodd" clip-rule="evenodd" d="M50.554 135.62C51.0141 133.784 52.1643 132.859 54 132.859C56.7606 132.859 57.1033 134.925 58.4836 135.272C59.4037 135.502 60.2065 135.16 60.8967 134.235C60.4366 136.075 59.2864 136.995 57.4507 136.995C54.6901 136.995 54.3474 134.93 52.9671 134.582C52.0469 134.357 51.2394 134.7 50.554 135.62ZM47.1033 139.756C47.5634 137.92 48.7136 136.995 50.554 136.995C53.3145 136.995 53.6573 139.061 55.0375 139.408C55.9577 139.638 56.7606 139.296 57.4507 138.371C56.9906 140.211 55.8404 141.131 54 141.131C51.2441 141.131 50.8967 139.066 49.5164 138.718C48.5962 138.493 47.7934 138.84 47.1033 139.756Z" fill="white"/>
<path d="M141.5 189C151.165 189 159 181.165 159 171.5C159 161.835 151.165 154 141.5 154C131.835 154 124 161.835 124 171.5C124 181.165 131.835 189 141.5 189Z" fill="#41B38A"/>
<path fill-rule="evenodd" clip-rule="evenodd" d="M132.013 166.235L143.987 164.454C144.309 164.408 144.639 164.6 144.739 164.891L149.69 179.82C149.812 180.189 149.621 180.549 149.267 180.626L135.858 183.535C135.459 183.62 135.068 183.366 134.983 182.967L131.499 166.887C131.43 166.572 131.66 166.281 132.013 166.235Z" fill="#B3E1D0"/>
<path fill-rule="evenodd" clip-rule="evenodd" d="M132.09 166.073L144.063 164.293C144.386 164.247 144.716 164.439 144.816 164.73L149.766 179.659C149.889 180.027 149.697 180.388 149.344 180.465L135.935 183.374C135.536 183.458 135.145 183.205 135.06 182.806L131.575 166.726C131.499 166.411 131.737 166.119 132.09 166.073Z" fill="white"/>
<path fill-rule="evenodd" clip-rule="evenodd" d="M133.218 164.285L145.107 162.543C145.43 162.497 145.767 162.689 145.86 162.98L150.879 177.648C151.002 178.001 150.818 178.347 150.473 178.416L137.455 181.148C137.071 181.225 136.687 180.987 136.588 180.611L132.719 164.938C132.65 164.623 132.873 164.339 133.218 164.285Z" fill="#B3E1D0"/>
<path fill-rule="evenodd" clip-rule="evenodd" d="M133.295 164.124L145.184 162.382C145.507 162.336 145.844 162.527 145.936 162.819L150.956 177.487C151.079 177.84 150.895 178.185 150.549 178.254L137.532 180.987C137.148 181.064 136.764 180.826 136.665 180.45L132.796 164.776C132.727 164.462 132.95 164.178 133.295 164.124Z" fill="white"/>
<path fill-rule="evenodd" clip-rule="evenodd" d="M134.5 162.405L146.282 160.716C146.597 160.67 146.934 160.862 147.034 161.146L152.115 175.537C152.238 175.883 152.061 176.22 151.716 176.29L138.906 178.907C138.53 178.984 138.146 178.746 138.046 178.377L134.017 163.034C133.94 162.735 134.155 162.451 134.5 162.405Z" fill="#B3E1D0"/>
<path fill-rule="evenodd" clip-rule="evenodd" d="M134.577 162.243L146.358 160.555C146.673 160.509 147.011 160.701 147.111 160.985L152.192 175.376C152.315 175.721 152.138 176.059 151.793 176.128L138.982 178.746C138.606 178.822 138.223 178.584 138.123 178.216L134.093 162.873C134.009 162.573 134.231 162.289 134.577 162.243Z" fill="white"/>
<path fill-rule="evenodd" clip-rule="evenodd" d="M140.94 171.715L146.128 170.756C146.205 170.74 146.274 170.786 146.297 170.855L147.172 173.626C147.195 173.711 147.149 173.803 147.057 173.818L141.792 174.847C141.715 174.862 141.638 174.816 141.623 174.739L140.824 171.907C140.794 171.822 140.848 171.738 140.94 171.715ZM140.487 171.968L141.27 174.824C141.331 175.046 141.554 175.184 141.776 175.138L147.103 174.102C147.364 174.048 147.518 173.787 147.441 173.534L146.558 170.786C146.489 170.579 146.282 170.449 146.059 170.487L140.824 171.416C140.579 171.462 140.418 171.715 140.487 171.968ZM141.523 172.199L142.068 174.125L142.659 173.995L142.344 172.889L143.15 173.519L143.542 172.628L143.864 173.757L144.44 173.634L143.887 171.769L143.281 171.876L142.912 172.69L142.122 172.091L141.523 172.199ZM145.798 172.459L145.507 171.469L144.892 171.577L145.2 172.575L144.647 172.682L145.775 173.434L146.351 172.352L145.798 172.459Z" fill="#D9F0E8"/>
<path d="M147.157 173.749L147.095 173.879L147.072 173.918C147.049 173.949 147.018 173.972 146.98 173.979L141.715 175.008C141.638 175.023 141.561 174.977 141.546 174.9L140.748 172.068C140.74 172.037 140.74 171.999 140.755 171.968C140.755 171.968 140.755 171.961 140.763 171.961L140.771 171.953L140.832 171.822C140.824 171.845 140.817 171.884 140.832 171.915L140.855 171.991L141.63 174.747C141.653 174.824 141.722 174.87 141.799 174.854L147.065 173.826C147.103 173.81 147.134 173.78 147.157 173.749ZM147.379 173.933C147.402 173.856 147.395 173.78 147.372 173.695L146.489 170.947C146.42 170.74 146.213 170.61 145.99 170.648L140.755 171.577C140.64 171.6 140.54 171.661 140.479 171.746C140.517 171.584 140.648 171.446 140.824 171.416L146.059 170.487C146.274 170.449 146.489 170.579 146.55 170.786L147.433 173.534C147.487 173.672 147.464 173.818 147.379 173.933ZM146.351 172.352L146.266 172.513L145.721 172.621L145.43 171.631L144.938 171.715L144.892 171.577L145.506 171.469L145.798 172.459L146.351 172.352ZM145.084 172.59L145.199 172.567L145.123 172.728L144.816 172.79L144.647 172.674L145.084 172.59ZM142.904 172.69L142.835 172.851L142.045 172.252L141.569 172.344L141.531 172.206L142.122 172.091L142.904 172.69ZM144.44 173.626L144.324 173.649L143.81 171.922L143.204 172.03L143.273 171.868L143.879 171.761L144.44 173.626ZM142.429 173.158L142.352 172.874L142.275 173.035L142.551 174.01L142.666 173.987L142.429 173.158Z" fill="#B3E1D0"/>
<path d="M139.312 164.408L137.785 164.623L143.227 169.681L145.184 163.479L143.741 163.732L142.597 167.386L139.312 164.408Z" fill="#41B38A" fill-opacity="0.4"/>
<path d="M139.312 164.408L140.717 164.193L141.953 165.298L142.421 163.94L143.741 163.725L142.597 167.378L139.312 164.408Z" fill="#D9F0E8"/>
<path d="M241 122C249.284 122 256 115.284 256 107C256 98.7157 249.284 92 241 92C232.716 92 226 98.7157 226 107C226 115.284 232.716 122 241 122Z" fill="#41B38A"/>
<path d="M241 97.7042H236.789L241 107.662" fill="white"/>
<path d="M241 97.7042H245.211L241 107.662" fill="white"/>
<path d="M241 110.535V118.232L232.014 100.69H236.718" fill="white"/>
<path d="M241 110.535V118.232L249.986 100.69H245.282" fill="white"/>
<path d="M59 58C67.2843 58 74 51.2843 74 43C74 34.7157 67.2843 28 59 28C50.7158 28 44 34.7157 44 43C44 51.2843 50.7158 58 59 58Z" fill="#41B38A"/>
<path d="M49.9276 49.7368C49.9276 51.0263 50.9802 52.0789 52.2697 52.0789H65.7434C67.0329 52.0789 68.0855 51.0263 68.0855 49.7368V36.2631C68.0855 34.9736 67.0329 33.921 65.7434 33.921H52.2697C50.9802 33.921 49.9276 34.9736 49.9276 36.2631V49.7368Z" stroke="white" stroke-miterlimit="10"/>
<path d="M57.454 41.954V39.3816H59.7172C59.9343 39.3816 60.1448 39.4013 60.3422 39.4342C60.5461 39.4671 60.7172 39.5329 60.8751 39.625C61.033 39.7171 61.1514 39.8421 61.2435 40.0132C61.3356 40.1776 61.3817 40.3882 61.3817 40.6447C61.3817 41.1119 61.2435 41.4408 60.9672 41.6448C60.6909 41.8487 60.3356 41.954 59.908 41.954H57.454V41.954ZM55.0396 37.5066V48.5H60.3619C60.8553 48.5 61.3356 48.4408 61.8027 48.3158C62.2698 48.1908 62.6843 48 63.0461 47.7434C63.408 47.4869 63.6974 47.1579 63.9211 46.75C64.1382 46.3421 64.2435 45.8684 64.2435 45.3092C64.2435 44.625 64.079 44.0329 63.7435 43.5461C63.408 43.0592 62.908 42.7171 62.2303 42.5263C62.7238 42.2895 63.0988 41.9869 63.3488 41.6184C63.5988 41.25 63.7238 40.7829 63.7238 40.2303C63.7238 39.7171 63.6382 39.2829 63.4738 38.9408C63.3093 38.5921 63.0658 38.3158 62.7566 38.1053C62.4474 37.8948 62.079 37.7434 61.6514 37.6513C61.2237 37.5592 60.7435 37.5132 60.2238 37.5132L55.0396 37.5066ZM57.454 46.6184V43.5987H60.0856C60.6119 43.5987 61.0329 43.7237 61.3487 43.9605C61.6645 44.204 61.8224 44.6053 61.8224 45.1645C61.8224 45.4474 61.7698 45.6908 61.6777 45.875C61.5856 46.0592 61.4474 46.204 61.2895 46.3158C61.1251 46.4211 60.9343 46.5 60.7172 46.5461C60.5001 46.5921 60.2764 46.6119 60.0395 46.6119L57.454 46.6184Z" fill="white"/>
<path d="M201 72C210.941 72 219 63.9411 219 54C219 44.0589 210.941 36 201 36C191.059 36 183 44.0589 183 54C183 63.9411 191.059 72 201 72Z" fill="#41B38A"/>
<path d="M211.689 58.7073L205.433 47.5492C204.917 46.6421 203.588 46.6421 203.072 47.5492L202.407 48.7377L203.181 50.1217L204.261 48.2294L210.493 59.3172H208.272C208.389 60.021 207.779 60.7169 206.903 60.7169H210.5C211.532 60.709 212.182 59.5909 211.689 58.7073Z" fill="white"/>
<path d="M196.598 59.3094H191.515L199.194 45.6412L201.688 50.0357L202.415 48.7377L200.234 44.8593C199.772 44.0383 198.607 44.0383 198.146 44.8671L190.303 58.8871C189.842 59.7081 190.452 60.709 191.406 60.709H197.966C197.09 60.709 196.473 60.0209 196.598 59.3094Z" fill="white"/>
<path d="M208.272 59.3094C208.248 59.1842 208.209 59.0591 208.139 58.934L203.182 50.1139L202.407 48.7299L201.68 50.0279L196.723 58.9262C196.652 59.0513 196.613 59.1764 196.59 59.3015C196.473 60.0053 197.083 60.7012 197.95 60.7012H198.193H206.896C207.779 60.709 208.389 60.0209 208.272 59.3094ZM198.021 59.3094L202.447 51.4666L206.849 59.3094H198.021Z" fill="white"/>
<path d="M15 104C23.2842 104 30 97.2843 30 89C30 80.7157 23.2842 74 15 74C6.71571 74 0 80.7157 0 89C0 97.2843 6.71571 104 15 104Z" fill="#41B38A"/>
<path d="M9.09204 83.8114L14.2736 78.6857L20.7191 85.0823L16.9831 88.9999L22.1576 94.2443L14.1828 99.3072L7.849 92.6312L9.09204 83.8114Z" fill="white"/>
<path d="M142 28C149.732 28 156 21.732 156 14C156 6.26801 149.732 0 142 0C134.268 0 128 6.26801 128 14C128 21.732 134.268 28 142 28Z" fill="#41B38A"/>
<path d="M145.425 14.0529C145.425 13.1518 146.167 12.4164 147.082 12.4164H149.494C150.408 12.4164 151.17 13.1452 151.17 14.0529C151.17 14.954 150.408 15.6895 149.494 15.6895H147.082C146.161 15.6961 145.425 14.9606 145.425 14.0529Z" fill="white"/>
<path d="M140.363 14.0596C140.363 13.1585 141.099 12.4231 142.007 12.4231C142.914 12.4231 143.65 13.1585 143.65 14.0596C143.65 14.9607 142.914 15.6962 142.007 15.6962C141.099 15.6962 140.363 14.9607 140.363 14.0596Z" fill="white"/>
<path fill-rule="evenodd" clip-rule="evenodd" d="M143.604 6.39374C143.644 7.27495 142.955 8.02366 142.073 8.05678C138.257 8.2158 135.932 11.1973 136.044 14.0397C136.084 14.921 135.408 15.6696 134.527 15.7028C133.646 15.7359 132.864 15.027 132.831 14.1391C132.645 9.51442 136.508 4.94935 141.948 4.86322C142.822 4.83009 143.571 5.51253 143.604 6.39374Z" fill="white"/>
<path fill-rule="evenodd" clip-rule="evenodd" d="M132.817 13.9735C132.837 19.5589 137.428 23.2494 142.066 23.1302C147.546 22.9314 151.495 18.1808 151.17 13.9404C151.09 13.0592 150.309 12.3767 149.427 12.4231C148.546 12.4629 147.864 13.2182 147.904 14.0994C148.029 16.6768 145.651 19.8372 141.987 19.9366C139.078 20.0095 136.169 17.7236 136.044 14.1789C136.01 15.0005 135.361 15.6763 134.526 15.7094C133.645 15.7492 132.863 15.0336 132.83 14.1458C132.817 14.0862 132.817 14.0332 132.817 13.9735Z" fill="url(#paint0_linear)"/>
<path d="M131 133C155.853 133 176 112.853 176 88C176 63.1472 155.853 43 131 43C106.147 43 86 63.1472 86 88C86 112.853 106.147 133 131 133Z" fill="#41B38A"/>
<path d="M147.982 68.7728L130.535 98.9669L113.088 68.7728H101.464L130.535 119.117L159.606 68.7728H147.982Z" fill="white"/>
<path opacity="0.8" d="M137.252 68.7728L130.535 80.3972L123.818 68.7728H113.068L130.514 98.9877L147.961 68.7728H137.252Z" fill="white"/>
<circle cx="242" cy="66" r="4" fill="#E6F5F0"/>
<circle cx="152" cy="32" r="4" fill="#E6F5F0"/>
<circle cx="78" cy="24" r="4" fill="#E6F5F0"/>
<circle cx="112" cy="145" r="4" fill="#E6F5F0"/>
<circle cx="212" cy="137" r="4" fill="#E6F5F0"/>
<circle cx="68" cy="163" r="4" fill="#E6F5F0"/>
<defs>
<linearGradient id="paint0_linear" x1="141.999" y1="23.1349" x2="141.999" y2="12.4223" gradientUnits="userSpaceOnUse">
<stop stop-color="white" stop-opacity="0.95"/>
<stop offset="1" stop-color="white" stop-opacity="0.5"/>
</linearGradient>
</defs>
</svg>
