<svg width="508" height="325" viewBox="0 0 508 325" fill="none" xmlns="http://www.w3.org/2000/svg">
<path d="M1 38H450V314C450 315.657 448.657 317 447 317H4C2.34314 317 1 315.657 1 314V38Z" fill="white" stroke="#F4F5F7" stroke-width="2"/>
<path d="M0 13C0 10.7909 1.79086 9 4 9H447C449.209 9 451 10.7909 451 13V39H0V13Z" fill="#F4F5F7"/>
<path d="M50 24.5C50 22.567 48.433 21 46.5 21C44.567 21 43 22.567 43 24.5C43 26.433 44.567 28 46.5 28C48.433 28 50 26.433 50 24.5Z" fill="#62C191"/>
<path d="M39 24.5C39 22.567 37.433 21 35.5 21C33.567 21 32 22.567 32 24.5C32 26.433 33.567 28 35.5 28C37.433 28 39 26.433 39 24.5Z" fill="#F3CB49"/>
<path d="M28 24.5C28 22.567 26.433 21 24.5 21C22.567 21 21 22.567 21 24.5C21 26.433 22.567 28 24.5 28C26.433 28 28 26.433 28 24.5Z" fill="#DF5D58"/>
<circle cx="419" cy="24" r="11" fill="#EAEBED"/>
<path d="M419.191 16.6587H418.808V19.1736H419.191V16.6587Z" fill="#158876"/>
<path d="M419.49 16.4908C419.49 16.7618 419.271 16.9815 419 16.9815C418.729 16.9815 418.509 16.7618 418.509 16.4908C418.509 16.2197 418.729 16 419 16C419.271 16 419.49 16.2197 419.49 16.4908Z" fill="#137361"/>
<path d="M419.341 16.2997C419.341 16.3826 419.274 16.4494 419.191 16.4494C419.108 16.4494 419.041 16.3826 419.041 16.2997C419.041 16.2168 419.108 16.1499 419.191 16.1499C419.274 16.1499 419.341 16.2168 419.341 16.2997Z" fill="white"/>
<path d="M420.579 19.3994C420.567 19.4009 420.559 19.3294 420.499 19.2185C420.499 19.2185 420.471 19.1667 420.439 19.1226C420.336 18.9812 419.988 18.9843 419.96 18.9843C419.417 18.9889 419.068 18.9547 419.068 18.9578C419.068 18.9604 419.323 18.9553 419.509 18.9516C420.036 18.9407 420.349 18.9128 420.484 19.0537C420.54 19.1123 420.568 19.1885 420.568 19.1885C420.606 19.2921 420.594 19.3973 420.579 19.3994Z" fill="white"/>
<path d="M420.323 20.5628H417.677C417.481 20.5628 417.323 20.4047 417.323 20.2093V19.2636C417.323 19.0682 417.481 18.9102 417.677 18.9102H420.323C420.519 18.9102 420.677 19.0682 420.677 19.2636V20.2093C420.676 20.4047 420.518 20.5628 420.323 20.5628Z" fill="#137361"/>
<path d="M424.999 26.0588C424.999 27.5866 423.76 28.8251 422.233 28.8251H415.766C414.245 28.8251 413 27.5803 413 26.0588V24.6218C413 21.9146 415.215 19.6997 417.922 19.6997H420.078C422.785 19.6997 425 21.9146 425 24.6218V26.0588H424.999Z" fill="#158876"/>
<path d="M423.111 25.7974C422.954 25.8751 422.778 25.9155 422.599 25.9155H415.399C415.22 25.9155 415.044 25.8751 414.887 25.7974C414.501 25.6067 414.283 25.2216 414.338 24.8267L414.342 24.7982C414.526 23.4607 415.738 22.432 417.223 22.3548C417.852 22.3222 418.511 22.3051 419.199 22.3092C419.738 22.3123 420.259 22.3284 420.76 22.3538C422.251 22.4305 423.472 23.455 423.657 24.7977C423.658 24.8076 423.659 24.8169 423.661 24.8267C423.715 25.2216 423.497 25.6067 423.111 25.7974Z" fill="#243746"/>
<path d="M417.102 25.6208C417.852 25.6208 418.46 25.0129 418.46 24.263C418.46 23.5132 417.852 22.9053 417.102 22.9053C416.352 22.9053 415.744 23.5132 415.744 24.263C415.744 25.0129 416.352 25.6208 417.102 25.6208Z" fill="url(#paint0_radial)"/>
<path d="M417.102 25.2376C417.64 25.2376 418.077 24.8012 418.077 24.2629C418.077 23.7245 417.64 23.2881 417.102 23.2881C416.563 23.2881 416.127 23.7245 416.127 24.2629C416.127 24.8012 416.563 25.2376 417.102 25.2376Z" fill="#EFF8FC"/>
<path d="M417.102 25.0819C417.554 25.0819 417.92 24.7153 417.92 24.2631C417.92 23.8109 417.554 23.4443 417.102 23.4443C416.649 23.4443 416.283 23.8109 416.283 24.2631C416.283 24.7153 416.649 25.0819 417.102 25.0819Z" fill="#243746"/>
<path d="M417.626 24.0512C417.626 24.2186 417.491 24.3544 417.323 24.3544C417.156 24.3544 417.02 24.2186 417.02 24.0512C417.02 23.8838 417.156 23.748 417.323 23.748C417.491 23.7475 417.626 23.8833 417.626 24.0512Z" fill="#EFF8FC"/>
<path d="M416.98 25.011C417.047 25.011 417.101 24.957 417.101 24.8903C417.101 24.8236 417.047 24.7695 416.98 24.7695C416.913 24.7695 416.859 24.8236 416.859 24.8903C416.859 24.957 416.913 25.011 416.98 25.011Z" fill="#EFF8FC"/>
<path d="M416.68 24.7091C416.68 24.7422 416.653 24.7697 416.62 24.7697C416.587 24.7697 416.559 24.7428 416.559 24.7091C416.559 24.6759 416.586 24.6484 416.62 24.6484C416.653 24.6484 416.68 24.6754 416.68 24.7091Z" fill="#EFF8FC"/>
<path d="M420.77 25.6208C421.52 25.6208 422.128 25.0129 422.128 24.263C422.128 23.5132 421.52 22.9053 420.77 22.9053C420.02 22.9053 419.412 23.5132 419.412 24.263C419.412 25.0129 420.02 25.6208 420.77 25.6208Z" fill="url(#paint1_radial)"/>
<path d="M420.77 25.2376C421.308 25.2376 421.744 24.8012 421.744 24.2629C421.744 23.7245 421.308 23.2881 420.77 23.2881C420.231 23.2881 419.795 23.7245 419.795 24.2629C419.795 24.8012 420.231 25.2376 420.77 25.2376Z" fill="#EFF8FC"/>
<path d="M420.77 25.0819C421.222 25.0819 421.589 24.7153 421.589 24.2631C421.589 23.8109 421.222 23.4443 420.77 23.4443C420.318 23.4443 419.951 23.8109 419.951 24.2631C419.951 24.7153 420.318 25.0819 420.77 25.0819Z" fill="#243746"/>
<path d="M421.294 24.0512C421.294 24.2186 421.159 24.3544 420.991 24.3544C420.824 24.3544 420.688 24.2186 420.688 24.0512C420.688 23.8838 420.824 23.748 420.991 23.748C421.159 23.7475 421.294 23.8833 421.294 24.0512Z" fill="#EFF8FC"/>
<path d="M420.649 25.011C420.716 25.011 420.77 24.957 420.77 24.8903C420.77 24.8236 420.716 24.7695 420.649 24.7695C420.582 24.7695 420.528 24.8236 420.528 24.8903C420.528 24.957 420.582 25.011 420.649 25.011Z" fill="#EFF8FC"/>
<path d="M420.349 24.7091C420.349 24.7422 420.322 24.7697 420.288 24.7697C420.255 24.7697 420.228 24.7428 420.228 24.7091C420.228 24.6759 420.254 24.6484 420.288 24.6484C420.321 24.6484 420.349 24.6754 420.349 24.7091Z" fill="#EFF8FC"/>
<path d="M423.227 21.2745C423.234 21.5035 423.047 21.7777 422.833 21.8015C422.631 21.8233 422.471 21.6181 422.306 21.4066C422.142 21.1978 421.786 20.6619 421.928 20.5106C422.115 20.3101 423.212 20.734 423.227 21.2745Z" fill="white"/>
<path d="M421.392 20.4006C421.486 20.4006 421.562 20.3242 421.562 20.2301C421.562 20.1359 421.486 20.0596 421.392 20.0596C421.298 20.0596 421.221 20.1359 421.221 20.2301C421.221 20.3242 421.298 20.4006 421.392 20.4006Z" fill="white"/>
<path d="M423.203 24.454C423.148 24.4929 422.767 23.715 421.742 23.0408C421.382 22.804 421.027 22.635 421.048 22.5858C421.069 22.536 421.47 22.6288 421.79 22.7775C422.811 23.2517 423.268 24.4084 423.203 24.454Z" fill="white"/>
<path d="M420.466 26.4981C420.453 26.6282 420.344 26.7282 420.214 26.7412L418.415 26.9148C418.285 26.9272 418.16 26.85 418.122 26.7246C418.105 26.6691 418.092 26.6116 418.083 26.5525C418.081 26.5365 418.085 26.5199 418.095 26.5064C418.106 26.4935 418.121 26.4852 418.137 26.4836L420.406 26.2649C420.422 26.2634 420.438 26.2685 420.45 26.2794C420.463 26.2903 420.47 26.3053 420.471 26.3214C420.474 26.381 420.472 26.4401 420.466 26.4981Z" fill="#EFF8FC"/>
<path d="M420.466 26.499C420.409 27.0566 419.965 27.5153 419.386 27.5702C418.815 27.6256 418.299 27.2712 418.129 26.7467C418.174 26.8587 418.293 26.9271 418.415 26.9146L420.215 26.7416C420.345 26.7286 420.453 26.6286 420.466 26.499Z" fill="#243746"/>
<path d="M423.329 31.8367C423.329 31.8772 423.296 31.9098 423.256 31.9098C423.215 31.9098 423.183 31.8772 423.183 31.8367C423.183 31.7963 423.215 31.7637 423.256 31.7637C423.296 31.7637 423.329 31.7963 423.329 31.8367Z" fill="white"/>
<path d="M66.4795 24.0417H73.6249C73.7464 24.0417 73.863 24.09 73.949 24.1759C74.0349 24.2619 74.0832 24.3784 74.0832 24.5C74.0832 24.6216 74.0349 24.7381 73.949 24.8241C73.863 24.91 73.7464 24.9583 73.6249 24.9583H66.4795L68.9086 27.3875C68.9832 27.4757 69.0216 27.5888 69.0164 27.7041C69.0111 27.8195 68.9625 27.9286 68.8803 28.0096C68.7981 28.0907 68.6883 28.1377 68.5729 28.1414C68.4575 28.145 68.3449 28.1049 68.2578 28.0292L65.0495 24.8208C64.9655 24.7352 64.9185 24.62 64.9185 24.5C64.9185 24.38 64.9655 24.2648 65.0495 24.1792L68.2578 20.9708C68.3449 20.8951 68.4575 20.855 68.5729 20.8586C68.6883 20.8622 68.7981 20.9093 68.8803 20.9904C68.9625 21.0714 69.0111 21.1805 69.0164 21.2959C69.0216 21.4112 68.9832 21.5243 68.9086 21.6125L66.4749 24.0417H66.4795Z" fill="#A0A6B1"/>
<path d="M90.5203 24.9582H83.3748C83.2533 24.9582 83.1367 24.9099 83.0507 24.8239C82.9648 24.738 82.9165 24.6214 82.9165 24.4998C82.9165 24.3783 82.9648 24.2617 83.0507 24.1758C83.1367 24.0898 83.2533 24.0415 83.3748 24.0415H90.5203L88.0911 21.6123C88.0434 21.5709 88.0048 21.5201 87.9778 21.463C87.9507 21.406 87.9357 21.3439 87.9337 21.2808C87.9317 21.2177 87.9428 21.1548 87.9662 21.0962C87.9897 21.0376 88.025 20.9844 88.07 20.9401C88.115 20.8957 88.1686 20.8612 88.2276 20.8385C88.2866 20.8159 88.3496 20.8057 88.4127 20.8086C88.4757 20.8115 88.5376 20.8273 88.5942 20.8552C88.6509 20.8831 88.7012 20.9224 88.7419 20.9707L91.9503 24.179C92.0342 24.2647 92.0813 24.3799 92.0813 24.4998C92.0813 24.6198 92.0342 24.735 91.9503 24.8207L88.7419 28.029C88.6548 28.1048 88.5423 28.1448 88.4269 28.1412C88.3114 28.1376 88.2017 28.0906 88.1194 28.0095C88.0372 27.9284 87.9886 27.8193 87.9834 27.704C87.9781 27.5886 88.0166 27.4755 88.0911 27.3873L90.5203 24.9582V24.9582Z" fill="#A0A6B1"/>
<rect x="110" y="14" width="267" height="20" rx="2" fill="white"/>
<g filter="url(#filter0_d)">
<rect x="126" y="46" width="331" height="214" rx="2" fill="#41B38A"/>
<path d="M418.765 35L407.921 46.5H429.608L418.765 35Z" fill="#41B38A"/>
<g opacity="0.9">
<path opacity="0.9" d="M364.465 164.226C370.267 164.226 374.971 159.671 374.971 154.052C374.971 148.433 370.267 143.878 364.465 143.878C358.662 143.878 353.958 148.433 353.958 154.052C353.958 159.671 358.662 164.226 364.465 164.226Z" fill="#158876"/>
<g opacity="0.9">
<path opacity="0.9" d="M367.035 154.095C367.035 153.438 367.59 152.905 368.275 152.905H370.086C370.771 152.905 371.343 153.438 371.343 154.095C371.343 154.751 370.771 155.284 370.086 155.284H368.275C367.59 155.284 367.035 154.751 367.035 154.095Z" fill="white"/>
<path opacity="0.9" d="M363.239 154.097C363.239 153.438 363.791 152.905 364.472 152.905C365.153 152.905 365.705 153.438 365.705 154.097C365.705 154.756 365.153 155.289 364.472 155.289C363.791 155.289 363.239 154.754 363.239 154.097Z" fill="white"/>
<path opacity="0.9" fill-rule="evenodd" clip-rule="evenodd" d="M365.671 148.528C365.699 149.17 365.183 149.71 364.52 149.736C361.656 149.851 359.91 152.022 359.994 154.081C360.021 154.723 359.516 155.263 358.852 155.289C358.189 155.315 357.607 154.797 357.579 154.155C357.441 150.797 360.339 147.477 364.421 147.412C365.082 147.389 365.642 147.888 365.671 148.528Z" fill="white"/>
<path opacity="0.9" fill-rule="evenodd" clip-rule="evenodd" d="M357.574 154.033C357.591 158.091 361.032 160.77 364.514 160.687C368.623 160.546 371.59 157.092 371.343 154.011C371.287 153.371 370.7 152.875 370.036 152.906C369.373 152.937 368.862 153.481 368.894 154.121C368.988 155.994 367.202 158.286 364.455 158.361C362.272 158.413 360.089 156.756 359.993 154.176C359.969 154.773 359.48 155.263 358.851 155.287C358.188 155.313 357.606 154.795 357.579 154.152C357.576 154.117 357.576 154.076 357.574 154.033Z" fill="url(#paint2_linear)"/>
</g>
</g>
<g opacity="0.8">
<path opacity="0.8" d="M383.902 119.474C389.704 119.474 394.408 114.919 394.408 109.3C394.408 103.681 389.704 99.126 383.902 99.126C378.099 99.126 373.395 103.681 373.395 109.3C373.395 114.919 378.099 119.474 383.902 119.474Z" fill="#158876"/>
<path opacity="0.8" fill-rule="evenodd" clip-rule="evenodd" d="M380.279 107.898C380.762 106.028 381.971 105.092 383.902 105.092C386.8 105.092 387.162 107.196 388.613 107.547C389.579 107.781 390.425 107.43 391.148 106.494C390.665 108.364 389.456 109.3 387.525 109.3C384.627 109.3 384.264 107.196 382.814 106.845C381.847 106.611 381.001 106.962 380.279 107.898ZM376.656 112.106C377.139 110.236 378.348 109.3 380.279 109.3C383.177 109.3 383.539 111.404 384.99 111.755C385.956 111.989 386.802 111.638 387.525 110.702C387.042 112.572 385.833 113.508 383.902 113.508C381.004 113.508 380.641 111.404 379.191 111.053C378.224 110.821 377.378 111.172 376.656 112.106Z" fill="white"/>
</g>
<g opacity="0.9">
<path opacity="0.9" d="M405.083 139.758C410.885 139.758 415.589 135.203 415.589 129.584C415.589 123.965 410.885 119.41 405.083 119.41C399.28 119.41 394.576 123.965 394.576 129.584C394.576 135.203 399.28 139.758 405.083 139.758Z" fill="#158876"/>
<g opacity="0.9">
<path opacity="0.9" fill-rule="evenodd" clip-rule="evenodd" d="M398.446 125.015C398.446 123.991 399.305 123.16 400.362 123.16H409.801C410.859 123.16 411.717 123.991 411.717 125.015V134.155C411.717 135.179 410.859 136.011 409.801 136.011H400.362C399.305 136.011 398.446 135.179 398.446 134.155V125.015ZM400.362 123.694C399.61 123.694 398.998 124.286 398.998 125.015V134.155C398.998 134.884 399.61 135.476 400.362 135.476H409.801C410.554 135.476 411.165 134.884 411.165 134.155V125.015C411.165 124.286 410.554 123.694 409.801 123.694H400.362Z" fill="white"/>
<path opacity="0.9" d="M403.998 128.875V127.131H405.583C405.734 127.131 405.879 127.143 406.02 127.167C406.161 127.191 406.284 127.234 406.392 127.298C406.501 127.361 406.587 127.449 406.651 127.559C406.716 127.671 406.748 127.812 406.748 127.986C406.748 128.299 406.651 128.526 406.457 128.665C406.262 128.803 406.015 128.872 405.712 128.872H403.998V128.875ZM402.303 125.856V133.312H406.035C406.38 133.312 406.716 133.272 407.044 133.188C407.372 133.104 407.663 132.975 407.917 132.801C408.171 132.627 408.375 132.402 408.526 132.128C408.676 131.853 408.753 131.528 408.753 131.151C408.753 130.685 408.637 130.286 408.402 129.954C408.168 129.622 407.816 129.393 407.34 129.259C407.685 129.099 407.946 128.894 408.121 128.643C408.296 128.392 408.385 128.079 408.385 127.702C408.385 127.353 408.326 127.062 408.208 126.826C408.089 126.589 407.922 126.398 407.707 126.257C407.492 126.116 407.233 126.011 406.93 125.949C406.629 125.887 406.294 125.856 405.926 125.856H402.303ZM403.998 132.039V129.992H405.842C406.21 129.992 406.503 130.074 406.728 130.238C406.95 130.403 407.063 130.676 407.063 131.058C407.063 131.253 407.029 131.414 406.96 131.538C406.891 131.662 406.799 131.762 406.683 131.836C406.568 131.91 406.434 131.96 406.284 131.994C406.133 132.025 405.976 132.042 405.81 132.042H403.998V132.039Z" fill="white"/>
</g>
</g>
<g opacity="0.4">
<path opacity="0.4" d="M360.652 137.305C366.454 137.305 371.158 132.75 371.158 127.131C371.158 121.512 366.454 116.957 360.652 116.957C354.849 116.957 350.145 121.512 350.145 127.131C350.145 132.75 354.849 137.305 360.652 137.305Z" fill="#158876"/>
<g opacity="0.4">
<path opacity="0.4" d="M360.651 120.824H357.702L360.651 127.578" fill="white"/>
<path opacity="0.4" d="M360.651 120.824H363.604L360.651 127.578" fill="white"/>
<path opacity="0.4" d="M360.651 129.527V134.75L354.357 122.849H357.655" fill="white"/>
<path opacity="0.4" d="M360.651 129.527V134.75L366.945 122.849H363.65" fill="white"/>
</g>
</g>
<g opacity="0.9">
<path opacity="0.9" d="M434.647 152.117C440.449 152.117 445.153 147.562 445.153 141.943C445.153 136.324 440.449 131.769 434.647 131.769C428.844 131.769 424.14 136.324 424.14 141.943C424.14 147.562 428.844 152.117 434.647 152.117Z" fill="#158876"/>
<g opacity="0.9">
<path opacity="0.9" d="M440.889 144.606L437.239 138.296C436.938 137.783 436.161 137.783 435.86 138.296L435.47 138.97L435.924 139.751L436.555 138.681L440.196 144.948H438.898C438.965 145.346 438.61 145.738 438.102 145.738H440.201C440.798 145.736 441.177 145.105 440.889 144.606Z" fill="white"/>
<path opacity="0.9" d="M432.077 144.948H429.107L433.591 137.222L435.048 139.708L435.473 138.972L434.198 136.78C433.926 136.314 433.248 136.316 432.979 136.782L428.402 144.706C428.133 145.17 428.488 145.738 429.045 145.738H432.876C432.365 145.736 432.007 145.347 432.077 144.948Z" fill="white"/>
<path opacity="0.9" d="M438.896 144.948C438.884 144.876 438.859 144.804 438.82 144.735L435.924 139.751L435.471 138.97L435.046 139.705L432.153 144.735C432.114 144.804 432.089 144.876 432.077 144.945C432.01 145.344 432.365 145.736 432.873 145.736H433.017H438.1C438.608 145.736 438.963 145.346 438.896 144.948ZM432.908 144.948L435.493 140.515L438.063 144.948H432.908Z" fill="white"/>
</g>
</g>
<g opacity="0.8">
<path opacity="0.8" d="M424.14 181.981C429.943 181.981 434.647 177.425 434.647 171.806C434.647 166.187 429.943 161.632 424.14 161.632C418.337 161.632 413.633 166.187 413.633 171.806C413.633 177.425 418.337 181.981 424.14 181.981Z" fill="#158876"/>
<g opacity="0.8">
<path opacity="0.8" d="M428.214 167.083L424.14 173.913L420.068 167.083H417.353L424.14 178.468L430.93 167.083H428.214Z" fill="white"/>
<g opacity="0.8">
<path opacity="0.8" d="M425.708 167.083L424.14 169.712L422.571 167.083H420.065L424.137 173.913L428.209 167.083H425.708Z" fill="white"/>
</g>
</g>
</g>
<g opacity="0.2">
<path opacity="0.2" d="M444.769 172.516C450.572 172.516 455.276 167.961 455.276 162.342C455.276 156.723 450.572 152.167 444.769 152.167C438.967 152.167 434.263 156.723 434.263 162.342C434.263 167.961 438.967 172.516 444.769 172.516Z" fill="#158876"/>
<path opacity="0.5" fill-rule="evenodd" clip-rule="evenodd" d="M450.477 158.038L444.903 167.653L439.05 158.038H438.105L444.814 169.285L451.517 158.038H450.477V158.038Z" fill="white"/>
<path opacity="0.69" d="M437.967 156.208H451.567L444.745 167.651L437.967 156.208Z" fill="white"/>
<path opacity="0.2" fill-rule="evenodd" clip-rule="evenodd" d="M449.038 158.853L444.774 166.01L440.502 158.853H437.659L444.772 170.78L451.877 158.853H449.038V158.853Z" fill="white"/>
<path opacity="0.2" fill-rule="evenodd" clip-rule="evenodd" d="M443.003 157.532H445.366C445.798 157.532 446.146 157.627 446.412 157.821C446.676 158.009 446.802 158.301 446.802 158.69C446.802 158.934 446.745 159.134 446.627 159.304C446.508 159.473 446.333 159.6 446.111 159.696V159.71C446.409 159.77 446.634 159.906 446.794 160.121C446.947 160.331 447.024 160.601 447.024 160.916C447.024 161.105 446.989 161.274 446.92 161.437C446.851 161.599 446.745 161.733 446.599 161.847C446.454 161.969 446.271 162.058 446.042 162.124C445.82 162.198 445.546 162.232 445.233 162.232H443.003V157.532ZM443.854 159.502H445.24C445.443 159.502 445.618 159.442 445.748 159.333C445.887 159.218 445.951 159.055 445.951 158.848C445.951 158.611 445.894 158.444 445.771 158.341C445.652 158.246 445.472 158.2 445.24 158.2H443.854V159.502V159.502ZM443.854 161.558H445.359C445.618 161.558 445.818 161.492 445.958 161.363C446.096 161.234 446.175 161.052 446.175 160.816C446.175 160.579 446.106 160.405 445.958 160.276C445.813 160.147 445.618 160.087 445.359 160.087H443.854V161.558Z" fill="white"/>
</g>
<g opacity="0.7">
<path opacity="0.7" d="M367.034 197.586C372.837 197.586 377.541 193.03 377.541 187.411C377.541 181.792 372.837 177.237 367.034 177.237C361.232 177.237 356.528 181.792 356.528 187.411C356.528 193.03 361.232 197.586 367.034 197.586Z" fill="#158876"/>
<path opacity="0.7" d="M362.896 183.893L366.522 180.416L371.037 184.756L368.423 187.411L372.049 190.972L366.462 194.407L362.021 189.878L362.896 183.893Z" fill="white"/>
</g>
<g opacity="0.2">
<path opacity="0.2" d="M337.882 148.914C343.105 148.914 347.338 144.815 347.338 139.758C347.338 134.701 343.105 130.601 337.882 130.601C332.66 130.601 328.426 134.701 328.426 139.758C328.426 144.815 332.66 148.914 337.882 148.914Z" fill="#158876"/>
<path opacity="0.5" fill-rule="evenodd" clip-rule="evenodd" d="M343.017 135.884L338.001 144.537L332.733 135.884H331.884L337.922 146.005L343.955 135.884H343.017Z" fill="white"/>
<path opacity="0.69" d="M331.758 134.238H343.999L337.86 144.537L331.758 134.238Z" fill="white"/>
<path opacity="0.2" fill-rule="evenodd" clip-rule="evenodd" d="M341.722 136.62L337.885 143.063L334.04 136.62H331.482L337.885 147.355L344.28 136.62H341.722Z" fill="white"/>
<path opacity="0.2" fill-rule="evenodd" clip-rule="evenodd" d="M336.292 135.428H338.418C338.807 135.428 339.12 135.514 339.357 135.688C339.596 135.858 339.707 136.12 339.707 136.471C339.707 136.691 339.658 136.873 339.55 137.023C339.444 137.176 339.286 137.291 339.086 137.374V137.386C339.355 137.441 339.557 137.563 339.7 137.756C339.838 137.945 339.907 138.189 339.907 138.473C339.907 138.642 339.875 138.795 339.813 138.941C339.752 139.087 339.656 139.208 339.525 139.311C339.394 139.421 339.231 139.5 339.024 139.559C338.824 139.626 338.578 139.657 338.297 139.657H336.289V135.428H336.292ZM337.056 137.202H338.304C338.487 137.202 338.642 137.147 338.763 137.049C338.889 136.947 338.945 136.801 338.945 136.612C338.945 136.4 338.896 136.247 338.783 136.156C338.676 136.07 338.514 136.03 338.307 136.03H337.059V137.202H337.056ZM337.056 139.053H338.41C338.642 139.053 338.824 138.993 338.95 138.876C339.076 138.759 339.145 138.597 339.145 138.384C339.145 138.172 339.083 138.014 338.95 137.9C338.82 137.785 338.642 137.73 338.41 137.73H337.056V139.053Z" fill="white"/>
</g>
<g opacity="0.3">
<path opacity="0.3" d="M442.524 203.014C447.747 203.014 451.98 198.915 451.98 193.857C451.98 188.8 447.747 184.701 442.524 184.701C437.302 184.701 433.068 188.8 433.068 193.857C433.068 198.915 437.302 203.014 442.524 203.014Z" fill="#158876"/>
<g opacity="0.3">
<path opacity="0.3" fill-rule="evenodd" clip-rule="evenodd" d="M436.526 189.745C436.526 188.809 437.308 188.049 438.277 188.049H446.771C447.737 188.049 448.522 188.806 448.522 189.745V197.97C448.522 198.905 447.74 199.665 446.771 199.665H438.277C437.311 199.665 436.526 198.908 436.526 197.97V189.745ZM438.277 188.584C437.614 188.584 437.078 189.104 437.078 189.745V197.97C437.078 198.613 437.615 199.131 438.277 199.131H446.771C447.435 199.131 447.97 198.611 447.97 197.97V189.745C447.97 189.102 447.433 188.584 446.771 188.584H438.277Z" fill="white"/>
<path opacity="0.3" d="M441.548 193.217V191.648H442.976C443.111 191.648 443.242 191.66 443.368 191.682C443.494 191.703 443.605 191.744 443.703 191.799C443.799 191.856 443.878 191.932 443.935 192.033C443.994 192.133 444.021 192.262 444.021 192.417C444.021 192.699 443.935 192.902 443.76 193.029C443.585 193.153 443.363 193.217 443.089 193.217H441.548V193.217ZM440.023 190.502V197.213H443.383C443.693 197.213 443.997 197.175 444.29 197.101C444.584 197.027 444.848 196.91 445.077 196.752C445.306 196.594 445.489 196.394 445.625 196.145C445.76 195.897 445.829 195.606 445.829 195.267C445.829 194.846 445.723 194.488 445.514 194.189C445.304 193.891 444.983 193.683 444.557 193.564C444.867 193.42 445.102 193.234 445.259 193.01C445.417 192.785 445.496 192.501 445.496 192.164C445.496 191.851 445.442 191.589 445.336 191.374C445.23 191.161 445.079 190.989 444.885 190.86C444.69 190.731 444.458 190.64 444.187 190.583C443.915 190.526 443.614 190.5 443.284 190.5H440.023V190.502ZM441.548 196.067V194.225H443.207C443.538 194.225 443.802 194.299 444.004 194.445C444.204 194.593 444.305 194.839 444.305 195.183C444.305 195.357 444.275 195.503 444.214 195.615C444.152 195.727 444.071 195.818 443.967 195.883C443.864 195.95 443.743 195.995 443.607 196.024C443.471 196.052 443.328 196.067 443.18 196.067H441.548V196.067Z" fill="white"/>
</g>
</g>
<g opacity="0.9">
<path opacity="0.9" d="M429.929 125.579C434.571 125.579 438.334 121.935 438.334 117.44C438.334 112.944 434.571 109.3 429.929 109.3C425.287 109.3 421.523 112.944 421.523 117.44C421.523 121.935 425.287 125.579 429.929 125.579Z" fill="#158876"/>
<g opacity="0.9">
<path opacity="0.9" d="M431.985 117.473C431.985 116.948 432.429 116.52 432.979 116.52H434.427C434.975 116.52 435.433 116.945 435.433 117.473C435.433 117.998 434.975 118.426 434.427 118.426H432.979C432.429 118.426 431.985 118.001 431.985 117.473Z" fill="white"/>
<path opacity="0.9" d="M428.947 117.475C428.947 116.95 429.388 116.522 429.933 116.522C430.478 116.522 430.92 116.95 430.92 117.475C430.92 118.001 430.478 118.428 429.933 118.428C429.388 118.428 428.947 118.001 428.947 117.475Z" fill="white"/>
<path opacity="0.9" fill-rule="evenodd" clip-rule="evenodd" d="M430.894 113.021C430.916 113.535 430.504 113.967 429.974 113.989C427.683 114.082 426.287 115.816 426.353 117.466C426.376 117.979 425.971 118.412 425.441 118.433C424.911 118.455 424.444 118.039 424.422 117.526C424.311 114.839 426.63 112.183 429.895 112.133C430.423 112.109 430.872 112.508 430.894 113.021Z" fill="white"/>
<path opacity="0.9" fill-rule="evenodd" clip-rule="evenodd" d="M424.416 117.425C424.428 120.671 427.183 122.815 429.968 122.749C433.255 122.634 435.628 119.873 435.431 117.408C435.384 116.897 434.915 116.498 434.385 116.525C433.855 116.549 433.445 116.986 433.47 117.499C433.544 118.997 432.116 120.833 429.918 120.89C428.172 120.931 426.426 119.606 426.35 117.544C426.33 118.022 425.94 118.414 425.437 118.433C424.907 118.454 424.441 118.039 424.418 117.525C424.418 117.492 424.416 117.458 424.416 117.425Z" fill="url(#paint3_linear)"/>
</g>
</g>
<g opacity="0.9">
<path opacity="0.9" d="M412.154 112.212C416.216 112.212 419.509 109.023 419.509 105.09C419.509 101.156 416.216 97.9678 412.154 97.9678C408.092 97.9678 404.799 101.156 404.799 105.09C404.799 109.023 408.092 112.212 412.154 112.212Z" fill="#158876"/>
<g opacity="0.9">
<path opacity="0.9" d="M412.154 100.676H410.087L412.154 105.403" fill="white"/>
<path opacity="0.9" d="M412.154 100.676H414.218L412.154 105.403" fill="white"/>
<path opacity="0.9" d="M412.154 106.766V110.425L407.747 102.095H410.055" fill="white"/>
<path opacity="0.9" d="M412.154 106.769V110.425L416.559 102.095H414.25" fill="white"/>
</g>
</g>
<path opacity="0.81" d="M378.801 224.815C422.118 224.815 457.233 190.811 457.233 148.865C457.233 106.919 422.118 72.9155 378.801 72.9155C335.484 72.9155 300.369 106.919 300.369 148.865C300.369 190.811 335.484 224.815 378.801 224.815Z" fill="url(#paint4_radial)"/>
<path d="M394.245 118.898H392.655V129.007H394.245V118.898Z" fill="#158876"/>
<path d="M395.488 118.223C395.488 119.313 394.576 120.196 393.451 120.196C392.326 120.196 391.414 119.313 391.414 118.223C391.414 117.134 392.326 116.251 393.451 116.251C394.576 116.251 395.488 117.134 395.488 118.223Z" fill="#137361"/>
<path d="M394.866 117.455C394.866 117.788 394.589 118.057 394.245 118.057C393.901 118.057 393.623 117.788 393.623 117.455C393.623 117.122 393.901 116.853 394.245 116.853C394.589 116.853 394.866 117.122 394.866 117.455Z" fill="white"/>
<path d="M400.007 129.912C399.955 129.919 399.923 129.631 399.676 129.186C399.676 129.186 399.56 128.977 399.426 128.8C398.998 128.232 397.553 128.244 397.439 128.244C395.185 128.263 393.735 128.125 393.735 128.138C393.735 128.148 394.793 128.127 395.567 128.113C397.753 128.069 399.054 127.957 399.613 128.523C399.846 128.759 399.962 129.065 399.962 129.065C400.121 129.481 400.067 129.904 400.007 129.912Z" fill="white"/>
<path opacity="0.59" d="M394.247 199.946C403.046 199.946 410.179 197.118 410.179 193.63C410.179 190.142 403.046 187.315 394.247 187.315C385.447 187.315 378.314 190.142 378.314 193.63C378.314 197.118 385.447 199.946 394.247 199.946Z" fill="#137361"/>
<path d="M371.171 167.542C378.646 169.525 380.41 168.969 381.743 170.91C381.896 171.133 382.677 172.27 382.52 173.732C382.395 174.897 381.726 175.795 381.305 176.19C378.745 178.59 371.701 175.655 367.665 172.443C366.786 171.743 364.426 169.865 364.901 168.532C365.097 167.986 365.702 167.713 366.136 167.525C368.055 166.69 370.044 167.242 371.171 167.542Z" fill="#158876"/>
<path d="M398.945 134.589H387.96C387.149 134.589 386.493 133.953 386.493 133.168V129.367C386.493 128.582 387.149 127.946 387.96 127.946H398.945C399.756 127.946 400.412 128.582 400.412 129.367V133.168C400.409 133.953 399.753 134.589 398.945 134.589Z" fill="#137361"/>
<path d="M418.352 156.682C418.352 162.822 413.212 167.8 406.871 167.8H380.031C373.716 167.8 368.549 162.797 368.549 156.682V150.906C368.549 140.025 377.742 131.123 388.979 131.123H397.927C409.164 131.123 418.357 140.025 418.357 150.906V156.682H418.352Z" fill="#158876"/>
<path d="M410.519 155.63C409.867 155.942 409.136 156.105 408.394 156.105H378.506C377.764 156.105 377.033 155.942 376.381 155.63C374.781 154.863 373.877 153.316 374.103 151.729L374.12 151.614C374.886 146.238 379.915 142.104 386.08 141.793C388.689 141.662 391.425 141.593 394.279 141.61C396.516 141.622 398.678 141.687 400.76 141.789C406.948 142.097 412.014 146.215 412.781 151.612C412.788 151.651 412.792 151.689 412.799 151.729C413.025 153.316 412.119 154.863 410.519 155.63Z" fill="#243746"/>
<path d="M385.574 154.92C388.687 154.92 391.21 152.476 391.21 149.463C391.21 146.449 388.687 144.005 385.574 144.005C382.462 144.005 379.939 146.449 379.939 149.463C379.939 152.476 382.462 154.92 385.574 154.92Z" fill="url(#paint5_radial)"/>
<path d="M385.574 153.38C387.809 153.38 389.62 151.626 389.62 149.462C389.62 147.299 387.809 145.544 385.574 145.544C383.34 145.544 381.528 147.299 381.528 149.462C381.528 151.626 383.34 153.38 385.574 153.38Z" fill="#EFF8FC"/>
<path d="M385.574 152.753C387.451 152.753 388.972 151.28 388.972 149.462C388.972 147.645 387.451 146.171 385.574 146.171C383.697 146.171 382.175 147.645 382.175 149.462C382.175 151.28 383.697 152.753 385.574 152.753Z" fill="#243746"/>
<path d="M387.751 148.611C387.751 149.283 387.187 149.829 386.493 149.829C385.798 149.829 385.234 149.283 385.234 148.611C385.234 147.938 385.798 147.392 386.493 147.392C387.187 147.39 387.751 147.936 387.751 148.611Z" fill="#EFF8FC"/>
<path d="M385.071 152.47C385.348 152.47 385.572 152.253 385.572 151.985C385.572 151.717 385.348 151.5 385.071 151.5C384.794 151.5 384.57 151.717 384.57 151.985C384.57 152.253 384.794 152.47 385.071 152.47Z" fill="#EFF8FC"/>
<path d="M383.826 151.256C383.826 151.389 383.714 151.5 383.574 151.5C383.436 151.5 383.322 151.391 383.322 151.256C383.322 151.123 383.434 151.012 383.574 151.012C383.714 151.012 383.826 151.121 383.826 151.256Z" fill="#EFF8FC"/>
<path d="M400.799 154.92C403.911 154.92 406.434 152.476 406.434 149.463C406.434 146.449 403.911 144.005 400.799 144.005C397.686 144.005 395.163 146.449 395.163 149.463C395.163 152.476 397.686 154.92 400.799 154.92Z" fill="url(#paint6_radial)"/>
<path d="M400.798 153.38C403.033 153.38 404.844 151.626 404.844 149.462C404.844 147.299 403.033 145.544 400.798 145.544C398.564 145.544 396.752 147.299 396.752 149.462C396.752 151.626 398.564 153.38 400.798 153.38Z" fill="#EFF8FC"/>
<path d="M400.798 152.753C402.675 152.753 404.197 151.28 404.197 149.462C404.197 147.645 402.675 146.171 400.798 146.171C398.921 146.171 397.4 147.645 397.4 149.462C397.4 151.28 398.921 152.753 400.798 152.753Z" fill="#243746"/>
<path d="M402.975 148.611C402.975 149.283 402.412 149.829 401.717 149.829C401.022 149.829 400.458 149.283 400.458 148.611C400.458 147.938 401.022 147.392 401.717 147.392C402.412 147.39 402.975 147.936 402.975 148.611Z" fill="#EFF8FC"/>
<path d="M400.298 152.47C400.574 152.47 400.799 152.253 400.799 151.985C400.799 151.717 400.574 151.5 400.298 151.5C400.021 151.5 399.796 151.717 399.796 151.985C399.796 152.253 400.021 152.47 400.298 152.47Z" fill="#EFF8FC"/>
<path d="M399.052 151.256C399.052 151.389 398.94 151.5 398.801 151.5C398.663 151.5 398.549 151.391 398.549 151.256C398.549 151.123 398.661 151.012 398.801 151.012C398.938 151.012 399.052 151.121 399.052 151.256Z" fill="#EFF8FC"/>
<path d="M410.999 137.45C411.027 138.371 410.25 139.473 409.36 139.569C408.525 139.656 407.86 138.831 407.172 137.982C406.494 137.142 405.015 134.989 405.604 134.38C406.383 133.574 410.934 135.278 410.999 137.45Z" fill="white"/>
<path d="M403.38 133.939C403.771 133.939 404.088 133.632 404.088 133.254C404.088 132.875 403.771 132.568 403.38 132.568C402.989 132.568 402.672 132.875 402.672 133.254C402.672 133.632 402.989 133.939 403.38 133.939Z" fill="white"/>
<path d="M410.897 150.231C410.669 150.387 409.086 147.261 404.834 144.551C403.339 143.599 401.863 142.92 401.952 142.722C402.04 142.522 403.702 142.895 405.034 143.493C409.271 145.399 411.168 150.048 410.897 150.231Z" fill="white"/>
<path d="M399.538 158.446C399.483 158.969 399.033 159.371 398.493 159.423L391.027 160.121C390.487 160.171 389.967 159.86 389.81 159.356C389.739 159.134 389.685 158.902 389.648 158.665C389.638 158.6 389.657 158.534 389.698 158.48C389.741 158.427 389.803 158.394 389.87 158.388L399.289 157.509C399.356 157.503 399.422 157.523 399.474 157.567C399.526 157.611 399.556 157.671 399.558 157.736C399.571 157.975 399.564 158.213 399.538 158.446Z" fill="#EFF8FC"/>
<path d="M399.538 158.448C399.299 160.689 397.46 162.533 395.055 162.754C392.685 162.976 390.543 161.552 389.839 159.444C390.026 159.894 390.517 160.169 391.027 160.119L398.495 159.423C399.035 159.371 399.482 158.969 399.538 158.448Z" fill="#243746"/>
<path d="M411.302 174.684C411.302 174.751 411.302 174.813 411.3 174.876C411.276 175.482 411.13 175.938 411.059 176.144C409.005 182.224 407.772 185.43 406.045 188.023C405.746 188.471 405.434 188.9 405.096 189.323C404.656 189.885 404.172 190.435 403.636 191.001C402.442 192.257 400.64 192.826 400.057 193.024C397.929 193.751 396.052 193.62 394.802 193.63H394.585C393.333 193.618 391.457 193.751 389.33 193.024C388.749 192.828 386.94 192.26 385.751 191.001C382.471 187.544 381.208 184.672 378.328 176.146C378.259 175.951 378.121 175.526 378.089 174.957C378.08 174.792 378.076 174.628 378.087 174.463C378.149 173.445 378.575 172.445 379.334 171.533C380.632 169.969 382.636 169.11 384.71 169.102L394.697 169.062L404.503 169.025C406.619 169.017 408.671 169.877 410.018 171.462C410.667 172.231 411.083 173.059 411.235 173.913C411.257 174.034 411.274 174.159 411.287 174.28C411.293 174.409 411.302 174.547 411.302 174.684Z" fill="#158876"/>
<path d="M394.692 169.056L384.705 169.096C382.632 169.104 380.629 169.962 379.33 171.527C378.573 172.439 378.147 173.439 378.083 174.457C378.134 173.412 378.577 172.387 379.369 171.454C380.711 169.869 382.765 169.008 384.884 169.017L394.692 169.056Z" fill="url(#paint7_linear)"/>
<path d="M404.619 183.305C404.473 175.803 403.425 174.32 404.972 172.535C405.15 172.331 406.056 171.283 407.546 171.016C408.736 170.804 409.814 171.173 410.323 171.452C413.423 173.153 412.504 180.527 410.461 185.18C410.016 186.194 408.822 188.917 407.366 188.852C406.77 188.825 406.329 188.34 406.021 187.99C404.656 186.442 404.64 184.436 404.619 183.305Z" fill="#158876"/>
<path d="M406.043 188.021C405.744 188.469 405.432 188.898 405.094 189.321C404.987 189.214 404.892 189.106 404.806 189.008C403.44 187.461 403.425 185.457 403.404 184.324C403.257 176.821 402.208 175.34 403.756 173.555C403.87 173.422 404.283 172.945 404.959 172.549C403.432 174.328 404.473 175.824 404.619 183.303C404.64 184.434 404.658 186.44 406.021 187.99C406.03 188 406.039 188.011 406.043 188.021Z" fill="#137361"/>
<path d="M410.416 177.059C410.373 176.253 410.216 175.659 409.904 174.474C409.495 172.922 408.984 172.166 409.317 171.866C409.534 171.67 409.96 171.803 410.057 171.833C411.522 172.285 411.975 174.944 411.911 176.611C411.872 177.629 411.616 178.771 411.229 178.821C411.169 178.829 411.016 178.821 410.909 178.729C410.478 178.36 410.45 177.671 410.416 177.059Z" fill="white"/>
<path d="M411.42 179.904C411.42 180.066 411.284 180.198 411.116 180.198C410.949 180.198 410.813 180.066 410.813 179.904C410.813 179.742 410.949 179.61 411.116 179.61C411.284 179.61 411.42 179.742 411.42 179.904Z" fill="white"/>
<path d="M340.733 225.038C340.733 222.676 342.711 220.762 345.15 220.762H407.527C409.966 220.762 411.943 222.676 411.943 225.038V239.471C411.943 241.833 409.966 243.747 407.527 243.747H345.15C342.711 243.747 340.733 241.833 340.733 239.471V225.038Z" fill="#158876"/>
<path d="M352.17 231.22H352.871C352.85 230.473 352.168 229.931 351.189 229.931C350.222 229.931 349.481 230.466 349.481 231.271C349.481 231.92 349.961 232.3 350.735 232.503L351.304 232.653C351.82 232.785 352.217 232.949 352.217 233.364C352.217 233.819 351.768 234.12 351.149 234.12C350.589 234.12 350.124 233.879 350.081 233.371H349.352C349.399 234.216 350.074 234.737 351.154 234.737C352.285 234.737 352.937 234.161 352.937 233.371C352.937 232.53 352.163 232.204 351.551 232.059L351.081 231.94C350.705 231.847 350.204 231.676 350.206 231.23C350.206 230.833 350.58 230.539 351.173 230.539C351.726 230.539 352.118 230.79 352.17 231.22Z" fill="white"/>
<path d="M356.038 233.209C356.04 233.804 355.584 234.086 355.189 234.086C354.754 234.086 354.452 233.781 354.452 233.305V231.161H353.749V233.387C353.749 234.255 354.241 234.706 354.935 234.706C355.478 234.706 355.847 234.428 356.014 234.054H356.052V234.66H356.744V231.161H356.038V233.209Z" fill="white"/>
<path d="M357.745 234.66H358.432V234.116H358.491C358.618 234.339 358.877 234.728 359.535 234.728C360.41 234.728 361.045 234.05 361.045 232.917C361.045 231.783 360.401 231.116 359.528 231.116C358.858 231.116 358.616 231.512 358.491 231.728H358.449V229.995H357.745V234.66ZM358.434 232.911C358.434 232.179 358.764 231.694 359.378 231.694C360.015 231.694 360.335 232.216 360.335 232.911C360.335 233.612 360.006 234.147 359.378 234.147C358.773 234.147 358.434 233.646 358.434 232.911Z" fill="white"/>
<path d="M361.835 234.66H362.539V232.503C362.539 232.031 362.88 231.703 363.28 231.703C363.67 231.703 363.941 231.954 363.941 232.334V234.66H364.642V232.43C364.642 232.009 364.907 231.703 365.366 231.703C365.738 231.703 366.044 231.904 366.044 232.378V234.66H366.747V232.314C366.747 231.514 366.286 231.116 365.632 231.116C365.112 231.116 364.722 231.357 364.548 231.731H364.51C364.352 231.348 364.021 231.116 363.538 231.116C363.061 231.116 362.706 231.346 362.555 231.731H362.51V231.161H361.835V234.66Z" fill="white"/>
<path d="M367.69 234.66H368.393V231.161H367.69V234.66ZM368.045 230.621C368.287 230.621 368.489 230.439 368.489 230.216C368.489 229.993 368.287 229.808 368.045 229.808C367.8 229.808 367.6 229.993 367.6 230.216C367.6 230.439 367.8 230.621 368.045 230.621Z" fill="white"/>
<path d="M371.026 231.161H370.285V230.323H369.581V231.161H369.052V231.708H369.581V233.774C369.579 234.409 370.08 234.717 370.635 234.706C370.859 234.703 371.009 234.662 371.092 234.633L370.965 234.07C370.918 234.079 370.831 234.1 370.718 234.1C370.489 234.1 370.285 234.027 370.285 233.633V231.708H371.026V231.161Z" fill="white"/>
<path d="M374.608 234.737C375.206 234.737 375.542 234.444 375.676 234.182H375.705V234.66H376.391V232.337C376.391 231.318 375.563 231.116 374.989 231.116C374.336 231.116 373.733 231.371 373.498 232.009L374.159 232.154C374.263 231.906 374.526 231.667 374.999 231.667C375.453 231.667 375.686 231.897 375.686 232.293V232.309C375.686 232.558 375.422 232.553 374.773 232.626C374.089 232.703 373.388 232.876 373.388 233.671C373.388 234.359 373.922 234.737 374.608 234.737ZM374.761 234.191C374.364 234.191 374.077 234.018 374.077 233.681C374.077 233.316 374.411 233.186 374.818 233.134C375.046 233.104 375.587 233.045 375.688 232.947V233.398C375.688 233.813 375.347 234.191 374.761 234.191Z" fill="white"/>
<path d="M379.865 234.66H380.58L381.314 232.134H381.368L382.102 234.66H382.819L383.88 231.161H383.153L382.45 233.719H382.415L381.709 231.161H380.982L380.272 233.731H380.236L379.528 231.161H378.801L379.865 234.66Z" fill="white"/>
<path d="M385.995 234.731C386.783 234.731 387.34 234.355 387.5 233.785L386.835 233.669C386.708 233.999 386.402 234.168 386.002 234.168C385.4 234.168 384.995 233.79 384.976 233.116H387.545V232.874C387.545 231.61 386.764 231.116 385.945 231.116C384.939 231.116 384.275 231.858 384.275 232.933C384.275 234.02 384.929 234.731 385.995 234.731ZM384.979 232.605C385.007 232.109 385.379 231.678 385.95 231.678C386.496 231.678 386.853 232.07 386.856 232.605H384.979Z" fill="white"/>
<path d="M388.382 234.66H389.069V234.116H389.128C389.255 234.339 389.513 234.728 390.172 234.728C391.047 234.728 391.682 234.05 391.682 232.917C391.682 231.783 391.038 231.116 390.165 231.116C389.495 231.116 389.252 231.512 389.128 231.728H389.085V229.995H388.382V234.66ZM389.071 232.911C389.071 232.179 389.4 231.694 390.014 231.694C390.652 231.694 390.972 232.216 390.972 232.911C390.972 233.612 390.642 234.147 390.014 234.147C389.41 234.147 389.071 233.646 389.071 232.911Z" fill="white"/>
<path d="M395.18 232.015C395.034 231.471 394.594 231.116 393.813 231.116C392.997 231.116 392.418 231.532 392.418 232.152C392.418 232.649 392.728 232.979 393.406 233.125L394.017 233.255C394.366 233.33 394.528 233.48 394.528 233.699C394.528 233.97 394.229 234.182 393.768 234.182C393.347 234.182 393.077 234.006 392.992 233.662L392.312 233.763C392.43 234.382 392.961 234.731 393.773 234.731C394.646 234.731 395.25 234.282 395.25 233.649C395.25 233.154 394.925 232.849 394.262 232.701L393.688 232.573C393.291 232.482 393.119 232.353 393.121 232.116C393.119 231.847 393.42 231.655 393.82 231.655C394.257 231.655 394.46 231.89 394.542 232.125L395.18 232.015Z" fill="white"/>
<path d="M396.023 234.66H396.727V231.161H396.023V234.66ZM396.379 230.621C396.621 230.621 396.823 230.439 396.823 230.216C396.823 229.993 396.621 229.808 396.379 229.808C396.134 229.808 395.934 229.993 395.934 230.216C395.934 230.439 396.134 230.621 396.379 230.621Z" fill="white"/>
<path d="M399.36 231.161H398.619V230.323H397.915V231.161H397.386V231.708H397.915V233.774C397.913 234.409 398.414 234.717 398.969 234.706C399.193 234.703 399.343 234.662 399.425 234.633L399.298 234.07C399.251 234.079 399.164 234.1 399.051 234.1C398.823 234.1 398.619 234.027 398.619 233.633V231.708H399.36V231.161Z" fill="white"/>
<path d="M401.656 234.731C402.444 234.731 403.002 234.355 403.162 233.785L402.496 233.669C402.369 233.999 402.063 234.168 401.663 234.168C401.061 234.168 400.656 233.79 400.638 233.116H403.206V232.874C403.206 231.61 402.425 231.116 401.607 231.116C400.6 231.116 399.937 231.858 399.937 232.933C399.937 234.02 400.59 234.731 401.656 234.731ZM400.64 232.605C400.668 232.109 401.04 231.678 401.611 231.678C402.157 231.678 402.515 232.07 402.517 232.605H400.64Z" fill="white"/>
<path d="M415.807 224.503C415.807 222.142 417.784 220.227 420.223 220.227H435.127C437.566 220.227 439.543 222.142 439.543 224.503V238.936C439.543 241.298 437.566 243.212 435.127 243.212H420.223C417.784 243.212 415.807 241.298 415.807 238.936V224.503Z" fill="#243746"/>
<path d="M430.183 237.315V235.151C430.183 234.487 429.993 234.002 429.613 233.694C430.03 233.653 430.405 233.591 430.74 233.51C431.072 233.428 431.418 233.294 431.773 233.11C432.129 232.926 432.426 232.698 432.664 232.428C432.902 232.157 433.096 231.8 433.246 231.351C433.396 230.903 433.471 230.389 433.471 229.808C433.471 228.98 433.181 228.275 432.602 227.694C432.873 227.071 432.843 226.374 432.514 225.601C432.308 225.54 432.012 225.577 431.623 225.714C431.235 225.851 430.898 226.001 430.612 226.166L430.195 226.412C429.513 226.234 428.81 226.146 428.085 226.146C427.359 226.146 426.656 226.234 425.974 226.412C425.857 226.338 425.702 226.245 425.508 226.135C425.314 226.026 425.007 225.895 424.59 225.74C424.172 225.586 423.858 225.54 423.644 225.601C423.321 226.374 423.297 227.071 423.567 227.694C422.988 228.275 422.698 228.98 422.698 229.808C422.698 230.389 422.773 230.902 422.923 231.346C423.073 231.791 423.266 232.15 423.5 232.424C423.735 232.698 424.03 232.926 424.386 233.112C424.741 233.296 425.086 233.43 425.42 233.512C425.754 233.594 426.129 233.655 426.547 233.696C426.253 233.942 426.074 234.294 426.009 234.752C425.855 234.821 425.689 234.872 425.514 234.906C425.338 234.939 425.13 234.958 424.888 234.958C424.647 234.958 424.407 234.884 424.169 234.737C423.931 234.589 423.727 234.376 423.559 234.096C423.42 233.877 423.243 233.699 423.026 233.563C422.809 233.427 422.628 233.344 422.481 233.317L422.261 233.287C422.108 233.287 422.002 233.302 421.943 233.332C421.884 233.363 421.866 233.402 421.887 233.451C421.909 233.498 421.943 233.547 421.987 233.594C422.031 233.641 422.078 233.684 422.13 233.717L422.207 233.769C422.369 233.837 422.528 233.967 422.685 234.159C422.843 234.35 422.957 234.524 423.031 234.682L423.14 234.918C423.235 235.178 423.396 235.388 423.624 235.548C423.851 235.709 424.097 235.811 424.361 235.855C424.626 235.9 424.88 235.924 425.125 235.927C425.371 235.93 425.573 235.919 425.735 235.89L425.987 235.849C425.987 236.11 425.989 236.414 425.992 236.762C425.996 237.111 425.997 237.295 425.997 237.316C425.997 237.423 425.96 237.514 425.888 237.589C426.587 237.77 427.325 237.867 428.086 237.867C428.849 237.867 429.588 237.768 430.291 237.587C430.219 237.511 430.183 237.421 430.183 237.315Z" fill="white"/>
<path d="M426.295 62.1448C426.295 60.3734 427.778 58.9375 429.607 58.9375H440.095C441.924 58.9375 443.407 60.3734 443.407 62.1448V72.3011C443.407 74.0724 441.924 75.5084 440.095 75.5084H429.607C427.778 75.5084 426.295 74.0724 426.295 72.3011V62.1448Z" fill="white" fill-opacity="0.21"/>
<g clip-path="url(#clip0)">
<path d="M438.536 69.4994C438.692 69.6557 438.78 69.8676 438.78 70.0886C438.78 70.3096 438.692 70.5216 438.536 70.6779C438.379 70.8342 438.167 70.922 437.946 70.922C437.725 70.922 437.513 70.8342 437.357 70.6779L435 68.3209L432.643 70.6779C432.487 70.8342 432.275 70.922 432.054 70.922C431.833 70.922 431.621 70.8342 431.464 70.6779C431.308 70.5216 431.22 70.3096 431.22 70.0886C431.22 69.8676 431.308 69.6557 431.464 69.4994L433.821 67.1424L431.464 64.7853C431.308 64.6291 431.22 64.4171 431.22 64.1961C431.22 63.9751 431.308 63.7631 431.464 63.6068C431.621 63.4505 431.833 63.3627 432.054 63.3627C432.275 63.3627 432.487 63.4505 432.643 63.6068L435 65.9638L437.357 63.6068C437.513 63.4505 437.725 63.3627 437.946 63.3627C438.167 63.3627 438.379 63.4505 438.536 63.6068C438.692 63.7631 438.78 63.9751 438.78 64.1961C438.78 64.4171 438.692 64.6291 438.536 64.7853L436.179 67.1424L438.536 69.4994Z" fill="white"/>
</g>
<path d="M143.665 86.5908C143.665 84.229 145.642 82.3145 148.081 82.3145H323.621C326.06 82.3145 328.037 84.229 328.037 86.5908V238.936C328.037 241.298 326.06 243.212 323.621 243.212H148.081C145.642 243.212 143.665 241.298 143.665 238.936V86.5908Z" fill="white" fill-opacity="0.21"/>
<path d="M246.241 155.473V160.527H247.311V157.225H247.354L248.705 160.502H249.434L250.784 157.237H250.828V160.527H251.898V155.473H250.537L249.1 158.868H249.039L247.602 155.473H246.241Z" fill="white"/>
<path d="M254.555 160.601C255.743 160.601 256.482 159.813 256.482 158.646C256.482 157.472 255.743 156.687 254.555 156.687C253.368 156.687 252.629 157.472 252.629 158.646C252.629 159.813 253.368 160.601 254.555 160.601ZM254.56 159.786C254.013 159.786 253.732 159.3 253.732 158.639C253.732 157.977 254.013 157.489 254.56 157.489C255.098 157.489 255.378 157.977 255.378 158.639C255.378 159.3 255.098 159.786 254.56 159.786Z" fill="white"/>
<path d="M258.63 160.588C259.262 160.588 259.591 160.235 259.741 159.919H259.787V160.527H260.857V155.473H259.774V157.373H259.741C259.596 157.064 259.283 156.687 258.628 156.687C257.769 156.687 257.043 157.333 257.043 158.636C257.043 159.905 257.738 160.588 258.63 160.588ZM258.974 159.752C258.442 159.752 258.151 159.293 258.151 158.631C258.151 157.975 258.437 157.523 258.974 157.523C259.502 157.523 259.797 157.955 259.797 158.631C259.797 159.307 259.497 159.752 258.974 159.752Z" fill="white"/>
<path d="M264.26 158.913C264.263 159.421 263.903 159.688 263.513 159.688C263.103 159.688 262.838 159.409 262.836 158.962V156.736H261.75V159.15C261.753 160.035 262.288 160.576 263.075 160.576C263.664 160.576 264.087 160.282 264.263 159.838H264.303V160.527H265.346V156.736H264.26V158.913Z" fill="white"/>
<path d="M267.3 155.473H266.214V160.527H267.3V155.473Z" fill="white"/>
<path d="M269.953 160.601C270.922 160.601 271.574 160.144 271.727 159.441L270.723 159.377C270.613 159.665 270.333 159.816 269.971 159.816C269.428 159.816 269.084 159.468 269.084 158.903V158.9H271.75V158.612C271.75 157.323 270.944 156.687 269.91 156.687C268.758 156.687 268.011 157.479 268.011 158.649C268.011 159.85 268.748 160.601 269.953 160.601ZM269.084 158.249C269.107 157.817 269.446 157.472 269.928 157.472C270.399 157.472 270.725 157.797 270.728 158.249H269.084Z" fill="white"/>
<path d="M275.715 157.817C275.618 157.119 275.037 156.687 274.048 156.687C273.047 156.687 272.387 157.136 272.389 157.866C272.387 158.434 272.756 158.802 273.521 158.95L274.199 159.08C274.54 159.147 274.696 159.268 274.701 159.458C274.696 159.683 274.443 159.843 274.064 159.843C273.676 159.843 273.419 159.683 273.353 159.374L272.285 159.428C272.387 160.154 273.024 160.601 274.061 160.601C275.075 160.601 275.802 160.1 275.804 159.352C275.802 158.804 275.432 158.476 274.673 158.325L273.964 158.187C273.6 158.111 273.465 157.99 273.467 157.807C273.465 157.58 273.73 157.432 274.066 157.432C274.443 157.432 274.668 157.632 274.721 157.876L275.715 157.817Z" fill="white"/>
<path d="M246.241 102.627H247.344V100.989H248.272C249.472 100.989 250.17 100.295 250.17 99.286C250.17 98.2816 249.485 97.5734 248.3 97.5734H246.241V102.627ZM247.344 100.132V98.447H248.088C248.725 98.447 249.034 98.7826 249.034 99.286C249.034 99.7869 248.725 100.132 248.093 100.132H247.344Z" fill="white"/>
<path d="M251.952 97.5734H250.867V102.627H251.952V97.5734Z" fill="white"/>
<path d="M255.332 101.013C255.335 101.522 254.975 101.788 254.585 101.788C254.175 101.788 253.91 101.509 253.907 101.063V98.8369H252.822V101.25C252.824 102.136 253.36 102.677 254.147 102.677C254.736 102.677 255.159 102.383 255.335 101.939H255.375V102.627H256.418V98.8369H255.332V101.013Z" fill="white"/>
<path d="M259.049 104.103C260.168 104.103 260.963 103.609 260.963 102.664V98.8369H259.885V99.4735H259.844C259.699 99.1651 259.381 98.7875 258.726 98.7875C257.867 98.7875 257.141 99.434 257.141 100.725C257.141 101.986 257.847 102.573 258.728 102.573C259.353 102.573 259.702 102.269 259.844 101.956H259.89V102.649C259.89 103.145 259.546 103.348 259.075 103.348C258.596 103.348 258.354 103.145 258.264 102.941L257.26 103.071C257.39 103.644 257.994 104.103 259.049 104.103ZM259.072 101.783C258.54 101.783 258.249 101.374 258.249 100.72C258.249 100.076 258.535 99.6241 259.072 99.6241C259.6 99.6241 259.895 100.056 259.895 100.72C259.895 101.388 259.595 101.783 259.072 101.783Z" fill="white"/>
<path d="M261.827 102.627H262.913V98.8369H261.827V102.627ZM262.372 98.3483C262.696 98.3483 262.961 98.1089 262.961 97.8152C262.961 97.524 262.696 97.2847 262.372 97.2847C262.051 97.2847 261.786 97.524 261.786 97.8152C261.786 98.1089 262.051 98.3483 262.372 98.3483Z" fill="white"/>
<path d="M264.868 100.436C264.87 99.9473 265.171 99.6611 265.609 99.6611C266.045 99.6611 266.308 99.9375 266.305 100.401V102.627H267.391V100.214C267.391 99.3304 266.856 98.7875 266.04 98.7875C265.459 98.7875 265.039 99.0639 264.863 99.5056H264.817V98.8369H263.782V102.627H264.868V100.436Z" fill="white"/>
<path d="M271.503 99.9177C271.406 99.2194 270.825 98.7875 269.837 98.7875C268.835 98.7875 268.175 99.2366 268.178 99.9671C268.175 100.535 268.545 100.902 269.309 101.05L269.987 101.181C270.328 101.248 270.484 101.369 270.489 101.559C270.484 101.783 270.232 101.944 269.852 101.944C269.465 101.944 269.207 101.783 269.141 101.475L268.073 101.529C268.175 102.255 268.812 102.701 269.849 102.701C270.864 102.701 271.59 102.2 271.592 101.453C271.59 100.905 271.22 100.577 270.461 100.426L269.752 100.288C269.388 100.211 269.253 100.09 269.256 99.9078C269.253 99.6808 269.518 99.5328 269.854 99.5328C270.232 99.5328 270.456 99.7326 270.509 99.9769L271.503 99.9177Z" fill="white"/>
<path d="M158.889 223.748H160.404V227.912H160.987V223.748H162.502V223.247H158.889V223.748Z" fill="white"/>
<path d="M163.899 227.994C164.529 227.994 164.858 227.666 164.971 227.439H164.999V227.912H165.555V225.607C165.555 224.496 164.68 224.368 164.218 224.368C163.673 224.368 163.052 224.55 162.769 225.188L163.296 225.37C163.419 225.115 163.708 224.842 164.237 224.842C164.748 224.842 164.999 225.104 164.999 225.553V225.571C164.999 225.83 164.727 225.808 164.068 225.89C163.397 225.974 162.666 226.117 162.666 226.919C162.666 227.603 163.212 227.994 163.899 227.994ZM163.983 227.512C163.541 227.512 163.221 227.32 163.221 226.947C163.221 226.537 163.607 226.409 164.04 226.354C164.275 226.327 164.905 226.263 164.999 226.154V226.646C164.999 227.083 164.642 227.512 163.983 227.512Z" fill="white"/>
<path d="M166.568 227.912H167.123V224.414H166.568V227.912ZM166.85 223.83C167.067 223.83 167.245 223.666 167.245 223.466C167.245 223.266 167.067 223.102 166.85 223.102C166.634 223.102 166.455 223.266 166.455 223.466C166.455 223.666 166.634 223.83 166.85 223.83Z" fill="white"/>
<path d="M168.695 223.247H168.14V227.912H168.695V223.247Z" fill="white"/>
<path d="M170.53 227.912H171.076L171.866 225.225H171.923L172.713 227.912H173.259L174.36 224.414H173.777L172.996 227.083H172.958L172.196 224.414H171.603L170.831 227.092H170.794L170.013 224.414H169.429L170.53 227.912Z" fill="white"/>
<path d="M175.094 227.912H175.649V224.414H175.094V227.912ZM175.376 223.83C175.593 223.83 175.771 223.666 175.771 223.466C175.771 223.266 175.593 223.102 175.376 223.102C175.16 223.102 174.981 223.266 174.981 223.466C174.981 223.666 175.16 223.83 175.376 223.83Z" fill="white"/>
<path d="M177.221 225.808C177.221 225.197 177.611 224.851 178.143 224.851C178.658 224.851 178.971 225.177 178.971 225.726V227.912H179.526V225.689C179.526 224.796 179.035 224.368 178.303 224.368C177.757 224.368 177.419 224.605 177.249 224.96H177.202V224.414H176.666V227.912H177.221V225.808Z" fill="white"/>
<path d="M181.905 227.985C182.601 227.985 182.837 227.566 182.959 227.375H183.025V227.912H183.561V223.247H183.006V224.969H182.959C182.837 224.787 182.62 224.368 181.914 224.368C181.002 224.368 180.371 225.07 180.371 226.172C180.371 227.284 181.002 227.985 181.905 227.985ZM181.98 227.502C181.284 227.502 180.926 226.91 180.926 226.163C180.926 225.425 181.275 224.851 181.98 224.851C182.658 224.851 183.015 225.379 183.015 226.163C183.015 226.956 182.648 227.502 181.98 227.502Z" fill="white"/>
<path d="M188.607 224.705C188.428 223.748 187.638 223.184 186.668 223.184C185.436 223.184 184.542 224.104 184.542 225.58C184.542 227.056 185.436 227.976 186.668 227.976C187.638 227.976 188.428 227.411 188.607 226.455H188.023C187.882 227.102 187.308 227.448 186.668 227.448C185.793 227.448 185.107 226.792 185.107 225.58C185.107 224.368 185.793 223.712 186.668 223.712C187.308 223.712 187.882 224.058 188.023 224.705H188.607Z" fill="white"/>
<path d="M192.184 224.414H192.749C192.723 223.71 192.052 223.184 191.121 223.184C190.199 223.184 189.474 223.703 189.474 224.487C189.474 225.115 189.945 225.489 190.697 225.698L191.29 225.862C191.798 225.999 192.25 226.172 192.25 226.637C192.25 227.147 191.742 227.484 191.074 227.484C190.5 227.484 189.992 227.238 189.945 226.71H189.343C189.399 227.475 190.039 227.994 191.074 227.994C192.184 227.994 192.815 227.402 192.815 226.646C192.815 225.771 191.958 225.489 191.46 225.361L190.97 225.234C190.613 225.143 190.039 224.96 190.039 224.459C190.039 224.013 190.462 223.685 191.102 223.685C191.685 223.685 192.128 223.953 192.184 224.414Z" fill="white"/>
<path d="M196.408 224.414H196.973C196.947 223.71 196.277 223.184 195.345 223.184C194.423 223.184 193.698 223.703 193.698 224.487C193.698 225.115 194.169 225.489 194.922 225.698L195.514 225.862C196.023 225.999 196.474 226.172 196.474 226.637C196.474 227.147 195.966 227.484 195.298 227.484C194.724 227.484 194.216 227.238 194.169 226.71H193.567C193.623 227.475 194.263 227.994 195.298 227.994C196.408 227.994 197.039 227.402 197.039 226.646C197.039 225.771 196.182 225.489 195.684 225.361L195.195 225.234C194.837 225.143 194.263 224.96 194.263 224.459C194.263 224.013 194.686 223.685 195.326 223.685C195.91 223.685 196.352 223.953 196.408 224.414Z" fill="white"/>
<path d="M162.253 213.372V216.676C162.253 217.217 161.802 217.545 161.186 217.545C160.576 217.545 160.125 217.217 160.125 216.676V213.372H159.022V216.713C159.022 217.858 159.919 218.498 161.186 218.498C162.447 218.498 163.349 217.858 163.349 216.713V213.372H162.253Z" fill="white"/>
<path d="M165.36 213.372H164.257V218.426H165.36V213.372Z" fill="white"/>
<path d="M162.973 194.298H162.399V197.97H162.352L159.717 194.298H159.152V198.963H159.736V195.3H159.783L162.408 198.963H162.973V194.298Z" fill="white"/>
<path d="M166.342 197.532C166.342 198.188 165.824 198.489 165.41 198.489C164.949 198.489 164.62 198.161 164.62 197.651V195.464H164.065V197.687C164.065 198.58 164.554 199.008 165.231 199.008C165.777 199.008 166.135 198.726 166.304 198.371H166.342V198.963H166.897V195.464H166.342V197.532Z" fill="white"/>
<path d="M168.328 195.464H167.688L168.836 197.213L167.688 198.963H168.328L169.193 197.605L170.059 198.963H170.699L169.532 197.213L170.699 195.464H170.059L169.193 196.894L168.328 195.464Z" fill="white"/>
<path d="M173.062 195.464H172.291V194.626H171.736V195.464H171.19V195.919H171.736V198.106C171.736 198.717 172.244 199.008 172.714 199.008C172.921 199.008 173.053 198.972 173.128 198.945L173.015 198.462C172.968 198.471 172.893 198.489 172.771 198.489C172.526 198.489 172.291 198.416 172.291 197.96V195.919H173.062V195.464Z" fill="white"/>
<path d="M174.302 198.999C174.535 198.999 174.725 198.815 174.725 198.589C174.725 198.364 174.535 198.179 174.302 198.179C174.069 198.179 173.879 198.364 173.879 198.589C173.879 198.815 174.069 198.999 174.302 198.999Z" fill="white"/>
<path d="M175.722 195.464V199.218C175.722 199.573 175.571 199.774 175.232 199.774H175.129V200.275H175.242C175.938 200.275 176.277 199.865 176.277 199.218V195.464H175.722ZM175.994 194.881C176.211 194.881 176.39 194.717 176.39 194.516C176.39 194.316 176.211 194.152 175.994 194.152C175.778 194.152 175.599 194.316 175.599 194.516C175.599 194.717 175.778 194.881 175.994 194.881Z" fill="white"/>
<path d="M179.853 196.248C179.679 195.751 179.288 195.418 178.573 195.418C177.811 195.418 177.246 195.837 177.246 196.43C177.246 196.913 177.543 197.236 178.206 197.386L178.808 197.523C179.173 197.605 179.345 197.774 179.345 198.015C179.345 198.316 179.015 198.562 178.498 198.562C178.044 198.562 177.759 198.373 177.66 197.997L177.134 198.124C177.263 198.719 177.769 199.036 178.507 199.036C179.347 199.036 179.919 198.591 179.919 197.988C179.919 197.5 179.603 197.193 178.959 197.04L178.423 196.913C177.994 196.81 177.802 196.671 177.802 196.402C177.802 196.102 178.131 195.883 178.573 195.883C179.058 195.883 179.258 196.143 179.354 196.384L179.853 196.248Z" fill="white"/>
<path d="M159.022 189.476H160.125V187.389H162.248V186.508H160.125V185.303H162.478V184.422H159.022V189.476Z" fill="white"/>
<path d="M163.136 189.476H164.222V187.332C164.222 186.865 164.574 186.545 165.053 186.545C165.203 186.545 165.409 186.569 165.511 186.601V185.669C165.415 185.646 165.279 185.632 165.17 185.632C164.732 185.632 164.372 185.878 164.23 186.347H164.189V185.686H163.136V189.476Z" fill="white"/>
<path d="M167.077 189.548C167.655 189.548 168.03 189.303 168.221 188.951H168.251V189.476H169.281V186.92C169.281 186.017 168.491 185.636 167.619 185.636C166.682 185.636 166.065 186.071 165.915 186.762L166.919 186.841C166.993 186.589 167.224 186.404 167.614 186.404C167.984 186.404 168.195 186.584 168.195 186.895V186.91C168.195 187.154 167.928 187.186 167.247 187.25C166.473 187.319 165.777 187.571 165.777 188.418C165.777 189.168 166.33 189.548 167.077 189.548ZM167.388 188.822C167.054 188.822 166.814 188.672 166.814 188.383C166.814 188.087 167.066 187.941 167.449 187.889C167.686 187.857 168.073 187.803 168.203 187.719V188.121C168.203 188.519 167.864 188.822 167.388 188.822Z" fill="white"/>
<path d="M170.123 189.476H171.209V187.201C171.209 186.781 171.484 186.503 171.846 186.503C172.203 186.503 172.442 186.74 172.442 187.112V189.476H173.495V187.162C173.495 186.769 173.727 186.503 174.122 186.503C174.468 186.503 174.728 186.712 174.728 187.134V189.476H175.811V186.927C175.811 186.105 175.307 185.636 174.578 185.636C174.004 185.636 173.558 185.92 173.398 186.355H173.357C173.232 185.915 172.832 185.636 172.294 185.636C171.767 185.636 171.367 185.908 171.204 186.355H171.158V185.686H170.123V189.476Z" fill="white"/>
<path d="M178.453 189.55C179.421 189.55 180.073 189.094 180.226 188.39L179.222 188.326C179.113 188.615 178.832 188.766 178.47 188.766C177.928 188.766 177.584 188.418 177.584 187.852V187.85H180.249V187.561C180.249 186.273 179.444 185.636 178.409 185.636C177.257 185.636 176.511 186.429 176.511 187.598C176.511 188.8 177.247 189.55 178.453 189.55ZM177.584 187.199C177.606 186.767 177.945 186.421 178.427 186.421C178.899 186.421 179.225 186.747 179.227 187.199H177.584Z" fill="white"/>
<path d="M181.702 189.476H182.848L183.521 187.092H183.57L184.242 189.476H185.392L186.454 185.686H185.359L184.762 188.218H184.729L184.087 185.686H183.009L182.377 188.233H182.341L181.735 185.686H180.636L181.702 189.476Z" fill="white"/>
<path d="M188.704 189.55C189.891 189.55 190.631 188.763 190.631 187.596C190.631 186.421 189.891 185.636 188.704 185.636C187.516 185.636 186.777 186.421 186.777 187.596C186.777 188.763 187.516 189.55 188.704 189.55ZM188.709 188.736C188.161 188.736 187.881 188.25 187.881 187.588C187.881 186.927 188.161 186.438 188.709 186.438C189.247 186.438 189.527 186.927 189.527 187.588C189.527 188.25 189.247 188.736 188.709 188.736Z" fill="white"/>
<path d="M191.336 189.476H192.422V187.332C192.422 186.865 192.774 186.545 193.253 186.545C193.403 186.545 193.61 186.569 193.711 186.601V185.669C193.615 185.646 193.48 185.632 193.37 185.632C192.932 185.632 192.572 185.878 192.43 186.347H192.389V185.686H191.336V189.476Z" fill="white"/>
<path d="M194.273 189.476H195.358V188.272L195.651 187.949L196.719 189.476H197.991L196.464 187.327L197.917 185.686H196.671L195.417 187.125H195.358V184.422H194.273V189.476Z" fill="white"/>
<path d="M161.786 166.514H162.351C162.325 165.81 161.655 165.284 160.723 165.284C159.801 165.284 159.077 165.804 159.077 166.587C159.077 167.216 159.547 167.589 160.3 167.799L160.893 167.963C161.401 168.1 161.852 168.273 161.852 168.737C161.852 169.248 161.344 169.585 160.676 169.585C160.102 169.585 159.594 169.339 159.547 168.81H158.945C159.001 169.576 159.641 170.095 160.676 170.095C161.786 170.095 162.417 169.503 162.417 168.747C162.417 167.872 161.561 167.589 161.062 167.462L160.573 167.334C160.215 167.243 159.641 167.061 159.641 166.56C159.641 166.113 160.065 165.785 160.704 165.785C161.288 165.785 161.73 166.054 161.786 166.514Z" fill="white"/>
<path d="M164.872 166.514H164.101V165.676H163.545V166.514H163V166.97H163.545V169.157C163.545 169.767 164.053 170.059 164.524 170.059C164.731 170.059 164.863 170.022 164.938 169.995L164.825 169.512C164.778 169.521 164.703 169.539 164.58 169.539C164.336 169.539 164.101 169.466 164.101 169.011V166.97H164.872V166.514Z" fill="white"/>
<path d="M166.77 170.095C167.401 170.095 167.73 169.767 167.843 169.539H167.871V170.013H168.426V167.708C168.426 166.596 167.551 166.469 167.09 166.469C166.545 166.469 165.924 166.651 165.641 167.289L166.168 167.471C166.291 167.216 166.58 166.942 167.109 166.942C167.62 166.942 167.871 167.204 167.871 167.653V167.671C167.871 167.931 167.598 167.908 166.94 167.99C166.269 168.075 165.538 168.218 165.538 169.02C165.538 169.703 166.084 170.095 166.77 170.095ZM166.855 169.612C166.413 169.612 166.093 169.421 166.093 169.047C166.093 168.637 166.479 168.51 166.912 168.455C167.147 168.428 167.777 168.364 167.871 168.255V168.747C167.871 169.184 167.514 169.612 166.855 169.612Z" fill="white"/>
<path d="M171.011 166.514H170.24V165.676H169.684V166.514H169.139V166.97H169.684V169.157C169.684 169.767 170.192 170.059 170.663 170.059C170.87 170.059 171.002 170.022 171.077 169.995L170.964 169.512C170.917 169.521 170.842 169.539 170.719 169.539C170.475 169.539 170.24 169.466 170.24 169.011V166.97H171.011V166.514Z" fill="white"/>
<path d="M171.846 170.013H172.401V166.514H171.846V170.013ZM172.128 165.931C172.345 165.931 172.524 165.767 172.524 165.567C172.524 165.366 172.345 165.202 172.128 165.202C171.912 165.202 171.733 165.366 171.733 165.567C171.733 165.767 171.912 165.931 172.128 165.931Z" fill="white"/>
<path d="M174.886 170.086C175.686 170.086 176.213 169.612 176.307 168.993H175.752C175.648 169.375 175.319 169.603 174.886 169.603C174.227 169.603 173.804 169.075 173.804 168.264C173.804 167.471 174.237 166.952 174.886 166.952C175.375 166.952 175.667 167.243 175.752 167.562H176.307C176.213 166.906 175.639 166.469 174.877 166.469C173.898 166.469 173.249 167.216 173.249 168.282C173.249 169.33 173.87 170.086 174.886 170.086Z" fill="white"/>
<path d="M158.823 156.354H160.421V160.527H161.512V156.354H163.11V155.473H158.823V156.354Z" fill="white"/>
<path d="M164.379 160.598C164.957 160.598 165.332 160.354 165.523 160.001H165.553V160.527H166.583V157.97C166.583 157.067 165.793 156.687 164.921 156.687C163.984 156.687 163.367 157.121 163.217 157.812L164.221 157.891C164.295 157.639 164.526 157.454 164.916 157.454C165.286 157.454 165.497 157.634 165.497 157.945V157.96C165.497 158.204 165.23 158.236 164.549 158.301C163.775 158.37 163.079 158.621 163.079 159.468C163.079 160.218 163.632 160.598 164.379 160.598ZM164.69 159.873C164.356 159.873 164.116 159.722 164.116 159.433C164.116 159.137 164.368 158.992 164.751 158.94C164.988 158.908 165.375 158.853 165.505 158.77V159.172C165.505 159.569 165.166 159.873 164.69 159.873Z" fill="white"/>
<path d="M167.425 160.527H168.511V158.382C168.511 157.916 168.862 157.595 169.342 157.595C169.492 157.595 169.698 157.62 169.8 157.652V156.719C169.703 156.697 169.568 156.682 169.459 156.682C169.02 156.682 168.661 156.929 168.518 157.397H168.478V156.736H167.425V160.527Z" fill="white"/>
<path d="M171.943 162.002C173.062 162.002 173.857 161.509 173.857 160.564V156.736H172.779V157.373H172.738C172.593 157.064 172.274 156.687 171.619 156.687C170.76 156.687 170.034 157.333 170.034 158.624C170.034 159.885 170.74 160.472 171.622 160.472C172.246 160.472 172.595 160.169 172.738 159.855H172.784V160.549C172.784 161.045 172.44 161.247 171.968 161.247C171.489 161.247 171.247 161.045 171.158 160.84L170.154 160.971C170.284 161.543 170.888 162.002 171.943 162.002ZM171.966 159.683C171.433 159.683 171.143 159.273 171.143 158.619C171.143 157.975 171.428 157.523 171.966 157.523C172.493 157.523 172.789 157.955 172.789 158.619C172.789 159.288 172.488 159.683 171.966 159.683Z" fill="white"/>
<path d="M176.504 160.601C177.473 160.601 178.125 160.144 178.278 159.441L177.274 159.377C177.164 159.665 176.884 159.816 176.522 159.816C175.979 159.816 175.635 159.468 175.635 158.903V158.9H178.301V158.612C178.301 157.323 177.496 156.687 176.461 156.687C175.309 156.687 174.563 157.479 174.563 158.649C174.563 159.85 175.299 160.601 176.504 160.601ZM175.635 158.249C175.658 157.817 175.997 157.472 176.479 157.472C176.95 157.472 177.277 157.797 177.279 158.249H175.635Z" fill="white"/>
<path d="M181.091 156.736H180.355V155.828H179.269V156.736H178.734V157.526H179.269V159.5C179.264 160.243 179.787 160.61 180.574 160.578C180.854 160.568 181.053 160.514 181.163 160.48L180.992 159.697C180.939 159.707 180.824 159.732 180.722 159.732C180.505 159.732 180.355 159.653 180.355 159.362V157.526H181.091V156.736Z" fill="white"/>
<path d="M161.786 137.565H162.351C162.325 136.861 161.655 136.334 160.723 136.334C159.801 136.334 159.077 136.854 159.077 137.637C159.077 138.266 159.547 138.64 160.3 138.849L160.893 139.013C161.401 139.15 161.852 139.323 161.852 139.788C161.852 140.298 161.344 140.635 160.676 140.635C160.102 140.635 159.594 140.389 159.547 139.861H158.945C159.001 140.626 159.641 141.145 160.676 141.145C161.786 141.145 162.417 140.553 162.417 139.797C162.417 138.922 161.561 138.64 161.062 138.512L160.573 138.385C160.215 138.293 159.641 138.111 159.641 137.61C159.641 137.164 160.065 136.836 160.704 136.836C161.288 136.836 161.73 137.104 161.786 137.565Z" fill="white"/>
<path d="M166.011 137.565H166.575C166.549 136.861 165.879 136.334 164.947 136.334C164.025 136.334 163.301 136.854 163.301 137.637C163.301 138.266 163.771 138.64 164.524 138.849L165.117 139.013C165.625 139.15 166.076 139.323 166.076 139.788C166.076 140.298 165.568 140.635 164.9 140.635C164.326 140.635 163.818 140.389 163.771 139.861H163.169C163.225 140.626 163.865 141.145 164.9 141.145C166.011 141.145 166.641 140.553 166.641 139.797C166.641 138.922 165.785 138.64 165.286 138.512L164.797 138.385C164.439 138.293 163.865 138.111 163.865 137.61C163.865 137.164 164.289 136.836 164.929 136.836C165.512 136.836 165.954 137.104 166.011 137.565Z" fill="white"/>
<path d="M167.6 141.063H168.184V139.241H169.237C169.28 139.241 169.32 139.241 169.36 139.239L170.376 141.063H171.053L169.964 139.136C170.578 138.934 170.865 138.448 170.865 137.829C170.865 137.004 170.357 136.398 169.228 136.398H167.6V141.063ZM168.184 138.731V136.899H169.209C169.99 136.899 170.291 137.268 170.291 137.829C170.291 138.389 169.99 138.731 169.219 138.731H168.184Z" fill="white"/>
<path d="M159.022 126.523V131.577H160.092V128.275H160.136L161.486 131.552H162.215L163.566 128.287H163.609V131.577H164.679V126.523H163.319L161.881 129.919H161.82L160.383 126.523H159.022Z" fill="white"/>
<path d="M167.337 131.651C168.524 131.651 169.263 130.864 169.263 129.696C169.263 128.522 168.524 127.737 167.337 127.737C166.149 127.737 165.41 128.522 165.41 129.696C165.41 130.864 166.149 131.651 167.337 131.651ZM167.342 130.837C166.794 130.837 166.514 130.35 166.514 129.689C166.514 129.028 166.794 128.539 167.342 128.539C167.879 128.539 168.16 129.028 168.16 129.689C168.16 130.35 167.879 130.837 167.342 130.837Z" fill="white"/>
<path d="M171.411 131.639C172.043 131.639 172.372 131.286 172.523 130.97H172.568V131.577H173.639V126.523H172.556V128.423H172.523C172.377 128.115 172.064 127.737 171.409 127.737C170.55 127.737 169.824 128.384 169.824 129.687C169.824 130.955 170.52 131.639 171.411 131.639ZM171.755 130.802C171.223 130.802 170.932 130.343 170.932 129.682C170.932 129.025 171.218 128.574 171.755 128.574C172.283 128.574 172.579 129.005 172.579 129.682C172.579 130.358 172.278 130.802 171.755 130.802Z" fill="white"/>
<path d="M176.315 131.651C177.283 131.651 177.936 131.194 178.089 130.491L177.085 130.427C176.975 130.716 176.695 130.866 176.333 130.866C175.79 130.866 175.446 130.518 175.446 129.953V129.951H178.112V129.662C178.112 128.374 177.306 127.737 176.272 127.737C175.12 127.737 174.373 128.529 174.373 129.699C174.373 130.901 175.11 131.651 176.315 131.651ZM175.446 129.299C175.469 128.867 175.808 128.522 176.29 128.522C176.761 128.522 177.087 128.848 177.09 129.299H175.446Z" fill="white"/>
<path d="M159.066 112.114H162.106V111.613H159.866V111.576L160.948 110.455C161.776 109.597 162.021 109.196 162.021 108.679C162.021 107.959 161.419 107.385 160.572 107.385C159.727 107.385 159.085 107.941 159.085 108.761H159.64C159.64 108.23 159.996 107.877 160.553 107.877C161.075 107.877 161.475 108.187 161.475 108.679C161.475 109.109 161.214 109.428 160.657 110.018L159.066 111.704V112.114Z" fill="white"/>
<path d="M163.491 112.15C163.724 112.15 163.915 111.966 163.915 111.74C163.915 111.515 163.724 111.33 163.491 111.33C163.258 111.33 163.068 111.515 163.068 111.74C163.068 111.966 163.258 112.15 163.491 112.15Z" fill="white"/>
<path d="M166.071 107.449H165.488L164.283 108.223V108.797L165.459 108.041H165.488V112.114H166.071V107.449Z" fill="white"/>
<path d="M167.457 112.114H170.496V111.613H168.256V111.576L169.338 110.455C170.166 109.597 170.411 109.196 170.411 108.679C170.411 107.959 169.809 107.385 168.962 107.385C168.118 107.385 167.475 107.941 167.475 108.761H168.031C168.031 108.23 168.386 107.877 168.943 107.877C169.465 107.877 169.865 108.187 169.865 108.679C169.865 109.109 169.604 109.428 169.047 110.018L167.457 111.704V112.114Z" fill="white"/>
<path d="M171.881 112.15C172.114 112.15 172.305 111.966 172.305 111.74C172.305 111.515 172.114 111.33 171.881 111.33C171.648 111.33 171.458 111.515 171.458 111.74C171.458 111.966 171.648 112.15 171.881 112.15Z" fill="white"/>
<path d="M173.442 112.114H174.054L176.199 107.977V107.449H173.113V107.95H175.597V107.986L173.442 112.114Z" fill="white"/>
<path d="M159.966 97.5734H158.74L160.541 102.627H161.963L163.763 97.5734H162.539L161.275 101.413H161.227L159.966 97.5734Z" fill="white"/>
<path d="M166.88 101.013C166.883 101.522 166.524 101.788 166.134 101.788C165.724 101.788 165.458 101.509 165.456 101.063V98.8369H164.37V101.25C164.373 102.136 164.908 102.677 165.695 102.677C166.284 102.677 166.707 102.383 166.883 101.939H166.924V102.627H167.966V98.8369H166.88V101.013Z" fill="white"/>
<path d="M170.618 102.701C171.587 102.701 172.239 102.245 172.392 101.541L171.388 101.477C171.278 101.766 170.998 101.917 170.636 101.917C170.093 101.917 169.749 101.569 169.749 101.004V101.001H172.415V100.712C172.415 99.4242 171.61 98.7875 170.575 98.7875C169.423 98.7875 168.676 99.5796 168.676 100.749C168.676 101.951 169.413 102.701 170.618 102.701ZM169.749 100.35C169.772 99.9177 170.111 99.5722 170.593 99.5722C171.064 99.5722 171.39 99.898 171.393 100.35H169.749Z" fill="white"/>
<path d="M178.433 98.8369H177.284L176.474 101.549H176.433L175.62 98.8369H174.473L175.842 102.627H177.065L178.433 98.8369Z" fill="white"/>
<path d="M180.64 102.701C181.608 102.701 182.26 102.245 182.413 101.541L181.409 101.477C181.3 101.766 181.019 101.917 180.658 101.917C180.115 101.917 179.771 101.569 179.771 101.004V101.001H182.436V100.712C182.436 99.4242 181.631 98.7875 180.596 98.7875C179.444 98.7875 178.698 99.5796 178.698 100.749C178.698 101.951 179.434 102.701 180.64 102.701ZM179.771 100.35C179.794 99.9177 180.133 99.5722 180.614 99.5722C181.086 99.5722 181.412 99.898 181.414 100.35H179.771Z" fill="white"/>
<path d="M183.145 102.627H184.23V100.483C184.23 100.016 184.582 99.6956 185.061 99.6956C185.211 99.6956 185.418 99.7203 185.52 99.7524V98.8196C185.423 98.7974 185.288 98.7826 185.178 98.7826C184.74 98.7826 184.381 99.0293 184.238 99.4982H184.197V98.8369H183.145V102.627Z" fill="white"/>
<path d="M189.338 99.9177C189.241 99.2194 188.66 98.7875 187.671 98.7875C186.67 98.7875 186.01 99.2366 186.012 99.9671C186.01 100.535 186.379 100.902 187.144 101.05L187.822 101.181C188.163 101.248 188.319 101.369 188.324 101.559C188.319 101.783 188.066 101.944 187.687 101.944C187.299 101.944 187.042 101.783 186.976 101.475L185.908 101.529C186.01 102.255 186.647 102.701 187.684 102.701C188.698 102.701 189.424 102.2 189.427 101.453C189.424 100.905 189.055 100.577 188.296 100.426L187.587 100.288C187.223 100.211 187.088 100.09 187.09 99.9078C187.088 99.6808 187.353 99.5328 187.689 99.5328C188.066 99.5328 188.29 99.7326 188.344 99.9769L189.338 99.9177Z" fill="white"/>
<path d="M190.111 102.627H191.196V98.8369H190.111V102.627ZM190.656 98.3483C190.98 98.3483 191.245 98.1089 191.245 97.8152C191.245 97.524 190.98 97.2847 190.656 97.2847C190.335 97.2847 190.07 97.524 190.07 97.8152C190.07 98.1089 190.335 98.3483 190.656 98.3483Z" fill="white"/>
<path d="M193.834 102.701C195.022 102.701 195.761 101.914 195.761 100.747C195.761 99.5722 195.022 98.7875 193.834 98.7875C192.647 98.7875 191.908 99.5722 191.908 100.747C191.908 101.914 192.647 102.701 193.834 102.701ZM193.84 101.887C193.292 101.887 193.011 101.401 193.011 100.739C193.011 100.078 193.292 99.5895 193.84 99.5895C194.377 99.5895 194.658 100.078 194.658 100.739C194.658 101.401 194.377 101.887 193.84 101.887Z" fill="white"/>
<path d="M197.552 100.436C197.555 99.9473 197.856 99.6611 198.294 99.6611C198.73 99.6611 198.992 99.9375 198.99 100.401V102.627H200.075V100.214C200.075 99.3304 199.54 98.7875 198.725 98.7875C198.144 98.7875 197.723 99.0639 197.547 99.5056H197.502V98.8369H196.467V102.627H197.552V100.436Z" fill="white"/>
<path d="M145.751 63.4545H144.214L146.474 70H148.257L150.513 63.4545H148.979L147.394 68.4276H147.333L145.751 63.4545ZM155.354 63.4545V67.734C155.354 68.4339 154.788 68.859 154.015 68.859C153.251 68.859 152.685 68.4339 152.685 67.734V63.4545H151.301V67.782C151.301 69.2649 152.426 70.0927 154.015 70.0927C155.597 70.0927 156.728 69.2649 156.728 67.782V63.4545H155.354ZM157.867 70H162.29V68.859H159.251V67.2962H162.05V66.1552H159.251V64.5955H162.277V63.4545H157.867V70ZM165.211 64.5955H167.215V70H168.583V64.5955H170.587V63.4545H165.211V64.5955ZM171.472 70H175.896V68.859H172.856V67.2962H175.656V66.1552H172.856V64.5955H175.883V63.4545H171.472V70ZM176.983 70H181.173V68.859H178.367V63.4545H176.983V70ZM182.089 70H186.513V68.859H183.473V67.2962H186.273V66.1552H183.473V64.5955H186.5V63.4545H182.089V70ZM187.6 63.4545V70H188.942V65.7237H188.997L190.691 69.968H191.605L193.299 65.7397H193.353V70H194.695V63.4545H192.989L191.186 67.8523H191.109L189.307 63.4545H187.6ZM195.835 70H200.259V68.859H197.219V67.2962H200.019V66.1552H197.219V64.5955H200.246V63.4545H195.835V70ZM201.097 64.5955H203.101V70H204.469V64.5955H206.473V63.4545H201.097V64.5955ZM207.358 70H208.742V67.6797H209.752L210.992 70H212.52L211.129 67.456C211.874 67.1364 212.286 66.4876 212.286 65.5927C212.286 64.2919 211.426 63.4545 209.94 63.4545H207.358V70ZM208.742 66.5675V64.5859H209.675C210.474 64.5859 210.861 64.9407 210.861 65.5927C210.861 66.2415 210.474 66.5675 209.681 66.5675H208.742ZM212.881 63.4545L215.268 67.6861V70H216.642V67.6861L219.03 63.4545H217.48L215.987 66.2734H215.923L214.431 63.4545H212.881Z" fill="white"/>
</g>
<defs>
<filter id="filter0_d" x="76" y="0" width="431.233" height="325" filterUnits="userSpaceOnUse" color-interpolation-filters="sRGB">
<feFlood flood-opacity="0" result="BackgroundImageFix"/>
<feColorMatrix in="SourceAlpha" type="matrix" values="0 0 0 0 0 0 0 0 0 0 0 0 0 0 0 0 0 0 127 0"/>
<feOffset dy="15"/>
<feGaussianBlur stdDeviation="25"/>
<feColorMatrix type="matrix" values="0 0 0 0 0 0 0 0 0 0 0 0 0 0 0 0 0 0 0.2 0"/>
<feBlend mode="normal" in2="BackgroundImageFix" result="effect1_dropShadow"/>
<feBlend mode="normal" in="SourceGraphic" in2="effect1_dropShadow" result="shape"/>
</filter>
<radialGradient id="paint0_radial" cx="0" cy="0" r="1" gradientUnits="userSpaceOnUse" gradientTransform="translate(417.102 24.2629) scale(1.34381)">
<stop offset="0.1296" stop-color="#4974B9"/>
<stop offset="1" stop-color="#020203"/>
</radialGradient>
<radialGradient id="paint1_radial" cx="0" cy="0" r="1" gradientUnits="userSpaceOnUse" gradientTransform="translate(420.77 24.2629) scale(1.34381)">
<stop offset="0.1296" stop-color="#4974B9"/>
<stop offset="1" stop-color="#020203"/>
</radialGradient>
<linearGradient id="paint2_linear" x1="364.466" y1="160.69" x2="364.466" y2="152.907" gradientUnits="userSpaceOnUse">
<stop stop-color="white" stop-opacity="0.95"/>
<stop offset="1" stop-color="white" stop-opacity="0.5"/>
</linearGradient>
<linearGradient id="paint3_linear" x1="429.93" y1="122.75" x2="429.93" y2="116.524" gradientUnits="userSpaceOnUse">
<stop stop-color="white" stop-opacity="0.95"/>
<stop offset="1" stop-color="white" stop-opacity="0.5"/>
</linearGradient>
<radialGradient id="paint4_radial" cx="0" cy="0" r="1" gradientUnits="userSpaceOnUse" gradientTransform="translate(378.801 148.866) scale(78.4317 75.9497)">
<stop offset="0.0397" stop-color="white"/>
<stop offset="1" stop-color="#41B38A" stop-opacity="0.3"/>
</radialGradient>
<radialGradient id="paint5_radial" cx="0" cy="0" r="1" gradientUnits="userSpaceOnUse" gradientTransform="translate(385.574 149.462) scale(5.57767 5.40113)">
<stop offset="0.1296" stop-color="#4974B9"/>
<stop offset="1" stop-color="#020203"/>
</radialGradient>
<radialGradient id="paint6_radial" cx="0" cy="0" r="1" gradientUnits="userSpaceOnUse" gradientTransform="translate(400.799 149.462) scale(5.57767 5.40113)">
<stop offset="0.1296" stop-color="#4974B9"/>
<stop offset="1" stop-color="#020203"/>
</radialGradient>
<linearGradient id="paint7_linear" x1="382.707" y1="175.144" x2="397.616" y2="157.165" gradientUnits="userSpaceOnUse">
<stop offset="0.0397" stop-color="#44BFE2"/>
<stop offset="1" stop-color="#DCE38C"/>
</linearGradient>
<clipPath id="clip0">
<path d="M435 53L449.142 67.1421L435 81.2843L420.858 67.1421L435 53Z" fill="white"/>
</clipPath>
</defs>
</svg>
