<svg width="491" height="384" viewBox="0 0 491 384" fill="none" xmlns="http://www.w3.org/2000/svg">
<path d="M480.687 382.921H9.70258C4.8961 382.921 1.01001 379.025 1.01001 374.228V9.69257C1.01001 4.88609 4.90633 1 9.70258 1H480.687C485.493 1 489.379 4.89632 489.379 9.69257V374.228C489.379 379.025 485.483 382.921 480.687 382.921Z" stroke="#EDEDED" stroke-width="2" stroke-miterlimit="10"/>
<path d="M489.379 53.5236H1V9.69257C1 4.88609 4.89632 1 9.69257 1H480.677C485.483 1 489.369 4.89632 489.369 9.69257V53.5236H489.379Z" fill="#EDEDED"/>
<path d="M34.2671 27.2618H54.6282" stroke="#B2B2B2" stroke-width="3" stroke-miterlimit="10" stroke-linecap="round"/>
<path d="M41.5893 36.2919L43.0926 34.6761L35.1159 27.2618L43.0926 19.8475L41.5893 18.2318L31.8741 27.2618L41.5893 36.2919Z" fill="#B2B2B2"/>
<g opacity="0.3">
<g opacity="0.3">
<path opacity="0.3" d="M84.326 27.2618H104.677" stroke="#B2B2B2" stroke-width="3" stroke-miterlimit="10" stroke-linecap="round"/>
<g opacity="0.3">
<path opacity="0.3" d="M97.3547 36.2919L95.8513 34.6761L103.828 27.2618L95.8513 19.8475L97.3547 18.2318L107.07 27.2618L97.3547 36.2919Z" fill="#B2B2B2"/>
</g>
</g>
</g>
<path d="M150.318 34.1647C148.457 36.3021 145.747 37.6826 142.699 37.7849C136.891 37.9588 132.033 33.3977 131.859 27.589C131.685 21.7804 136.246 16.9227 142.055 16.7489C146.954 16.5955 151.177 19.8271 152.486 24.3268" stroke="#B2B2B2" stroke-width="2.5" stroke-miterlimit="10" stroke-linecap="round"/>
<path d="M148.089 23.3246L152.486 30.1968L156.239 22.9564L148.089 23.3246Z" fill="#B2B2B2"/>
<path d="M393.771 44.9333H193.055C189.854 44.9333 187.256 42.3358 187.256 39.1349V15.3888C187.256 12.1879 189.854 9.59033 193.055 9.59033H393.771C396.972 9.59033 399.57 12.1879 399.57 15.3888V39.1349C399.57 42.3358 396.972 44.9333 393.771 44.9333Z" fill="white"/>
<path d="M463.22 17.9863C464.7 17.9863 465.899 16.7867 465.899 15.307C465.899 13.8272 464.7 12.6276 463.22 12.6276C461.74 12.6276 460.541 13.8272 460.541 15.307C460.541 16.7867 461.74 17.9863 463.22 17.9863Z" fill="#B2B2B2"/>
<path d="M463.22 28.622C464.7 28.622 465.899 27.4224 465.899 25.9426C465.899 24.4628 464.7 23.2632 463.22 23.2632C461.74 23.2632 460.541 24.4628 460.541 25.9426C460.541 27.4224 461.74 28.622 463.22 28.622Z" fill="#B2B2B2"/>
<path d="M463.22 40.7711C464.7 40.7711 465.899 39.5715 465.899 38.0918C465.899 36.612 464.7 35.4124 463.22 35.4124C461.74 35.4124 460.541 36.612 460.541 38.0918C460.541 39.5715 461.74 40.7711 463.22 40.7711Z" fill="#B2B2B2"/>
<path d="M465.91 296.5H145V82.0659H417.63L428.603 70.6531L438.942 82.0659H465.91V296.5Z" stroke="#41B38A" stroke-width="0.5" stroke-miterlimit="10"/>
<path d="M431.051 12.8431H430.148V18.7736H431.051V12.8431Z" fill="#158876"/>
<path d="M431.758 12.4472C431.758 13.0863 431.239 13.6044 430.6 13.6044C429.961 13.6044 429.443 13.0863 429.443 12.4472C429.443 11.8081 429.961 11.2899 430.6 11.2899C431.239 11.2899 431.758 11.8081 431.758 12.4472Z" fill="#137361"/>
<path d="M431.404 11.9962C431.404 12.1918 431.247 12.3494 431.051 12.3494C430.856 12.3494 430.698 12.1918 430.698 11.9962C430.698 11.8007 430.856 11.6431 431.051 11.6431C431.247 11.6431 431.404 11.8007 431.404 11.9962Z" fill="white"/>
<path d="M434.325 19.3052C434.296 19.3088 434.277 19.1402 434.137 18.8787C434.137 18.8787 434.071 18.7565 433.995 18.6526C433.752 18.319 432.931 18.3263 432.866 18.3263C431.585 18.3373 430.762 18.2567 430.762 18.264C430.762 18.2701 431.363 18.2579 431.803 18.2493C433.044 18.2237 433.784 18.1577 434.102 18.4901C434.234 18.6282 434.3 18.8078 434.3 18.8078C434.39 19.0522 434.359 19.3003 434.325 19.3052Z" fill="white"/>
<path d="M433.722 22.0486H427.481C427.02 22.0486 426.647 21.6759 426.647 21.2152V18.985C426.647 18.5243 427.02 18.1516 427.481 18.1516H433.722C434.182 18.1516 434.555 18.5243 434.555 18.985V21.2152C434.554 21.6759 434.181 22.0486 433.722 22.0486Z" fill="#137361"/>
<path d="M444.748 35.0106C444.748 38.6131 441.827 41.5337 438.225 41.5337H422.976C419.388 41.5337 416.453 38.5984 416.453 35.0106V31.6219C416.453 25.238 421.676 20.0151 428.06 20.0151H433.143C439.527 20.0151 444.75 25.238 444.75 31.6219V35.0106H444.748Z" fill="#158876"/>
<path d="M440.297 34.3934C439.927 34.5767 439.511 34.672 439.09 34.672H422.11C421.688 34.672 421.273 34.5767 420.902 34.3934C419.993 33.9437 419.48 33.0358 419.608 32.1046L419.618 32.0374C420.053 28.8833 422.91 26.4576 426.413 26.2755C427.895 26.1986 429.449 26.1582 431.071 26.168C432.342 26.1753 433.57 26.2132 434.753 26.2731C438.269 26.454 441.146 28.8699 441.583 32.0361C441.586 32.0594 441.589 32.0814 441.592 32.1046C441.721 33.0358 441.206 33.9437 440.297 34.3934Z" fill="#243746"/>
<path d="M426.126 33.9768C427.894 33.9768 429.327 32.5433 429.327 30.7751C429.327 29.0068 427.894 27.5734 426.126 27.5734C424.357 27.5734 422.924 29.0068 422.924 30.7751C422.924 32.5433 424.357 33.9768 426.126 33.9768Z" fill="url(#paint0_radial)"/>
<path d="M426.125 33.0737C427.395 33.0737 428.424 32.0446 428.424 30.7751C428.424 29.5056 427.395 28.4764 426.125 28.4764C424.856 28.4764 423.827 29.5056 423.827 30.7751C423.827 32.0446 424.856 33.0737 426.125 33.0737Z" fill="#EFF8FC"/>
<path d="M426.125 32.7058C427.192 32.7058 428.056 31.8414 428.056 30.775C428.056 29.7087 427.192 28.8442 426.125 28.8442C425.059 28.8442 424.194 29.7087 424.194 30.775C424.194 31.8414 425.059 32.7058 426.125 32.7058Z" fill="#243746"/>
<path d="M427.362 30.2753C427.362 30.67 427.042 30.9901 426.647 30.9901C426.252 30.9901 425.932 30.67 425.932 30.2753C425.932 29.8805 426.252 29.5604 426.647 29.5604C427.042 29.5591 427.362 29.8793 427.362 30.2753Z" fill="#EFF8FC"/>
<path d="M425.839 32.5397C425.997 32.5397 426.124 32.4122 426.124 32.2549C426.124 32.0977 425.997 31.9702 425.839 31.9702C425.682 31.9702 425.555 32.0977 425.555 32.2549C425.555 32.4122 425.682 32.5397 425.839 32.5397Z" fill="#EFF8FC"/>
<path d="M425.132 31.8272C425.132 31.9055 425.068 31.9702 424.989 31.9702C424.911 31.9702 424.846 31.9067 424.846 31.8272C424.846 31.749 424.909 31.6843 424.989 31.6843C425.068 31.6843 425.132 31.7478 425.132 31.8272Z" fill="#EFF8FC"/>
<path d="M434.775 33.9768C436.543 33.9768 437.976 32.5433 437.976 30.7751C437.976 29.0068 436.543 27.5734 434.775 27.5734C433.007 27.5734 431.573 29.0068 431.573 30.7751C431.573 32.5433 433.007 33.9768 434.775 33.9768Z" fill="url(#paint1_radial)"/>
<path d="M434.775 33.0737C436.044 33.0737 437.073 32.0446 437.073 30.7751C437.073 29.5056 436.044 28.4764 434.775 28.4764C433.505 28.4764 432.476 29.5056 432.476 30.7751C432.476 32.0446 433.505 33.0737 434.775 33.0737Z" fill="#EFF8FC"/>
<path d="M434.775 32.7058C435.841 32.7058 436.706 31.8414 436.706 30.775C436.706 29.7087 435.841 28.8442 434.775 28.8442C433.709 28.8442 432.844 29.7087 432.844 30.775C432.844 31.8414 433.709 32.7058 434.775 32.7058Z" fill="#243746"/>
<path d="M436.012 30.2753C436.012 30.67 435.691 30.9901 435.297 30.9901C434.902 30.9901 434.582 30.67 434.582 30.2753C434.582 29.8805 434.902 29.5604 435.297 29.5604C435.691 29.5591 436.012 29.8793 436.012 30.2753Z" fill="#EFF8FC"/>
<path d="M434.49 32.5397C434.647 32.5397 434.775 32.4122 434.775 32.2549C434.775 32.0977 434.647 31.9702 434.49 31.9702C434.333 31.9702 434.205 32.0977 434.205 32.2549C434.205 32.4122 434.333 32.5397 434.49 32.5397Z" fill="#EFF8FC"/>
<path d="M433.782 31.8272C433.782 31.9055 433.719 31.9702 433.64 31.9702C433.561 31.9702 433.497 31.9067 433.497 31.8272C433.497 31.749 433.56 31.6843 433.64 31.6843C433.718 31.6843 433.782 31.7478 433.782 31.8272Z" fill="#EFF8FC"/>
<path d="M440.57 23.7276C440.586 24.2678 440.144 24.9142 439.639 24.9704C439.164 25.0218 438.787 24.5378 438.396 24.0393C438.011 23.5468 437.17 22.2832 437.505 21.9264C437.947 21.4535 440.533 22.4531 440.57 23.7276Z" fill="white"/>
<path d="M436.241 21.6673C436.463 21.6673 436.643 21.4873 436.643 21.2653C436.643 21.0432 436.463 20.8632 436.241 20.8632C436.019 20.8632 435.839 21.0432 435.839 21.2653C435.839 21.4873 436.019 21.6673 436.241 21.6673Z" fill="white"/>
<path d="M440.512 31.226C440.383 31.3176 439.483 29.4834 437.067 27.8935C436.218 27.3351 435.38 26.9367 435.43 26.8206C435.48 26.7033 436.425 26.922 437.181 27.2727C439.588 28.3909 440.666 31.1184 440.512 31.226Z" fill="white"/>
<path d="M434.059 36.0456C434.027 36.3523 433.772 36.5882 433.465 36.6187L429.223 37.0281C428.917 37.0574 428.621 36.8754 428.532 36.5796C428.491 36.4489 428.461 36.3132 428.44 36.1739C428.434 36.136 428.445 36.0969 428.468 36.0652C428.493 36.0346 428.528 36.0151 428.566 36.0114L433.917 35.4957C433.955 35.492 433.993 35.5042 434.022 35.5299C434.052 35.5556 434.069 35.591 434.07 35.6289C434.077 35.7694 434.074 35.9087 434.059 36.0456Z" fill="#EFF8FC"/>
<path d="M434.059 36.0468C433.923 37.3617 432.878 38.4432 431.512 38.5727C430.165 38.7035 428.948 37.8676 428.549 36.6309C428.655 36.8949 428.934 37.0562 429.223 37.0269L433.466 36.6187C433.773 36.5882 434.027 36.3523 434.059 36.0468Z" fill="#243746"/>
<path d="M440.809 48.6349C440.809 48.7302 440.732 48.8072 440.637 48.8072C440.541 48.8072 440.464 48.7302 440.464 48.6349C440.464 48.5396 440.541 48.4626 440.637 48.4626C440.732 48.4626 440.809 48.5396 440.809 48.6349Z" fill="white"/>
<path d="M145 82H465.727V296.352H145V82Z" fill="#41B38A"/>
<path d="M428.5 70.5L418 82H439L428.5 70.5Z" fill="#41B38A"/>
<g opacity="0.9">
<path opacity="0.9" d="M375.918 199.726C381.537 199.726 386.092 195.171 386.092 189.552C386.092 183.933 381.537 179.378 375.918 179.378C370.299 179.378 365.744 183.933 365.744 189.552C365.744 195.171 370.299 199.726 375.918 199.726Z" fill="#158876"/>
<g opacity="0.9">
<path opacity="0.9" d="M378.407 189.595C378.407 188.938 378.944 188.405 379.608 188.405H381.361C382.025 188.405 382.579 188.938 382.579 189.595C382.579 190.252 382.025 190.784 381.361 190.784H379.608C378.944 190.784 378.407 190.252 378.407 189.595Z" fill="white"/>
<path opacity="0.9" d="M374.731 189.597C374.731 188.938 375.266 188.405 375.925 188.405C376.585 188.405 377.12 188.938 377.12 189.597C377.12 190.256 376.585 190.789 375.925 190.789C375.266 190.789 374.731 190.254 374.731 189.597Z" fill="white"/>
<path opacity="0.9" fill-rule="evenodd" clip-rule="evenodd" d="M377.087 184.028C377.113 184.67 376.614 185.21 375.972 185.236C373.199 185.351 371.508 187.522 371.589 189.581C371.616 190.223 371.126 190.763 370.484 190.789C369.841 190.815 369.277 190.297 369.251 189.655C369.117 186.297 371.924 182.977 375.876 182.912C376.516 182.889 377.058 183.388 377.087 184.028Z" fill="white"/>
<path opacity="0.9" fill-rule="evenodd" clip-rule="evenodd" d="M369.245 189.533C369.262 193.59 372.594 196.27 375.966 196.187C379.945 196.046 382.818 192.592 382.579 189.511C382.524 188.871 381.956 188.374 381.313 188.405C380.671 188.437 380.177 188.981 380.208 189.621C380.298 191.494 378.569 193.786 375.909 193.86C373.795 193.913 371.682 192.255 371.588 189.676C371.564 190.273 371.092 190.763 370.483 190.787C369.84 190.813 369.277 190.295 369.25 189.652C369.248 189.616 369.248 189.576 369.245 189.533Z" fill="url(#paint2_linear)"/>
</g>
</g>
<g opacity="0.8">
<path opacity="0.8" d="M394.74 154.974C400.359 154.974 404.915 150.419 404.915 144.8C404.915 139.181 400.359 134.626 394.74 134.626C389.121 134.626 384.566 139.181 384.566 144.8C384.566 150.419 389.121 154.974 394.74 154.974Z" fill="#158876"/>
<path opacity="0.8" fill-rule="evenodd" clip-rule="evenodd" d="M391.232 143.398C391.7 141.528 392.87 140.592 394.74 140.592C397.547 140.592 397.898 142.696 399.302 143.047C400.238 143.281 401.057 142.93 401.757 141.994C401.289 143.864 400.119 144.8 398.249 144.8C395.443 144.8 395.091 142.696 393.687 142.345C392.751 142.111 391.932 142.462 391.232 143.398ZM387.724 147.606C388.192 145.736 389.362 144.8 391.232 144.8C394.038 144.8 394.389 146.904 395.794 147.255C396.73 147.489 397.549 147.138 398.249 146.202C397.781 148.072 396.61 149.008 394.74 149.008C391.934 149.008 391.583 146.904 390.179 146.553C389.243 146.321 388.423 146.673 387.724 147.606Z" fill="white"/>
</g>
<g opacity="0.9">
<path opacity="0.9" d="M415.251 175.258C420.87 175.258 425.425 170.703 425.425 165.084C425.425 159.465 420.87 154.91 415.251 154.91C409.632 154.91 405.077 159.465 405.077 165.084C405.077 170.703 409.632 175.258 415.251 175.258Z" fill="#158876"/>
<g opacity="0.9">
<path opacity="0.9" fill-rule="evenodd" clip-rule="evenodd" d="M408.824 160.515C408.824 159.491 409.656 158.659 410.68 158.659H419.82C420.844 158.659 421.675 159.491 421.675 160.515V169.655C421.675 170.679 420.844 171.51 419.82 171.51H410.68C409.656 171.51 408.824 170.679 408.824 169.655V160.515ZM410.68 159.194C409.951 159.194 409.359 159.786 409.359 160.515V169.655C409.359 170.384 409.951 170.976 410.68 170.976H419.82C420.549 170.976 421.141 170.384 421.141 169.655V160.515C421.141 159.786 420.549 159.194 419.82 159.194H410.68Z" fill="white"/>
<path opacity="0.9" d="M414.2 164.374V162.631H415.736C415.882 162.631 416.022 162.643 416.159 162.667C416.295 162.691 416.414 162.734 416.519 162.798C416.624 162.86 416.708 162.949 416.77 163.059C416.832 163.171 416.863 163.312 416.863 163.486C416.863 163.799 416.77 164.026 416.581 164.164C416.393 164.303 416.154 164.372 415.86 164.372H414.2V164.374ZM412.559 161.356V168.812H416.173C416.507 168.812 416.832 168.771 417.15 168.688C417.467 168.604 417.749 168.475 417.995 168.301C418.241 168.126 418.439 167.902 418.585 167.627C418.731 167.353 418.805 167.028 418.805 166.65C418.805 166.185 418.693 165.786 418.466 165.454C418.239 165.122 417.897 164.893 417.436 164.759C417.771 164.599 418.024 164.394 418.193 164.143C418.363 163.892 418.449 163.579 418.449 163.202C418.449 162.853 418.392 162.562 418.277 162.325C418.162 162.089 418 161.898 417.792 161.757C417.584 161.616 417.334 161.511 417.04 161.449C416.748 161.387 416.424 161.356 416.068 161.356H412.559ZM414.2 167.539V165.492H415.987C416.342 165.492 416.627 165.573 416.844 165.738C417.059 165.903 417.169 166.175 417.169 166.557C417.169 166.753 417.135 166.913 417.068 167.037C417.002 167.162 416.913 167.262 416.801 167.336C416.689 167.41 416.56 167.46 416.414 167.494C416.268 167.525 416.116 167.541 415.956 167.541H414.2V167.539Z" fill="white"/>
</g>
</g>
<g opacity="0.4">
<path opacity="0.4" d="M372.226 172.805C377.845 172.805 382.4 168.25 382.4 162.631C382.4 157.012 377.845 152.457 372.226 152.457C366.607 152.457 362.052 157.012 362.052 162.631C362.052 168.25 366.607 172.805 372.226 172.805Z" fill="#158876"/>
<g opacity="0.4">
<path opacity="0.4" d="M372.226 156.323H369.37L372.226 163.078" fill="white"/>
<path opacity="0.4" d="M372.226 156.323H375.085L372.226 163.078" fill="white"/>
<path opacity="0.4" d="M372.226 165.026V170.25L366.131 158.349H369.324" fill="white"/>
<path opacity="0.4" d="M372.226 165.026V170.25L378.321 158.349H375.13" fill="white"/>
</g>
</g>
<g opacity="0.9">
<path opacity="0.9" d="M443.88 187.617C449.499 187.617 454.054 183.062 454.054 177.443C454.054 171.824 449.499 167.269 443.88 167.269C438.26 167.269 433.705 171.824 433.705 177.443C433.705 183.062 438.26 187.617 443.88 187.617Z" fill="#158876"/>
<g opacity="0.9">
<path opacity="0.9" d="M449.924 180.106L446.39 173.796C446.098 173.283 445.346 173.283 445.054 173.796L444.677 174.47L445.117 175.251L445.728 174.181L449.253 180.448H447.997C448.061 180.847 447.717 181.238 447.225 181.238H449.258C449.836 181.236 450.204 180.605 449.924 180.106Z" fill="white"/>
<path opacity="0.9" d="M441.391 180.448H438.515L442.857 172.722L444.269 175.208L444.68 174.472L443.445 172.28C443.182 171.814 442.525 171.816 442.265 172.282L437.832 180.207C437.572 180.67 437.916 181.238 438.456 181.238H442.165C441.67 181.236 441.324 180.847 441.391 180.448Z" fill="white"/>
<path opacity="0.9" d="M447.995 180.448C447.983 180.376 447.959 180.304 447.921 180.235L445.117 175.251L444.677 174.47L444.266 175.205L441.465 180.235C441.427 180.304 441.403 180.376 441.391 180.445C441.326 180.844 441.67 181.236 442.162 181.236H442.301H447.223C447.715 181.236 448.059 180.847 447.995 180.448ZM442.196 180.448L444.699 176.015L447.187 180.448H442.196Z" fill="white"/>
</g>
</g>
<g opacity="0.8">
<path opacity="0.8" d="M433.705 217.48C439.324 217.48 443.88 212.925 443.88 207.306C443.88 201.687 439.324 197.132 433.705 197.132C428.086 197.132 423.531 201.687 423.531 207.306C423.531 212.925 428.086 217.48 433.705 217.48Z" fill="#158876"/>
<g opacity="0.8">
<path opacity="0.8" d="M437.651 202.582L433.705 209.413L429.762 202.582H427.133L433.705 213.967L440.28 202.582H437.651Z" fill="white"/>
<g opacity="0.8">
<path opacity="0.8" d="M435.224 202.582L433.705 205.212L432.186 202.582H429.76L433.703 209.413L437.646 202.582H435.224Z" fill="white"/>
</g>
</g>
</g>
<g opacity="0.2">
<path opacity="0.2" d="M453.682 208.016C459.301 208.016 463.856 203.461 463.856 197.842C463.856 192.223 459.301 187.667 453.682 187.667C448.063 187.667 443.508 192.223 443.508 197.842C443.508 203.461 448.063 208.016 453.682 208.016Z" fill="#158876"/>
<path opacity="0.5" fill-rule="evenodd" clip-rule="evenodd" d="M459.208 193.538L453.811 203.153L448.143 193.538H447.229L453.725 204.784L460.216 193.538H459.208Z" fill="white"/>
<path opacity="0.69" d="M447.095 191.708H460.264L453.658 203.151L447.095 191.708Z" fill="white"/>
<path opacity="0.2" fill-rule="evenodd" clip-rule="evenodd" d="M457.816 194.352L453.687 201.51L449.55 194.352H446.796L453.684 206.279L460.565 194.352H457.816Z" fill="white"/>
<path opacity="0.2" fill-rule="evenodd" clip-rule="evenodd" d="M451.972 193.032H454.26C454.678 193.032 455.014 193.127 455.272 193.321C455.528 193.509 455.65 193.801 455.65 194.19C455.65 194.434 455.595 194.634 455.48 194.804C455.366 194.973 455.196 195.1 454.981 195.195V195.21C455.27 195.269 455.487 195.406 455.643 195.621C455.791 195.831 455.865 196.101 455.865 196.416C455.865 196.604 455.831 196.774 455.764 196.936C455.698 197.099 455.595 197.233 455.454 197.347C455.313 197.469 455.136 197.557 454.914 197.624C454.699 197.698 454.434 197.732 454.131 197.732H451.972V193.032ZM452.796 195.002H454.138C454.334 195.002 454.503 194.942 454.63 194.832C454.764 194.718 454.826 194.555 454.826 194.348C454.826 194.111 454.771 193.944 454.651 193.841C454.537 193.746 454.362 193.7 454.138 193.7H452.796V195.002ZM452.796 197.058H454.253C454.503 197.058 454.697 196.991 454.833 196.862C454.967 196.733 455.043 196.552 455.043 196.316C455.043 196.079 454.976 195.905 454.833 195.776C454.692 195.647 454.503 195.587 454.253 195.587H452.796V197.058Z" fill="white"/>
</g>
<g opacity="0.7">
<path opacity="0.7" d="M378.407 233.086C384.026 233.086 388.581 228.53 388.581 222.911C388.581 217.292 384.026 212.737 378.407 212.737C372.788 212.737 368.233 217.292 368.233 222.911C368.233 228.53 372.788 233.086 378.407 233.086Z" fill="#158876"/>
<path opacity="0.7" d="M374.399 219.393L377.91 215.916L382.283 220.256L379.752 222.911L383.262 226.472L377.853 229.907L373.551 225.379L374.399 219.393Z" fill="white"/>
</g>
<g opacity="0.2">
<path opacity="0.2" d="M350.177 184.415C355.234 184.415 359.334 180.315 359.334 175.258C359.334 170.201 355.234 166.101 350.177 166.101C345.12 166.101 341.021 170.201 341.021 175.258C341.021 180.315 345.12 184.415 350.177 184.415Z" fill="#158876"/>
<path opacity="0.5" fill-rule="evenodd" clip-rule="evenodd" d="M355.15 171.384L350.292 180.037L345.191 171.384H344.369L350.215 181.506L356.057 171.384H355.15Z" fill="white"/>
<path opacity="0.69" d="M344.247 169.739H356.1L350.156 180.037L344.247 169.739Z" fill="white"/>
<path opacity="0.2" fill-rule="evenodd" clip-rule="evenodd" d="M353.896 172.12L350.18 178.563L346.456 172.12H343.98L350.18 182.855L356.372 172.12H353.896Z" fill="white"/>
<path opacity="0.2" fill-rule="evenodd" clip-rule="evenodd" d="M348.637 170.928H350.696C351.073 170.928 351.376 171.014 351.605 171.188C351.837 171.358 351.945 171.621 351.945 171.972C351.945 172.191 351.897 172.373 351.792 172.523C351.689 172.676 351.536 172.791 351.343 172.874V172.886C351.603 172.941 351.799 173.063 351.937 173.256C352.071 173.445 352.138 173.689 352.138 173.973C352.138 174.143 352.107 174.295 352.047 174.441C351.988 174.587 351.894 174.709 351.768 174.811C351.641 174.921 351.484 175 351.283 175.06C351.09 175.127 350.851 175.158 350.578 175.158H348.634V170.928H348.637ZM349.377 172.702H350.586C350.762 172.702 350.913 172.647 351.03 172.55C351.152 172.447 351.207 172.301 351.207 172.113C351.207 171.9 351.159 171.747 351.049 171.656C350.946 171.57 350.789 171.53 350.588 171.53H349.38V172.702H349.377ZM349.377 174.553H350.688C350.913 174.553 351.09 174.494 351.211 174.377C351.333 174.26 351.4 174.097 351.4 173.885C351.4 173.672 351.34 173.514 351.211 173.4C351.085 173.285 350.913 173.23 350.688 173.23H349.377V174.553Z" fill="white"/>
</g>
<g opacity="0.3">
<path opacity="0.3" d="M451.508 238.514C456.565 238.514 460.664 234.415 460.664 229.358C460.664 224.3 456.565 220.201 451.508 220.201C446.451 220.201 442.351 224.3 442.351 229.358C442.351 234.415 446.451 238.514 451.508 238.514Z" fill="#158876"/>
<g opacity="0.3">
<path opacity="0.3" fill-rule="evenodd" clip-rule="evenodd" d="M445.7 225.245C445.7 224.309 446.457 223.549 447.395 223.549H455.621C456.556 223.549 457.316 224.306 457.316 225.245V233.47C457.316 234.406 456.559 235.166 455.621 235.166H447.395C446.46 235.166 445.7 234.408 445.7 233.47V225.245ZM447.395 224.084C446.753 224.084 446.234 224.604 446.234 225.245V233.47C446.234 234.113 446.754 234.631 447.395 234.631H455.621C456.263 234.631 456.781 234.111 456.781 233.47V225.245C456.781 224.602 456.261 224.084 455.621 224.084H447.395Z" fill="white"/>
<path opacity="0.3" d="M450.562 228.717V227.148H451.945C452.076 227.148 452.203 227.16 452.325 227.182C452.446 227.203 452.554 227.244 452.649 227.299C452.743 227.356 452.819 227.432 452.874 227.533C452.931 227.633 452.958 227.762 452.958 227.917C452.958 228.199 452.874 228.402 452.704 228.529C452.535 228.653 452.32 228.717 452.055 228.717H450.562ZM449.086 226.002V232.713H452.339C452.64 232.713 452.934 232.675 453.218 232.601C453.502 232.527 453.758 232.41 453.98 232.252C454.202 232.094 454.379 231.894 454.51 231.645C454.641 231.397 454.708 231.106 454.708 230.767C454.708 230.346 454.605 229.988 454.402 229.689C454.199 229.391 453.889 229.183 453.476 229.064C453.777 228.92 454.004 228.734 454.156 228.51C454.309 228.285 454.386 228.001 454.386 227.664C454.386 227.351 454.333 227.089 454.23 226.874C454.128 226.661 453.982 226.489 453.793 226.36C453.605 226.231 453.38 226.14 453.118 226.083C452.855 226.026 452.563 226 452.243 226H449.086V226.002ZM450.562 231.567V229.725H452.169C452.489 229.725 452.745 229.799 452.941 229.945C453.134 230.093 453.232 230.339 453.232 230.683C453.232 230.857 453.204 231.003 453.144 231.115C453.084 231.227 453.005 231.318 452.905 231.383C452.805 231.45 452.688 231.495 452.556 231.524C452.425 231.552 452.286 231.567 452.143 231.567H450.562Z" fill="white"/>
</g>
</g>
<g opacity="0.9">
<path opacity="0.9" d="M439.311 161.079C443.806 161.079 447.45 157.435 447.45 152.939C447.45 148.444 443.806 144.8 439.311 144.8C434.816 144.8 431.171 148.444 431.171 152.939C431.171 157.435 434.816 161.079 439.311 161.079Z" fill="#158876"/>
<g opacity="0.9">
<path opacity="0.9" d="M441.303 152.973C441.303 152.447 441.732 152.02 442.265 152.02H443.667C444.197 152.02 444.641 152.445 444.641 152.973C444.641 153.498 444.197 153.926 443.667 153.926H442.265C441.732 153.926 441.303 153.501 441.303 152.973Z" fill="white"/>
<path opacity="0.9" d="M438.36 152.975C438.36 152.45 438.788 152.022 439.316 152.022C439.843 152.022 440.271 152.45 440.271 152.975C440.271 153.501 439.843 153.928 439.316 153.928C438.788 153.928 438.36 153.501 438.36 152.975Z" fill="white"/>
<path opacity="0.9" fill-rule="evenodd" clip-rule="evenodd" d="M440.246 148.521C440.268 149.034 439.869 149.467 439.355 149.488C437.137 149.581 435.785 151.315 435.849 152.966C435.871 153.479 435.479 153.911 434.966 153.933C434.452 153.954 434.001 153.539 433.979 153.025C433.872 150.338 436.117 147.683 439.279 147.633C439.79 147.609 440.225 148.008 440.246 148.521Z" fill="white"/>
<path opacity="0.9" fill-rule="evenodd" clip-rule="evenodd" d="M433.973 152.925C433.985 156.171 436.653 158.315 439.349 158.248C442.533 158.134 444.83 155.373 444.639 152.908C444.594 152.397 444.14 151.998 443.626 152.025C443.113 152.048 442.716 152.486 442.74 152.999C442.812 154.496 441.429 156.333 439.301 156.39C437.61 156.431 435.919 155.105 435.845 153.044C435.826 153.522 435.449 153.914 434.962 153.933C434.448 153.954 433.997 153.539 433.975 153.025C433.975 152.992 433.973 152.958 433.973 152.925Z" fill="url(#paint3_linear)"/>
</g>
</g>
<g opacity="0.25">
<path opacity="0.25" d="M355.907 213.578C360.402 213.578 364.046 209.934 364.046 205.439C364.046 200.944 360.402 197.299 355.907 197.299C351.412 197.299 347.768 200.944 347.768 205.439C347.768 209.934 351.412 213.578 355.907 213.578Z" fill="#158876"/>
<g opacity="0.25">
<path opacity="0.25" d="M359.062 201.658L355.907 207.122L352.752 201.658H350.648L355.907 210.767L361.166 201.658H359.062Z" fill="white"/>
<g opacity="0.8">
<path opacity="0.8" d="M357.123 201.658L355.907 203.762L354.691 201.658H352.75L355.905 207.122L359.059 201.658H357.123Z" fill="white"/>
</g>
</g>
</g>
<g opacity="0.2">
<path opacity="0.2" d="M347.768 237.327C352.263 237.327 355.907 233.683 355.907 229.188C355.907 224.693 352.263 221.049 347.768 221.049C343.272 221.049 339.628 224.693 339.628 229.188C339.628 233.683 343.272 237.327 347.768 237.327Z" fill="#158876"/>
<g opacity="0.2">
<path opacity="0.2" d="M352.601 231.318L349.774 226.272C349.542 225.861 348.938 225.861 348.706 226.272L348.403 226.812L348.754 227.435L349.244 226.58L352.064 231.593H351.059C351.111 231.913 350.834 232.223 350.442 232.223H352.069C352.532 232.223 352.826 231.717 352.601 231.318Z" fill="white"/>
<path opacity="0.2" d="M345.776 231.591H343.476L346.948 225.41L348.078 227.399L348.405 226.812L347.417 225.056C347.206 224.684 346.681 224.686 346.473 225.059L342.927 231.397C342.719 231.77 342.993 232.223 343.426 232.223H346.392C345.998 232.223 345.723 231.911 345.776 231.591Z" fill="white"/>
<path opacity="0.2" d="M351.059 231.591C351.049 231.533 351.03 231.476 350.999 231.421L348.754 227.435L348.403 226.812L348.076 227.399L345.833 231.421C345.802 231.476 345.783 231.533 345.773 231.591C345.721 231.911 345.998 232.221 346.39 232.221H346.499H350.438C350.834 232.221 351.111 231.911 351.059 231.591ZM346.421 231.591L348.422 228.044L350.411 231.591H346.421Z" fill="white"/>
</g>
</g>
<g opacity="0.1">
<path opacity="0.1" d="M333.772 204.331C338.267 204.331 341.911 200.686 341.911 196.191C341.911 191.696 338.267 188.052 333.772 188.052C329.277 188.052 325.633 191.696 325.633 196.191C325.633 200.686 329.277 204.331 333.772 204.331Z" fill="#158876"/>
<path opacity="0.1" fill-rule="evenodd" clip-rule="evenodd" d="M330.966 195.066C331.341 193.569 332.275 192.821 333.772 192.821C336.017 192.821 336.299 194.505 337.421 194.787C338.169 194.973 338.826 194.694 339.387 193.944C339.012 195.441 338.078 196.189 336.581 196.189C334.336 196.189 334.054 194.505 332.931 194.223C332.182 194.039 331.527 194.319 330.966 195.066ZM328.16 198.436C328.535 196.939 329.468 196.191 330.966 196.191C333.211 196.191 333.493 197.875 334.615 198.157C335.363 198.343 336.02 198.064 336.581 197.314C336.206 198.811 335.272 199.559 333.775 199.559C331.53 199.559 331.248 197.875 330.125 197.593C329.375 197.407 328.721 197.686 328.16 198.436Z" fill="white"/>
</g>
<g opacity="0.1">
<path opacity="0.1" d="M330.168 223.891C333.709 223.891 336.578 221.021 336.578 217.48C336.578 213.94 333.709 211.07 330.168 211.07C326.628 211.07 323.758 213.94 323.758 217.48C323.758 221.021 326.628 223.891 330.168 223.891Z" fill="#158876"/>
<g opacity="0.1">
<path opacity="0.1" fill-rule="evenodd" clip-rule="evenodd" d="M326.022 214.603C326.022 213.903 326.591 213.335 327.29 213.335H333.049C333.748 213.335 334.317 213.903 334.317 214.603V220.361C334.317 221.06 333.748 221.629 333.049 221.629H327.29C326.591 221.629 326.022 221.06 326.022 220.361V214.603ZM327.29 213.869C326.886 213.869 326.557 214.199 326.557 214.603V220.361C326.557 220.765 326.886 221.094 327.29 221.094H333.049C333.453 221.094 333.782 220.765 333.782 220.361V214.603C333.782 214.199 333.453 213.869 333.049 213.869H327.29Z" fill="white"/>
<path opacity="0.1" d="M329.507 217.034V215.935H330.474C330.567 215.935 330.655 215.942 330.741 215.959C330.827 215.974 330.901 216.002 330.968 216.04C331.035 216.079 331.088 216.134 331.126 216.205C331.167 216.274 331.186 216.365 331.186 216.475C331.186 216.673 331.126 216.814 331.009 216.903C330.89 216.991 330.739 217.034 330.555 217.034H329.507ZM328.475 215.133V219.831H330.751C330.961 219.831 331.167 219.804 331.367 219.752C331.568 219.699 331.745 219.618 331.9 219.508C332.055 219.398 332.179 219.257 332.272 219.083C332.365 218.909 332.411 218.706 332.411 218.467C332.411 218.173 332.339 217.922 332.196 217.715C332.053 217.507 331.838 217.361 331.549 217.278C331.759 217.177 331.919 217.048 332.026 216.888C332.134 216.731 332.186 216.532 332.186 216.296C332.186 216.076 332.151 215.892 332.079 215.744C332.007 215.596 331.905 215.477 331.773 215.386C331.642 215.295 331.484 215.231 331.3 215.193C331.116 215.152 330.911 215.133 330.689 215.133H328.475ZM329.507 219.028V217.738H330.632C330.856 217.738 331.035 217.791 331.171 217.894C331.307 217.996 331.374 218.168 331.374 218.41C331.374 218.531 331.353 218.634 331.312 218.713C331.272 218.792 331.214 218.854 331.145 218.902C331.076 218.947 330.995 218.98 330.901 218.999C330.808 219.019 330.713 219.028 330.612 219.028H329.507Z" fill="white"/>
</g>
</g>
<g opacity="0.1">
<path opacity="0.1" d="M468.087 182.521C472.02 182.521 475.209 179.332 475.209 175.399C475.209 171.465 472.02 168.277 468.087 168.277C464.154 168.277 460.965 171.465 460.965 175.399C460.965 179.332 464.154 182.521 468.087 182.521Z" fill="#158876"/>
<path opacity="0.1" fill-rule="evenodd" clip-rule="evenodd" d="M465.63 174.415C465.957 173.106 466.776 172.449 468.085 172.449C470.05 172.449 470.296 173.923 471.278 174.169C471.932 174.334 472.505 174.088 472.997 173.433C472.67 174.742 471.851 175.399 470.542 175.399C468.577 175.399 468.331 173.925 467.349 173.679C466.695 173.514 466.122 173.76 465.63 174.415ZM463.174 177.362C463.502 176.053 464.321 175.396 465.63 175.396C467.595 175.396 467.841 176.87 468.823 177.116C469.477 177.281 470.05 177.035 470.542 176.38C470.215 177.689 469.396 178.346 468.087 178.346C466.122 178.346 465.876 176.872 464.894 176.626C464.24 176.462 463.666 176.708 463.174 177.362Z" fill="white"/>
</g>
<g opacity="0.1">
<path opacity="0.1" d="M463.865 161.055C467.798 161.055 470.987 157.866 470.987 153.933C470.987 150 467.798 146.811 463.865 146.811C459.931 146.811 456.743 150 456.743 153.933C456.743 157.866 459.931 161.055 463.865 161.055Z" fill="#158876"/>
<g opacity="0.1">
<path opacity="0.1" d="M466.626 150.623L463.865 155.406L461.104 150.623H459.265L463.865 158.595L468.467 150.623H466.626Z" fill="white"/>
<g opacity="0.8">
<path opacity="0.8" d="M464.928 150.623L463.865 152.464L462.802 150.623H461.104L463.865 155.404L466.626 150.623H464.928Z" fill="white"/>
</g>
</g>
</g>
<g opacity="0.9">
<path opacity="0.9" d="M422.098 147.711C426.032 147.711 429.22 144.523 429.22 140.59C429.22 136.656 426.032 133.468 422.098 133.468C418.165 133.468 414.976 136.656 414.976 140.59C414.976 144.523 418.165 147.711 422.098 147.711Z" fill="#158876"/>
<g opacity="0.9">
<path opacity="0.9" d="M422.098 136.176H420.097L422.098 140.902" fill="white"/>
<path opacity="0.9" d="M422.098 136.176H424.097L422.098 140.902" fill="white"/>
<path opacity="0.9" d="M422.098 142.266V145.925L417.83 137.595H420.066" fill="white"/>
<path opacity="0.9" d="M422.098 142.269V145.925L426.364 137.595H424.128" fill="white"/>
</g>
</g>
<g opacity="0.3">
<path opacity="0.15" d="M341.021 162.528C344.954 162.528 348.142 159.34 348.142 155.406C348.142 151.473 344.954 148.285 341.021 148.285C337.087 148.285 333.899 151.473 333.899 155.406C333.899 159.34 337.087 162.528 341.021 162.528Z" fill="#158876"/>
<path opacity="0.15" d="M338.214 152.942L340.672 150.508L343.734 153.546L341.962 155.406L344.419 157.897L340.631 160.302L337.622 157.133L338.214 152.942Z" fill="white"/>
</g>
<path opacity="0.81" d="M389.801 260.315C431.747 260.315 465.751 226.311 465.751 184.365C465.751 142.419 431.747 108.415 389.801 108.415C347.855 108.415 313.851 142.419 313.851 184.365C313.851 226.311 347.855 260.315 389.801 260.315Z" fill="url(#paint4_radial)"/>
<path d="M404.756 154.398H403.217V164.507H404.756V154.398Z" fill="#158876"/>
<path d="M405.96 153.723C405.96 154.813 405.077 155.696 403.988 155.696C402.898 155.696 402.015 154.813 402.015 153.723C402.015 152.634 402.898 151.751 403.988 151.751C405.077 151.751 405.96 152.634 405.96 153.723Z" fill="#137361"/>
<path d="M405.358 152.955C405.358 153.288 405.089 153.557 404.756 153.557C404.423 153.557 404.154 153.288 404.154 152.955C404.154 152.622 404.423 152.353 404.756 152.353C405.089 152.353 405.358 152.622 405.358 152.955Z" fill="white"/>
<path d="M410.336 165.413C410.286 165.419 410.255 165.131 410.015 164.686C410.015 164.686 409.903 164.477 409.774 164.3C409.359 163.732 407.96 163.744 407.849 163.744C405.666 163.763 404.263 163.625 404.263 163.638C404.263 163.648 405.287 163.628 406.037 163.613C408.153 163.569 409.414 163.457 409.955 164.023C410.18 164.259 410.292 164.565 410.292 164.565C410.447 164.981 410.395 165.404 410.336 165.413Z" fill="white"/>
<path opacity="0.59" d="M404.758 235.445C413.279 235.445 420.186 232.618 420.186 229.13C420.186 225.642 413.279 222.815 404.758 222.815C396.238 222.815 389.33 225.642 389.33 229.13C389.33 232.618 396.238 235.445 404.758 235.445Z" fill="#137361"/>
<path d="M382.413 203.042C389.651 205.025 391.359 204.469 392.65 206.41C392.798 206.633 393.554 207.77 393.402 209.232C393.282 210.397 392.634 211.294 392.226 211.69C389.747 214.09 382.926 211.155 379.018 207.943C378.166 207.243 375.881 205.364 376.342 204.031C376.531 203.486 377.116 203.213 377.537 203.025C379.395 202.19 381.322 202.742 382.413 203.042Z" fill="#158876"/>
<path d="M409.307 170.089H398.67C397.885 170.089 397.249 169.453 397.249 168.668V164.867C397.249 164.082 397.885 163.446 398.67 163.446H409.307C410.093 163.446 410.728 164.082 410.728 164.867V168.668C410.726 169.453 410.091 170.089 409.307 170.089Z" fill="#137361"/>
<path d="M428.101 192.182C428.101 198.322 423.123 203.3 416.983 203.3H390.992C384.877 203.3 379.874 198.297 379.874 192.182V186.406C379.874 175.525 388.776 166.623 399.657 166.623H408.322C419.203 166.623 428.105 175.525 428.105 186.406V192.182H428.101Z" fill="#158876"/>
<path d="M420.515 191.13C419.884 191.442 419.176 191.605 418.457 191.605H389.516C388.797 191.605 388.089 191.442 387.458 191.13C385.908 190.363 385.033 188.816 385.252 187.229L385.269 187.114C386.01 181.738 390.88 177.604 396.85 177.293C399.376 177.162 402.026 177.093 404.79 177.11C406.956 177.123 409.049 177.187 411.065 177.289C417.058 177.597 421.963 181.715 422.706 187.112C422.713 187.152 422.717 187.189 422.723 187.229C422.942 188.816 422.065 190.363 420.515 191.13Z" fill="#243746"/>
<path d="M396.36 190.42C399.374 190.42 401.817 187.976 401.817 184.962C401.817 181.949 399.374 179.505 396.36 179.505C393.346 179.505 390.903 181.949 390.903 184.962C390.903 187.976 393.346 190.42 396.36 190.42Z" fill="url(#paint5_radial)"/>
<path d="M396.36 188.88C398.524 188.88 400.278 187.126 400.278 184.963C400.278 182.799 398.524 181.045 396.36 181.045C394.196 181.045 392.442 182.799 392.442 184.963C392.442 187.126 394.196 188.88 396.36 188.88Z" fill="#EFF8FC"/>
<path d="M396.36 188.253C398.178 188.253 399.651 186.78 399.651 184.962C399.651 183.145 398.178 181.672 396.36 181.672C394.543 181.672 393.069 183.145 393.069 184.962C393.069 186.78 394.543 188.253 396.36 188.253Z" fill="#243746"/>
<path d="M398.468 184.111C398.468 184.783 397.922 185.329 397.249 185.329C396.577 185.329 396.031 184.783 396.031 184.111C396.031 183.438 396.577 182.892 397.249 182.892C397.922 182.89 398.468 183.436 398.468 184.111Z" fill="#EFF8FC"/>
<path d="M395.873 187.97C396.141 187.97 396.358 187.753 396.358 187.485C396.358 187.217 396.141 187 395.873 187C395.605 187 395.387 187.217 395.387 187.485C395.387 187.753 395.605 187.97 395.873 187.97Z" fill="#EFF8FC"/>
<path d="M394.667 186.756C394.667 186.889 394.558 187 394.423 187C394.29 187 394.179 186.891 394.179 186.756C394.179 186.623 394.288 186.512 394.423 186.512C394.558 186.512 394.667 186.62 394.667 186.756Z" fill="#EFF8FC"/>
<path d="M411.103 190.42C414.117 190.42 416.56 187.976 416.56 184.962C416.56 181.949 414.117 179.505 411.103 179.505C408.089 179.505 405.646 181.949 405.646 184.962C405.646 187.976 408.089 190.42 411.103 190.42Z" fill="url(#paint6_radial)"/>
<path d="M411.103 188.88C413.267 188.88 415.021 187.126 415.021 184.963C415.021 182.799 413.267 181.045 411.103 181.045C408.939 181.045 407.185 182.799 407.185 184.963C407.185 187.126 408.939 188.88 411.103 188.88Z" fill="#EFF8FC"/>
<path d="M411.103 188.253C412.92 188.253 414.394 186.78 414.394 184.962C414.394 183.145 412.92 181.672 411.103 181.672C409.285 181.672 407.812 183.145 407.812 184.962C407.812 186.78 409.285 188.253 411.103 188.253Z" fill="#243746"/>
<path d="M413.211 184.111C413.211 184.783 412.665 185.329 411.992 185.329C411.319 185.329 410.774 184.783 410.774 184.111C410.774 183.438 411.319 182.892 411.992 182.892C412.665 182.89 413.211 183.436 413.211 184.111Z" fill="#EFF8FC"/>
<path d="M410.618 187.97C410.886 187.97 411.103 187.753 411.103 187.485C411.103 187.217 410.886 187 410.618 187C410.349 187 410.132 187.217 410.132 187.485C410.132 187.753 410.349 187.97 410.618 187.97Z" fill="#EFF8FC"/>
<path d="M409.412 186.756C409.412 186.889 409.303 187 409.168 187C409.034 187 408.924 186.891 408.924 186.756C408.924 186.623 409.032 186.512 409.168 186.512C409.301 186.512 409.412 186.62 409.412 186.756Z" fill="#EFF8FC"/>
<path d="M420.98 172.95C421.007 173.871 420.255 174.973 419.393 175.069C418.584 175.156 417.941 174.331 417.274 173.482C416.618 172.642 415.185 170.489 415.756 169.88C416.51 169.074 420.917 170.778 420.98 172.95Z" fill="white"/>
<path d="M413.602 169.439C413.981 169.439 414.287 169.132 414.287 168.753C414.287 168.375 413.981 168.068 413.602 168.068C413.224 168.068 412.917 168.375 412.917 168.753C412.917 169.132 413.224 169.439 413.602 169.439Z" fill="white"/>
<path d="M420.882 185.731C420.661 185.887 419.128 182.761 415.01 180.051C413.563 179.099 412.134 178.42 412.219 178.222C412.305 178.022 413.915 178.395 415.204 178.993C419.307 180.899 421.144 185.548 420.882 185.731Z" fill="white"/>
<path d="M409.882 193.946C409.828 194.469 409.393 194.871 408.87 194.923L401.64 195.621C401.117 195.671 400.613 195.36 400.461 194.856C400.393 194.633 400.341 194.402 400.305 194.165C400.295 194.1 400.313 194.033 400.353 193.979C400.395 193.927 400.455 193.894 400.52 193.888L409.641 193.009C409.705 193.002 409.77 193.023 409.82 193.067C409.87 193.111 409.899 193.171 409.901 193.236C409.913 193.475 409.907 193.713 409.882 193.946Z" fill="#EFF8FC"/>
<path d="M409.882 193.948C409.651 196.189 407.87 198.033 405.541 198.253C403.246 198.476 401.172 197.052 400.49 194.944C400.672 195.394 401.147 195.669 401.64 195.619L408.872 194.923C409.395 194.871 409.828 194.469 409.882 193.948Z" fill="#243746"/>
<path d="M421.274 210.184C421.274 210.251 421.274 210.313 421.271 210.376C421.249 210.982 421.107 211.438 421.038 211.644C419.049 217.724 417.855 220.93 416.183 223.523C415.893 223.971 415.591 224.4 415.264 224.823C414.837 225.385 414.369 225.935 413.85 226.501C412.694 227.757 410.949 228.326 410.384 228.524C408.324 229.251 406.506 229.12 405.296 229.13H405.085C403.873 229.117 402.057 229.251 399.997 228.524C399.434 228.328 397.683 227.759 396.531 226.501C393.355 223.044 392.132 220.172 389.343 211.646C389.276 211.45 389.143 211.026 389.112 210.457C389.103 210.292 389.099 210.128 389.11 209.963C389.17 208.945 389.582 207.945 390.318 207.033C391.574 205.468 393.515 204.61 395.523 204.602L405.194 204.562L414.69 204.525C416.739 204.517 418.726 205.377 420.03 206.962C420.659 207.73 421.061 208.559 421.209 209.413C421.23 209.534 421.246 209.659 421.259 209.78C421.265 209.909 421.274 210.047 421.274 210.184Z" fill="#158876"/>
<path d="M405.189 204.556L395.519 204.596C393.511 204.604 391.572 205.462 390.314 207.026C389.58 207.939 389.168 208.939 389.105 209.957C389.155 208.911 389.584 207.887 390.351 206.954C391.651 205.368 393.64 204.508 395.692 204.517L405.189 204.556Z" fill="url(#paint7_linear)"/>
<path d="M414.802 218.805C414.66 211.303 413.646 209.82 415.144 208.035C415.316 207.83 416.193 206.783 417.637 206.516C418.789 206.304 419.832 206.672 420.326 206.951C423.327 208.653 422.438 216.027 420.459 220.68C420.028 221.694 418.872 224.416 417.462 224.352C416.885 224.325 416.458 223.839 416.16 223.49C414.837 221.942 414.823 219.936 414.802 218.805Z" fill="#158876"/>
<path d="M416.181 223.521C415.891 223.969 415.589 224.398 415.262 224.821C415.158 224.714 415.067 224.606 414.983 224.508C413.661 222.961 413.646 220.957 413.625 219.824C413.483 212.321 412.467 210.84 413.967 209.055C414.077 208.922 414.477 208.445 415.131 208.049C413.652 209.828 414.66 211.323 414.802 218.803C414.823 219.934 414.839 221.94 416.16 223.49C416.168 223.5 416.177 223.51 416.181 223.521Z" fill="#137361"/>
<path d="M420.415 212.559C420.374 211.753 420.222 211.159 419.92 209.974C419.524 208.422 419.028 207.666 419.351 207.366C419.561 207.17 419.974 207.304 420.068 207.333C421.486 207.785 421.925 210.445 421.863 212.111C421.825 213.129 421.578 214.271 421.203 214.321C421.144 214.329 420.996 214.321 420.892 214.229C420.476 213.86 420.449 213.171 420.415 212.559Z" fill="white"/>
<path d="M421.388 215.404C421.388 215.566 421.257 215.698 421.094 215.698C420.932 215.698 420.801 215.566 420.801 215.404C420.801 215.241 420.932 215.11 421.094 215.11C421.257 215.11 421.388 215.241 421.388 215.404Z" fill="white"/>
<path d="M352.938 260.538C352.938 258.176 354.852 256.261 357.214 256.261H417.618C419.979 256.261 421.894 258.176 421.894 260.538V274.971C421.894 277.332 419.979 279.247 417.618 279.247H357.214C354.852 279.247 352.938 277.332 352.938 274.971V260.538Z" fill="#158876"/>
<path d="M364.013 266.72H364.692C364.671 265.973 364.011 265.431 363.063 265.431C362.127 265.431 361.409 265.966 361.409 266.77C361.409 267.419 361.874 267.8 362.623 268.003L363.175 268.153C363.674 268.285 364.058 268.449 364.058 268.864C364.058 269.319 363.623 269.62 363.024 269.62C362.482 269.62 362.031 269.378 361.99 268.87H361.284C361.33 269.716 361.983 270.237 363.029 270.237C364.125 270.237 364.756 269.661 364.756 268.87C364.756 268.03 364.006 267.704 363.414 267.558L362.958 267.44C362.594 267.347 362.109 267.176 362.111 266.729C362.111 266.333 362.473 266.039 363.047 266.039C363.582 266.039 363.963 266.29 364.013 266.72Z" fill="white"/>
<path d="M367.758 268.709C367.761 269.303 367.319 269.586 366.936 269.586C366.515 269.586 366.223 269.28 366.223 268.804V266.661H365.542V268.886C365.542 269.754 366.018 270.205 366.69 270.205C367.216 270.205 367.574 269.927 367.736 269.554H367.772V270.16H368.442V266.661H367.758V268.709Z" fill="white"/>
<path d="M369.412 270.16H370.077V269.615H370.134C370.257 269.839 370.507 270.228 371.145 270.228C371.992 270.228 372.607 269.549 372.607 268.417C372.607 267.283 371.983 266.615 371.138 266.615C370.489 266.615 370.254 267.012 370.134 267.228H370.093V265.495H369.412V270.16ZM370.079 268.41C370.079 267.679 370.398 267.194 370.992 267.194C371.61 267.194 371.919 267.716 371.919 268.41C371.919 269.112 371.601 269.647 370.992 269.647C370.407 269.647 370.079 269.146 370.079 268.41Z" fill="white"/>
<path d="M373.372 270.16H374.053V268.003C374.053 267.531 374.384 267.203 374.771 267.203C375.149 267.203 375.411 267.454 375.411 267.834V270.16H376.09V267.93C376.09 267.508 376.347 267.203 376.791 267.203C377.151 267.203 377.447 267.403 377.447 267.877V270.16H378.128V267.813C378.128 267.014 377.682 266.615 377.049 266.615C376.545 266.615 376.167 266.857 375.999 267.23H375.962C375.81 266.848 375.488 266.615 375.021 266.615C374.559 266.615 374.215 266.845 374.069 267.23H374.026V266.661H373.372V270.16Z" fill="white"/>
<path d="M379.041 270.16H379.722V266.661H379.041V270.16ZM379.385 266.121C379.62 266.121 379.816 265.939 379.816 265.716C379.816 265.492 379.62 265.308 379.385 265.308C379.148 265.308 378.955 265.492 378.955 265.716C378.955 265.939 379.148 266.121 379.385 266.121Z" fill="white"/>
<path d="M382.272 266.661H381.554V265.823H380.873V266.661H380.361V267.208H380.873V269.274C380.871 269.909 381.356 270.217 381.894 270.205C382.11 270.203 382.256 270.162 382.336 270.132L382.213 269.57C382.167 269.579 382.083 269.599 381.974 269.599C381.753 269.599 381.554 269.526 381.554 269.132V267.208H382.272V266.661Z" fill="white"/>
<path d="M385.741 270.237C386.32 270.237 386.645 269.943 386.775 269.681H386.803V270.16H387.468V267.836C387.468 266.818 386.666 266.615 386.11 266.615C385.477 266.615 384.894 266.87 384.666 267.508L385.306 267.654C385.406 267.406 385.661 267.167 386.119 267.167C386.559 267.167 386.784 267.397 386.784 267.793V267.809C386.784 268.057 386.529 268.053 385.901 268.126C385.238 268.203 384.559 268.376 384.559 269.171C384.559 269.859 385.076 270.237 385.741 270.237ZM385.889 269.69C385.504 269.69 385.226 269.517 385.226 269.18C385.226 268.816 385.55 268.686 385.944 268.634C386.165 268.604 386.689 268.545 386.787 268.447V268.898C386.787 269.312 386.456 269.69 385.889 269.69Z" fill="white"/>
<path d="M390.831 270.16H391.524L392.234 267.634H392.287L392.997 270.16H393.692L394.719 266.661H394.016L393.334 269.219H393.3L392.617 266.661H391.913L391.225 269.23H391.191L390.505 266.661H389.801L390.831 270.16Z" fill="white"/>
<path d="M396.767 270.23C397.53 270.23 398.07 269.854 398.225 269.285L397.58 269.169C397.457 269.499 397.161 269.668 396.774 269.668C396.191 269.668 395.799 269.29 395.781 268.615H398.268V268.374C398.268 267.11 397.512 266.615 396.719 266.615C395.744 266.615 395.102 267.358 395.102 268.433C395.102 269.52 395.735 270.23 396.767 270.23ZM395.783 268.105C395.811 267.608 396.17 267.178 396.724 267.178C397.252 267.178 397.599 267.57 397.601 268.105H395.783Z" fill="white"/>
<path d="M399.079 270.16H399.744V269.615H399.801C399.924 269.839 400.174 270.228 400.812 270.228C401.66 270.228 402.275 269.549 402.275 268.417C402.275 267.283 401.65 266.615 400.805 266.615C400.156 266.615 399.922 267.012 399.801 267.228H399.76V265.495H399.079V270.16ZM399.746 268.41C399.746 267.679 400.065 267.194 400.66 267.194C401.277 267.194 401.587 267.716 401.587 268.41C401.587 269.112 401.268 269.647 400.66 269.647C400.074 269.647 399.746 269.146 399.746 268.41Z" fill="white"/>
<path d="M405.661 267.515C405.52 266.971 405.094 266.615 404.338 266.615C403.547 266.615 402.987 267.032 402.987 267.652C402.987 268.148 403.288 268.479 403.944 268.624L404.536 268.754C404.873 268.829 405.03 268.98 405.03 269.198C405.03 269.47 404.741 269.681 404.295 269.681C403.887 269.681 403.625 269.506 403.543 269.162L402.885 269.262C402.998 269.882 403.513 270.23 404.299 270.23C405.144 270.23 405.73 269.782 405.73 269.148C405.73 268.654 405.415 268.349 404.773 268.201L404.217 268.073C403.832 267.982 403.666 267.852 403.668 267.615C403.666 267.347 403.957 267.155 404.345 267.155C404.768 267.155 404.964 267.39 405.044 267.624L405.661 267.515Z" fill="white"/>
<path d="M406.478 270.16H407.16V266.661H406.478V270.16ZM406.822 266.121C407.057 266.121 407.253 265.939 407.253 265.716C407.253 265.492 407.057 265.308 406.822 265.308C406.586 265.308 406.392 265.492 406.392 265.716C406.392 265.939 406.586 266.121 406.822 266.121Z" fill="white"/>
<path d="M409.709 266.661H408.992V265.823H408.31V266.661H407.798V267.208H408.31V269.274C408.308 269.909 408.793 270.217 409.331 270.205C409.547 270.203 409.693 270.162 409.773 270.132L409.65 269.57C409.604 269.579 409.52 269.599 409.411 269.599C409.19 269.599 408.992 269.526 408.992 269.132V267.208H409.709V266.661Z" fill="white"/>
<path d="M411.933 270.23C412.696 270.23 413.236 269.854 413.391 269.285L412.746 269.169C412.623 269.499 412.327 269.668 411.94 269.668C411.357 269.668 410.965 269.29 410.947 268.615H413.434V268.374C413.434 267.11 412.678 266.615 411.885 266.615C410.91 266.615 410.268 267.358 410.268 268.433C410.268 269.52 410.901 270.23 411.933 270.23ZM410.949 268.105C410.976 267.608 411.336 267.178 411.89 267.178C412.418 267.178 412.764 267.57 412.767 268.105H410.949Z" fill="white"/>
<path d="M425.636 260.003C425.636 257.642 427.55 255.727 429.912 255.727H444.345C446.707 255.727 448.621 257.642 448.621 260.003V274.436C448.621 276.798 446.707 278.712 444.345 278.712H429.912C427.55 278.712 425.636 276.798 425.636 274.436V260.003Z" fill="#243746"/>
<path d="M439.558 272.815V270.65C439.558 269.987 439.373 269.501 439.005 269.194C439.409 269.153 439.772 269.091 440.096 269.01C440.418 268.928 440.753 268.794 441.097 268.61C441.442 268.426 441.729 268.197 441.96 267.928C442.19 267.657 442.378 267.299 442.523 266.85C442.669 266.403 442.741 265.889 442.741 265.307C442.741 264.479 442.46 263.775 441.9 263.193C442.162 262.571 442.133 261.874 441.814 261.101C441.615 261.04 441.328 261.077 440.952 261.213C440.576 261.35 440.249 261.501 439.973 261.665L439.569 261.912C438.909 261.734 438.228 261.646 437.525 261.646C436.822 261.646 436.142 261.734 435.482 261.912C435.368 261.837 435.218 261.745 435.03 261.635C434.842 261.525 434.545 261.395 434.141 261.239C433.737 261.086 433.432 261.04 433.225 261.101C432.912 261.874 432.889 262.571 433.151 263.193C432.59 263.775 432.309 264.479 432.309 265.307C432.309 265.889 432.382 266.401 432.527 266.846C432.672 267.29 432.859 267.649 433.086 267.923C433.313 268.197 433.599 268.426 433.944 268.611C434.288 268.795 434.621 268.929 434.945 269.011C435.268 269.094 435.632 269.154 436.036 269.196C435.752 269.442 435.578 269.794 435.515 270.252C435.366 270.32 435.205 270.372 435.036 270.405C434.866 270.439 434.664 270.457 434.43 270.457C434.196 270.457 433.964 270.384 433.733 270.237C433.503 270.089 433.306 269.876 433.143 269.596C433.009 269.377 432.837 269.199 432.626 269.063C432.416 268.926 432.241 268.844 432.099 268.817L431.886 268.786C431.737 268.786 431.635 268.801 431.578 268.832C431.521 268.862 431.504 268.902 431.524 268.951C431.545 268.998 431.578 269.046 431.621 269.094C431.663 269.141 431.709 269.183 431.759 269.217L431.834 269.269C431.99 269.337 432.145 269.466 432.296 269.658C432.45 269.85 432.56 270.023 432.631 270.182L432.737 270.418C432.829 270.678 432.985 270.888 433.206 271.048C433.426 271.209 433.664 271.311 433.92 271.355C434.176 271.399 434.422 271.424 434.659 271.427C434.897 271.43 435.093 271.419 435.25 271.39L435.494 271.349C435.494 271.609 435.496 271.914 435.499 272.262C435.502 272.611 435.504 272.795 435.504 272.816C435.504 272.923 435.467 273.014 435.398 273.088C436.075 273.27 436.789 273.367 437.527 273.367C438.266 273.367 438.981 273.268 439.662 273.087C439.592 273.011 439.558 272.921 439.558 272.815Z" fill="white"/>
<path d="M435.792 97.5018C435.792 95.7305 437.228 94.2946 439 94.2946H449.156C450.927 94.2946 452.363 95.7305 452.363 97.5018V107.658C452.363 109.429 450.927 110.865 449.156 110.865H439C437.228 110.865 435.792 109.429 435.792 107.658V97.5018Z" fill="white" fill-opacity="0.21"/>
<path d="M442.274 98.8139H440.914L443.378 102.702L440.899 106.589H442.266L444.134 103.59H444.195L446.062 106.589H447.429L444.992 102.702L447.414 98.8139H446.055L444.195 101.855H444.134L442.274 98.8139Z" fill="white"/>
<path d="M162.105 122.091C162.105 119.729 164.02 117.814 166.382 117.814H336.367C338.729 117.814 340.643 119.729 340.643 122.091V274.436C340.643 276.798 338.729 278.712 336.367 278.712H166.382C164.02 278.712 162.105 276.798 162.105 274.436V122.091Z" fill="white" fill-opacity="0.21"/>
<path d="M261.435 190.973V196.027H262.472V192.725H262.514L263.822 196.002H264.527L265.835 192.737H265.877V196.027H266.914V190.973H265.596L264.204 194.368H264.145L262.753 190.973H261.435Z" fill="white"/>
<path d="M269.487 196.101C270.637 196.101 271.353 195.313 271.353 194.146C271.353 192.972 270.637 192.187 269.487 192.187C268.337 192.187 267.621 192.972 267.621 194.146C267.621 195.313 268.337 196.101 269.487 196.101ZM269.492 195.286C268.961 195.286 268.69 194.8 268.69 194.139C268.69 193.477 268.961 192.989 269.492 192.989C270.013 192.989 270.284 193.477 270.284 194.139C270.284 194.8 270.013 195.286 269.492 195.286Z" fill="white"/>
<path d="M273.433 196.088C274.045 196.088 274.363 195.735 274.509 195.419H274.553V196.027H275.59V190.973H274.541V192.873H274.509C274.368 192.564 274.065 192.187 273.43 192.187C272.599 192.187 271.895 192.833 271.895 194.136C271.895 195.405 272.569 196.088 273.433 196.088ZM273.766 195.252C273.25 195.252 272.969 194.793 272.969 194.131C272.969 193.475 273.245 193.023 273.766 193.023C274.277 193.023 274.563 193.455 274.563 194.131C274.563 194.807 274.272 195.252 273.766 195.252Z" fill="white"/>
<path d="M278.885 194.413C278.887 194.921 278.539 195.188 278.162 195.188C277.764 195.188 277.508 194.909 277.505 194.462V192.236H276.454V194.65C276.456 195.535 276.975 196.076 277.737 196.076C278.307 196.076 278.717 195.782 278.887 195.338H278.927V196.027H279.936V192.236H278.885V194.413Z" fill="white"/>
<path d="M281.828 190.973H280.777V196.027H281.828V190.973Z" fill="white"/>
<path d="M284.397 196.101C285.335 196.101 285.967 195.644 286.115 194.941L285.143 194.877C285.037 195.165 284.765 195.316 284.415 195.316C283.889 195.316 283.556 194.968 283.556 194.403V194.4H286.137V194.112C286.137 192.823 285.357 192.187 284.356 192.187C283.24 192.187 282.517 192.979 282.517 194.149C282.517 195.35 283.23 196.101 284.397 196.101ZM283.556 193.749C283.578 193.317 283.906 192.972 284.373 192.972C284.829 192.972 285.145 193.297 285.148 193.749H283.556Z" fill="white"/>
<path d="M289.977 193.317C289.883 192.619 289.321 192.187 288.363 192.187C287.393 192.187 286.754 192.636 286.757 193.366C286.754 193.934 287.112 194.302 287.852 194.45L288.509 194.58C288.839 194.647 288.99 194.768 288.995 194.958C288.99 195.183 288.746 195.343 288.378 195.343C288.003 195.343 287.754 195.183 287.689 194.874L286.655 194.928C286.754 195.654 287.371 196.101 288.375 196.101C289.358 196.101 290.061 195.6 290.063 194.852C290.061 194.304 289.703 193.976 288.968 193.825L288.282 193.687C287.929 193.611 287.798 193.49 287.8 193.307C287.798 193.08 288.055 192.932 288.38 192.932C288.746 192.932 288.963 193.132 289.015 193.376L289.977 193.317Z" fill="white"/>
<path d="M261.435 138.127H262.504V136.489H263.402C264.564 136.489 265.241 135.795 265.241 134.786C265.241 133.782 264.577 133.073 263.429 133.073H261.435V138.127ZM262.504 135.632V133.947H263.225C263.841 133.947 264.14 134.282 264.14 134.786C264.14 135.287 263.841 135.632 263.229 135.632H262.504Z" fill="white"/>
<path d="M266.966 133.073H265.915V138.127H266.966V133.073Z" fill="white"/>
<path d="M270.239 136.513C270.241 137.022 269.894 137.288 269.516 137.288C269.119 137.288 268.862 137.009 268.86 136.563V134.337H267.808V136.75C267.811 137.636 268.329 138.176 269.092 138.176C269.662 138.176 270.071 137.883 270.241 137.439H270.281V138.127H271.29V134.337H270.239V136.513Z" fill="white"/>
<path d="M273.839 139.603C274.922 139.603 275.692 139.109 275.692 138.164V134.337H274.648V134.973H274.609C274.468 134.665 274.16 134.287 273.525 134.287C272.694 134.287 271.99 134.934 271.99 136.225C271.99 137.486 272.674 138.073 273.528 138.073C274.132 138.073 274.47 137.769 274.609 137.456H274.653V138.149C274.653 138.645 274.32 138.848 273.863 138.848C273.4 138.848 273.165 138.645 273.079 138.441L272.106 138.571C272.232 139.144 272.817 139.603 273.839 139.603ZM273.861 137.283C273.345 137.283 273.064 136.874 273.064 136.22C273.064 135.576 273.34 135.124 273.861 135.124C274.372 135.124 274.658 135.556 274.658 136.22C274.658 136.888 274.367 137.283 273.861 137.283Z" fill="white"/>
<path d="M276.529 138.127H277.58V134.337H276.529V138.127ZM277.057 133.848C277.37 133.848 277.627 133.609 277.627 133.315C277.627 133.024 277.37 132.785 277.057 132.785C276.746 132.785 276.489 133.024 276.489 133.315C276.489 133.609 276.746 133.848 277.057 133.848Z" fill="white"/>
<path d="M279.473 135.936C279.476 135.447 279.767 135.161 280.191 135.161C280.613 135.161 280.867 135.437 280.865 135.901V138.127H281.916V135.714C281.916 134.83 281.398 134.287 280.608 134.287C280.046 134.287 279.639 134.564 279.468 135.005H279.424V134.337H278.422V138.127H279.473V135.936Z" fill="white"/>
<path d="M285.898 135.418C285.805 134.719 285.242 134.287 284.285 134.287C283.315 134.287 282.676 134.737 282.678 135.467C282.676 136.035 283.033 136.402 283.774 136.55L284.43 136.681C284.761 136.748 284.911 136.869 284.916 137.059C284.911 137.283 284.667 137.444 284.299 137.444C283.924 137.444 283.675 137.283 283.611 136.975L282.577 137.029C282.676 137.755 283.293 138.201 284.297 138.201C285.279 138.201 285.982 137.7 285.985 136.953C285.982 136.405 285.625 136.076 284.889 135.926L284.203 135.788C283.85 135.711 283.719 135.59 283.722 135.408C283.719 135.181 283.976 135.033 284.302 135.033C284.667 135.033 284.884 135.233 284.936 135.477L285.898 135.418Z" fill="white"/>
<path d="M176.848 259.248H178.315V263.412H178.88V259.248H180.347V258.747H176.848V259.248Z" fill="white"/>
<path d="M181.699 263.494C182.31 263.494 182.629 263.166 182.738 262.939H182.765V263.412H183.303V261.107C183.303 259.996 182.456 259.868 182.009 259.868C181.481 259.868 180.879 260.05 180.606 260.688L181.116 260.87C181.235 260.615 181.515 260.342 182.027 260.342C182.522 260.342 182.765 260.604 182.765 261.053V261.071C182.765 261.33 182.501 261.308 181.863 261.39C181.214 261.474 180.506 261.617 180.506 262.419C180.506 263.103 181.034 263.494 181.699 263.494ZM181.781 263.012C181.353 263.012 181.043 262.82 181.043 262.447C181.043 262.037 181.417 261.909 181.836 261.854C182.064 261.827 182.674 261.763 182.765 261.654V262.146C182.765 262.583 182.419 263.012 181.781 263.012Z" fill="white"/>
<path d="M184.284 263.412H184.822V259.914H184.284V263.412ZM184.557 259.33C184.767 259.33 184.94 259.166 184.94 258.966C184.94 258.766 184.767 258.602 184.557 258.602C184.348 258.602 184.175 258.766 184.175 258.966C184.175 259.166 184.348 259.33 184.557 259.33Z" fill="white"/>
<path d="M186.344 258.747H185.806V263.412H186.344V258.747Z" fill="white"/>
<path d="M188.121 263.412H188.65L189.415 260.725H189.47L190.235 263.412H190.764L191.83 259.914H191.265L190.508 262.583H190.472L189.734 259.914H189.16L188.413 262.592H188.376L187.62 259.914H187.055L188.121 263.412Z" fill="white"/>
<path d="M192.54 263.412H193.078V259.914H192.54V263.412ZM192.814 259.33C193.023 259.33 193.196 259.166 193.196 258.966C193.196 258.766 193.023 258.602 192.814 258.602C192.604 258.602 192.431 258.766 192.431 258.966C192.431 259.166 192.604 259.33 192.814 259.33Z" fill="white"/>
<path d="M194.6 261.308C194.6 260.697 194.978 260.351 195.493 260.351C195.992 260.351 196.295 260.677 196.295 261.226V263.412H196.832V261.189C196.832 260.296 196.356 259.868 195.648 259.868C195.119 259.868 194.791 260.105 194.627 260.46H194.582V259.914H194.063V263.412H194.6V261.308Z" fill="white"/>
<path d="M199.136 263.485C199.81 263.485 200.038 263.066 200.156 262.875H200.22V263.412H200.74V258.747H200.202V260.469H200.156C200.038 260.287 199.828 259.868 199.145 259.868C198.261 259.868 197.651 260.57 197.651 261.672C197.651 262.784 198.261 263.485 199.136 263.485ZM199.209 263.002C198.535 263.002 198.188 262.41 198.188 261.663C198.188 260.925 198.525 260.351 199.209 260.351C199.865 260.351 200.211 260.879 200.211 261.663C200.211 262.456 199.856 263.002 199.209 263.002Z" fill="white"/>
<path d="M205.626 260.205C205.453 259.248 204.687 258.684 203.749 258.684C202.555 258.684 201.689 259.604 201.689 261.08C201.689 262.556 202.555 263.476 203.749 263.476C204.687 263.476 205.453 262.911 205.626 261.955H205.061C204.924 262.602 204.368 262.948 203.749 262.948C202.901 262.948 202.236 262.292 202.236 261.08C202.236 259.868 202.901 259.212 203.749 259.212C204.368 259.212 204.924 259.558 205.061 260.205H205.626Z" fill="white"/>
<path d="M209.09 259.914H209.636C209.611 259.21 208.962 258.684 208.06 258.684C207.167 258.684 206.466 259.203 206.466 259.986C206.466 260.615 206.921 260.989 207.65 261.198L208.224 261.362C208.716 261.499 209.154 261.672 209.154 262.137C209.154 262.647 208.662 262.984 208.015 262.984C207.459 262.984 206.967 262.738 206.921 262.21H206.338C206.393 262.975 207.012 263.494 208.015 263.494C209.09 263.494 209.7 262.902 209.7 262.146C209.7 261.271 208.871 260.989 208.388 260.861L207.914 260.734C207.568 260.643 207.012 260.46 207.012 259.959C207.012 259.513 207.422 259.185 208.042 259.185C208.607 259.185 209.035 259.453 209.09 259.914Z" fill="white"/>
<path d="M213.18 259.914H213.727C213.702 259.21 213.053 258.684 212.151 258.684C211.258 258.684 210.556 259.203 210.556 259.986C210.556 260.615 211.012 260.989 211.741 261.198L212.315 261.362C212.807 261.499 213.244 261.672 213.244 262.137C213.244 262.647 212.752 262.984 212.105 262.984C211.549 262.984 211.057 262.738 211.012 262.21H210.429C210.483 262.975 211.103 263.494 212.105 263.494C213.18 263.494 213.791 262.902 213.791 262.146C213.791 261.271 212.962 260.989 212.479 260.861L212.005 260.734C211.659 260.643 211.103 260.46 211.103 259.959C211.103 259.513 211.513 259.185 212.132 259.185C212.697 259.185 213.126 259.453 213.18 259.914Z" fill="white"/>
<path d="M180.106 248.872V252.176C180.106 252.717 179.67 253.045 179.073 253.045C178.483 253.045 178.046 252.717 178.046 252.176V248.872H176.977V252.213C176.977 253.358 177.846 253.998 179.073 253.998C180.294 253.998 181.168 253.358 181.168 252.213V248.872H180.106Z" fill="white"/>
<path d="M183.115 248.872H182.047V253.926H183.115V248.872Z" fill="white"/>
<path d="M180.802 229.798H180.246V233.47H180.201L177.65 229.798H177.103V234.463H177.668V230.8H177.713L180.256 234.463H180.802V229.798Z" fill="white"/>
<path d="M184.065 233.032C184.065 233.688 183.564 233.989 183.163 233.989C182.716 233.989 182.397 233.661 182.397 233.151V230.964H181.86V233.187C181.86 234.08 182.334 234.508 182.99 234.508C183.518 234.508 183.864 234.226 184.028 233.871H184.065V234.463H184.602V230.964H184.065V233.032Z" fill="white"/>
<path d="M185.988 230.964H185.368L186.48 232.713L185.368 234.463H185.988L186.826 233.105L187.664 234.463H188.284L187.154 232.713L188.284 230.964H187.664L186.826 232.394L185.988 230.964Z" fill="white"/>
<path d="M190.573 230.964H189.826V230.126H189.288V230.964H188.76V231.419H189.288V233.606C189.288 234.217 189.78 234.508 190.236 234.508C190.436 234.508 190.564 234.472 190.637 234.445L190.527 233.962C190.482 233.971 190.409 233.989 190.29 233.989C190.053 233.989 189.826 233.916 189.826 233.46V231.419H190.573V230.964Z" fill="white"/>
<path d="M191.773 234.499C191.999 234.499 192.183 234.315 192.183 234.089C192.183 233.864 191.999 233.679 191.773 233.679C191.548 233.679 191.363 233.864 191.363 234.089C191.363 234.315 191.548 234.499 191.773 234.499Z" fill="white"/>
<path d="M193.148 230.964V234.718C193.148 235.073 193.002 235.274 192.674 235.274H192.574V235.775H192.683C193.357 235.775 193.685 235.365 193.685 234.718V230.964H193.148ZM193.412 230.381C193.622 230.381 193.795 230.217 193.795 230.016C193.795 229.816 193.622 229.652 193.412 229.652C193.203 229.652 193.029 229.816 193.029 230.016C193.029 230.217 193.203 230.381 193.412 230.381Z" fill="white"/>
<path d="M197.148 231.748C196.98 231.251 196.602 230.918 195.909 230.918C195.171 230.918 194.625 231.337 194.625 231.93C194.625 232.413 194.912 232.736 195.554 232.886L196.137 233.023C196.49 233.105 196.656 233.274 196.656 233.515C196.656 233.816 196.337 234.062 195.836 234.062C195.397 234.062 195.121 233.873 195.025 233.497L194.515 233.624C194.64 234.219 195.13 234.536 195.845 234.536C196.659 234.536 197.212 234.091 197.212 233.488C197.212 233 196.907 232.693 196.283 232.54L195.763 232.413C195.349 232.31 195.162 232.171 195.162 231.902C195.162 231.602 195.481 231.383 195.909 231.383C196.378 231.383 196.572 231.643 196.666 231.884L197.148 231.748Z" fill="white"/>
<path d="M176.977 224.976H178.046V222.889H180.102V222.008H178.046V220.803H180.324V219.922H176.977V224.976Z" fill="white"/>
<path d="M180.962 224.976H182.013V222.832C182.013 222.365 182.353 222.045 182.817 222.045C182.963 222.045 183.163 222.069 183.261 222.101V221.169C183.168 221.146 183.037 221.132 182.931 221.132C182.506 221.132 182.158 221.378 182.02 221.847H181.981V221.186H180.962V224.976Z" fill="white"/>
<path d="M184.777 225.048C185.337 225.048 185.7 224.804 185.885 224.451H185.915V224.976H186.912V222.42C186.912 221.517 186.147 221.137 185.303 221.137C184.395 221.137 183.798 221.571 183.652 222.262L184.624 222.341C184.696 222.089 184.92 221.904 185.298 221.904C185.656 221.904 185.861 222.084 185.861 222.395V222.41C185.861 222.654 185.601 222.686 184.943 222.75C184.192 222.819 183.519 223.071 183.519 223.918C183.519 224.668 184.054 225.048 184.777 225.048ZM185.078 224.322C184.755 224.322 184.523 224.172 184.523 223.883C184.523 223.587 184.767 223.441 185.138 223.39C185.367 223.357 185.742 223.303 185.868 223.219V223.621C185.868 224.019 185.54 224.322 185.078 224.322Z" fill="white"/>
<path d="M187.727 224.976H188.779V222.701C188.779 222.282 189.045 222.003 189.396 222.003C189.741 222.003 189.973 222.24 189.973 222.612V224.976H190.992V222.662C190.992 222.269 191.217 222.003 191.599 222.003C191.935 222.003 192.187 222.212 192.187 222.634V224.976H193.235V222.427C193.235 221.605 192.747 221.137 192.041 221.137C191.486 221.137 191.054 221.42 190.898 221.855H190.859C190.738 221.415 190.351 221.137 189.83 221.137C189.319 221.137 188.932 221.408 188.774 221.855H188.729V221.186H187.727V224.976Z" fill="white"/>
<path d="M195.793 225.05C196.731 225.05 197.363 224.594 197.511 223.89L196.538 223.826C196.432 224.115 196.161 224.266 195.81 224.266C195.285 224.266 194.952 223.918 194.952 223.353V223.35H197.533V223.061C197.533 221.773 196.753 221.137 195.751 221.137C194.636 221.137 193.913 221.929 193.913 223.098C193.913 224.3 194.626 225.05 195.793 225.05ZM194.952 222.699C194.974 222.267 195.302 221.921 195.768 221.921C196.225 221.921 196.541 222.247 196.543 222.699H194.952Z" fill="white"/>
<path d="M198.939 224.976H200.05L200.701 222.592H200.748L201.4 224.976H202.513L203.542 221.186H202.481L201.903 223.718H201.871L201.249 221.186H200.205L199.593 223.733H199.559L198.972 221.186H197.908L198.939 224.976Z" fill="white"/>
<path d="M205.72 225.05C206.87 225.05 207.586 224.263 207.586 223.096C207.586 221.921 206.87 221.137 205.72 221.137C204.57 221.137 203.855 221.921 203.855 223.096C203.855 224.263 204.57 225.05 205.72 225.05ZM205.725 224.236C205.194 224.236 204.923 223.75 204.923 223.088C204.923 222.427 205.194 221.939 205.725 221.939C206.246 221.939 206.517 222.427 206.517 223.088C206.517 223.75 206.246 224.236 205.725 224.236Z" fill="white"/>
<path d="M208.269 224.976H209.32V222.832C209.32 222.365 209.661 222.045 210.125 222.045C210.271 222.045 210.47 222.069 210.569 222.101V221.169C210.475 221.146 210.345 221.132 210.238 221.132C209.814 221.132 209.466 221.378 209.328 221.847H209.288V221.186H208.269V224.976Z" fill="white"/>
<path d="M211.113 224.976H212.164V223.772L212.448 223.449L213.482 224.976H214.713L213.235 222.827L214.641 221.186H213.435L212.221 222.625H212.164V219.922H211.113V224.976Z" fill="white"/>
<path d="M179.654 202.014H180.201C180.176 201.31 179.527 200.784 178.625 200.784C177.732 200.784 177.03 201.304 177.03 202.087C177.03 202.716 177.486 203.089 178.215 203.299L178.789 203.463C179.281 203.6 179.718 203.773 179.718 204.237C179.718 204.748 179.226 205.085 178.579 205.085C178.023 205.085 177.531 204.839 177.486 204.31H176.903C176.957 205.076 177.577 205.595 178.579 205.595C179.654 205.595 180.265 205.003 180.265 204.247C180.265 203.372 179.436 203.089 178.953 202.962L178.479 202.834C178.133 202.743 177.577 202.561 177.577 202.06C177.577 201.613 177.987 201.285 178.606 201.285C179.171 201.285 179.6 201.554 179.654 202.014Z" fill="white"/>
<path d="M182.642 202.014H181.895V201.176H181.358V202.014H180.829V202.47H181.358V204.657C181.358 205.267 181.85 205.559 182.305 205.559C182.506 205.559 182.633 205.522 182.706 205.495L182.597 205.012C182.551 205.021 182.478 205.039 182.36 205.039C182.123 205.039 181.895 204.966 181.895 204.511V202.47H182.642V202.014Z" fill="white"/>
<path d="M184.481 205.595C185.091 205.595 185.41 205.267 185.519 205.039H185.547V205.513H186.084V203.208C186.084 202.096 185.237 201.969 184.79 201.969C184.262 201.969 183.66 202.151 183.387 202.789L183.897 202.971C184.016 202.716 184.296 202.442 184.809 202.442C185.303 202.442 185.547 202.704 185.547 203.153V203.171C185.547 203.431 185.282 203.408 184.645 203.49C183.995 203.575 183.287 203.718 183.287 204.52C183.287 205.203 183.815 205.595 184.481 205.595ZM184.563 205.112C184.134 205.112 183.824 204.921 183.824 204.547C183.824 204.137 184.198 204.01 184.617 203.955C184.845 203.928 185.455 203.864 185.547 203.755V204.247C185.547 204.684 185.2 205.112 184.563 205.112Z" fill="white"/>
<path d="M188.587 202.014H187.84V201.176H187.302V202.014H186.774V202.47H187.302V204.657C187.302 205.267 187.794 205.559 188.25 205.559C188.45 205.559 188.578 205.522 188.651 205.495L188.541 205.012C188.496 205.021 188.423 205.039 188.305 205.039C188.068 205.039 187.84 204.966 187.84 204.511V202.47H188.587V202.014Z" fill="white"/>
<path d="M189.396 205.513H189.933V202.014H189.396V205.513ZM189.669 201.431C189.879 201.431 190.052 201.267 190.052 201.067C190.052 200.866 189.879 200.702 189.669 200.702C189.459 200.702 189.286 200.866 189.286 201.067C189.286 201.267 189.459 201.431 189.669 201.431Z" fill="white"/>
<path d="M192.339 205.586C193.114 205.586 193.624 205.112 193.715 204.493H193.178C193.077 204.875 192.758 205.103 192.339 205.103C191.701 205.103 191.291 204.575 191.291 203.764C191.291 202.971 191.711 202.452 192.339 202.452C192.813 202.452 193.095 202.743 193.178 203.062H193.715C193.624 202.406 193.068 201.969 192.33 201.969C191.383 201.969 190.754 202.716 190.754 203.782C190.754 204.83 191.355 205.586 192.339 205.586Z" fill="white"/>
<path d="M176.785 191.854H178.332V196.027H179.388V191.854H180.936V190.973H176.785V191.854Z" fill="white"/>
<path d="M182.164 196.098C182.725 196.098 183.087 195.854 183.272 195.501H183.302V196.027H184.299V193.47C184.299 192.567 183.534 192.187 182.69 192.187C181.782 192.187 181.185 192.621 181.039 193.312L182.011 193.391C182.083 193.139 182.308 192.954 182.685 192.954C183.043 192.954 183.248 193.134 183.248 193.445V193.46C183.248 193.704 182.989 193.736 182.33 193.801C181.58 193.87 180.906 194.121 180.906 194.968C180.906 195.718 181.441 196.098 182.164 196.098ZM182.466 195.373C182.142 195.373 181.91 195.222 181.91 194.933C181.91 194.637 182.155 194.492 182.525 194.44C182.754 194.408 183.129 194.353 183.255 194.27V194.672C183.255 195.069 182.927 195.373 182.466 195.373Z" fill="white"/>
<path d="M185.115 196.027H186.166V193.882C186.166 193.416 186.506 193.095 186.97 193.095C187.116 193.095 187.316 193.12 187.415 193.152V192.219C187.321 192.197 187.19 192.182 187.084 192.182C186.659 192.182 186.311 192.429 186.173 192.897H186.134V192.236H185.115V196.027Z" fill="white"/>
<path d="M189.489 197.502C190.573 197.502 191.343 197.009 191.343 196.064V192.236H190.299V192.873H190.259C190.119 192.564 189.81 192.187 189.176 192.187C188.344 192.187 187.641 192.833 187.641 194.124C187.641 195.385 188.325 195.972 189.178 195.972C189.783 195.972 190.121 195.669 190.259 195.355H190.304V196.049C190.304 196.545 189.97 196.747 189.514 196.747C189.05 196.747 188.816 196.545 188.729 196.34L187.757 196.471C187.883 197.043 188.468 197.502 189.489 197.502ZM189.511 195.183C188.996 195.183 188.714 194.773 188.714 194.119C188.714 193.475 188.991 193.023 189.511 193.023C190.022 193.023 190.309 193.455 190.309 194.119C190.309 194.788 190.017 195.183 189.511 195.183Z" fill="white"/>
<path d="M193.906 196.101C194.844 196.101 195.476 195.644 195.624 194.941L194.652 194.877C194.546 195.165 194.274 195.316 193.924 195.316C193.398 195.316 193.065 194.968 193.065 194.403V194.4H195.646V194.112C195.646 192.823 194.866 192.187 193.865 192.187C192.749 192.187 192.026 192.979 192.026 194.149C192.026 195.35 192.739 196.101 193.906 196.101ZM193.065 193.749C193.087 193.317 193.415 192.972 193.882 192.972C194.338 192.972 194.654 193.297 194.657 193.749H193.065Z" fill="white"/>
<path d="M198.348 192.236H197.635V191.328H196.584V192.236H196.066V193.026H196.584V195C196.579 195.743 197.085 196.11 197.847 196.078C198.119 196.068 198.311 196.014 198.417 195.98L198.252 195.197C198.2 195.207 198.089 195.232 197.991 195.232C197.781 195.232 197.635 195.153 197.635 194.862V193.026H198.348V192.236Z" fill="white"/>
<path d="M179.654 173.065H180.201C180.176 172.361 179.527 171.834 178.625 171.834C177.732 171.834 177.03 172.354 177.03 173.137C177.03 173.766 177.486 174.14 178.215 174.349L178.789 174.513C179.281 174.65 179.718 174.823 179.718 175.288C179.718 175.798 179.226 176.135 178.579 176.135C178.023 176.135 177.531 175.889 177.486 175.361H176.903C176.957 176.126 177.577 176.645 178.579 176.645C179.654 176.645 180.265 176.053 180.265 175.297C180.265 174.422 179.436 174.14 178.953 174.012L178.479 173.885C178.133 173.793 177.577 173.611 177.577 173.11C177.577 172.664 177.987 172.336 178.606 172.336C179.171 172.336 179.6 172.604 179.654 173.065Z" fill="white"/>
<path d="M183.745 173.065H184.291C184.266 172.361 183.617 171.834 182.715 171.834C181.822 171.834 181.121 172.354 181.121 173.137C181.121 173.766 181.576 174.14 182.305 174.349L182.879 174.513C183.371 174.65 183.809 174.823 183.809 175.288C183.809 175.798 183.317 176.135 182.67 176.135C182.114 176.135 181.622 175.889 181.576 175.361H180.993C181.048 176.126 181.667 176.645 182.67 176.645C183.745 176.645 184.355 176.053 184.355 175.297C184.355 174.422 183.526 174.14 183.043 174.012L182.569 173.885C182.223 173.793 181.667 173.611 181.667 173.11C181.667 172.664 182.077 172.336 182.697 172.336C183.262 172.336 183.69 172.604 183.745 173.065Z" fill="white"/>
<path d="M185.284 176.563H185.849V174.741H186.869C186.91 174.741 186.949 174.741 186.988 174.739L187.972 176.563H188.628L187.573 174.636C188.168 174.434 188.446 173.948 188.446 173.329C188.446 172.504 187.954 171.898 186.86 171.898H185.284V176.563ZM185.849 174.231V172.399H186.842C187.598 172.399 187.89 172.768 187.89 173.329C187.89 173.889 187.598 174.231 186.851 174.231H185.849Z" fill="white"/>
<path d="M176.977 162.023V167.077H178.014V163.775H178.056L179.364 167.052H180.069L181.377 163.787H181.419V167.077H182.456V162.023H181.138L179.746 165.419H179.687L178.295 162.023H176.977Z" fill="white"/>
<path d="M185.029 167.151C186.179 167.151 186.895 166.364 186.895 165.196C186.895 164.022 186.179 163.237 185.029 163.237C183.879 163.237 183.163 164.022 183.163 165.196C183.163 166.364 183.879 167.151 185.029 167.151ZM185.034 166.337C184.503 166.337 184.232 165.85 184.232 165.189C184.232 164.528 184.503 164.039 185.034 164.039C185.555 164.039 185.826 164.528 185.826 165.189C185.826 165.85 185.555 166.337 185.034 166.337Z" fill="white"/>
<path d="M188.975 167.139C189.587 167.139 189.905 166.786 190.051 166.47H190.095V167.077H191.132V162.023H190.083V163.923H190.051C189.91 163.615 189.607 163.237 188.972 163.237C188.141 163.237 187.437 163.884 187.437 165.187C187.437 166.455 188.111 167.139 188.975 167.139ZM189.308 166.302C188.792 166.302 188.511 165.843 188.511 165.182C188.511 164.525 188.787 164.074 189.308 164.074C189.819 164.074 190.105 164.506 190.105 165.182C190.105 165.858 189.814 166.302 189.308 166.302Z" fill="white"/>
<path d="M193.723 167.151C194.661 167.151 195.293 166.694 195.441 165.991L194.469 165.927C194.362 166.216 194.091 166.366 193.741 166.366C193.215 166.366 192.882 166.018 192.882 165.453V165.451H195.463V165.162C195.463 163.874 194.683 163.237 193.681 163.237C192.566 163.237 191.843 164.029 191.843 165.199C191.843 166.401 192.556 167.151 193.723 167.151ZM192.882 164.799C192.904 164.367 193.232 164.022 193.699 164.022C194.155 164.022 194.471 164.348 194.474 164.799H192.882Z" fill="white"/>
<path d="M177.021 147.614H179.964V147.113H177.796V147.076L178.843 145.955C179.645 145.097 179.882 144.696 179.882 144.179C179.882 143.459 179.299 142.885 178.479 142.885C177.661 142.885 177.039 143.441 177.039 144.261H177.577C177.577 143.73 177.921 143.377 178.461 143.377C178.966 143.377 179.354 143.687 179.354 144.179C179.354 144.609 179.101 144.928 178.561 145.518L177.021 147.204V147.614Z" fill="white"/>
<path d="M181.306 147.65C181.531 147.65 181.716 147.466 181.716 147.24C181.716 147.015 181.531 146.83 181.306 146.83C181.08 146.83 180.896 147.015 180.896 147.24C180.896 147.466 181.08 147.65 181.306 147.65Z" fill="white"/>
<path d="M183.804 142.949H183.239L182.073 143.723V144.297L183.212 143.541H183.239V147.614H183.804V142.949Z" fill="white"/>
<path d="M185.146 147.614H188.089V147.113H185.92V147.076L186.968 145.955C187.77 145.097 188.007 144.696 188.007 144.179C188.007 143.459 187.424 142.885 186.604 142.885C185.786 142.885 185.164 143.441 185.164 144.261H185.701C185.701 143.73 186.045 143.377 186.585 143.377C187.091 143.377 187.478 143.687 187.478 144.179C187.478 144.609 187.225 144.928 186.686 145.518L185.146 147.204V147.614Z" fill="white"/>
<path d="M189.43 147.65C189.656 147.65 189.84 147.466 189.84 147.24C189.84 147.015 189.656 146.83 189.43 146.83C189.205 146.83 189.02 147.015 189.02 147.24C189.02 147.466 189.205 147.65 189.43 147.65Z" fill="white"/>
<path d="M190.942 147.614H191.534L193.611 143.477V142.949H190.623V143.45H193.028V143.486L190.942 147.614Z" fill="white"/>
<path d="M177.89 133.073H176.703L178.448 138.127H179.825L181.567 133.073H180.383L179.159 136.913H179.112L177.89 133.073Z" fill="white"/>
<path d="M184.587 136.513C184.589 137.022 184.241 137.288 183.864 137.288C183.466 137.288 183.21 137.009 183.207 136.563V134.337H182.156V136.75C182.158 137.636 182.677 138.176 183.439 138.176C184.009 138.176 184.419 137.883 184.589 137.439H184.629V138.127H185.638V134.337H184.587V136.513Z" fill="white"/>
<path d="M188.206 138.201C189.144 138.201 189.776 137.745 189.924 137.041L188.951 136.977C188.845 137.266 188.574 137.416 188.223 137.416C187.698 137.416 187.365 137.068 187.365 136.503V136.501H189.946V136.212C189.946 134.924 189.166 134.287 188.164 134.287C187.049 134.287 186.326 135.08 186.326 136.249C186.326 137.451 187.039 138.201 188.206 138.201ZM187.365 135.849C187.387 135.418 187.715 135.072 188.181 135.072C188.638 135.072 188.954 135.398 188.956 135.849H187.365Z" fill="white"/>
<path d="M195.774 134.337H194.661L193.876 137.049H193.837L193.05 134.337H191.939L193.264 138.127H194.449L195.774 134.337Z" fill="white"/>
<path d="M197.91 138.201C198.848 138.201 199.48 137.745 199.628 137.041L198.656 136.977C198.55 137.266 198.278 137.416 197.928 137.416C197.402 137.416 197.069 137.068 197.069 136.503V136.501H199.65V136.212C199.65 134.924 198.87 134.287 197.868 134.287C196.753 134.287 196.03 135.08 196.03 136.249C196.03 137.451 196.743 138.201 197.91 138.201ZM197.069 135.849C197.091 135.418 197.419 135.072 197.886 135.072C198.342 135.072 198.658 135.398 198.661 135.849H197.069Z" fill="white"/>
<path d="M200.336 138.127H201.387V135.983C201.387 135.516 201.728 135.196 202.192 135.196C202.337 135.196 202.537 135.22 202.636 135.252V134.319C202.542 134.297 202.412 134.282 202.305 134.282C201.881 134.282 201.533 134.529 201.395 134.998H201.355V134.337H200.336V138.127Z" fill="white"/>
<path d="M206.333 135.418C206.24 134.719 205.677 134.287 204.719 134.287C203.75 134.287 203.11 134.737 203.113 135.467C203.11 136.035 203.468 136.402 204.209 136.55L204.865 136.681C205.196 136.748 205.346 136.869 205.351 137.059C205.346 137.283 205.102 137.444 204.734 137.444C204.359 137.444 204.11 137.283 204.046 136.975L203.012 137.029C203.11 137.755 203.727 138.201 204.732 138.201C205.714 138.201 206.417 137.7 206.42 136.953C206.417 136.405 206.059 136.076 205.324 135.926L204.638 135.788C204.285 135.711 204.154 135.59 204.157 135.408C204.154 135.181 204.411 135.033 204.737 135.033C205.102 135.033 205.319 135.233 205.371 135.477L206.333 135.418Z" fill="white"/>
<path d="M207.082 138.127H208.133V134.337H207.082V138.127ZM207.61 133.848C207.923 133.848 208.18 133.609 208.18 133.315C208.18 133.024 207.923 132.785 207.61 132.785C207.299 132.785 207.042 133.024 207.042 133.315C207.042 133.609 207.299 133.848 207.61 133.848Z" fill="white"/>
<path d="M210.688 138.201C211.838 138.201 212.553 137.414 212.553 136.247C212.553 135.072 211.838 134.287 210.688 134.287C209.538 134.287 208.822 135.072 208.822 136.247C208.822 137.414 209.538 138.201 210.688 138.201ZM210.693 137.387C210.162 137.387 209.891 136.901 209.891 136.239C209.891 135.578 210.162 135.089 210.693 135.089C211.213 135.089 211.485 135.578 211.485 136.239C211.485 136.901 211.213 137.387 210.693 137.387Z" fill="white"/>
<path d="M214.288 135.936C214.29 135.447 214.582 135.161 215.006 135.161C215.428 135.161 215.682 135.437 215.68 135.901V138.127H216.731V135.714C216.731 134.83 216.213 134.287 215.423 134.287C214.861 134.287 214.453 134.564 214.283 135.005H214.239V134.337H213.237V138.127H214.288V135.936Z" fill="white"/>
<path d="M170.335 100.913L166.51 109.264H166.449L162.64 100.913H164.38L166.475 105.644L168.574 100.913H170.335Z" fill="white"/>
<path d="M171.081 106.047V100.911H172.734V106.042C172.734 106.931 173.44 107.578 174.23 107.578C175.021 107.578 175.736 106.926 175.736 106.042V100.911H177.39V106.047C177.39 107.892 175.975 109.237 174.235 109.237C172.495 109.237 171.081 107.893 171.081 106.047Z" fill="white"/>
<path d="M180.383 102.524V104.116H183.203V105.749H180.383V107.432H183.669V109.06H178.739V100.911H183.669V102.524H180.383Z" fill="white"/>
<path d="M193.093 102.534H191.084V109.061H189.435V102.534H187.422V100.912H193.093V102.534Z" fill="white"/>
<path d="M195.659 102.524V104.116H198.479V105.749H195.659V107.432H198.946V109.06H194.016V100.911H198.946V102.524H195.659Z" fill="white"/>
<path d="M205.083 107.432V109.06H200.153V100.911H201.796V107.432H205.083Z" fill="white"/>
<path d="M207.65 102.524V104.116H210.47V105.749H207.65V107.432H210.936V109.06H206.006V100.911H210.936V102.524H207.65Z" fill="white"/>
<path d="M220.152 100.709V109.06H218.509V105.511L216.155 108.923H216.144L213.785 105.511V109.06H212.142V100.709H212.234L216.15 106.093L220.06 100.709H220.152Z" fill="white"/>
<path d="M223.215 102.524V104.116H226.035V105.749H223.215V107.432H226.502V109.06H221.572V100.911H226.502V102.524H223.215Z" fill="white"/>
<path d="M232.883 102.534H230.874V109.061H229.225V102.534H227.212V100.912H232.883V102.534Z" fill="white"/>
<path d="M238.055 109.061L235.453 105.209V109.061H233.81L233.805 100.912H236.472C237.999 100.912 239.252 102.085 239.252 103.551C239.252 104.598 238.618 105.513 237.741 105.82L240.063 109.061H238.055ZM235.449 104.581L236.505 104.586C237.062 104.592 237.56 104.141 237.56 103.56C237.56 102.98 237.058 102.534 236.505 102.534H235.449V104.581Z" fill="white"/>
<path d="M241.859 105.563L239.328 100.912H241.184L242.676 103.743L244.167 100.912H246.029L243.493 105.563V109.061H241.86V105.563H241.859Z" fill="white"/>
<defs>
<radialGradient id="paint0_radial" cx="0" cy="0" r="1" gradientUnits="userSpaceOnUse" gradientTransform="translate(426.125 30.7748) scale(3.16883)">
<stop offset="0.1296" stop-color="#4974B9"/>
<stop offset="1" stop-color="#020203"/>
</radialGradient>
<radialGradient id="paint1_radial" cx="0" cy="0" r="1" gradientUnits="userSpaceOnUse" gradientTransform="translate(434.775 30.7748) scale(3.16883)">
<stop offset="0.1296" stop-color="#4974B9"/>
<stop offset="1" stop-color="#020203"/>
</radialGradient>
<linearGradient id="paint2_linear" x1="375.92" y1="196.19" x2="375.92" y2="188.407" gradientUnits="userSpaceOnUse">
<stop stop-color="white" stop-opacity="0.95"/>
<stop offset="1" stop-color="white" stop-opacity="0.5"/>
</linearGradient>
<linearGradient id="paint3_linear" x1="439.312" y1="158.25" x2="439.312" y2="152.023" gradientUnits="userSpaceOnUse">
<stop stop-color="white" stop-opacity="0.95"/>
<stop offset="1" stop-color="white" stop-opacity="0.5"/>
</linearGradient>
<radialGradient id="paint4_radial" cx="0" cy="0" r="1" gradientUnits="userSpaceOnUse" gradientTransform="translate(389.801 184.366) scale(75.9497)">
<stop offset="0.0397" stop-color="white"/>
<stop offset="1" stop-color="#41B38A" stop-opacity="0.3"/>
</radialGradient>
<radialGradient id="paint5_radial" cx="0" cy="0" r="1" gradientUnits="userSpaceOnUse" gradientTransform="translate(396.359 184.962) scale(5.40116)">
<stop offset="0.1296" stop-color="#4974B9"/>
<stop offset="1" stop-color="#020203"/>
</radialGradient>
<radialGradient id="paint6_radial" cx="0" cy="0" r="1" gradientUnits="userSpaceOnUse" gradientTransform="translate(411.103 184.962) scale(5.40116)">
<stop offset="0.1296" stop-color="#4974B9"/>
<stop offset="1" stop-color="#020203"/>
</radialGradient>
<linearGradient id="paint7_linear" x1="393.584" y1="210.644" x2="408.574" y2="193.139" gradientUnits="userSpaceOnUse">
<stop offset="0.0397" stop-color="#44BFE2"/>
<stop offset="1" stop-color="#DCE38C"/>
</linearGradient>
</defs>
</svg>
