<svg width="70" height="69" viewBox="0 0 70 69" fill="none" xmlns="http://www.w3.org/2000/svg">
<path d="M62.4727 28.5529C65.796 28.3932 68.7376 30.9712 69.0246 34.2973C70.2676 50.3884 55.5414 68.4139 34.7892 68.9903C17.3011 69.4219 0.00488281 55.4211 0.00488281 34.2513C0.00488281 30.915 2.76179 28.2104 6.08885 28.2104C9.4159 28.2104 12.113 30.915 12.113 34.2513C12.113 48.1763 23.3096 57.1883 34.4929 56.9123C48.2599 56.5298 57.2098 44.6092 56.7443 34.8762C56.5846 31.5439 59.1496 28.7128 62.4727 28.5529Z" fill="url(#paint0_linear)"/>
<path d="M47.4233 34.7196C47.4233 31.3041 50.2095 28.5351 53.6463 28.5351H62.7152C66.1522 28.5351 69.0244 31.3041 69.0244 34.7196C69.0244 38.1355 66.1522 40.9045 62.7152 40.9045H53.6463C50.2095 40.9045 47.4233 38.1355 47.4233 34.7196Z" fill="#00A672"/>
<path d="M28.3945 34.7287C28.3945 31.308 31.1629 28.5351 34.574 28.5351C37.9854 28.5351 40.7538 31.308 40.7538 34.7287C40.7538 38.1493 37.9854 40.9225 34.574 40.9225C31.1629 40.9225 28.3945 38.1493 28.3945 34.7287Z" fill="#00A672"/>
<path fill-rule="evenodd" clip-rule="evenodd" d="M40.5827 5.79033C40.7209 9.12376 38.1379 11.9383 34.8137 12.0767C20.4637 12.6743 11.7032 23.9529 12.1296 34.6621C12.2623 37.9956 9.72893 40.806 6.4045 40.9392C3.0801 41.0723 0.156636 38.3818 0.023897 35.0483C-0.670996 17.5965 13.8602 0.344118 34.3138 0.00530072C37.6379 -0.133135 40.4447 2.45692 40.5827 5.79033Z" fill="#00A672"/>
<defs>
<linearGradient id="paint0_linear" x1="34.5513" y1="28.2104" x2="34.5513" y2="69.0002" gradientUnits="userSpaceOnUse">
<stop stop-color="#00583E"/>
<stop offset="1" stop-color="#00835C"/>
</linearGradient>
</defs>
</svg>
