<svg width="683" height="682" viewBox="0 0 683 682" fill="none" xmlns="http://www.w3.org/2000/svg">
<g opacity="0.9">
<path opacity="0.9" d="M234.778 409.967C260.007 409.967 280.458 389.515 280.458 364.287C280.458 339.059 260.007 318.607 234.778 318.607C209.55 318.607 189.099 339.059 189.099 364.287C189.099 389.515 209.55 409.967 234.778 409.967Z" fill="#158876"/>
<g opacity="0.9">
<path opacity="0.9" d="M245.952 364.48C245.952 361.531 248.364 359.14 251.345 359.14H259.216C262.197 359.14 264.685 361.531 264.685 364.48C264.685 367.429 262.197 369.82 259.216 369.82H251.345C248.364 369.82 245.952 367.429 245.952 364.48Z" fill="white"/>
<path opacity="0.9" d="M229.449 364.491C229.449 361.531 231.851 359.14 234.81 359.14C237.77 359.14 240.172 361.531 240.172 364.491C240.172 367.45 237.77 369.841 234.81 369.841C231.851 369.841 229.449 367.439 229.449 364.491Z" fill="white"/>
<path opacity="0.9" fill-rule="evenodd" clip-rule="evenodd" d="M240.022 339.485C240.14 342.369 237.899 344.792 235.014 344.91C222.565 345.425 214.973 355.172 215.338 364.415C215.456 367.3 213.257 369.723 210.373 369.841C207.488 369.959 204.958 367.632 204.84 364.748C204.239 349.671 216.839 334.766 234.585 334.477C237.459 334.37 239.893 336.611 240.022 339.485Z" fill="white"/>
<path opacity="0.9" fill-rule="evenodd" clip-rule="evenodd" d="M204.818 364.201C204.893 382.419 219.852 394.45 234.993 394.075C252.857 393.443 265.757 377.937 264.685 364.105C264.438 361.231 261.886 359 259.001 359.14C256.117 359.279 253.897 361.724 254.037 364.598C254.444 373.005 246.681 383.299 234.735 383.631C225.246 383.867 215.756 376.425 215.338 364.844C215.23 367.525 213.107 369.723 210.373 369.831C207.488 369.949 204.958 367.622 204.84 364.737C204.829 364.576 204.829 364.394 204.818 364.201Z" fill="url(#paint0_linear)"/>
</g>
</g>
<g opacity="0.8">
<path opacity="0.8" d="M319.285 209.04C344.513 209.04 364.965 188.588 364.965 163.36C364.965 138.132 344.513 117.68 319.285 117.68C294.057 117.68 273.605 138.132 273.605 163.36C273.605 188.588 294.057 209.04 319.285 209.04Z" fill="#158876"/>
<path opacity="0.8" fill-rule="evenodd" clip-rule="evenodd" d="M303.533 157.066C305.635 148.67 310.889 144.466 319.285 144.466C331.885 144.466 333.461 153.913 339.766 155.489C343.97 156.54 347.648 154.964 350.789 150.761C348.688 159.157 343.433 163.36 335.037 163.36C322.438 163.36 320.862 153.913 314.557 152.337C310.353 151.286 306.675 152.862 303.533 157.066ZM287.781 175.959C289.883 167.563 295.137 163.36 303.533 163.36C316.133 163.36 317.709 172.807 324.014 174.383C328.218 175.434 331.895 173.858 335.037 169.654C332.936 178.05 327.681 182.254 319.285 182.254C306.686 182.254 305.11 172.807 298.804 171.231C294.601 170.191 290.923 171.767 287.781 175.959Z" fill="white"/>
</g>
<g opacity="0.9">
<path opacity="0.9" d="M411.374 300.11C436.602 300.11 457.054 279.658 457.054 254.43C457.054 229.202 436.602 208.75 411.374 208.75C386.146 208.75 365.694 229.202 365.694 254.43C365.694 279.658 386.146 300.11 411.374 300.11Z" fill="#158876"/>
<g opacity="0.9">
<path opacity="0.9" d="M383.719 274.954C383.719 278.889 386.915 282.085 390.85 282.085H431.887C435.822 282.085 439.018 278.889 439.018 274.954V233.917C439.018 229.982 435.822 226.786 431.887 226.786H390.85C386.915 226.786 383.719 229.982 383.719 233.917V274.954Z" stroke="white" stroke-miterlimit="10"/>
<path opacity="0.9" d="M406.656 251.245V243.418H413.551C414.205 243.418 414.837 243.471 415.449 243.578C416.06 243.686 416.596 243.879 417.068 244.168C417.54 244.447 417.915 244.844 418.194 245.337C418.472 245.841 418.612 246.474 418.612 247.256C418.612 248.661 418.194 249.68 417.347 250.302C416.499 250.924 415.427 251.235 414.108 251.235H406.656V251.245ZM399.289 237.692V271.169H415.513C417.014 271.169 418.473 270.986 419.899 270.611C421.325 270.236 422.59 269.657 423.695 268.874C424.799 268.091 425.689 267.083 426.343 265.85C426.997 264.617 427.33 263.159 427.33 261.464C427.33 259.373 426.826 257.583 425.807 256.092C424.788 254.602 423.255 253.572 421.185 252.972C422.687 252.253 423.823 251.331 424.585 250.205C425.346 249.079 425.732 247.675 425.732 245.98C425.732 244.415 425.475 243.107 424.96 242.045C424.445 240.983 423.716 240.126 422.783 239.493C421.85 238.86 420.724 238.389 419.405 238.11C418.097 237.831 416.639 237.692 415.041 237.692H399.289ZM406.656 265.453V256.264H414.676C416.274 256.264 417.55 256.628 418.526 257.368C419.491 258.108 419.984 259.33 419.984 261.046C419.984 261.925 419.834 262.644 419.534 263.201C419.234 263.759 418.837 264.209 418.333 264.542C417.829 264.874 417.25 265.099 416.596 265.25C415.942 265.389 415.256 265.464 414.537 265.464H406.656V265.453Z" fill="white"/>
</g>
</g>
<g opacity="0.4">
<path opacity="0.4" d="M218.2 289.097C243.429 289.097 263.88 268.646 263.88 243.418C263.88 218.189 243.429 197.738 218.2 197.738C192.972 197.738 172.521 218.189 172.521 243.418C172.521 268.646 192.972 289.097 218.2 289.097Z" fill="#158876"/>
<g opacity="0.4">
<path opacity="0.4" d="M218.201 215.098H205.376L218.201 245.423" fill="white"/>
<path opacity="0.4" d="M218.201 215.098H231.036L218.201 245.423" fill="white"/>
<path opacity="0.4" d="M218.2 254.173V277.624L190.835 224.191H205.172" fill="white"/>
<path opacity="0.4" d="M218.201 254.173V277.624L245.566 224.191H231.24" fill="white"/>
</g>
</g>
<g opacity="0.9">
<path opacity="0.9" d="M539.91 355.601C565.138 355.601 585.59 335.15 585.59 309.921C585.59 284.693 565.138 264.242 539.91 264.242C514.682 264.242 494.23 284.693 494.23 309.921C494.23 335.15 514.682 355.601 539.91 355.601Z" fill="#158876"/>
<g opacity="0.9">
<path opacity="0.9" d="M567.051 321.877L551.181 293.547C549.872 291.242 546.495 291.242 545.186 293.547L543.492 296.571L545.465 300.078L548.21 295.274L564.037 323.411H558.397C558.687 325.202 557.143 326.96 554.934 326.96H564.059C566.654 326.949 568.305 324.119 567.051 321.877Z" fill="white"/>
<path opacity="0.9" d="M528.737 323.411H515.827L535.321 288.722L541.658 299.885L543.503 296.582L537.959 286.738C536.78 284.647 533.831 284.658 532.662 286.749L512.76 322.328C511.591 324.408 513.135 326.96 515.559 326.96H532.212C529.992 326.949 528.437 325.202 528.737 323.411Z" fill="white"/>
<path opacity="0.9" d="M558.386 323.411C558.333 323.089 558.226 322.767 558.054 322.457L545.465 300.078L543.492 296.571L541.648 299.874L529.07 322.457C528.898 322.767 528.791 323.089 528.738 323.4C528.448 325.191 529.992 326.949 532.201 326.949H532.823H554.923C557.132 326.949 558.676 325.202 558.386 323.411ZM532.351 323.411L543.589 303.509L554.762 323.411H532.351Z" fill="white"/>
</g>
</g>
<g opacity="0.8">
<path opacity="0.8" d="M494.231 489.681C519.459 489.681 539.91 469.229 539.91 444.001C539.91 418.773 519.459 398.321 494.231 398.321C469.002 398.321 448.551 418.773 448.551 444.001C448.551 469.229 469.002 489.681 494.231 489.681Z" fill="#158876"/>
<g opacity="0.8">
<path opacity="0.8" d="M511.945 422.791L494.23 453.459L476.527 422.791H464.721L494.23 473.907L523.751 422.791H511.945Z" fill="white"/>
<g opacity="0.8">
<path opacity="0.8" d="M501.05 422.791L494.23 434.597L487.411 422.791H476.516L494.22 453.459L511.923 422.791H501.05Z" fill="white"/>
</g>
</g>
</g>
<g opacity="0.2">
<path opacity="0.2" d="M619.839 447.186C645.067 447.186 665.519 426.734 665.519 401.506C665.519 376.278 645.067 355.826 619.839 355.826C594.611 355.826 574.159 376.278 574.159 401.506C574.159 426.734 594.611 447.186 619.839 447.186Z" fill="#158876"/>
<path opacity="0.5" fill-rule="evenodd" clip-rule="evenodd" d="M644.652 382.183L620.418 425.354L594.973 382.183H590.866L620.032 432.678L649.177 382.183H644.652V382.183Z" fill="white"/>
<path opacity="0.69" d="M590.265 373.97H649.392L619.732 425.343L590.265 373.97Z" fill="white"/>
<path opacity="0.2" fill-rule="evenodd" clip-rule="evenodd" d="M638.401 385.84L619.861 417.977L601.288 385.84H588.925L619.85 439.39L650.743 385.84H638.401V385.84Z" fill="white"/>
<path opacity="0.2" fill-rule="evenodd" clip-rule="evenodd" d="M612.161 379.91H622.434C624.31 379.91 625.822 380.339 626.98 381.208C628.128 382.055 628.675 383.363 628.675 385.111C628.675 386.204 628.428 387.105 627.913 387.867C627.399 388.628 626.637 389.196 625.672 389.625V389.689C626.97 389.957 627.945 390.569 628.642 391.534C629.307 392.477 629.64 393.689 629.64 395.105C629.64 395.952 629.489 396.713 629.189 397.442C628.889 398.171 628.428 398.772 627.795 399.286C627.162 399.833 626.369 400.23 625.372 400.53C624.407 400.863 623.217 401.013 621.855 401.013H612.161V379.91ZM615.861 388.757H621.887C622.766 388.757 623.527 388.488 624.096 387.995C624.696 387.481 624.975 386.751 624.975 385.818C624.975 384.757 624.728 384.006 624.192 383.545C623.678 383.116 622.895 382.913 621.887 382.913H615.861V388.757V388.757ZM615.861 397.989H622.402C623.528 397.989 624.396 397.689 625.007 397.11C625.608 396.531 625.951 395.716 625.951 394.654C625.951 393.593 625.651 392.81 625.007 392.231C624.375 391.652 623.528 391.384 622.402 391.384H615.861V397.989Z" fill="white"/>
</g>
<g opacity="0.7">
<path opacity="0.7" d="M245.951 559.745C271.18 559.745 291.631 539.293 291.631 514.065C291.631 488.837 271.18 468.385 245.951 468.385C220.723 468.385 200.271 488.837 200.271 514.065C200.271 539.293 220.723 559.745 245.951 559.745Z" fill="#158876"/>
<path opacity="0.7" d="M227.958 498.27L243.721 482.657L263.354 502.141L251.988 514.065L267.751 530.053L243.463 545.473L224.151 525.142L227.958 498.27Z" fill="white"/>
</g>
<g opacity="0.2">
<path opacity="0.2" d="M119.206 341.222C141.911 341.222 160.318 322.815 160.318 300.11C160.318 277.404 141.911 258.998 119.206 258.998C96.5007 258.998 78.0942 277.404 78.0942 300.11C78.0942 322.815 96.5007 341.222 119.206 341.222Z" fill="#158876"/>
<path opacity="0.5" fill-rule="evenodd" clip-rule="evenodd" d="M141.531 282.717L119.721 321.566L96.8166 282.717H93.1279L119.378 328.161L145.606 282.717H141.531Z" fill="white"/>
<path opacity="0.69" d="M92.5811 275.329H145.799L119.11 321.566L92.5811 275.329Z" fill="white"/>
<path opacity="0.2" fill-rule="evenodd" clip-rule="evenodd" d="M135.902 286.02L119.217 314.95L102.5 286.02H91.3799L119.217 334.22L147.021 286.02H135.902Z" fill="white"/>
<path opacity="0.2" fill-rule="evenodd" clip-rule="evenodd" d="M112.29 280.669H121.533C123.227 280.669 124.589 281.055 125.619 281.838C126.659 282.599 127.141 283.779 127.141 285.355C127.141 286.342 126.927 287.157 126.455 287.832C125.994 288.518 125.308 289.033 124.439 289.408V289.462C125.608 289.709 126.487 290.256 127.109 291.124C127.71 291.971 128.01 293.065 128.01 294.341C128.01 295.102 127.87 295.789 127.602 296.443C127.334 297.097 126.916 297.644 126.348 298.105C125.779 298.598 125.072 298.952 124.171 299.22C123.303 299.52 122.23 299.66 121.008 299.66H112.279V280.669H112.29ZM115.614 288.636H121.04C121.833 288.636 122.509 288.39 123.034 287.95C123.581 287.489 123.828 286.835 123.828 285.988C123.828 285.033 123.613 284.347 123.12 283.94C122.659 283.554 121.951 283.371 121.051 283.371H115.625V288.636H115.614ZM115.614 296.947H121.501C122.509 296.947 123.302 296.679 123.849 296.153C124.396 295.628 124.696 294.899 124.696 293.944C124.696 292.99 124.428 292.282 123.849 291.767C123.281 291.253 122.509 291.006 121.501 291.006H115.614V296.947Z" fill="white"/>
</g>
<g opacity="0.3">
<path opacity="0.3" d="M574.16 584.118C596.865 584.118 615.272 565.712 615.272 543.006C615.272 520.301 596.865 501.894 574.16 501.894C551.454 501.894 533.048 520.301 533.048 543.006C533.048 565.712 551.454 584.118 574.16 584.118Z" fill="#158876"/>
<g opacity="0.3">
<path opacity="0.3" d="M549.283 561.471C549.283 565.02 552.156 567.883 555.695 567.883H592.625C596.174 567.883 599.037 565.01 599.037 561.471V524.541C599.037 520.992 596.164 518.129 592.625 518.129H555.695C552.146 518.129 549.283 521.003 549.283 524.541V561.471Z" stroke="white" stroke-miterlimit="10"/>
<path opacity="0.3" d="M569.914 540.133V533.088H576.122C576.712 533.088 577.28 533.141 577.827 533.238C578.374 533.334 578.857 533.516 579.286 533.763C579.704 534.02 580.047 534.364 580.294 534.814C580.551 535.264 580.669 535.843 580.669 536.54C580.669 537.806 580.294 538.717 579.532 539.285C578.771 539.843 577.806 540.133 576.616 540.133H569.914V540.133ZM563.287 527.941V558.072H577.892C579.243 558.072 580.562 557.9 581.838 557.568C583.114 557.236 584.261 556.71 585.258 556.003C586.256 555.295 587.049 554.394 587.639 553.279C588.229 552.164 588.529 550.855 588.529 549.333C588.529 547.446 588.068 545.837 587.156 544.497C586.245 543.156 584.851 542.223 582.996 541.687C584.347 541.044 585.366 540.208 586.052 539.2C586.738 538.192 587.081 536.916 587.081 535.404C587.081 533.999 586.845 532.819 586.384 531.854C585.923 530.9 585.269 530.128 584.422 529.549C583.575 528.97 582.567 528.562 581.387 528.305C580.208 528.048 578.9 527.93 577.463 527.93H563.287V527.941ZM569.914 552.925V544.658H577.13C578.567 544.658 579.715 544.99 580.594 545.644C581.463 546.309 581.902 547.413 581.902 548.958C581.902 549.74 581.773 550.394 581.505 550.898C581.237 551.402 580.883 551.81 580.433 552.099C579.983 552.4 579.457 552.603 578.868 552.732C578.278 552.861 577.656 552.925 577.012 552.925H569.914V552.925Z" fill="white"/>
</g>
</g>
<g opacity="0.9">
<path opacity="0.9" d="M519.397 236.448C539.58 236.448 555.941 220.086 555.941 199.904C555.941 179.721 539.58 163.36 519.397 163.36C499.215 163.36 482.854 179.721 482.854 199.904C482.854 220.086 499.215 236.448 519.397 236.448Z" fill="#158876"/>
<g opacity="0.9">
<path opacity="0.9" d="M528.34 200.054C528.34 197.695 530.27 195.776 532.662 195.776H538.956C541.337 195.776 543.331 197.684 543.331 200.054C543.331 202.413 541.337 204.332 538.956 204.332H532.662C530.27 204.332 528.34 202.424 528.34 200.054Z" fill="white"/>
<path opacity="0.9" d="M515.13 200.065C515.13 197.706 517.049 195.786 519.419 195.786C521.789 195.786 523.708 197.706 523.708 200.065C523.708 202.424 521.789 204.343 519.419 204.343C517.049 204.343 515.13 202.424 515.13 200.065Z" fill="white"/>
<path opacity="0.9" fill-rule="evenodd" clip-rule="evenodd" d="M523.59 180.066C523.687 182.372 521.896 184.313 519.591 184.409C509.629 184.827 503.56 192.612 503.849 200.022C503.946 202.327 502.187 204.268 499.882 204.365C497.576 204.461 495.55 202.595 495.453 200.29C494.971 188.227 505.05 176.303 519.247 176.077C521.542 175.97 523.494 177.761 523.59 180.066Z" fill="white"/>
<path opacity="0.9" fill-rule="evenodd" clip-rule="evenodd" d="M495.432 199.84C495.485 214.412 507.463 224.041 519.569 223.741C533.863 223.226 544.178 210.831 543.32 199.764C543.117 197.47 541.079 195.679 538.774 195.797C536.468 195.904 534.688 197.867 534.796 200.172C535.117 206.895 528.909 215.141 519.355 215.399C511.763 215.581 504.171 209.63 503.838 200.376C503.753 202.52 502.058 204.279 499.871 204.365C497.566 204.461 495.539 202.595 495.442 200.29C495.442 200.14 495.432 199.99 495.432 199.84Z" fill="url(#paint1_linear)"/>
</g>
</g>
<g opacity="0.25">
<path opacity="0.25" d="M144.931 472.16C165.113 472.16 181.474 455.798 181.474 435.616C181.474 415.433 165.113 399.072 144.931 399.072C124.748 399.072 108.387 415.433 108.387 435.616C108.387 455.798 124.748 472.16 144.931 472.16Z" fill="#158876"/>
<g opacity="0.25">
<path opacity="0.25" d="M159.096 418.641L144.931 443.176L130.766 418.641H121.319L144.931 459.539L168.543 418.641H159.096Z" fill="white"/>
<g opacity="0.8">
<path opacity="0.8" d="M150.389 418.641L144.931 428.088L139.473 418.641H130.755L144.92 443.176L159.085 418.641H150.389V418.641Z" fill="white"/>
</g>
</g>
</g>
<g opacity="0.2">
<path opacity="0.2" d="M108.387 578.789C128.569 578.789 144.93 562.427 144.93 542.245C144.93 522.062 128.569 505.701 108.387 505.701C88.204 505.701 71.8428 522.062 71.8428 542.245C71.8428 562.427 88.204 578.789 108.387 578.789Z" fill="#158876"/>
<g opacity="0.2">
<path opacity="0.2" d="M130.09 551.81L117.394 529.152C116.354 527.308 113.641 527.308 112.601 529.152L111.239 531.576L112.815 534.374L115.013 530.535L127.677 553.043H123.163C123.399 554.48 122.155 555.874 120.396 555.874H127.698C129.779 555.874 131.098 553.601 130.09 551.81Z" fill="white"/>
<path opacity="0.2" d="M99.4437 553.032H89.1175L104.709 525.281L109.781 534.213L111.25 531.576L106.81 523.694C105.867 522.021 103.508 522.032 102.575 523.705L86.6513 552.164C85.7184 553.836 86.9515 555.874 88.8923 555.874H102.21C100.441 555.874 99.2078 554.469 99.4437 553.032Z" fill="white"/>
<path opacity="0.2" d="M123.163 553.032C123.12 552.775 123.034 552.517 122.895 552.271L112.815 534.374L111.239 531.576L109.77 534.213L99.7011 552.271C99.5617 552.517 99.4759 552.775 99.433 553.032C99.1971 554.469 100.441 555.863 102.2 555.863H102.693H120.375C122.155 555.863 123.399 554.469 123.163 553.032ZM102.339 553.032L111.325 537.109L120.257 553.032H102.339Z" fill="white"/>
</g>
</g>
<g opacity="0.1">
<path opacity="0.1" d="M45.5502 430.64C65.7328 430.64 82.094 414.279 82.094 394.097C82.094 373.914 65.7328 357.553 45.5502 357.553C25.3676 357.553 9.00635 373.914 9.00635 394.097C9.00635 414.279 25.3676 430.64 45.5502 430.64Z" fill="#158876"/>
<path opacity="0.1" fill-rule="evenodd" clip-rule="evenodd" d="M32.9505 389.046C34.634 382.323 38.8267 378.966 45.55 378.966C55.6296 378.966 56.8949 386.526 61.9347 387.791C65.2909 388.628 68.2398 387.373 70.7597 384.006C69.0762 390.73 64.8835 394.086 58.1602 394.086C48.0806 394.086 46.8153 386.526 41.7755 385.261C38.4085 384.435 35.4704 385.69 32.9505 389.046ZM20.3511 404.176C22.0346 397.453 26.2273 394.097 32.9505 394.097C43.0301 394.097 44.2954 401.656 49.3352 402.922C52.6915 403.758 55.6403 402.503 58.1602 399.136C56.4767 405.86 52.284 409.216 45.5608 409.216C35.4812 409.216 34.2158 401.656 29.176 400.391C25.809 399.555 22.871 400.809 20.3511 404.176Z" fill="white"/>
</g>
<g opacity="0.1">
<path opacity="0.1" d="M29.3692 518.461C45.2642 518.461 58.1497 505.576 58.1497 489.681C58.1497 473.786 45.2642 460.901 29.3692 460.901C13.4743 460.901 0.588867 473.786 0.588867 489.681C0.588867 505.576 13.4743 518.461 29.3692 518.461Z" fill="#158876"/>
<g opacity="0.1">
<path opacity="0.1" d="M11.9551 502.613C11.9551 505.09 13.971 507.106 16.448 507.106H42.301C44.778 507.106 46.7939 505.09 46.7939 502.613V476.76C46.7939 474.283 44.778 472.267 42.301 472.267H16.448C13.971 472.267 11.9551 474.283 11.9551 476.76V502.613Z" stroke="white" stroke-miterlimit="10"/>
<path opacity="0.1" d="M26.3989 487.676V482.743H30.7417C31.1599 482.743 31.5566 482.775 31.9427 482.85C32.3287 482.915 32.6611 483.044 32.9614 483.215C33.2616 483.387 33.4975 483.633 33.6691 483.955C33.8513 484.266 33.9371 484.673 33.9371 485.167C33.9371 486.057 33.6691 486.689 33.1436 487.086C32.6075 487.483 31.9319 487.676 31.1063 487.676H26.3989ZM21.7666 479.14V500.232H31.9855C32.9292 500.232 33.8514 500.114 34.7521 499.879C35.6528 499.643 36.4463 499.278 37.1433 498.785C37.8403 498.292 38.3979 497.659 38.8161 496.876C39.2343 496.093 39.438 495.182 39.438 494.11C39.438 492.791 39.1163 491.665 38.4729 490.732C37.8295 489.799 36.8645 489.145 35.567 488.77C36.5107 488.319 37.2291 487.74 37.7116 487.022C38.1942 486.314 38.43 485.424 38.43 484.362C38.43 483.376 38.2692 482.55 37.9475 481.885C37.6258 481.221 37.1648 480.684 36.575 480.277C35.9852 479.869 35.2775 479.58 34.4518 479.408C33.6261 479.226 32.704 479.14 31.7067 479.14H21.7666ZM26.3989 496.629V490.839H31.4494C32.4574 490.839 33.2616 491.075 33.8728 491.536C34.484 491.997 34.7842 492.769 34.7842 493.852C34.7842 494.399 34.6878 494.86 34.5055 495.214C34.3232 495.568 34.0658 495.847 33.7549 496.061C33.4439 496.265 33.0793 496.415 32.6611 496.501C32.2429 496.587 31.814 496.629 31.3636 496.629H26.3989V496.629Z" fill="white"/>
</g>
</g>
<g opacity="0.1">
<path opacity="0.1" d="M648.598 332.718C666.258 332.718 680.574 318.402 680.574 300.743C680.574 283.083 666.258 268.767 648.598 268.767C630.938 268.767 616.622 283.083 616.622 300.743C616.622 318.402 630.938 332.718 648.598 332.718Z" fill="#158876"/>
<path opacity="0.1" fill-rule="evenodd" clip-rule="evenodd" d="M637.564 296.325C639.033 290.449 642.711 287.5 648.587 287.5C657.412 287.5 658.517 294.116 662.924 295.22C665.862 295.96 668.436 294.856 670.645 291.918C669.175 297.794 665.497 300.743 659.621 300.743C650.796 300.743 649.692 294.127 645.285 293.022C642.347 292.282 639.773 293.387 637.564 296.325ZM626.541 309.557C628.01 303.681 631.688 300.732 637.564 300.732C646.389 300.732 647.494 307.348 651.901 308.452C654.839 309.192 657.412 308.088 659.621 305.15C658.152 311.026 654.474 313.975 648.598 313.975C639.773 313.975 638.669 307.359 634.261 306.254C631.323 305.514 628.75 306.619 626.541 309.557Z" fill="white"/>
</g>
<g opacity="0.1">
<path opacity="0.1" d="M629.64 236.341C647.3 236.341 661.616 222.024 661.616 204.365C661.616 186.705 647.3 172.389 629.64 172.389C611.98 172.389 597.664 186.705 597.664 204.365C597.664 222.024 611.98 236.341 629.64 236.341Z" fill="#158876"/>
<g opacity="0.1">
<path opacity="0.1" d="M642.036 189.503L629.64 210.981L617.244 189.503H608.988L629.64 225.296L650.303 189.503H642.036Z" fill="white"/>
<g opacity="0.8">
<path opacity="0.8" d="M634.412 189.503L629.64 197.77L624.869 189.503H617.245L629.64 210.97L642.036 189.503H634.412Z" fill="white"/>
</g>
</g>
</g>
<g opacity="0.9">
<path opacity="0.9" d="M442.118 176.431C459.777 176.431 474.093 162.115 474.093 144.455C474.093 126.796 459.777 112.48 442.118 112.48C424.458 112.48 410.142 126.796 410.142 144.455C410.142 162.115 424.458 176.431 442.118 176.431Z" fill="#158876"/>
<g opacity="0.9">
<path opacity="0.9" d="M442.118 124.639H433.132L442.118 145.86" fill="white"/>
<path opacity="0.9" d="M442.118 124.639H451.093L442.118 145.86" fill="white"/>
<path opacity="0.9" d="M442.117 151.983V168.411L422.956 131.009H432.992" fill="white"/>
<path opacity="0.9" d="M442.118 151.994V168.411L461.269 131.009H451.232" fill="white"/>
</g>
</g>
<g opacity="0.3">
<path opacity="0.15" d="M78.094 242.957C95.7538 242.957 110.07 228.64 110.07 210.981C110.07 193.321 95.7538 179.005 78.094 179.005C60.4342 179.005 46.1182 193.321 46.1182 210.981C46.1182 228.64 60.4342 242.957 78.094 242.957Z" fill="#158876"/>
<path opacity="0.15" d="M65.4947 199.915L76.5287 188.988L90.2755 202.628L82.319 210.981L93.353 222.165L76.3463 232.963L62.8354 218.733L65.4947 199.915Z" fill="white"/>
</g>
<path opacity="0.5" d="M342 682C530.329 682 683 529.329 683 341C683 152.671 530.329 0 342 0C153.671 0 1 152.671 1 341C1 529.329 153.671 682 342 682Z" fill="url(#paint2_radial)"/>
<path d="M364.255 206.454H357.344V251.838H364.255V206.454Z" fill="#158876"/>
<path d="M369.66 203.424C369.66 208.315 365.695 212.28 360.804 212.28C355.913 212.28 351.948 208.315 351.948 203.424C351.948 198.533 355.913 194.568 360.804 194.568C365.695 194.568 369.66 198.533 369.66 203.424Z" fill="#137361"/>
<path d="M366.958 199.973C366.958 201.47 365.751 202.676 364.255 202.676C362.759 202.676 361.552 201.47 361.552 199.973C361.552 198.477 362.759 197.271 364.255 197.271C365.751 197.271 366.958 198.477 366.958 199.973Z" fill="white"/>
<path d="M389.308 255.906C389.084 255.934 388.943 254.644 387.868 252.642C387.868 252.642 387.363 251.707 386.783 250.912C384.922 248.359 378.638 248.415 378.142 248.415C368.342 248.5 362.039 247.882 362.039 247.938C362.039 247.985 366.64 247.892 370.006 247.826C379.508 247.63 385.165 247.125 387.597 249.669C388.607 250.725 389.112 252.1 389.112 252.1C389.804 253.97 389.57 255.869 389.308 255.906Z" fill="white"/>
<path opacity="0.59" d="M364.264 570.34C402.52 570.34 433.532 557.645 433.532 541.985C433.532 526.325 402.52 513.631 364.264 513.631C326.008 513.631 294.996 526.325 294.996 541.985C294.996 557.645 326.008 570.34 364.264 570.34Z" fill="#137361"/>
<path d="M263.939 424.855C296.436 433.757 304.104 431.261 309.903 439.976C310.567 440.977 313.961 446.083 313.279 452.648C312.736 457.876 309.828 461.906 307.995 463.683C296.866 474.456 266.239 461.28 248.695 446.859C244.871 443.717 234.612 435.282 236.678 429.297C237.529 426.847 240.157 425.621 242.046 424.78C250.388 421.03 259.038 423.508 263.939 424.855Z" fill="#158876"/>
<path d="M384.689 276.901H336.929C333.404 276.901 330.551 274.049 330.551 270.523V253.456C330.551 249.93 333.404 247.078 336.929 247.078H384.689C388.214 247.078 391.066 249.93 391.066 253.456V270.523C391.057 274.049 388.205 276.901 384.689 276.901Z" fill="#137361"/>
<path d="M469.069 376.095C469.069 403.664 446.718 426.014 419.15 426.014H302.459C275.002 426.014 252.539 403.551 252.539 376.095V350.162C252.539 301.309 292.508 261.34 341.362 261.34H380.265C429.118 261.34 469.088 301.309 469.088 350.162V376.095H469.069Z" fill="#158876"/>
<path d="M435.01 371.372C432.177 372.775 428.997 373.504 425.771 373.504H295.828C292.602 373.504 289.422 372.775 286.589 371.372C279.631 367.931 275.703 360.982 276.685 353.856L276.76 353.342C280.089 329.205 301.954 310.642 328.756 309.248C340.099 308.659 351.995 308.351 364.405 308.426C374.13 308.482 383.529 308.772 392.581 309.23C419.486 310.614 441.51 329.102 444.848 353.333C444.876 353.51 444.895 353.679 444.923 353.856C445.905 360.982 441.968 367.931 435.01 371.372Z" fill="#243746"/>
<path d="M326.558 368.183C340.09 368.183 351.06 357.213 351.06 343.682C351.06 330.15 340.09 319.18 326.558 319.18C313.026 319.18 302.057 330.15 302.057 343.682C302.057 357.213 313.026 368.183 326.558 368.183Z" fill="url(#paint3_radial)"/>
<path d="M326.558 361.272C336.273 361.272 344.149 353.397 344.149 343.681C344.149 333.966 336.273 326.091 326.558 326.091C316.843 326.091 308.968 333.966 308.968 343.681C308.968 353.397 316.843 361.272 326.558 361.272Z" fill="#EFF8FC"/>
<path d="M326.558 358.457C334.718 358.457 341.334 351.842 341.334 343.682C341.334 335.521 334.718 328.906 326.558 328.906C318.398 328.906 311.782 335.521 311.782 343.682C311.782 351.842 318.398 358.457 326.558 358.457Z" fill="#243746"/>
<path d="M336.022 339.857C336.022 342.877 333.572 345.327 330.551 345.327C327.531 345.327 325.081 342.877 325.081 339.857C325.081 336.836 327.531 334.386 330.551 334.386C333.572 334.377 336.022 336.827 336.022 339.857Z" fill="#EFF8FC"/>
<path d="M324.37 357.185C325.573 357.185 326.549 356.21 326.549 355.006C326.549 353.803 325.573 352.828 324.37 352.828C323.166 352.828 322.191 353.803 322.191 355.006C322.191 356.21 323.166 357.185 324.37 357.185Z" fill="#EFF8FC"/>
<path d="M318.955 351.733C318.955 352.332 318.469 352.828 317.861 352.828C317.262 352.828 316.767 352.341 316.767 351.733C316.767 351.135 317.253 350.639 317.861 350.639C318.469 350.639 318.955 351.126 318.955 351.733Z" fill="#EFF8FC"/>
<path d="M392.75 368.183C406.281 368.183 417.251 357.213 417.251 343.682C417.251 330.15 406.281 319.18 392.75 319.18C379.218 319.18 368.248 330.15 368.248 343.682C368.248 357.213 379.218 368.183 392.75 368.183Z" fill="url(#paint4_radial)"/>
<path d="M392.75 361.272C402.465 361.272 410.34 353.397 410.34 343.681C410.34 333.966 402.465 326.091 392.75 326.091C383.035 326.091 375.159 333.966 375.159 343.681C375.159 353.397 383.035 361.272 392.75 361.272Z" fill="#EFF8FC"/>
<path d="M392.749 358.457C400.91 358.457 407.525 351.842 407.525 343.682C407.525 335.521 400.91 328.906 392.749 328.906C384.589 328.906 377.974 335.521 377.974 343.682C377.974 351.842 384.589 358.457 392.749 358.457Z" fill="#243746"/>
<path d="M402.214 339.857C402.214 342.877 399.764 345.327 396.743 345.327C393.723 345.327 391.272 342.877 391.272 339.857C391.272 336.836 393.723 334.386 396.743 334.386C399.764 334.377 402.214 336.827 402.214 339.857Z" fill="#EFF8FC"/>
<path d="M390.571 357.185C391.774 357.185 392.75 356.21 392.75 355.006C392.75 353.803 391.774 352.828 390.571 352.828C389.367 352.828 388.392 353.803 388.392 355.006C388.392 356.21 389.367 357.185 390.571 357.185Z" fill="#EFF8FC"/>
<path d="M385.156 351.733C385.156 352.332 384.67 352.828 384.062 352.828C383.463 352.828 382.968 352.341 382.968 351.733C382.968 351.135 383.454 350.639 384.062 350.639C384.66 350.639 385.156 351.126 385.156 351.733Z" fill="#EFF8FC"/>
<path d="M437.096 289.75C437.217 293.884 433.841 298.831 429.97 299.261C426.341 299.654 423.451 295.95 420.459 292.135C417.513 288.366 411.079 278.696 413.641 275.966C417.027 272.346 436.815 279.996 437.096 289.75Z" fill="white"/>
<path d="M403.972 273.983C405.671 273.983 407.048 272.606 407.048 270.906C407.048 269.207 405.671 267.83 403.972 267.83C402.273 267.83 400.895 269.207 400.895 270.906C400.895 272.606 402.273 273.983 403.972 273.983Z" fill="white"/>
<path d="M436.656 347.132C435.665 347.834 428.782 333.797 410.293 321.63C403.794 317.356 397.379 314.308 397.762 313.419C398.145 312.522 405.374 314.196 411.163 316.879C429.586 325.436 437.834 346.309 436.656 347.132Z" fill="white"/>
<path d="M387.269 384.016C387.026 386.363 385.072 388.168 382.724 388.401L350.265 391.534C347.917 391.759 345.654 390.365 344.971 388.102C344.663 387.102 344.429 386.064 344.27 384.997C344.223 384.708 344.307 384.408 344.485 384.165C344.672 383.931 344.943 383.782 345.233 383.754L386.185 379.807C386.474 379.779 386.764 379.873 386.989 380.069C387.213 380.265 387.344 380.537 387.354 380.827C387.41 381.902 387.381 382.968 387.269 384.016Z" fill="#EFF8FC"/>
<path d="M387.269 384.025C386.231 394.087 378.236 402.364 367.78 403.355C357.475 404.356 348.161 397.959 345.103 388.495C345.916 390.515 348.048 391.749 350.265 391.525L382.734 388.402C385.081 388.168 387.026 386.363 387.269 384.025Z" fill="#243746"/>
<path d="M438.414 456.922C438.414 457.221 438.414 457.501 438.405 457.782C438.302 460.503 437.666 462.551 437.357 463.477C428.427 490.775 423.068 505.167 415.559 516.81C414.259 518.821 412.903 520.747 411.435 522.646C409.517 525.171 407.413 527.639 405.085 530.183C399.894 535.822 392.058 538.375 389.523 539.264C380.274 542.527 372.11 541.938 366.677 541.985H365.733C360.29 541.929 352.135 542.527 342.886 539.264C340.361 538.385 332.496 535.832 327.325 530.183C313.064 514.659 307.574 501.763 295.052 463.487C294.753 462.607 294.154 460.7 294.014 458.147C293.977 457.408 293.958 456.669 294.005 455.93C294.276 451.357 296.128 446.868 299.429 442.772C305.068 435.749 313.784 431.896 322.799 431.859L366.219 431.681L408.853 431.513C418.056 431.476 426.977 435.338 432.831 442.455C435.656 445.905 437.46 449.627 438.124 453.461C438.218 454.004 438.293 454.565 438.349 455.107C438.377 455.687 438.414 456.304 438.414 456.922Z" fill="#158876"/>
<path d="M366.2 431.653L322.78 431.831C313.765 431.868 305.058 435.721 299.41 442.744C296.118 446.84 294.266 451.329 293.986 455.902C294.21 451.208 296.137 446.607 299.578 442.417C305.414 435.3 314.345 431.438 323.556 431.476L366.2 431.653Z" fill="url(#paint5_linear)"/>
<path d="M409.358 495.629C408.722 461.944 404.168 455.285 410.892 447.271C411.668 446.354 415.605 441.65 422.086 440.453C427.258 439.499 431.943 441.155 434.159 442.408C447.635 450.048 443.642 483.153 434.758 504.045C432.822 508.599 427.632 520.822 421.301 520.532C418.71 520.411 416.793 518.232 415.456 516.661C409.517 509.712 409.452 500.707 409.358 495.629Z" fill="#158876"/>
<path d="M415.549 516.801C414.249 518.811 412.893 520.738 411.425 522.636C410.958 522.159 410.546 521.673 410.172 521.234C404.234 514.285 404.168 505.289 404.075 500.201C403.439 466.517 398.875 459.867 405.608 451.853C406.104 451.255 407.9 449.113 410.836 447.336C404.196 455.323 408.722 462.037 409.358 495.619C409.452 500.697 409.527 509.703 415.456 516.661C415.493 516.707 415.531 516.754 415.549 516.801Z" fill="#137361"/>
<path d="M434.561 467.583C434.374 463.964 433.692 461.298 432.336 455.977C430.559 449.01 428.333 445.615 429.783 444.269C430.727 443.39 432.579 443.988 433 444.119C439.368 446.148 441.341 458.091 441.061 465.572C440.892 470.145 439.78 475.27 438.096 475.494C437.835 475.532 437.171 475.494 436.703 475.083C434.833 473.427 434.711 470.332 434.561 467.583Z" fill="white"/>
<path d="M438.928 480.357C438.928 481.087 438.339 481.676 437.61 481.676C436.88 481.676 436.291 481.087 436.291 480.357C436.291 479.628 436.88 479.039 437.61 479.039C438.339 479.039 438.928 479.628 438.928 480.357Z" fill="white"/>
<defs>
<linearGradient id="paint0_linear" x1="234.786" y1="394.092" x2="234.786" y2="359.146" gradientUnits="userSpaceOnUse">
<stop stop-color="white" stop-opacity="0.95"/>
<stop offset="1" stop-color="white" stop-opacity="0.5"/>
</linearGradient>
<linearGradient id="paint1_linear" x1="519.403" y1="223.749" x2="519.403" y2="195.792" gradientUnits="userSpaceOnUse">
<stop stop-color="white" stop-opacity="0.95"/>
<stop offset="1" stop-color="white" stop-opacity="0.5"/>
</linearGradient>
<radialGradient id="paint2_radial" cx="0" cy="0" r="1" gradientUnits="userSpaceOnUse" gradientTransform="translate(342.001 341.003) scale(340.999)">
<stop offset="0.0397" stop-color="white"/>
<stop offset="1" stop-color="white" stop-opacity="0"/>
</radialGradient>
<radialGradient id="paint3_radial" cx="0" cy="0" r="1" gradientUnits="userSpaceOnUse" gradientTransform="translate(326.555 343.68) scale(24.2501)">
<stop offset="0.1296" stop-color="#4974B9"/>
<stop offset="1" stop-color="#020203"/>
</radialGradient>
<radialGradient id="paint4_radial" cx="0" cy="0" r="1" gradientUnits="userSpaceOnUse" gradientTransform="translate(392.751 343.68) scale(24.2501)">
<stop offset="0.1296" stop-color="#4974B9"/>
<stop offset="1" stop-color="#020203"/>
</radialGradient>
<linearGradient id="paint5_linear" x1="314.093" y1="458.985" x2="381.396" y2="380.393" gradientUnits="userSpaceOnUse">
<stop offset="0.0397" stop-color="#44BFE2"/>
<stop offset="1" stop-color="#DCE38C"/>
</linearGradient>
</defs>
</svg>
