<svg width="92" height="69" viewBox="0 0 92 69" fill="none" xmlns="http://www.w3.org/2000/svg">
<path d="M91.1264 60.6157L64.9182 13.838C62.7629 10.0282 57.1779 10.0282 55.0181 13.8336L52.2144 18.8328L55.4697 24.6146L59.9995 16.682L86.1361 63.1422H76.8262C77.3091 66.1024 74.7514 68.9955 71.107 68.9955H86.1719C90.4781 69 93.2013 64.3182 91.1264 60.6157Z" fill="#158876"/>
<path d="M27.8529 63.1422H6.52772L38.719 5.8517L49.1781 24.2927L52.2188 18.8373L43.0654 2.57846C41.1157 -0.869159 36.2551 -0.855744 34.3233 2.59635L1.45689 61.3446C-0.470376 64.7877 2.06951 69 6.07609 69H33.5721C29.9277 69 27.37 66.1069 27.8529 63.1422Z" fill="#41B38A"/>
<path d="M76.8262 63.1422C76.7413 62.6145 76.5579 62.0869 76.2717 61.5682L55.4742 24.6146L52.2189 18.8328L49.1782 24.2882L28.403 61.5726C28.1168 62.0869 27.9379 62.6145 27.8485 63.1377C27.3656 66.0979 29.9278 68.9911 33.5677 68.9911H34.5962H71.0981H71.1025C74.7469 68.9955 77.3047 66.1069 76.8262 63.1422ZM33.836 63.1422L52.3933 30.2802L70.8387 63.1422H33.836Z" fill="#243746"/>
</svg>
