<svg width="204" height="373"><mask id="a" maskUnits="userSpaceOnUse" x="0" y="0" width="234" height="303"><path fill="#C4C4C4" d="M0 0h234v303H0z"/></mask><g mask="url(#a)"><g opacity=".9"><path opacity=".9" d="M60.81 174.762c10.537 0 19.079-8.276 19.079-18.484 0-10.209-8.542-18.485-19.078-18.485-10.537 0-19.079 8.276-19.079 18.485 0 10.208 8.542 18.484 19.078 18.484z" fill="#158876" fill-opacity=".31"/><g opacity=".9"><path opacity=".9" d="M65.477 156.356c0-1.193 1.008-2.161 2.253-2.161h3.287c1.245 0 2.284.968 2.284 2.161s-1.039 2.161-2.284 2.161H67.73c-1.245 0-2.253-.968-2.253-2.161zM58.585 156.36c0-1.197 1.003-2.165 2.239-2.165s2.24.968 2.24 2.165c0 1.198-1.004 2.165-2.24 2.165-1.236 0-2.24-.972-2.24-2.165z" fill="#fff"/><path opacity=".9" fill-rule="evenodd" clip-rule="evenodd" d="M63.001 146.242c.05 1.167-.887 2.147-2.091 2.195-5.2.208-8.37 4.152-8.218 7.893.049 1.167-.87 2.148-2.074 2.195-1.205.048-2.262-.894-2.31-2.061-.252-6.1 5.01-12.132 12.423-12.249 1.2-.043 2.216.864 2.27 2.027z" fill="#fff"/><path opacity=".9" fill-rule="evenodd" clip-rule="evenodd" d="M48.297 156.243c.032 7.372 6.28 12.24 12.603 12.088 7.461-.256 12.849-6.53 12.401-12.127-.103-1.163-1.169-2.065-2.374-2.009-1.204.056-2.131 1.046-2.073 2.209.17 3.401-3.072 7.567-8.061 7.701-3.964.096-7.927-2.916-8.102-7.602-.045 1.085-.932 1.975-2.074 2.018-1.204.048-2.261-.894-2.31-2.061-.005-.065-.005-.139-.01-.217z" fill="url(#paint0_linear)"/></g></g><g opacity=".8"><path opacity=".8" d="M96.106 93.457c10.536 0 19.078-8.275 19.078-18.484 0-10.208-8.542-18.484-19.078-18.484-10.537 0-19.079 8.276-19.079 18.484 0 10.209 8.542 18.484 19.079 18.484z" fill="#158876" fill-opacity=".31"/><path opacity=".8" fill-rule="evenodd" clip-rule="evenodd" d="M89.527 72.426c.877-3.397 3.072-5.098 6.579-5.098 5.262 0 5.92 3.823 8.553 4.46 1.756.426 3.292-.212 4.604-1.913-.877 3.397-3.072 5.098-6.579 5.098-5.262 0-5.92-3.822-8.553-4.46-1.756-.425-3.292.212-4.604 1.913zm-6.58 7.646c.878-3.398 3.073-5.099 6.58-5.099 5.262 0 5.92 3.823 8.553 4.46 1.756.426 3.292-.212 4.604-1.913-.877 3.398-3.072 5.099-6.578 5.099-5.263 0-5.921-3.823-8.554-4.46-1.756-.422-3.292.216-4.604 1.913z" fill="#fff"/></g><g opacity=".9"><path opacity=".9" d="M134.567 130.309c10.537 0 19.078-8.276 19.078-18.485 0-10.208-8.541-18.484-19.078-18.484-10.537 0-19.078 8.276-19.078 18.484 0 10.209 8.541 18.485 19.078 18.485z" fill="#158876" fill-opacity=".31"/><g opacity=".9"><path opacity=".9" d="M123.017 120.129c0 1.593 1.335 2.886 2.978 2.886h17.139c1.644 0 2.979-1.293 2.979-2.886v-16.605c0-1.593-1.335-2.886-2.979-2.886h-17.139c-1.643 0-2.978 1.293-2.978 2.886v16.605z" stroke="#fff" stroke-miterlimit="10"/><path opacity=".9" d="M132.596 110.536v-3.168h2.88c.273 0 .538.022.793.065.255.044.479.122.676.239.197.113.354.273.47.473.117.204.175.46.175.777 0 .568-.175.98-.528 1.232-.354.252-.802.377-1.353.377h-3.113v.005zm-3.076-5.485v13.547h6.776a7.36 7.36 0 001.831-.226 4.926 4.926 0 001.586-.703 3.518 3.518 0 001.106-1.224c.273-.499.412-1.089.412-1.774 0-.846-.211-1.571-.636-2.174-.425-.603-1.066-1.02-1.93-1.263.627-.29 1.102-.664 1.42-1.119.317-.456.479-1.024.479-1.71 0-.633-.108-1.163-.323-1.592a2.608 2.608 0 00-.909-1.033 4.022 4.022 0 00-1.411-.56 9.1 9.1 0 00-1.822-.169h-6.579zm3.076 11.234v-3.719h3.35c.668 0 1.201.148 1.608.447.403.3.609.794.609 1.489 0 .355-.063.646-.188.872a1.485 1.485 0 01-.501.542 2.21 2.21 0 01-.726.286 4.2 4.2 0 01-.86.087h-3.292v-.004z" fill="#fff"/></g></g><g opacity=".4"><path opacity=".4" d="M53.887 125.852c10.537 0 19.078-8.275 19.078-18.484 0-10.208-8.541-18.484-19.078-18.484-10.537 0-19.079 8.276-19.079 18.484 0 10.209 8.542 18.484 19.079 18.484z" fill="#158876" fill-opacity=".31"/><g opacity=".4" fill="#fff"><path opacity=".4" d="M53.887 95.909H48.53l5.356 12.271M53.887 95.909h5.36l-5.36 12.271M53.887 111.72v9.49l-11.43-21.622h5.988M53.887 111.72v9.49l11.429-21.622h-5.983"/></g></g><g opacity=".9"><path opacity=".9" d="M188.251 152.763c10.537 0 19.078-8.276 19.078-18.484 0-10.209-8.541-18.484-19.078-18.484-10.537 0-19.079 8.275-19.079 18.484 0 10.208 8.542 18.484 19.079 18.484z" fill="#158876" fill-opacity=".31"/><g opacity=".9" fill="#fff"><path opacity=".9" d="M199.586 139.117l-6.628-11.464c-.547-.933-1.957-.933-2.504 0l-.707 1.224.824 1.419 1.146-1.944 6.611 11.385h-2.356c.121.725-.524 1.437-1.447 1.437h3.812c1.083-.005 1.773-1.15 1.249-2.057z"/><path opacity=".9" d="M183.584 139.737h-5.392l8.142-14.036 2.647 4.517.77-1.337-2.315-3.983a1.282 1.282 0 00-2.213.004l-8.312 14.397c-.488.842.157 1.875 1.169 1.875h6.955c-.927-.005-1.576-.712-1.451-1.437z"/><path opacity=".9" d="M195.967 139.737a1.188 1.188 0 00-.138-.386l-5.258-9.055-.824-1.419-.77 1.336-5.254 9.138a1.228 1.228 0 00-.139.382c-.12.725.524 1.436 1.447 1.436h9.49c.922 0 1.567-.707 1.446-1.432zm-10.873 0l4.693-8.053 4.667 8.053h-9.36z"/></g></g><g opacity=".8"><path opacity=".8" d="M169.173 207.018c10.536 0 19.078-8.275 19.078-18.484 0-10.209-8.542-18.484-19.078-18.484-10.537 0-19.079 8.275-19.079 18.484 0 10.209 8.542 18.484 19.079 18.484z" fill="#158876" fill-opacity=".31"/><g opacity=".8"><path opacity=".8" d="M176.571 179.951l-7.399 12.41-7.394-12.41h-4.93l12.324 20.685 12.33-20.685h-4.931z" fill="#fff"/><path opacity=".8" d="M172.021 179.951l-2.849 4.778-2.848-4.778h-4.55l7.394 12.41 7.394-12.41h-4.541z" fill="#fff"/></g></g><g opacity=".7"><path opacity=".7" d="M65.477 235.369c10.537 0 19.079-8.275 19.079-18.484 0-10.208-8.542-18.484-19.079-18.484S46.4 206.677 46.4 216.885c0 10.209 8.541 18.484 19.078 18.484z" fill="#158876" fill-opacity=".31"/><path opacity=".7" d="M57.962 210.494l6.584-6.318 8.2 7.884-4.747 4.825 6.583 6.47-10.144 6.239-8.066-8.227 1.59-10.873z" fill="#fff"/></g><g opacity=".9"><path opacity=".9" d="M179.684 104.548c8.429 0 15.262-6.62 15.262-14.787 0-8.167-6.833-14.788-15.262-14.788-8.43 0-15.263 6.62-15.263 14.788 0 8.166 6.833 14.787 15.263 14.787z" fill="#158876" fill-opacity=".31"/><g opacity=".9"><path opacity=".9" d="M183.419 89.821c0-.954.806-1.73 1.804-1.73h2.629c.995 0 1.828.771 1.828 1.73 0 .955-.833 1.732-1.828 1.732h-2.629c-.998 0-1.804-.773-1.804-1.732zM177.901 89.826c0-.955.802-1.732 1.791-1.732.99 0 1.792.777 1.792 1.732 0 .954-.802 1.73-1.792 1.73-.989 0-1.791-.776-1.791-1.73z" fill="#fff"/><path opacity=".9" fill-rule="evenodd" clip-rule="evenodd" d="M181.435 81.733c.041.933-.707 1.719-1.67 1.758-4.161.169-6.696 3.319-6.575 6.317.041.933-.694 1.718-1.657 1.758-.963.039-1.809-.716-1.849-1.65-.202-4.88 4.008-9.706 9.937-9.797.959-.043 1.774.681 1.814 1.614z" fill="#fff"/><path opacity=".9" fill-rule="evenodd" clip-rule="evenodd" d="M169.674 89.734c.023 5.897 5.025 9.794 10.081 9.672 5.97-.208 10.278-5.224 9.92-9.702-.085-.928-.936-1.653-1.899-1.605-.963.043-1.706.837-1.661 1.77.134 2.72-2.459 6.057-6.449 6.161-3.171.074-6.342-2.334-6.481-6.079-.036.868-.743 1.58-1.657 1.615-.963.039-1.809-.716-1.849-1.65 0-.06-.005-.12-.005-.181z" fill="url(#paint1_linear)"/></g></g><g opacity=".25"><path opacity=".25" d="M23.285 199.928c8.43 0 15.263-6.62 15.263-14.787 0-8.167-6.834-14.788-15.263-14.788-8.43 0-15.263 6.621-15.263 14.788s6.834 14.787 15.263 14.787z" fill="#158876" fill-opacity=".31"/><g opacity=".25"><path opacity=".25" d="M29.201 178.272l-5.916 9.928-5.916-9.928h-3.945l9.861 16.549 9.862-16.549h-3.946z" fill="#fff"/><path opacity=".8" d="M25.565 178.272l-2.28 3.823-2.28-3.823h-3.64l5.916 9.928 5.916-9.928h-3.632z" fill="#fff"/></g></g><g opacity=".9"><path opacity=".9" d="M147.407 80.263c7.376 0 13.355-5.793 13.355-12.94 0-7.145-5.979-12.938-13.355-12.938s-13.355 5.793-13.355 12.939 5.979 12.939 13.355 12.939z" fill="#158876" fill-opacity=".31"/><g opacity=".9" fill="#fff"><path opacity=".9" d="M147.407 59.305h-3.753l3.753 8.587M147.407 59.305h3.749l-3.749 8.587M147.407 70.37v6.647l-8.003-15.134h4.192"/><path opacity=".9" d="M147.407 70.374v6.643l7.999-15.134h-4.192"/></g></g></g><path d="M115.893 84.492h-2.833v18.966h2.833V84.492z" fill="#158876"/><path d="M118.108 83.226c0 2.044-1.625 3.7-3.63 3.7s-3.63-1.656-3.63-3.7c0-2.044 1.625-3.701 3.63-3.701s3.63 1.657 3.63 3.7z" fill="#137361"/><path d="M117 81.784c0 .625-.494 1.13-1.107 1.13a1.117 1.117 0 01-1.108-1.13c0-.626.494-1.13 1.108-1.13.613 0 1.107.505 1.107 1.13zM126.162 105.158c-.092.012-.15-.527-.591-1.364 0 0-.207-.39-.444-.723-.763-1.067-3.339-1.043-3.542-1.043-4.017.035-6.601-.223-6.601-.199 0 .019 1.886-.02 3.266-.047 3.895-.082 6.214-.293 7.21.77.414.441.621 1.016.621 1.016.284.781.188 1.575.081 1.59z" fill="#fff"/><path opacity=".59" d="M115.896 236.561c15.681 0 28.393-5.305 28.393-11.849 0-6.544-12.712-11.849-28.393-11.849-15.68 0-28.392 5.305-28.392 11.849 0 6.544 12.712 11.849 28.392 11.849z" fill="#137361"/><path d="M80.365 206.321c.077-14.081-1.725-16.907 1.11-20.19.326-.376 1.988-2.299 4.66-2.733 2.127-.347 4.031.391 4.929.939 5.446 3.327 3.478 17.115-.37 25.757-.838 1.884-3.09 6.937-5.679 6.75-1.06-.078-1.824-1.007-2.357-1.678-2.37-2.962-2.307-6.722-2.293-8.845z" fill="#158876"/><path d="M124.268 113.932h-19.576c-1.445 0-2.614-1.192-2.614-2.665v-7.133c0-1.473 1.169-2.665 2.614-2.665h19.576c1.445 0 2.614 1.192 2.614 2.665v7.133c-.003 1.473-1.172 2.665-2.614 2.665z" fill="#137361"/><path d="M158.855 155.386c0 11.521-9.161 20.861-20.462 20.861h-47.83c-11.254 0-20.462-9.387-20.462-20.861v-10.838c0-20.416 16.383-37.119 36.408-37.119h15.946c20.025 0 36.408 16.703 36.408 37.119v10.838h-.008z" fill="#158876"/><path d="M144.895 153.412a8.425 8.425 0 01-3.788.891H87.845a8.422 8.422 0 01-3.787-.891c-2.852-1.438-4.462-4.342-4.06-7.32l.031-.215c1.365-10.087 10.327-17.844 21.313-18.427a247.87 247.87 0 0126.161-.007c11.028.578 20.056 8.304 21.424 18.43.012.075.019.145.031.219.402 2.978-1.212 5.882-4.063 7.32z" fill="#243746"/><path fill="#fff" d="M100.244 161.908h27.378v3.673h-27.378zM145.749 119.302c.05 1.727-1.334 3.795-2.92 3.974-1.488.165-2.672-1.383-3.899-2.978-1.207-1.575-3.844-5.616-2.794-6.757 1.387-1.512 9.498 1.685 9.613 5.761zM132.172 112.713c.697 0 1.261-.576 1.261-1.286 0-.71-.564-1.286-1.261-1.286-.696 0-1.261.576-1.261 1.286 0 .71.565 1.286 1.261 1.286zM145.569 143.282c-.406.293-3.227-5.573-10.805-10.657-2.665-1.786-5.294-3.06-5.137-3.432.157-.375 3.12.325 5.493 1.446 7.551 3.576 10.932 12.299 10.449 12.643z"/><path d="M146.29 189.164c0 .125 0 .242-.004.359a8.627 8.627 0 01-.429 2.38c-3.661 11.408-5.857 17.423-8.935 22.288a35.185 35.185 0 01-1.691 2.439 44.468 44.468 0 01-2.603 3.15c-2.127 2.356-5.339 3.423-6.378 3.795-3.791 1.364-7.137 1.117-9.364 1.137h-.388c-2.231-.024-5.573.227-9.364-1.137-1.035-.368-4.259-1.435-6.379-3.795-5.845-6.488-8.095-11.877-13.228-27.873a8.425 8.425 0 01-.425-2.231 8.31 8.31 0 01-.004-.927c.111-1.911.87-3.787 2.223-5.498 2.311-2.935 5.884-4.546 9.58-4.561l17.797-.074 17.475-.071c3.772-.015 7.429 1.599 9.829 4.573 1.157 1.442 1.897 2.997 2.169 4.6.038.226.069.461.092.687.012.243.027.501.027.759z" fill="#158876"/><path d="M116.69 178.604l-17.798.074c-3.695.016-7.263 1.626-9.579 4.561-1.349 1.712-2.108 3.588-2.223 5.499.092-1.962.882-3.885 2.292-5.636 2.392-2.974 6.053-4.588 9.829-4.572l17.479.074z" fill="url(#paint2_linear)"/><path d="M134.38 205.339c-.26-14.077-2.127-16.859.629-20.209.318-.383 1.932-2.348 4.588-2.849 2.12-.398 4.04.294 4.949.817 5.523 3.193 3.887 17.028.245 25.759-.793 1.903-2.921 7.011-5.516 6.89-1.062-.051-1.847-.962-2.396-1.618-2.434-2.904-2.46-6.667-2.499-8.79z" fill="#158876"/><path d="M136.918 214.187a34.947 34.947 0 01-1.691 2.439c-.191-.199-.36-.402-.513-.586-2.434-2.904-2.461-6.663-2.5-8.79-.26-14.077-2.131-16.855.629-20.205a8.62 8.62 0 012.143-1.887c-2.722 3.337-.866 6.143-.606 20.177.039 2.123.069 5.886 2.499 8.794a.246.246 0 01.039.058z" fill="#137361"/><path d="M144.711 193.619c-.077-1.513-.357-2.626-.913-4.85-.728-2.912-1.64-4.33-1.046-4.893.387-.367 1.146-.117 1.319-.063 2.61.848 3.419 5.839 3.304 8.966-.069 1.911-.525 4.052-1.215 4.146a.769.769 0 01-.571-.172c-.767-.691-.817-1.985-.878-3.134zM146.501 198.957a.545.545 0 01-.541.551.545.545 0 01-.54-.551c0-.304.241-.551.54-.551.299 0 .541.247.541.551zM97.666 145.776h5.585v2.046h2.352v-2.046h1.443v-1.971h-1.443v-7.619h-3.079l-4.858 7.653v1.937zm5.63-1.971h-3.153v-.091l3.063-4.847h.09v4.938zm9.952 4.273c2.926 0 4.693-2.228 4.699-6.063.006-3.807-1.784-5.989-4.699-5.989-2.92 0-4.693 2.177-4.699 5.989-.011 3.824 1.767 6.057 4.699 6.063zm0-2.04c-1.335 0-2.199-1.341-2.193-4.023.006-2.642.864-3.971 2.193-3.971 1.324 0 2.188 1.329 2.188 3.971.005 2.682-.858 4.023-2.188 4.023zm6.277-.262h5.585v2.046h2.353v-2.046h1.443v-1.971h-1.443v-7.619h-3.08l-4.858 7.653v1.937zm5.631-1.971h-3.154v-.091l3.063-4.847h.091v4.938z" fill="#fff"/><defs><linearGradient id="paint0_linear" x1="60.814" y1="168.338" x2="60.814" y2="154.198" gradientUnits="userSpaceOnUse"><stop stop-color="#fff" stop-opacity=".95"/><stop offset="1" stop-color="#fff" stop-opacity=".5"/></linearGradient><linearGradient id="paint1_linear" x1="179.686" y1="99.409" x2="179.686" y2="88.097" gradientUnits="userSpaceOnUse"><stop stop-color="#fff" stop-opacity=".95"/><stop offset="1" stop-color="#fff" stop-opacity=".5"/></linearGradient><linearGradient id="paint2_linear" x1="95.332" y1="190.026" x2="123.537" y2="157.721" gradientUnits="userSpaceOnUse"><stop offset=".04" stop-color="#44BFE2"/><stop offset="1" stop-color="#DCE38C"/></linearGradient></defs></svg>