<svg width="94" height="52" viewBox="0 0 94 52" fill="none" xmlns="http://www.w3.org/2000/svg">
<path fill-rule="evenodd" clip-rule="evenodd" d="M23.5 17.0909C26.6328 5.69742 34.4672 0 47 0C65.8 0 68.15 12.8182 77.55 14.9545C83.8172 16.3792 89.3 14.2429 94 8.54546C90.8672 19.939 83.0328 25.6364 70.5 25.6364C51.7 25.6364 49.35 12.8182 39.95 10.6818C33.6828 9.25713 28.2 11.3935 23.5 17.0909ZM0 42.7273C3.13284 31.3338 10.9672 25.6364 23.5 25.6364C42.3 25.6364 44.65 38.4546 54.05 40.5909C60.3172 42.0156 65.8 39.8792 70.5 34.1818C67.3672 45.5753 59.5328 51.2727 47 51.2727C28.2 51.2727 25.85 38.4546 16.45 36.3182C10.1828 34.8935 4.7 37.0299 0 42.7273Z" fill="url(#paint0_linear)"/>
<defs>
<linearGradient id="paint0_linear" x1="2.33586e-06" y1="-45.5753" x2="81.4268" y2="103.706" gradientUnits="userSpaceOnUse">
<stop stop-color="#2383AE"/>
<stop offset="1" stop-color="#6DD7B9"/>
</linearGradient>
</defs>
</svg>
