<svg width="63" height="69" viewBox="0 0 63 69" fill="none" xmlns="http://www.w3.org/2000/svg">
<path fill-rule="evenodd" clip-rule="evenodd" d="M1.58673 17.0535L37.5154 11.72C38.476 11.5776 39.4842 12.1588 39.7706 13.0222L54.6347 57.813C54.9991 58.9123 54.4329 59.9949 53.364 60.2267L13.1293 68.9496C11.9387 69.208 10.7598 68.4466 10.501 67.2544L0.034333 19.0065C-0.16594 18.0831 0.530551 17.2102 1.58673 17.0535Z" fill="url(#paint0_linear)"/>
<path fill-rule="evenodd" clip-rule="evenodd" d="M1.81137 16.5717L37.7402 11.2382C38.7006 11.0958 39.709 11.677 39.9954 12.5403L54.8593 57.3313C55.2243 58.4306 54.6575 59.5132 53.5886 59.7448L13.3539 68.4679C12.1633 68.726 10.9844 67.9649 10.7257 66.7727L0.25846 18.5252C0.0581655 17.6013 0.754657 16.7289 1.81137 16.5717Z" fill="url(#paint1_linear)"/>
<path fill-rule="evenodd" clip-rule="evenodd" d="M5.21836 11.2111L40.8856 5.98119C41.8419 5.84092 42.8551 6.42693 43.1516 7.29238L58.2255 51.2981C58.5878 52.3558 58.0401 53.394 56.9982 53.6122L17.9461 61.8157C16.7954 62.0574 15.6319 61.3286 15.3514 60.1923L3.73397 13.1529C3.50658 12.2327 4.17281 11.3646 5.21836 11.2111Z" fill="url(#paint2_linear)"/>
<path fill-rule="evenodd" clip-rule="evenodd" d="M5.44296 10.7297L41.1102 5.4998C42.0665 5.35956 43.0798 5.94554 43.376 6.81099L58.45 50.8168C58.8124 51.8744 58.2647 52.9127 57.2228 53.1309L18.1707 61.3343C17.02 61.576 15.8565 60.8472 15.576 59.7109L3.95909 12.6715C3.73171 11.7508 4.39739 10.8827 5.44296 10.7297Z" fill="url(#paint3_linear)"/>
<path fill-rule="evenodd" clip-rule="evenodd" d="M9.05035 5.56408L44.4116 0.501001C45.361 0.364993 46.3725 0.946211 46.6744 1.80157L61.9135 44.9954C62.2774 46.0271 61.7429 47.036 60.7154 47.2459L22.2727 55.1019C21.1417 55.3331 19.9866 54.6217 19.6966 53.5167L7.60473 7.47243C7.36567 6.56553 8.01487 5.7123 9.05035 5.56408Z" fill="url(#paint4_linear)"/>
<path fill-rule="evenodd" clip-rule="evenodd" d="M9.27528 5.08227L44.6366 0.0197385C45.586 -0.116268 46.5975 0.464949 46.8993 1.32031L62.1384 44.5141C62.5024 45.5459 61.9679 46.5548 60.9404 46.7646L22.4977 54.6207C21.3667 54.8518 20.2116 54.1405 19.9216 53.0354L7.82967 6.99169C7.59112 6.08426 8.23981 5.23051 9.27528 5.08227Z" fill="url(#paint5_linear)"/>
<path fill-rule="evenodd" clip-rule="evenodd" d="M28.3693 33.52L43.9478 30.633C44.1695 30.5921 44.3869 30.7227 44.4543 30.9375L47.0692 39.2477C47.1488 39.5011 46.9905 39.7678 46.7292 39.8189L30.9273 42.8954C30.6994 42.9394 30.4764 42.8019 30.413 42.5787L28.0213 34.0783C27.9506 33.8265 28.1117 33.5677 28.3693 33.52ZM27.0241 34.2594L29.3776 42.829C29.5605 43.4936 30.2239 43.9054 30.9004 43.7741L46.8922 40.6652C47.6674 40.5143 48.137 39.721 47.8964 38.9693L45.2565 30.7165C45.0551 30.0873 44.4203 29.7043 43.77 29.8201L28.0638 32.6125C27.3009 32.7485 26.8186 33.5114 27.0241 34.2594ZM30.1317 34.9576L31.778 40.7375L33.5472 40.3347L32.6014 37.0067L35.0166 38.8982L36.1918 36.2359L37.155 39.6164L38.8716 39.2488L37.2076 33.6619L35.3858 33.977L34.2824 36.4286L31.9002 34.6245L30.1317 34.9576ZM42.9497 35.735L42.0678 32.7703L40.2348 33.0838L41.1646 36.075L39.5176 36.3937L42.9018 38.6515L44.6178 35.4109L42.9497 35.735Z" fill="#BCC0CF"/>
<path d="M47.0292 39.6026L46.8433 39.9903L46.7849 40.1126C46.721 40.2083 46.6201 40.2773 46.5033 40.2986L30.7031 43.3799C30.4747 43.4224 30.2516 43.2844 30.1877 43.0612L27.7971 34.5609C27.7704 34.4597 27.7758 34.3536 27.8182 34.2633C27.8236 34.2525 27.8288 34.2419 27.8342 34.2314L27.8502 34.1995L28.0308 33.8116C27.9989 33.8913 27.9935 33.9871 28.0201 34.0772L28.0839 34.3058L30.4109 42.5778C30.4747 42.8008 30.6977 42.939 30.9263 42.8965L46.721 39.8204H46.7264C46.8646 39.7939 46.9707 39.7089 47.0292 39.6026ZM47.6933 40.155C47.7517 39.9319 47.7465 39.6876 47.6722 39.4484L45.0316 31.1977C44.8298 30.5709 44.1976 30.1884 43.544 30.2999L27.8396 33.0944C27.4942 33.1528 27.202 33.3441 27.0161 33.6097C27.1222 33.1157 27.5207 32.7067 28.0625 32.611L43.7726 29.8218C44.4207 29.705 45.0581 30.0875 45.2548 30.7143L47.8953 38.9704C48.0333 39.39 47.943 39.831 47.6933 40.155ZM44.6172 35.4109L44.3569 35.8997L42.7259 36.2184L41.844 33.2537L40.367 33.5088L40.2342 33.0838L42.0672 32.7703L42.9491 35.7349L44.6172 35.4109ZM40.8133 36.144L41.1639 36.075L40.9408 36.5584L40.0269 36.7337L39.517 36.3937L40.8133 36.144ZM34.2732 36.4256L34.0554 36.909L31.6753 35.1079L30.2462 35.3735L30.1293 34.9591L31.8985 34.6245L34.2732 36.4256ZM38.8688 39.2466L38.5234 39.321L36.9827 34.141L35.1659 34.4597L35.3837 33.9763L37.2059 33.663L38.8688 39.2466ZM32.8389 37.8494L32.5997 37.0045L32.3766 37.4882L33.2108 40.4101L33.5455 40.3357L32.8389 37.8494Z" fill="#A2A6B3"/>
<path d="M23.4887 11.5936L18.8984 12.2311L35.2191 27.4044L41.0846 8.78845L36.7492 9.55349L33.3065 20.5191L23.4887 11.5936Z" fill="url(#paint6_linear)"/>
<path d="M23.4888 11.5936L27.6967 10.9561L31.3942 14.2713L32.7969 10.1911L36.7495 9.55353L33.3068 20.5191L23.4888 11.5936Z" fill="url(#paint7_linear)"/>
<defs>
<linearGradient id="paint0_linear" x1="27.3726" y1="68.9994" x2="27.3726" y2="11.6981" gradientUnits="userSpaceOnUse">
<stop stop-color="#1D2130"/>
<stop offset="1" stop-color="#3E445A"/>
</linearGradient>
<linearGradient id="paint1_linear" x1="27.5969" y1="68.518" x2="27.5969" y2="11.2167" gradientUnits="userSpaceOnUse">
<stop stop-color="#262B3F"/>
<stop offset="1" stop-color="#656E91"/>
</linearGradient>
<linearGradient id="paint2_linear" x1="31.0132" y1="61.8625" x2="31.0132" y2="5.96021" gradientUnits="userSpaceOnUse">
<stop stop-color="#267550"/>
<stop offset="1" stop-color="#79B881"/>
</linearGradient>
<linearGradient id="paint3_linear" x1="31.238" y1="61.3809" x2="31.238" y2="5.47867" gradientUnits="userSpaceOnUse">
<stop stop-color="#279264"/>
<stop offset="1" stop-color="#A4F3AA"/>
</linearGradient>
<linearGradient id="paint4_linear" x1="34.791" y1="55.1461" x2="34.791" y2="0.481399" gradientUnits="userSpaceOnUse">
<stop offset="0.59" stop-color="#CECFD0"/>
<stop offset="1" stop-color="#DFDFDF"/>
</linearGradient>
<linearGradient id="paint5_linear" x1="35.0162" y1="54.6647" x2="35.0162" y2="-2.60662e-05" gradientUnits="userSpaceOnUse">
<stop stop-color="#EAEEF0"/>
<stop offset="0.41" stop-color="white"/>
</linearGradient>
<linearGradient id="paint6_linear" x1="24.2925" y1="-8.13035" x2="47.3592" y2="67.3175" gradientUnits="userSpaceOnUse">
<stop offset="0.22" stop-color="#73CB8D"/>
<stop offset="0.4" stop-color="#2F9869"/>
</linearGradient>
<linearGradient id="paint7_linear" x1="21.3427" y1="-14.9155" x2="57.4564" y2="89.9665" gradientUnits="userSpaceOnUse">
<stop offset="0.25" stop-color="#586080"/>
<stop offset="0.35" stop-color="#2C3247"/>
</linearGradient>
</defs>
</svg>
