<svg xmlns="http://www.w3.org/2000/svg" width="90" height="90" fill="none">
  <g clip-path="url(#a)">
    <path fill="#563D7C"
      d="M0 31.2c0-14.7 0-22 4.6-26.6C9 0 16.5 0 31.2 0h27.6c14.7 0 22 0 26.6 4.6C90 9 90 16.5 90 31.2v27.6c0 14.7 0 22-4.6 26.6C81 90 73.5 90 58.8 90H31.2c-14.7 0-22 0-26.6-4.6C0 81 0 73.5 0 58.8V31.2Z" />
    <path fill="#fff"
      d="M34.3 39.9V27.2h11c1.1 0 2.2.1 3.1.3 1 .2 1.9.5 2.7 1a5 5 0 0 1 1.8 1.8c.4.8.6 1.9.6 3.1 0 2.3-.6 4-2 5a8.5 8.5 0 0 1-5.2 1.5h-12ZM22.3 18v54h26.3c2.4 0 4.7-.3 7-1a19 19 0 0 0 6.2-2.7 13.8 13.8 0 0 0 5.8-12 15 15 0 0 0-2.4-8.6 13 13 0 0 0-7.5-5c2.4-1.2 4.3-2.7 5.5-4.5 1.2-1.8 1.8-4 1.8-6.8 0-2.5-.4-4.7-1.2-6.4-.8-1.7-2-3-3.5-4-1.5-1.1-3.3-1.9-5.5-2.3-2-.5-4.4-.7-7-.7H22.4Zm12 44.8V48h12.9c2.6 0 4.6.5 6.2 1.7 1.6 1.2 2.3 3.2 2.3 6 0 1.4-.2 2.5-.7 3.4-.4 1-1 1.7-2 2.2-.7.5-1.6 1-2.7 1.1-1 .3-2.2.4-3.3.4H34.3Z" />
  </g>
  <defs>
    <clipPath id="a">
      <path fill="#fff" d="M0 0h90v90H0z" />
    </clipPath>
  </defs>
</svg>
