<svg xmlns="http://www.w3.org/2000/svg" width="90" height="90" fill="none">
  <g clip-path="url(#a)">
    <path fill="#fff"
      d="M0 31.2c0-14.7 0-22 4.6-26.6C9 0 16.5 0 31.2 0h27.6c14.7 0 22 0 26.6 4.6C90 9 90 16.5 90 31.2v27.6c0 14.7 0 22-4.6 26.6C81 90 73.5 90 58.8 90H31.2c-14.7 0-22 0-26.6-4.6C0 81 0 73.5 0 58.8V31.2Z" />
    <path fill="#7957D5"
      d="M47 40c6.2-.7 10.7-4.5 10.5-11.4 0-4.8-3-7-6.7-7.7L47 40.1Zm-1 4.6-4.5 23.3c20.7.3 22.4-24.8 4.6-23.3Zm21.2 18.3C62.8 72.3 52.8 73 42.6 73H30.3l10-50.6c-7.5 2.9-12.9 11.4-9 18.4l-10 4.6C17.5 18 57.5 9 64.7 24.7c3 6.3-1.1 13.2-6.8 16.5 4.3 1.1 7.5 3.8 9.3 7.1a16 16 0 0 1 0 14.6Z" />
  </g>
  <defs>
    <clipPath id="a">
      <path fill="#fff" d="M0 0h90v90H0z" />
    </clipPath>
  </defs>
</svg>
