<svg xmlns="http://www.w3.org/2000/svg" width="90" height="90" fill="none">
  <g clip-path="url(#a)">
    <path fill="#FC0"
      d="M0 31.2c0-14.7 0-22 4.6-26.6C9 0 16.5 0 31.2 0h27.6c14.7 0 22 0 26.6 4.6C90 9 90 16.5 90 31.2v27.6c0 14.7 0 22-4.6 26.6C81 90 73.5 90 58.8 90H31.2c-14.7 0-22 0-26.6-4.6C0 81 0 73.5 0 58.8V31.2Z" />
    <path fill="#409EFF"
      d="M0 31.2c0-14.7 0-22 4.6-26.6C9 0 16.5 0 31.2 0h27.6c14.7 0 22 0 26.6 4.6C90 9 90 16.5 90 31.2v27.6c0 14.7 0 22-4.6 26.6C81 90 73.5 90 58.8 90H31.2c-14.7 0-22 0-26.6-4.6C0 81 0 73.5 0 58.8V31.2Z" />
    <path fill="#fff" fill-rule="evenodd"
      d="M69.5 57.1c0 2.3-1.2 2.9-1.2 2.9L46.1 72.7c-1.3.6-2.2 0-2.2 0S22 60.1 21.3 59.5c-.8-.5-.8-1.4-.8-1.4V32c0-1.1 1.4-2 1.4-2l21.8-12.6a3 3 0 0 1 2.6 0l21.4 12.4c2 1 1.8 3 1.8 3v24.4ZM60.8 32l-15-8.7s-1-.5-2 0l-17.1 9.9s-1.2.7-1.1 1.6v20.5s0 .6.6 1c.6.5 17.7 10.4 17.7 10.4s.7.5 1.8 0l17.4-10s1-.4 1-2.2v-5.1L44.8 61v-4.4c0-1.9 1.4-3 1.4-3l17-10.3c.7-.7.9-1.8.9-2.2v-4.5L44.8 48.2v-4.6c0-1.9 1.2-2.7 1.2-2.7l14.8-9Z"
      clip-rule="evenodd" />
  </g>
  <defs>
    <clipPath id="a">
      <path fill="#fff" d="M0 0h90v90H0z" />
    </clipPath>
  </defs>
</svg>
