<svg xmlns="http://www.w3.org/2000/svg" width="585" height="529" fill="none">
  <g filter="url(#a)">
    <g clip-path="url(#b)">
      <rect width="561" height="505" x="12" y="2" fill="#020420" rx="12" />
      <mask id="c" fill="#fff">
        <path d="M36 2h513v64H36V2Z" />
      </mask>
      <path fill="#020420" d="M36 2h513v64H36V2Z" />
      <path fill="#1E293B" d="M549 65H36v2h513v-2Z" mask="url(#c)" />
      <g clip-path="url(#d)">
        <path fill="#00DC82"
          d="M247.2 33.9v7c0 1.6-.6 3-1.4 3.9-1 .9-2.1 1.4-3.8 1.4-1.6 0-3-.5-3.9-1.4-.9-1-1.4-2.3-1.4-3.9v-7h3.1v7c0 1 .1 1.5.5 2 .4.4 1 .5 1.7.5.8 0 1.1-.1 1.5-.6.4-.4.5-1 .5-1.9v-7h3.2Z" />
        <path fill="#fff" fill-rule="evenodd"
          d="M266.2 46.2h3.7V32.5h4.9v-2c0-.6-.5-1.2-1.2-1.2h-12.3v2c0 .6.5 1.2 1.2 1.2h3.7v13.7Zm21.3 0h3.3V29.3h-3.3v16.9Zm23.5 0c-1.5 0-2.7-.5-3.6-1.2a4 4 0 0 1-1.5-3h2.9c0 .5.2.8.6 1.1.4.3 1 .5 1.6.5.5 0 .9 0 1.2-.3.4-.2.5-.5.5-.9s-.2-.7-.6-.9l-1.8-.5c-.9-.1-1.6-.3-2.1-.5a3 3 0 0 1-1.4-1c-.4-.4-.6-1-.6-2 0-.7.2-1.3.6-1.8.4-.6.8-1 1.5-1.3a5 5 0 0 1 2.2-.5c1.5 0 2.6.4 3.5 1 1 .8 1.5 1.7 1.5 2.9h-2.9c0-.5-.3-1-.7-1.2-.4-.3-.8-.4-1.3-.4s-.8 0-1.1.3c-.3.2-.4.5-.4.9s.1.7.5.9l1.8.4c.9.1 1.6.3 2.1.5a3 3 0 0 1 1.5 1c.5.5.6 1.1.6 2.1 0 1.2-.3 2-1.2 2.8-.8.6-2 1-3.4 1Zm8.9-.8c1 .5 2 .8 3.3.8 1 0 2-.2 2.8-.6 1-.5 1.6-1 2.1-1.8.6-.7 1-1.5 1-2.4h-3.3c-.1.6-.4 1-.9 1.3-.4.4-1 .5-1.6.5-.9 0-1.6-.3-2.1-.9-.5-.6-.8-1.4-.8-2.4s.3-1.6.8-2.2c.5-.6 1.2-1 2.1-1 .6 0 1.2.2 1.6.6.5.3.7.8.8 1.3h3.4c-.1-1-.4-1.7-1-2.4a6 6 0 0 0-4.8-2.3c-1.2 0-2.5.2-3.4.8a6 6 0 0 0-3 5.2c0 1.2.2 2.3.8 3.2.5 1 1.2 1.7 2.2 2.3Zm16.7.8c-1.2 0-2.2-.3-3.2-.8a6 6 0 0 1-3.1-5.3c0-1.2.2-2.3.8-3.2.5-1 1.3-1.7 2.3-2.2 1-.6 2-.8 3.2-.8 1.2 0 2.4.2 3.3.8 1 .5 1.8 1.2 2.4 2.2.5 1 .8 2 .8 3.2a6 6 0 0 1-3.1 5.2 7 7 0 0 1-3.4.9Zm0-2.9a3 3 0 0 0 2.2-1 3 3 0 0 0 .8-2.2c0-1-.2-1.8-.8-2.4-.5-.6-1.2-1-2-1a3 3 0 0 0-2.3 1c-.6.6-1 1.4-1 2.4s.4 1.7 1 2.3c.5.7 1.2 1 2.1 1Zm8.5-9.2V50h3.3v-4.8c.3.4.8.6 1.3.9.6.2 1.3.3 2 .3 1.1 0 2-.2 3-.7.9-.6 1.6-1.3 2-2.3.6-.9.8-2 .8-3.3a7 7 0 0 0-.7-3.2 5 5 0 0 0-4.9-3c-.7 0-1.5.1-2 .4-.7.2-1.1.6-1.5 1v-1.2h-3.3Zm8.3 8.5c-.6.6-1.3 1-2.2 1-.9 0-1.6-.4-2.1-1-.6-.6-.9-1.5-.9-2.5s.3-1.8.8-2.4c.6-.6 1.3-1 2.2-1 1 0 1.6.4 2.2 1 .5.6.8 1.4.8 2.4s-.3 2-.8 2.5Zm-70 2.4c1-.8 1.7-1.8 1.9-3H282c-.2.4-.4.8-.8 1a3 3 0 0 1-1.7.4c-.8 0-1.5-.2-2-.7-.5-.4-.9-1.1-1-2h8.6v-1c0-1-.2-2-.6-2.8-.4-.9-1-1.7-2-2.2a6 6 0 0 0-3.3-.8 5.8 5.8 0 0 0-5.2 3 7.3 7.3 0 0 0 .1 6 6 6 0 0 0 5.4 3.3 6 6 0 0 0 3.8-1.2Zm-5.8-8.1c.5-.4 1-.6 1.7-.6.8 0 1.5.2 2 .7.4.4.6 1 .7 1.7h-5.3a3 3 0 0 1 1-1.8Zm27 5a4.7 4.7 0 0 1-1.9 3 6 6 0 0 1-3.7 1.3c-1.3 0-2.4-.4-3.3-1a6 6 0 0 1-2.1-2.3c-.5-1-.7-1.8-.7-2.9 0-1 .1-2 .6-3 .4-1 1-1.6 2-2.2.9-.6 2-1 3.2-1a6 6 0 0 1 3.3.9c1 .5 1.5 1.3 2 2.2.4.9.6 1.8.6 2.8v1H296a2.9 2.9 0 0 0 3 2.7 3 3 0 0 0 1.6-.4c.4-.2.7-.6.8-1h3.3Zm-5.9-5.6c-.8 0-1.3.2-1.7.6a3 3 0 0 0-1 1.8h5.3c0-.7-.2-1.3-.7-1.7-.4-.5-1.1-.7-1.9-.7Zm69.9 8.7c1-.8 1.7-1.8 1.9-3h-3.2c-.2.4-.4.8-.8 1a3 3 0 0 1-1.6.4c-.9 0-1.5-.2-2-.7-.6-.4-1-1.1-1-2h8.5v-1c0-1-.2-2-.6-2.8-.4-.9-1-1.7-2-2.2a6 6 0 0 0-3.2-.8 5.8 5.8 0 0 0-5.3 3 7.3 7.3 0 0 0 .1 6 6 6 0 0 0 5.5 3.3 6 6 0 0 0 3.7-1.2Zm-5.8-8.1c.5-.4 1-.6 1.8-.6.7 0 1.4.2 1.9.7.4.4.6 1 .7 1.7h-5.3a3 3 0 0 1 1-1.8Z"
          clip-rule="evenodd" />
        <path fill="#00DC82"
          d="M261.2 42a4.7 4.7 0 0 1-2 3 6 6 0 0 1-3.7 1.2c-1.3 0-2.4-.4-3.3-1a6 6 0 0 1-2.1-2.3c-.5-1-.7-1.8-.7-2.9 0-1 .2-2 .6-3 .4-1 1.1-1.6 2-2.2 1-.6 2-1 3.2-1a6 6 0 0 1 3.4.9c.9.5 1.5 1.3 1.9 2.2.4.9.7 1.8.7 2.8l-.1 1h-8.6a2.9 2.9 0 0 0 3 2.7 3 3 0 0 0 1.7-.4c.4-.2.6-.6.8-1h3.2Zm-6-5.7c-.7 0-1.2.2-1.7.6a3 3 0 0 0-.9 1.8h5.3c0-.7-.3-1.3-.7-1.7-.5-.5-1.2-.7-2-.7ZM230.3 26H217c-.4 0-.8 0-1.2.3-.4.2-.7.5-.9 1-.2.3-.4.7-.4 1.1 0 .4.2.8.4 1.1l9 15.5c.2.3.4.6.8.8.4.2.9.4 1.3.4s.8-.2 1.2-.4l.8-.8 2.3-4 8.7-15c-3.3 0-5.2 1.4-6.9 4.2l-4 7L226 41l-6.6-11.2h8.7l2.2-3.8Z" />
      </g>
      <path fill="#fff"
        d="M37 113v-9.8h1.7v9.8H37Zm3.6 0v-7H42l.1 1.1c.2-.4.5-.7 1-1 .3-.2.8-.3 1.4-.3.5 0 1 .1 1.4.3l1 1c.2.5.3 1.1.3 1.8v4.1h-1.7v-4c0-.5-.1-1-.4-1.3a1.8 1.8 0 0 0-2-.2c-.3.1-.5.3-.7.6-.2.3-.2.7-.2 1.1v3.8h-1.7Zm8.8 0v-7.8c0-.6 0-1 .3-1.3.1-.4.4-.6.8-.8l1.2-.2h.8v1.4H52l-.6.2c-.2.2-.2.4-.2.7v7.8h-1.7Zm-1-5.6v-1.5h4.3v1.5h-4.3Zm8.7 5.8c-.6 0-1.3-.2-1.8-.5s-1-.7-1.3-1.3a4 4 0 0 1-.4-2c0-.7.2-1.3.5-1.8.3-.6.7-1 1.2-1.3.6-.4 1.2-.5 1.8-.5a3.5 3.5 0 0 1 3.1 1.7c.3.6.5 1.2.5 2 0 .7-.2 1.4-.5 1.9a3.4 3.4 0 0 1-3 1.8Zm0-1.5c.4 0 .7 0 1-.2l.6-.8c.2-.3.3-.7.3-1.2s-.1-1-.3-1.3a1.7 1.7 0 0 0-1.6-1 1.7 1.7 0 0 0-1.5 1c-.2.4-.3.8-.3 1.3s0 .9.3 1.2c.1.4.3.6.6.8l1 .2Zm8 1.5c-.6 0-1.1-.1-1.6-.3-.5-.2-.8-.5-1.1-.9-.3-.3-.4-.7-.5-1.2h1.7c0 .2.1.4.3.5 0 .2.3.3.5.4l.7.2c.3 0 .5 0 .7-.2.2 0 .3-.2.4-.3l.1-.4c0-.2 0-.4-.2-.5l-.5-.3a7 7 0 0 0-.8-.2l-1-.2-.8-.4-.6-.6c-.2-.2-.2-.5-.2-.9a2 2 0 0 1 1.2-1.8l1.5-.3a3 3 0 0 1 2 .5c.5.4.8 1 .9 1.6h-1.6c0-.2-.2-.4-.4-.6l-.9-.2c-.3 0-.6 0-.8.2-.2.1-.3.3-.3.5s0 .3.2.4c.1.2.3.3.5.3l.8.3c.5 0 1 .2 1.4.3l1 .6c.2.3.3.7.3 1.2l-.3 1.2-1 .8c-.5.2-1 .3-1.6.3Z" />
      <rect width="159.3" height="43" x="36.5" y="130.5" fill="url(#e)" rx="7.5" />
      <rect width="159.3" height="43" x="36.5" y="130.5" fill="#020420" fill-opacity=".6" rx="7.5" />
      <rect width="159.3" height="43" x="36.5" y="130.5" stroke="#334155" rx="7.5" />
      <path fill="#41B38A" d="m59.1 144-2 3.7L55 144h-7l9 15.5 9-15.5h-6.9Z" />
      <path fill="#243746" d="m59.1 144-2 3.7L55 144h-3.4l5.4 9.3 5.4-9.3h-3.3Z" />
      <path fill="#fff"
        d="m77 157-2.7-7h1.8l1.8 5.4 2-5.5h1.6L79 157h-2Zm9 .2c-.7 0-1.2-.1-1.8-.4a3 3 0 0 1-1.2-1c-.3-.5-.5-1-.5-1.8H84l.3.9c.1.2.3.5.6.6.3.2.6.2 1 .2.3 0 .6 0 .9-.2.3-.1.5-.3.6-.5l.2-.9-.3-.9-.7-.5-1-.2h-.8v-1.4h.7c.6 0 1 0 1.3-.3.3-.3.5-.6.5-1s-.1-.8-.4-1c-.2-.2-.6-.3-1-.3-.5 0-.9.1-1.2.4-.2.3-.4.6-.4 1h-1.7c0-.6.2-1 .5-1.5.3-.4.6-.8 1.1-1 .5-.3 1-.4 1.7-.4.6 0 1.2.1 1.7.4a2.5 2.5 0 0 1 1.1 3.2 2.2 2.2 0 0 1-1.4 1.2 2.3 2.3 0 0 1 2 2.4c0 .5-.2 1-.5 1.5-.2.4-.6.8-1 1-.6.3-1.2.5-2 .5Zm5.9-.1a1 1 0 0 1-.8-.3 1 1 0 0 1-.3-.7c0-.3 0-.6.3-.8l.8-.2c.3 0 .5 0 .7.2.2.2.3.5.3.8 0 .2-.1.5-.3.7a1 1 0 0 1-.7.3Zm2.3-.1v-1.2a50.6 50.6 0 0 0 3.4-3l1-1.4c.3-.5.5-1 .5-1.3l-.2-.8c-.1-.3-.3-.5-.5-.6-.2-.2-.5-.2-.9-.2-.3 0-.6 0-.9.2l-.5.6-.2 1h-1.6c0-.8.1-1.4.4-1.8.3-.5.7-.9 1.2-1.1.5-.2 1-.4 1.7-.4.6 0 1.2.2 1.7.4.4.2.8.6 1 1 .3.5.4 1 .4 1.6 0 .4 0 .8-.2 1.3l-.7 1.2a11 11 0 0 1-2 2.2l-1.2 1h4.4v1.3h-6.8Zm9 0a1 1 0 0 1-.7-.2 1 1 0 0 1-.3-.7c0-.3 0-.6.3-.8l.7-.2c.3 0 .6 0 .8.2.2.2.3.5.3.8 0 .2-.1.5-.3.7a1 1 0 0 1-.8.3Zm5.9.2c-.7 0-1.3-.1-1.8-.4a3 3 0 0 1-1.2-1c-.4-.5-.5-1-.5-1.8h1.6l.2.9c.2.2.4.5.7.6.2.2.6.2 1 .2.3 0 .6 0 .9-.2l.6-.5.2-.9-.3-.9-.7-.5-1-.2h-.8v-1.4h.7c.5 0 1 0 1.3-.3.3-.3.5-.6.5-1s-.2-.8-.4-1c-.3-.2-.6-.3-1-.3-.5 0-1 .1-1.2.4-.3.3-.4.6-.4 1h-1.7c0-.6.2-1 .5-1.5.2-.4.6-.8 1-1 .6-.3 1.1-.4 1.8-.4.6 0 1.2.1 1.6.4a2.5 2.5 0 0 1 1.2 3.2 2.2 2.2 0 0 1-1.4 1.2 2.3 2.3 0 0 1 2 2.4c0 .5-.2 1-.5 1.5-.2.4-.6.8-1.1 1-.5.3-1.1.5-1.8.5Zm5.7-.2 3.6-8.4h-4.9v-1.4h6.7v1.2l-3.7 8.6h-1.7Z" />
      <rect width="159.3" height="43" x="212.8" y="130.5" fill="url(#f)" rx="7.5" />
      <rect width="159.3" height="43" x="212.8" y="130.5" fill="#020420" fill-opacity=".6" rx="7.5" />
      <rect width="159.3" height="43" x="212.8" y="130.5" stroke="#334155" rx="7.5" />
      <path fill="#00DC82"
        d="M237.8 160h8.9l.8-.2.6-.6.2-.8c0-.3 0-.6-.2-.8l-6-10.3c-.1-.3-.3-.4-.6-.6a2 2 0 0 0-.8-.2c-.3 0-.6 0-.8.2-.3.2-.5.3-.6.6l-1.5 2.6-3-5.1-.6-.6c-.3-.2-.5-.2-.8-.2-.3 0-.6 0-.8.2-.3.1-.5.4-.7.6l-7.4 12.8-.2.8c0 .3 0 .6.2.8l.6.6.8.2h5.6c2.3 0 3.9-1 5-2.9l2.7-4.7 1.5-2.5 4.4 7.5h-5.9l-1.4 2.6Zm-6.3-2.6h-4l5.9-10 3 5-2 3.4c-.8 1.2-1.6 1.6-3 1.6Z" />
      <path fill="#fff"
        d="m259.2 157-2.6-7h1.8l1.8 5.4 1.9-5.5h1.7l-2.6 7.1h-2Zm9 .2c-.6 0-1.2-.1-1.7-.4a3 3 0 0 1-1.2-1c-.3-.5-.5-1-.5-1.8h1.6l.2.9c.2.2.4.5.7.6.2.2.6.2 1 .2.3 0 .6 0 .9-.2l.6-.5.2-.9-.3-.9-.7-.5-1-.2h-.8v-1.4h.7c.5 0 1 0 1.3-.3.3-.3.5-.6.5-1s-.2-.8-.4-1c-.2-.2-.6-.3-1-.3-.5 0-1 .1-1.2.4-.3.3-.4.6-.4 1H265c0-.6.2-1 .5-1.5.2-.4.6-.8 1-1 .6-.3 1.1-.4 1.8-.4.6 0 1.2.1 1.6.4a2.5 2.5 0 0 1 1.2 3.2 2.2 2.2 0 0 1-1.4 1.2 2.3 2.3 0 0 1 2 2.4c0 .5-.2 1-.5 1.5-.2.4-.6.8-1.1 1-.5.3-1.1.5-1.8.5Zm6-.1a1 1 0 0 1-.8-.3 1 1 0 0 1-.3-.7c0-.3 0-.6.3-.8l.7-.2c.3 0 .6 0 .8.2.2.2.3.5.3.8 0 .2-.1.5-.3.7a1 1 0 0 1-.8.3Zm5.4 0c-.6 0-1.2 0-1.7-.3a3 3 0 0 1-1.5-2.4h1.5c.1.4.3.8.6 1 .3.3.7.4 1.1.4.5 0 .9-.2 1.2-.4.3-.3.5-.7.7-1.2a6 6 0 0 0 .3-2c0 .2-.3.4-.5.6l-1 .5a3.3 3.3 0 0 1-2.6-.2 3 3 0 0 1-1.5-2.8 3.3 3.3 0 0 1 1.6-2.8c.5-.3 1.1-.5 1.8-.5s1.3.2 1.8.4c.5.3 1 .7 1.2 1.1l.7 1.5.2 1.8c0 1-.2 2-.5 2.8-.3.8-.7 1.4-1.3 1.9-.6.4-1.3.7-2 .7Zm.1-5c.4 0 .7 0 1-.2.2-.2.5-.4.6-.7.2-.3.3-.6.3-1a1.7 1.7 0 0 0-1-1.5 2 2 0 0 0-1-.2 1.9 1.9 0 0 0-1.6.9l-.2.9c0 .3 0 .7.3 1l.6.6 1 .2Zm5.8 5a1 1 0 0 1-.8-.3 1 1 0 0 1-.3-.7c0-.3 0-.6.3-.8l.8-.2c.3 0 .5 0 .7.2.2.2.3.5.3.8 0 .2-.1.5-.3.7a1 1 0 0 1-.7.3Zm5.8 0c-.7 0-1.2 0-1.8-.3a3 3 0 0 1-1.2-1c-.3-.5-.5-1-.5-1.8h1.6l.3.9c.1.2.3.5.6.6.3.2.6.2 1 .2.3 0 .6 0 .9-.2.3-.1.4-.3.6-.5l.2-.9-.3-.9-.7-.5-1-.2h-.8v-1.4h.7c.5 0 1 0 1.3-.3.3-.3.5-.6.5-1s-.1-.8-.4-1c-.2-.2-.6-.3-1-.3-.5 0-.9.1-1.2.4-.3.3-.4.6-.4 1H288c0-.6.2-1 .5-1.5.2-.4.6-.8 1.1-1 .5-.3 1-.4 1.7-.4.6 0 1.2.1 1.6.4a2.5 2.5 0 0 1 1.2 3.2 2.2 2.2 0 0 1-1.4 1.2 2.3 2.3 0 0 1 2 2.4c0 .5-.2 1-.5 1.5-.2.4-.6.8-1.1 1-.5.3-1.1.5-1.8.5Z" />
      <rect width="159.3" height="43" x="389.2" y="130.5" fill="url(#g)" rx="7.5" />
      <rect width="159.3" height="43" x="389.2" y="130.5" fill="#020420" fill-opacity=".6" rx="7.5" />
      <rect width="159.3" height="43" x="389.2" y="130.5" stroke="#334155" rx="7.5" />
      <g clip-path="url(#h)">
        <path fill="#06B6D4"
          d="M410.7 146c-2.7 0-4.4 1.3-5 4 1-1.3 2.1-1.8 3.5-1.5.7.2 1.3.7 1.9 1.4 1 1 2 2.1 4.6 2.1 2.6 0 4.3-1.3 5-4-1 1.3-2.2 1.8-3.5 1.5-.8-.2-1.3-.7-2-1.4-1-1-2-2.1-4.5-2.1Zm-5 6c-2.7 0-4.4 1.3-5 4 1-1.3 2.1-1.8 3.5-1.5.7.2 1.3.7 1.9 1.4 1 1 2 2.1 4.6 2.1 2.6 0 4.3-1.3 5-4-1 1.3-2.2 1.8-3.5 1.5-.8-.2-1.3-.7-2-1.4-1-1-2-2.1-4.5-2.1Z" />
      </g>
      <path fill="#fff"
        d="M432 157v-8.4h-3v-1.4h7.5v1.4h-2.9v8.4H432Zm7 .2c-.6 0-1-.1-1.4-.3a2 2 0 0 1-1.2-1.9c0-.4.1-.8.4-1.1.2-.4.5-.6 1-.8.4-.2 1-.3 1.6-.3h1.8l-.1-.9a1 1 0 0 0-.5-.6l-.8-.1c-.4 0-.7 0-1 .2-.3.2-.5.5-.5.8h-1.7c0-.5.3-1 .5-1.3l1.1-.8c.5-.2 1-.3 1.6-.3.6 0 1.2 0 1.7.3.4.3.8.6 1 1 .3.4.4 1 .4 1.5v4.4h-1.4l-.2-1.1c0 .2-.2.3-.4.5l-.4.4-.7.3a3 3 0 0 1-.8 0Zm.4-1.4.7-.1.5-.4.4-.6.2-.8h-1.6l-.8.1c-.2.1-.4.2-.4.4l-.2.5c0 .2 0 .4.2.5 0 .1.2.3.4.3l.6.1Zm5.4 1.2v-7h1.6v7h-1.6Zm.8-8.2c-.3 0-.6 0-.8-.3a1 1 0 0 1-.3-.7c0-.3.1-.5.3-.7.2-.2.5-.3.8-.3.3 0 .6.1.8.3.2.2.3.4.3.7 0 .3-.1.5-.3.7a1 1 0 0 1-.8.3Zm2.8 8.2v-10h1.7v10h-1.7Zm5 0-2.1-7h1.6l1.5 5.7h-.3l1.6-5.8h1.9l1.6 5.8h-.3l1.4-5.8h1.7l-2 7.1h-1.8l-1.7-6h.3l-1.7 6h-1.8Zm9.9 0v-7h1.6v7h-1.6Zm.8-8.2c-.3 0-.6 0-.8-.3a1 1 0 0 1-.3-.7c0-.3.1-.5.3-.7.2-.2.5-.3.8-.3.3 0 .6.1.7.3.3.2.4.4.4.7 0 .3-.1.5-.4.7a1 1 0 0 1-.7.3Zm2.8 8.2v-7h1.5v1.1l1-1c.4-.2.9-.3 1.4-.3.6 0 1 .1 1.5.3l1 1c.1.5.3 1.1.3 1.8v4.1h-1.7v-4c0-.6-.2-1-.4-1.3a1.8 1.8 0 0 0-2-.2c-.4.1-.6.3-.7.6-.2.3-.2.7-.2 1.1v3.8h-1.7Zm11.6.2a3.3 3.3 0 0 1-3-1.8c-.3-.6-.4-1.2-.4-2 0-.6.1-1.3.4-1.8a3.3 3.3 0 0 1 4.4-1.5l1 .8v-4h1.6V157H481l-.2-1-.5.6-.8.4a3 3 0 0 1-1 .2Zm.3-1.5c.4 0 .8 0 1-.3.4-.2.6-.4.8-.8.2-.3.2-.7.2-1.1 0-.5 0-.9-.2-1.2l-.7-.8a2 2 0 0 0-1-.3 2 2 0 0 0-1.9 1.1l-.2 1.2c0 .4 0 .8.2 1.1.2.4.5.6.8.8.3.2.6.3 1 .3Zm9 1.5c-.8 0-1.4-.2-2-.5-.5-.3-1-.7-1.2-1.3a4 4 0 0 1-.5-1.9c0-.7.2-1.4.5-2 .3-.5.7-1 1.3-1.2.5-.4 1.1-.5 1.8-.5 1 0 1.6.2 2.2.7.6.4 1 1 1.2 1.9h-1.8c0-.4-.3-.7-.6-.9-.2-.2-.6-.3-1-.3a1.9 1.9 0 0 0-1.6 1 3 3 0 0 0-.1 2.2c0 .3.2.6.4.8l.6.4.7.1h.7l.6-.5.3-.6h1.8a3.2 3.2 0 0 1-3.4 2.6Zm7.7 0c-.6 0-1.1-.1-1.6-.3-.5-.2-.8-.5-1.1-.9-.3-.3-.4-.7-.5-1.2h1.7c0 .2.1.4.3.5 0 .2.3.3.5.4l.7.2c.3 0 .5 0 .7-.2.2 0 .3-.2.4-.3l.1-.4c0-.2 0-.4-.2-.5l-.5-.3a7 7 0 0 0-.8-.2l-1-.2-.8-.4-.6-.6c-.2-.2-.2-.5-.2-.9a2 2 0 0 1 1.2-1.8l1.5-.3a3 3 0 0 1 2 .5c.5.4.8 1 .9 1.6h-1.6c0-.2-.2-.4-.4-.6l-.9-.2c-.3 0-.6 0-.8.2-.2.1-.3.3-.3.5s0 .3.2.4c.1.2.3.3.5.3l.8.3c.5 0 1 .2 1.4.3l1 .6c.2.3.3.7.3 1.2 0 .4 0 .8-.3 1.2l-1 .8c-.5.2-1 .3-1.6.3Zm7.4 0c-.7 0-1.2-.1-1.7-.3-.4-.2-.8-.5-1-.9-.3-.3-.5-.7-.5-1.2h1.6c0 .2.2.4.3.5l.5.4.7.2c.3 0 .6 0 .7-.2.2 0 .3-.2.4-.3l.1-.4-.1-.5-.6-.3a7 7 0 0 0-.8-.2l-1-.2-.8-.4-.6-.6-.2-.9a2 2 0 0 1 1.3-1.8c.4-.2.9-.3 1.5-.3a3 3 0 0 1 2 .5c.4.4.7 1 .8 1.6h-1.6c0-.2-.2-.4-.4-.6l-.8-.2c-.4 0-.7 0-.9.2-.2.1-.3.3-.3.5l.2.4c.1.2.3.3.5.3l.9.3c.5 0 1 .2 1.3.3l1 .6c.2.3.3.7.3 1.2 0 .4 0 .8-.3 1.2-.2.3-.6.6-1 .8-.4.2-1 .3-1.5.3Z" />
      <rect width="159.3" height="43" x="36.5" y="190.5" fill="url(#i)" rx="7.5" />
      <rect width="159.3" height="43" x="36.5" y="190.5" fill="#020420" fill-opacity=".6" rx="7.5" />
      <rect width="159.3" height="43" x="36.5" y="190.5" stroke="#334155" rx="7.5" />
      <path fill="#fff"
        d="M52.3 217.2c-.7 0-1.4-.2-2-.4a3 3 0 0 1-1.2-1 3 3 0 0 1-.5-1.8h1.8c0 .4 0 .7.2 1l.7.5c.3.2.6.3 1 .3l.9-.2.5-.5c.2-.2.2-.4.2-.7 0-.3 0-.5-.2-.7-.1-.2-.3-.4-.6-.5l-.8-.4-1-.4c-.9-.2-1.4-.6-1.8-1-.4-.4-.6-1-.6-1.6 0-.6.1-1 .4-1.5.3-.4.6-.7 1.1-1a4 4 0 0 1 1.7-.3 4 4 0 0 1 1.7.4c.5.2 1 .5 1.2 1 .3.4.4.9.4 1.4h-1.7a1.4 1.4 0 0 0-.8-1.1c-.2-.2-.5-.3-.8-.3-.3 0-.5 0-.8.2-.2 0-.3.2-.5.4l-.2.7.2.6.5.5c.3 0 .5.2.8.3a314.6 314.6 0 0 0 2.3 1c.4.1.7.4 1 .8.2.4.3.8.3 1.4a2.7 2.7 0 0 1-1.5 2.5 4 4 0 0 1-2 .4Zm8.3 0c-.7 0-1.3-.2-1.9-.4a3 3 0 0 1-1.2-1 3 3 0 0 1-.5-1.8h1.8c0 .4 0 .7.2 1l.6.5c.3.2.6.3 1 .3l1-.2.5-.5.2-.7c0-.3 0-.5-.2-.7l-.6-.5-.9-.4-1-.4c-.8-.2-1.4-.6-1.8-1-.4-.4-.6-1-.6-1.6 0-.6.2-1 .4-1.5.3-.4.7-.7 1.2-1a4 4 0 0 1 1.7-.3 4 4 0 0 1 1.7.4c.5.2.9.5 1.2 1 .2.4.4.9.4 1.4H62a1.4 1.4 0 0 0-.7-1.1c-.2-.2-.5-.3-.8-.3-.3 0-.6 0-.8.2-.2 0-.4.2-.5.4l-.2.7c0 .2 0 .5.2.6 0 .2.3.3.5.5l.8.3a314.6 314.6 0 0 0 2.3 1c.4.1.7.4 1 .8.2.4.3.8.3 1.4a2.7 2.7 0 0 1-1.6 2.5 4 4 0 0 1-1.9.4Zm5.1-.2v-9.8h3.5a4 4 0 0 1 2 .4c.4.3.8.6 1 1 .3.5.4 1 .4 1.6 0 .5 0 1-.3 1.4-.3.5-.6.8-1.2 1.1-.5.3-1.1.4-2 .4h-1.7v3.9h-1.7Zm5.1 0-2-4.3h1.8l2.1 4.3h-1.9Zm-3.4-5.1H69c.6 0 1-.2 1.4-.5.3-.3.4-.7.4-1.2s-.1-.9-.4-1.2c-.3-.3-.8-.4-1.4-.4h-1.7v3.3Z" />
      <rect width="159.3" height="43" x="212.8" y="190.5" fill="url(#j)" rx="7.5" />
      <rect width="159.3" height="43" x="212.8" y="190.5" fill="#020420" fill-opacity=".6" rx="7.5" />
      <rect width="159.3" height="43" x="212.8" y="190.5" stroke="#334155" rx="7.5" />
      <path fill="#fff"
        d="M232 217.2c-.7 0-1.3-.2-1.9-.4a3 3 0 0 1-1.2-1 3 3 0 0 1-.5-1.8h1.8c0 .4 0 .7.2 1l.6.5c.3.2.6.3 1 .3l.9-.2c.3-.1.4-.3.6-.5l.2-.7c0-.3 0-.5-.2-.7l-.6-.5-.9-.4-1-.4c-.8-.2-1.4-.6-1.8-1-.4-.4-.6-1-.6-1.6 0-.6.2-1 .4-1.5.3-.4.7-.7 1.2-1a4 4 0 0 1 1.7-.3c.6 0 1.2.1 1.7.4.5.2.9.5 1.2 1 .2.4.4.9.4 1.4h-1.8a1.4 1.4 0 0 0-.7-1.1c-.2-.2-.5-.3-.8-.3-.3 0-.6 0-.8.2-.2 0-.4.2-.5.4l-.2.7c0 .2 0 .5.2.6 0 .2.3.3.5.5l.8.3a440.5 440.5 0 0 0 2.3 1c.4.1.7.4 1 .8.1.4.3.8.3 1.4a2.7 2.7 0 0 1-1.6 2.5 4 4 0 0 1-1.9.4Zm8.1-.2c-.5 0-.9 0-1.2-.2-.4-.2-.7-.4-.8-.8-.2-.3-.3-.8-.3-1.4v-3.2h-1.2v-1.5h1.2l.2-1.8h1.4v1.8h2v1.5h-2v3.2c0 .4.1.6.3.8l.7.2h1v1.4H240Zm5.2.2c-.6 0-1-.1-1.5-.3a2 2 0 0 1-1-1.9c0-.4 0-.8.2-1.1.3-.4.6-.6 1-.8.5-.2 1-.3 1.7-.3h1.8c0-.3 0-.7-.2-.9a1 1 0 0 0-.4-.6l-.9-.1c-.3 0-.7 0-1 .2-.2.2-.4.5-.4.8h-1.7c0-.5.2-1 .5-1.3l1.1-.8 1.5-.3c.7 0 1.3 0 1.7.3.5.3.9.6 1.1 1 .3.4.4 1 .4 1.5v4.4h-1.4l-.2-1.1-.4.5-.5.4-.6.3a3 3 0 0 1-.8 0Zm.4-1.4.7-.1.5-.4.4-.6.2-.8h-1.6l-.8.1-.5.4-.1.5.1.5.4.3.7.1Zm8.2 1.2c-.4 0-.9 0-1.2-.2-.4-.2-.6-.4-.8-.8-.2-.3-.3-.8-.3-1.4v-3.2h-1.2v-1.5h1.2l.2-1.8h1.5v1.8h1.9v1.5h-2v3.2c0 .4.1.6.3.8l.8.2h.8v1.4H254Zm3 0v-7h1.6v7h-1.7Zm.8-8.2c-.3 0-.6 0-.8-.3a1 1 0 0 1-.3-.7c0-.3.1-.5.3-.7.2-.2.5-.3.8-.3.3 0 .5.1.7.3.2.2.3.4.3.7 0 .3 0 .5-.3.7a1 1 0 0 1-.7.3Zm6.1 8.4c-.7 0-1.3-.2-1.9-.5-.5-.3-1-.7-1.2-1.3a4 4 0 0 1-.5-1.9c0-.7.2-1.4.5-2 .3-.5.7-1 1.2-1.2.6-.4 1.2-.5 2-.5s1.5.2 2.1.7c.6.4 1 1 1.2 1.9h-1.8c0-.4-.3-.7-.6-.9-.3-.2-.6-.3-1-.3s-.7.1-1 .3c-.3.2-.5.4-.6.8-.2.3-.3.7-.3 1.2 0 .3 0 .7.2 1l.4.7.6.4.7.1h.7l.6-.5.3-.6h1.8c-.2.8-.6 1.4-1.2 1.9-.6.4-1.3.7-2.2.7ZM37 273v-9.8h3.5c.8 0 1.5.1 2 .4.5.3.9.6 1.1 1 .3.5.4 1 .4 1.6 0 .6-.1 1-.4 1.5-.2.5-.6.8-1.1 1.1-.5.3-1.2.4-2 .4h-1.8v3.8H37Zm1.7-5.2h1.7c.7 0 1.2-.1 1.5-.4.2-.3.4-.7.4-1.2s-.2-.9-.4-1.2c-.3-.3-.8-.4-1.5-.4h-1.7v3.2Zm6.7 5.2v-10H47v10h-1.7Zm6.2.2a3 3 0 0 1-1.5-.4c-.4-.2-.7-.5-1-1-.1-.5-.3-1-.3-1.7v-4.2h1.7v4c0 .6.1 1 .4 1.4.3.3.7.5 1.2.5l.9-.3c.2-.1.5-.4.6-.7.2-.3.2-.7.2-1v-3.9h1.7v7.1H54v-1.2c-.3.4-.6.8-1 1-.4.2-.9.4-1.4.4Zm8.8 3c-.7 0-1.3 0-1.8-.2s-.9-.4-1.2-.7c-.2-.4-.4-.8-.4-1.3 0-.3.1-.6.3-.8.1-.3.3-.6.6-.8l1.1-.6.8.8a2 2 0 0 0-1 .6l-.2.7c0 .2 0 .4.2.6l.6.3a3 3 0 0 0 1.8 0l.6-.3.2-.6c0-.3-.1-.5-.3-.7-.2-.2-.6-.3-1.2-.3a13.6 13.6 0 0 1-2.3-.4l-.6-.3-.5-.4v-.3l1.5-1.6 1.2.5-1.6 1.6.4-.8.3.1.4.2a7.7 7.7 0 0 0 1.6.2c.6 0 1.1.2 1.5.3.4.2.7.5.9.8l.2 1c0 .5 0 .8-.3 1.2-.2.4-.6.7-1 .9a4 4 0 0 1-1.8.3Zm0-5.3c-.6 0-1.1-.1-1.6-.3a2.5 2.5 0 0 1-1.3-2.3c0-.4.1-.9.4-1.3.2-.3.5-.6 1-.9.4-.2.9-.3 1.5-.3.5 0 1 0 1.5.3a2.5 2.5 0 0 1 1.3 2.2c0 .5-.1 1-.4 1.3-.2.4-.5.7-1 1-.3.2-.9.3-1.4.3Zm0-1.3c.4 0 .7-.1 1-.3.2-.3.3-.6.3-1s-.1-.7-.4-.9c-.2-.2-.5-.3-1-.3-.3 0-.7.1-1 .3-.2.2-.3.5-.3 1 0 .3.1.6.4.9.2.2.6.3 1 .3Zm1.1-2.4-.3-1.3h2.9v1l-2.6.3Zm4.2 5.8v-7h1.6v7h-1.6Zm.8-8.2c-.3 0-.6 0-.8-.3a1 1 0 0 1-.3-.7c0-.3.1-.5.3-.7.2-.2.5-.3.8-.3.3 0 .6.1.7.3.3.2.4.4.4.7 0 .3-.1.5-.4.7a1 1 0 0 1-.7.3Zm2.8 8.2v-7h1.5v1.1l1-1c.4-.2.9-.3 1.4-.3.6 0 1 .1 1.5.3l1 1c.1.5.3 1.1.3 1.8v4.1h-1.7v-4c0-.6-.2-1-.4-1.3a1.8 1.8 0 0 0-2-.2c-.4.1-.6.3-.7.6-.2.3-.2.7-.2 1.1v3.8h-1.7Zm11.2.2c-.6 0-1.1-.1-1.6-.3-.5-.2-.8-.5-1-.9-.4-.3-.5-.7-.6-1.2H79c0 .2.2.4.3.5l.5.4.7.2c.3 0 .5 0 .7-.2.2 0 .3-.2.4-.3l.1-.4c0-.2 0-.4-.2-.5l-.5-.3a7 7 0 0 0-.8-.2l-1-.2-.8-.4-.6-.6-.2-.9a2 2 0 0 1 1.3-1.8c.4-.2.9-.3 1.5-.3a3 3 0 0 1 2 .6c.4.3.7.9.8 1.5h-1.6c0-.2-.2-.4-.4-.6l-.9-.2c-.3 0-.6 0-.8.2-.2.1-.3.3-.3.5s0 .3.2.4c.1.2.3.3.5.3l.8.3c.6 0 1 .2 1.4.3l1 .6c.2.3.3.7.3 1.2 0 .4 0 .8-.3 1.2l-1 .8c-.5.2-1 .3-1.6.3Z" />
      <path fill="#0F172A"
        d="M36.5 296c0-3 2.5-5.5 5.5-5.5h77c3 0 5.5 2.5 5.5 5.5v16c0 3-2.5 5.5-5.5 5.5H42c-3 0-5.5-2.5-5.5-5.5v-16Z" />
      <path stroke="#334155"
        d="M36.5 296c0-3 2.5-5.5 5.5-5.5h77c3 0 5.5 2.5 5.5 5.5v16c0 3-2.5 5.5-5.5 5.5H42c-3 0-5.5-2.5-5.5-5.5v-16Z" />
      <path fill="#fff"
        d="m47 309-2.7-7h1.5l2 5.7 2-5.8h1.4l-2.6 7.1H47Zm8 .2a3 3 0 0 1-1.4-.4c-.4-.2-.7-.5-.9-1a4 4 0 0 1-.3-1.7V302h1.4v4c0 .7.1 1.2.4 1.6.3.3.7.5 1.3.5a1.8 1.8 0 0 0 1.6-1c.2-.4.3-.8.3-1.3V302h1.4v7.1h-1.2l-.1-1.2c-.3.4-.6.8-1 1-.4.2-.9.4-1.4.4Zm9 0c-.8 0-1.4-.2-1.9-.5s-1-.7-1.2-1.3a4 4 0 0 1-.5-1.9c0-.7.2-1.4.5-2 .3-.5.7-1 1.2-1.2.5-.4 1.1-.5 1.8-.5s1.3.1 1.8.4a3.5 3.5 0 0 1 1.5 3.2v.4h-5.7v-1h4.4c0-.6-.3-1-.6-1.4a2 2 0 0 0-1.4-.5c-.4 0-.7.1-1 .3a2 2 0 0 0-.8.8c-.2.3-.3.7-.3 1.2v.4c0 .5.1 1 .3 1.3.2.4.5.7.8.8.3.2.6.3 1 .3a2 2 0 0 0 1.1-.3c.3-.2.5-.4.7-.8H67l-.7 1.2c-.2.3-.6.6-1 .8l-1.5.3Zm5-3.7v-1.2h5.6v1.2h-5.7Zm7.5 3.5v-7h1.3l.1 1.3.6-.8 1-.5c.3-.2.7-.2 1.1-.2v1.5h-.5a3 3 0 0 0-.8 0l-.7.4-.5.7a3 3 0 0 0-.2 1v3.6h-1.4Zm8.4.2c-.7 0-1.3-.2-1.8-.5s-1-.7-1.2-1.3a4 4 0 0 1-.5-2c0-.7.2-1.3.5-1.9.3-.5.7-1 1.2-1.3.6-.3 1.2-.4 1.8-.4.7 0 1.3.1 1.8.4.6.3 1 .8 1.3 1.3.3.6.4 1.2.4 2a4 4 0 0 1-.4 2c-.3.5-.8.9-1.3 1.2-.5.3-1.1.5-1.8.5Zm0-1.2a2 2 0 0 0 1.8-1.1c.2-.4.3-.9.3-1.4 0-.6-.1-1-.3-1.4A2 2 0 0 0 85 303a2 2 0 0 0-1.8 1.1 3 3 0 0 0-.2 1.4c0 .5 0 1 .2 1.4l.8.8c.3.2.6.3 1 .3Zm7.8 1.2a3 3 0 0 1-1.5-.4c-.4-.2-.7-.5-1-1a4 4 0 0 1-.2-1.7V302h1.4v4c0 .7.1 1.2.4 1.6.3.3.7.5 1.2.5a1.8 1.8 0 0 0 1.7-1c.2-.4.3-.8.3-1.3V302h1.4v7.1H95v-1.2c-.3.4-.6.8-1 1-.4.2-.9.4-1.4.4Zm8.5-.2a3 3 0 0 1-1.2-.2l-.7-.7c-.2-.3-.3-.8-.3-1.3V303h-1.2V302H99l.2-1.7h1.2v1.7h2v1.2h-2v3.7c0 .4.1.7.3.8l.8.2h.8v1.2h-1.1Zm5.8.2c-.7 0-1.3-.2-1.8-.5-.6-.3-1-.7-1.3-1.3a4 4 0 0 1-.4-1.9c0-.7.1-1.4.4-2 .3-.5.7-1 1.3-1.2.5-.4 1.1-.5 1.8-.5s1.3.1 1.8.4c.5.3.8.8 1.1 1.3a3.5 3.5 0 0 1 .4 2v.3h-5.8v-1h4.4c0-.6-.2-1-.6-1.4a2 2 0 0 0-1.3-.5c-.4 0-.8.1-1 .3a2 2 0 0 0-.8.8c-.2.3-.3.7-.3 1.2v.4c0 .5 0 1 .3 1.3.1.4.4.7.7.8.3.2.7.3 1 .3a2 2 0 0 0 1.2-.3c.3-.2.5-.4.6-.8h1.4a3 3 0 0 1-.6 1.2 3 3 0 0 1-1 .8l-1.5.3Zm4.9-.2v-7h1.2l.2 1.3c.1-.3.3-.6.6-.8.2-.2.5-.4.9-.5.3-.2.7-.2 1.1-.2v1.5h-.5a3 3 0 0 0-.8 0l-.7.4-.5.7a3 3 0 0 0-.1 1v3.6h-1.4ZM37 357v-9.8h1.7l4.7 7v-7H45v9.8h-1.7l-4.7-7v7H37Zm12.6.2a3 3 0 0 1-1.5-.4c-.4-.2-.7-.5-.9-1-.2-.5-.3-1-.3-1.7v-4.2h1.7v4c0 .6 0 1 .3 1.4.3.3.7.5 1.2.5.4 0 .7-.1 1-.3.2-.1.4-.4.5-.7.2-.3.3-.7.3-1v-3.9h1.7v7.1H52l-.1-1.2c-.3.4-.6.8-1 1-.4.2-.9.4-1.4.4Zm5.2-.2 2.5-3.5-2.5-3.6h1.8l1.7 2.6 1.8-2.6H62l-2.5 3.6L62 357h-1.8l-1.8-2.6-1.7 2.6h-1.8Zm11.4 0c-.5 0-1 0-1.3-.2-.3-.2-.6-.4-.8-.8-.2-.3-.3-.8-.3-1.4v-3.2h-1.2v-1.5h1.2l.2-1.8h1.5v1.8h2v1.5h-2v3.2c0 .4 0 .6.2.8l.8.2h.9v1.4h-1.2Zm6.3 0v-9.8h2l3.1 6.3 3.1-6.3h2v9.8H81v-7l-2.7 5.6H77l-2.8-5.5v6.9h-1.7Zm15.4.2c-.6 0-1.2-.2-1.8-.5-.5-.3-1-.7-1.2-1.3a4 4 0 0 1-.5-2c0-.7.2-1.3.5-1.8.3-.6.7-1 1.2-1.3.6-.4 1.2-.5 1.9-.5a3.5 3.5 0 0 1 3 1.7c.3.6.5 1.2.5 2 0 .7-.2 1.4-.5 1.9a3.4 3.4 0 0 1-3 1.8Zm0-1.5c.4 0 .7 0 1-.2.2-.2.5-.4.6-.8.2-.3.3-.7.3-1.2s-.1-1-.3-1.3a1.7 1.7 0 0 0-1.5-1 1.7 1.7 0 0 0-1.6 1c-.2.4-.3.8-.3 1.3s.1.9.3 1.2c.1.4.4.6.6.8l1 .2Zm8.4 1.5a3.3 3.3 0 0 1-3-1.8c-.3-.6-.4-1.2-.4-2 0-.6.1-1.3.4-1.8a3.3 3.3 0 0 1 3-1.8c.5 0 1 0 1.4.3l1 .8v-4h1.6V357h-1.5l-.2-1-.5.6a2.7 2.7 0 0 1-1.8.6Zm.3-1.5c.4 0 .8 0 1-.3.4-.2.6-.4.8-.8.2-.3.2-.7.2-1.1 0-.5 0-.9-.2-1.2l-.7-.8a2 2 0 0 0-1-.3 2 2 0 0 0-1.8 1.1c-.2.3-.3.7-.3 1.2 0 .4 0 .8.3 1.1.1.4.4.6.7.8.3.2.6.3 1 .3Zm8.2 1.5a3 3 0 0 1-1.5-.4c-.4-.2-.7-.5-.9-1-.2-.5-.3-1-.3-1.7v-4.2h1.7v4c0 .6 0 1 .3 1.4.3.3.7.5 1.2.5.4 0 .7-.1 1-.3.2-.1.4-.4.5-.7.2-.3.3-.7.3-1v-3.9h1.7v7.1h-1.5l-.1-1.2c-.3.4-.6.8-1 1-.4.2-.9.4-1.4.4Zm5.8-.2v-10h1.7v10h-1.7Zm6.9.2c-.7 0-1.3-.2-1.9-.5-.5-.3-1-.7-1.2-1.3a4 4 0 0 1-.5-1.9c0-.7.2-1.4.5-2a3.3 3.3 0 0 1 3.1-1.7c.7 0 1.3.1 1.8.4.5.3 1 .8 1.2 1.3.3.5.4 1 .4 1.7v.7H115v-1.1h4.1c0-.5-.2-1-.5-1.2-.3-.3-.7-.5-1.2-.5a2 2 0 0 0-1 .3c-.3.1-.5.4-.7.7l-.2 1.2v.4c0 .4 0 .8.2 1.1.2.3.4.6.7.7.3.2.6.3 1 .3s.7-.1 1-.3l.5-.6h1.7c-.1.4-.3.8-.6 1.1a3.3 3.3 0 0 1-2.6 1.2Zm7.8 0c-.6 0-1.2-.1-1.7-.3-.4-.2-.8-.5-1-.9-.3-.3-.5-.7-.5-1.2h1.7l.2.5.5.4.8.2c.2 0 .5 0 .7-.2l.3-.3.2-.4c0-.2 0-.4-.2-.5l-.5-.3a7 7 0 0 0-.9-.2l-1-.2-.8-.4-.6-.6-.2-.9c0-.4.1-.7.4-1 .2-.4.5-.6.9-.8.4-.2 1-.3 1.5-.3a3 3 0 0 1 2 .6c.5.3.7.9.8 1.5h-1.6c0-.2-.1-.4-.4-.6l-.8-.2c-.4 0-.7 0-.9.2l-.2.5.1.4c.2.2.3.3.6.3l.8.3c.5 0 1 .2 1.4.3l1 .6c.2.3.3.7.3 1.2 0 .4-.1.8-.4 1.2-.2.3-.5.6-1 .8-.4.2-1 .3-1.5.3Z" />
      <path fill="#0F172A"
        d="M36.5 380c0-3 2.5-5.5 5.5-5.5h105c3 0 5.5 2.5 5.5 5.5v16c0 3-2.5 5.5-5.5 5.5H42c-3 0-5.5-2.5-5.5-5.5v-16Z" />
      <path stroke="#334155"
        d="M36.5 380c0-3 2.5-5.5 5.5-5.5h105c3 0 5.5 2.5 5.5 5.5v16c0 3-2.5 5.5-5.5 5.5H42c-3 0-5.5-2.5-5.5-5.5v-16Z" />
      <path fill="#fff"
        d="M50 395.9c-1 0-1.8-.2-2.5-.6-.8-.4-1.4-1-1.8-1.7a5 5 0 0 1-.6-2.6c0-1 .1-1.9.5-2.7a6.8 6.8 0 0 1 3.6-3.8 7.2 7.2 0 0 1 5.6 0c.7.5 1.3 1 1.7 1.8.5.7.7 1.5.7 2.4 0 .6 0 1.1-.2 1.6a5 5 0 0 1-.6 1.4c-.3.4-.6.8-1 1-.3.3-.8.4-1.3.4s-1-.2-1.2-.5c-.3-.4-.4-.9-.3-1.4v-.5l.3.5a3 3 0 0 1-2.8 1.9c-.7 0-1.2-.2-1.6-.7-.4-.4-.6-1-.6-1.7a4.5 4.5 0 0 1 1-2.7c.2-.4.6-.7 1-.9.4-.2.8-.3 1.3-.3.6 0 1 .1 1.4.4.3.3.5.7.5 1.3l-.3.2.4-1.8h1.1l-.7 4v.9c.2.2.4.3.7.3.3 0 .6 0 .8-.3.2-.2.4-.4.5-.8l.4-1v-1.2c0-.8 0-1.5-.4-2-.4-.6-.9-1-1.5-1.4a5.7 5.7 0 0 0-4.5 0 5.5 5.5 0 0 0-3 3.2c-.3.7-.4 1.5-.4 2.3 0 .9.1 1.6.5 2.2.3.6.8 1 1.4 1.3a5 5 0 0 0 2.2.5 6 6 0 0 0 2.4-.5l.2 1-1.4.3-1.4.2Zm.6-3.9c.3 0 .7 0 1-.3.3-.2.5-.4.7-.8.2-.4.4-.8.4-1.2v-1c-.2-.2-.3-.5-.6-.6-.2-.2-.5-.3-.8-.3l-.9.3-.7.6a3.2 3.2 0 0 0-.5 1.8c0 .4.1.8.3 1.1.3.3.6.4 1 .4Zm8.6 1v-7h1.3v1.1l1-1c.4-.2.9-.3 1.4-.3.6 0 1 0 1.5.3.4.2.7.6.9 1 .2.5.3 1 .3 1.7v4.2h-1.4v-4c0-.7-.1-1.2-.4-1.5-.3-.4-.7-.5-1.3-.5a1.8 1.8 0 0 0-1.6 1c-.2.3-.3.7-.3 1.2v3.8h-1.4Zm10.8.2a3 3 0 0 1-1.4-.4c-.4-.2-.8-.5-1-1a4 4 0 0 1-.3-1.7V386h1.4v4c0 .7.1 1.2.4 1.6.3.3.7.5 1.3.5a1.8 1.8 0 0 0 1.7-1l.2-1.3V386h1.4v7.1h-1.2l-.1-1.2a2.8 2.8 0 0 1-2.4 1.4Zm5-.2 2.4-3.5-2.4-3.6h1.5l1.8 2.8 1.9-2.8h1.5l-2.5 3.6 2.5 3.5h-1.5l-1.9-2.8-1.8 2.8H75Zm10.8 0a3 3 0 0 1-1.1-.2c-.4-.2-.6-.4-.8-.7-.2-.3-.3-.8-.3-1.3V387h-1.2V386h1.2l.2-1.7H85v1.7h2v1.2h-2v3.7c0 .4.1.7.3.8.2.1.4.2.9.2h.8v1.2h-1.2Zm2.2 1.4 3.5-12.2H93l-3.5 12.2H88Zm8.8-1.2c-.7 0-1.3-.2-1.8-.5s-1-.7-1.3-1.3a4 4 0 0 1-.4-2 3.3 3.3 0 0 1 1.7-3.2c.5-.3 1.1-.4 1.8-.4.9 0 1.6.2 2.2.6.6.5 1 1.1 1 1.9h-1.4c0-.4-.3-.8-.6-1a2 2 0 0 0-1.2-.3A2 2 0 0 0 95 388a3 3 0 0 0-.3 1.4c0 .4 0 .7.2 1l.4.8.7.5.8.2c.3 0 .6 0 .8-.2.3 0 .5-.2.7-.4.1-.2.3-.4.3-.7h1.5a3 3 0 0 1-1.1 1.8c-.6.4-1.3.7-2.2.7Zm8.1 0c-.6 0-1.2-.2-1.8-.5-.5-.3-.9-.7-1.2-1.3a4 4 0 0 1-.4-2c0-.7.1-1.3.4-1.9a3.5 3.5 0 0 1 3-1.8c.7 0 1.3.2 1.9.5.5.3.9.8 1.2 1.3.3.6.5 1.2.5 2a4 4 0 0 1-.5 2c-.3.5-.7.9-1.3 1.2-.5.3-1 .5-1.8.5Zm0-1.2a2 2 0 0 0 1.8-1.1c.2-.4.3-.9.3-1.4 0-.6 0-1-.3-1.4a2 2 0 0 0-2.8-.8 2 2 0 0 0-.7.8 3 3 0 0 0-.3 1.4c0 .5 0 1 .3 1.4l.7.8c.3.2.7.3 1 .3Zm5.2 1v-7h1.3v1.1l1-1c.4-.2.9-.3 1.4-.3.6 0 1 0 1.5.3.4.2.7.6.9 1 .2.5.3 1 .3 1.7v4.2h-1.4v-4c0-.7-.1-1.2-.4-1.5-.3-.4-.7-.5-1.3-.5a1.8 1.8 0 0 0-1.7 1l-.2 1.2v3.8h-1.4Zm11.1 0a3 3 0 0 1-1.1-.2c-.4-.2-.6-.4-.8-.7-.2-.3-.3-.8-.3-1.3V387h-1.2V386h1.2l.2-1.7h1.2v1.7h2v1.2h-2v3.7c0 .4.1.7.3.8l.9.2h.8v1.2h-1.2Zm5.8.2c-.7 0-1.3-.2-1.8-.5s-1-.7-1.2-1.3a4 4 0 0 1-.5-1.9c0-.7.2-1.4.5-2 .3-.5.7-1 1.2-1.2.5-.4 1.1-.5 1.8-.5s1.3.1 1.8.4c.5.3.9.8 1.1 1.3a3.5 3.5 0 0 1 .4 2v.3h-5.7v-1h4.3c0-.6-.2-1-.5-1.4a2 2 0 0 0-1.4-.5c-.4 0-.7.1-1 .3a2 2 0 0 0-.8.8c-.2.3-.3.7-.3 1.2v.4c0 .5.1 1 .3 1.3.2.4.4.7.8.8.3.2.6.3 1 .3a2 2 0 0 0 1.1-.3c.3-.2.5-.4.6-.8h1.4c0 .4-.3.8-.6 1.2l-1 .8-1.5.3Zm5-.2v-7h1.2v1.1l1-1c.4-.2.9-.3 1.4-.3.6 0 1 0 1.5.3.4.2.7.6.9 1 .2.5.3 1 .3 1.7v4.2H137v-4c0-.7-.1-1.2-.4-1.5-.3-.4-.7-.5-1.3-.5a1.8 1.8 0 0 0-1.6 1c-.2.3-.3.7-.3 1.2v3.8H132Zm11 0a3 3 0 0 1-1.1-.2c-.4-.2-.6-.4-.8-.7-.2-.3-.3-.8-.3-1.3V387h-1.2V386h1.3l.1-1.7h1.3v1.7h2v1.2h-2v3.7c0 .4 0 .7.2.8l.9.2h.8v1.2H143Z" />
      <path fill="#0F172A"
        d="M165.5 380c0-3 2.5-5.5 5.5-5.5h143c3 0 5.5 2.5 5.5 5.5v16c0 3-2.5 5.5-5.5 5.5H171c-3 0-5.5-2.5-5.5-5.5v-16Z" />
      <path stroke="#334155"
        d="M165.5 380c0-3 2.5-5.5 5.5-5.5h143c3 0 5.5 2.5 5.5 5.5v16c0 3-2.5 5.5-5.5 5.5H171c-3 0-5.5-2.5-5.5-5.5v-16Z" />
      <path fill="#fff"
        d="M179 395.9c-1 0-1.8-.2-2.5-.6-.8-.4-1.4-1-1.8-1.7a5 5 0 0 1-.6-2.6c0-1 .1-1.9.5-2.7a6.8 6.8 0 0 1 3.6-3.8 7.2 7.2 0 0 1 5.6 0c.7.5 1.3 1 1.7 1.8.5.7.7 1.5.7 2.4 0 .6 0 1.1-.2 1.6a5 5 0 0 1-.6 1.4c-.3.4-.6.8-1 1-.3.3-.8.4-1.3.4s-1-.2-1.2-.5c-.3-.4-.4-.9-.3-1.4v-.5l.3.5a3 3 0 0 1-2.8 1.9c-.7 0-1.2-.2-1.6-.7-.4-.4-.6-1-.6-1.7a4.5 4.5 0 0 1 1-2.7c.2-.4.6-.7 1-.9.4-.2.8-.3 1.3-.3.6 0 1 .1 1.4.4.3.3.5.7.5 1.3l-.3.2.4-1.8h1.1l-.7 4v.9c.2.2.4.3.7.3.3 0 .6 0 .8-.3.2-.2.4-.4.5-.8l.4-1v-1.2c0-.8 0-1.5-.4-2-.4-.6-.9-1-1.5-1.4a5.7 5.7 0 0 0-4.6 0 5.5 5.5 0 0 0-3 3.2c-.2.7-.3 1.5-.3 2.3 0 .9.1 1.6.5 2.2.3.6.8 1 1.4 1.3a5 5 0 0 0 2.2.5 6 6 0 0 0 2.4-.5l.2 1-1.4.3-1.4.2Zm.6-3.9c.3 0 .7 0 1-.3.3-.2.5-.4.7-.8.2-.4.4-.8.4-1.2v-1c-.2-.2-.3-.5-.6-.6-.2-.2-.5-.3-.8-.3l-.9.3-.7.6a3.2 3.2 0 0 0-.5 1.8c0 .4.1.8.3 1.1.3.3.6.4 1 .4Zm8.6 1v-7h1.3v1.1l1-1c.4-.2.9-.3 1.4-.3.6 0 1 0 1.4.3.5.2.8.6 1 1 .2.5.3 1 .3 1.7v4.2h-1.4v-4c0-.7-.1-1.2-.4-1.5-.3-.4-.7-.5-1.3-.5a1.8 1.8 0 0 0-1.7 1l-.2 1.2v3.8h-1.4Zm10.8.2a3 3 0 0 1-1.4-.4c-.4-.2-.8-.5-1-1a4 4 0 0 1-.3-1.7V386h1.4v4c0 .7.1 1.2.4 1.6.3.3.7.5 1.3.5a1.8 1.8 0 0 0 1.7-1l.2-1.3V386h1.4v7.1h-1.2l-.1-1.2a2.8 2.8 0 0 1-2.4 1.4Zm5-.2 2.4-3.5-2.4-3.6h1.5l1.8 2.8 1.9-2.8h1.5l-2.5 3.6 2.5 3.5h-1.5l-1.9-2.8-1.8 2.8H204Zm10.8 0a3 3 0 0 1-1.1-.2c-.4-.2-.6-.4-.8-.7-.2-.3-.3-.8-.3-1.3V387h-1.2V386h1.2l.2-1.7h1.2v1.7h2v1.2h-2v3.7c0 .4.1.7.3.8.2.1.4.2.9.2h.8v1.2h-1.2Zm1.4 3V395h.6c.3 0 .6 0 .7-.2l.2-.7v-8h1.4v8c0 .5 0 .9-.2 1.2l-.7.7-1.2.2h-.8Zm2.2-11.4a1 1 0 0 1-.6-.2.9.9 0 0 1-.3-.7c0-.2 0-.4.3-.6.1-.2.4-.3.6-.3.3 0 .5.1.7.3.2.2.2.4.2.6 0 .3 0 .5-.2.7l-.7.2Zm5.4 8.6c-.6 0-1-.1-1.5-.3-.5-.2-.8-.5-1.1-.9-.3-.3-.4-.7-.5-1.2h1.5c0 .2 0 .4.2.6.2.2.3.4.6.5l.8.1h.8l.4-.5.2-.5c0-.2 0-.4-.2-.5-.1-.2-.3-.3-.6-.4l-.9-.2a8 8 0 0 1-1-.2l-.7-.4c-.3-.1-.4-.3-.6-.6l-.2-.8c0-.4.1-.8.3-1a2 2 0 0 1 1-.8c.3-.2.8-.3 1.4-.3a3 3 0 0 1 1.8.5c.5.4.8 1 .9 1.6H225a1 1 0 0 0-.4-.7c-.2-.2-.6-.3-1-.3s-.7.1-.9.3c-.2.1-.3.3-.3.6 0 .2 0 .3.2.4l.5.4.9.2c.5.1 1 .2 1.3.4.4.1.7.3 1 .6.2.3.3.6.3 1.1 0 .5 0 .9-.3 1.2l-1 .8c-.4.2-.9.3-1.5.3Zm3.9 1.2 3.5-12.2h1.4l-3.5 12.2h-1.4Zm8.8-1.2c-.7 0-1.3-.2-1.8-.5-.6-.3-1-.7-1.3-1.3a4 4 0 0 1-.4-2 3.3 3.3 0 0 1 1.7-3.2c.5-.3 1.1-.4 1.8-.4.9 0 1.6.2 2.2.6.5.5.9 1.1 1 1.9h-1.4c0-.4-.3-.8-.6-1a2 2 0 0 0-1.2-.3 2 2 0 0 0-1.8 1.1 3 3 0 0 0-.3 1.4c0 .4 0 .7.2 1 0 .4.2.6.4.8l.7.5.8.2c.3 0 .6 0 .8-.2.3 0 .5-.2.6-.4l.4-.7h1.5a3 3 0 0 1-1.1 1.8c-.6.4-1.3.7-2.2.7Zm8.1 0c-.6 0-1.2-.2-1.8-.5-.5-.3-1-.7-1.2-1.3a4 4 0 0 1-.5-2c0-.7.2-1.3.5-1.9a3.5 3.5 0 0 1 3-1.8c.7 0 1.3.2 1.8.5.6.3 1 .8 1.3 1.3.3.6.4 1.2.4 2a4 4 0 0 1-.4 2c-.3.5-.7.9-1.3 1.2-.5.3-1.1.5-1.8.5Zm0-1.2a2 2 0 0 0 1.8-1.1c.2-.4.3-.9.3-1.4 0-.6 0-1-.3-1.4a2 2 0 0 0-1.8-1.1 2 2 0 0 0-1.8 1.1 3 3 0 0 0-.2 1.4c0 .5 0 1 .2 1.4l.8.8c.3.2.7.3 1 .3Zm5.2 1v-10h1.4v10h-1.4Zm6.5.2c-.6 0-1.2-.2-1.8-.5-.5-.3-1-.7-1.2-1.3a4 4 0 0 1-.5-2c0-.7.2-1.3.5-1.9a3.5 3.5 0 0 1 3-1.8c.7 0 1.3.2 1.8.5.6.3 1 .8 1.3 1.3.3.6.4 1.2.4 2a4 4 0 0 1-.4 2c-.3.5-.7.9-1.3 1.2-.5.3-1.1.5-1.8.5Zm0-1.2a2 2 0 0 0 1.8-1.1c.2-.4.3-.9.3-1.4 0-.6 0-1-.3-1.4a2 2 0 0 0-1.8-1.1 2 2 0 0 0-1.8 1.1 3 3 0 0 0-.2 1.4c0 .5 0 1 .2 1.4l.8.8c.3.2.7.3 1 .3Zm5.2 1v-7h1.2l.2 1.3c.1-.3.3-.6.6-.8.2-.2.5-.4.9-.5.3-.2.7-.2 1.1-.2v1.5h-.5a3 3 0 0 0-.8 0l-.7.4-.5.7a3 3 0 0 0-.1 1v3.6h-1.4Zm5.4-3.5v-1.2h5.7v1.2h-5.7Zm7.7 3.5v-7h1.2l.1 1c.2-.4.5-.7.9-1l1.3-.2 1 .1a2.2 2.2 0 0 1 1.2 1.2l1-1 1.4-.3c.6 0 1 0 1.5.3l1 1 .2 1.7v4.2h-1.3v-4c0-.7-.2-1.2-.5-1.5-.2-.4-.6-.5-1.1-.5-.4 0-.7 0-1 .2l-.6.8a3 3 0 0 0-.2 1.2v3.8h-1.4v-4c0-.7-.1-1.2-.4-1.5-.3-.4-.7-.5-1.2-.5-.3 0-.6 0-.9.2-.2.2-.5.5-.6.8l-.3 1.2v3.8h-1.3Zm15.9.2c-.7 0-1.3-.2-1.8-.5s-1-.7-1.3-1.3a4 4 0 0 1-.4-2c0-.7.1-1.3.4-1.9.4-.5.8-1 1.3-1.3.5-.3 1.1-.4 1.8-.4s1.3.1 1.8.4c.5.3 1 .8 1.2 1.3.3.6.5 1.2.5 2a4 4 0 0 1-.5 2c-.3.5-.7.9-1.2 1.2-.6.3-1.2.5-1.8.5Zm0-1.2a2 2 0 0 0 1.8-1.1c.2-.4.3-.9.3-1.4 0-.6-.1-1-.3-1.4a2 2 0 0 0-2.8-.8 2 2 0 0 0-.8.8 3 3 0 0 0-.3 1.4c0 .5.1 1 .3 1.4l.7.8 1 .3Zm8.3 1.2c-.7 0-1.3-.2-1.8-.5s-1-.8-1.2-1.3c-.3-.6-.4-1.2-.4-2 0-.6.1-1.3.4-1.8a3.3 3.3 0 0 1 3-1.8c.5 0 1 0 1.4.3.5.2.8.5 1 1v-4.2h1.4V393h-1.2l-.2-1a2.8 2.8 0 0 1-2.5 1.3Zm.2-1.3c.4 0 .8 0 1.2-.3l.7-.8c.2-.4.3-.8.3-1.3s0-1-.3-1.3a2.1 2.1 0 0 0-2-1.2 2 2 0 0 0-1 .3 2 2 0 0 0-.8.9c-.2.3-.3.8-.3 1.3s0 .9.3 1.3a2 2 0 0 0 1.9 1.1Zm8.7 1.3c-.6 0-1.2-.2-1.8-.5-.5-.3-.9-.7-1.2-1.3a4 4 0 0 1-.4-1.9c0-.7.1-1.4.4-2 .3-.5.7-1 1.2-1.2.6-.4 1.2-.5 1.9-.5.6 0 1.2.1 1.7.4.5.3 1 .8 1.2 1.3a3.5 3.5 0 0 1 .4 2v.3h-5.8v-1h4.4c0-.6-.2-1-.6-1.4a2 2 0 0 0-1.4-.5c-.3 0-.7.1-1 .3a2 2 0 0 0-.8.8c-.2.3-.3.7-.3 1.2v.4c0 .5.1 1 .3 1.3.2.4.5.7.8.8.3.2.7.3 1 .3a2 2 0 0 0 1.1-.3c.3-.2.5-.4.7-.8h1.4l-.6 1.2-1.1.8c-.4.2-1 .3-1.5.3Z" />
      <path fill="#0F172A"
        d="M332.5 380c0-3 2.5-5.5 5.5-5.5h86c3 0 5.5 2.5 5.5 5.5v16c0 3-2.5 5.5-5.5 5.5h-86c-3 0-5.5-2.5-5.5-5.5v-16Z" />
      <path stroke="#334155"
        d="M332.5 380c0-3 2.5-5.5 5.5-5.5h86c3 0 5.5 2.5 5.5 5.5v16c0 3-2.5 5.5-5.5 5.5h-86c-3 0-5.5-2.5-5.5-5.5v-16Z" />
      <path fill="#fff"
        d="M346 395.9c-1 0-1.8-.2-2.5-.6-.8-.4-1.4-1-1.8-1.7a5 5 0 0 1-.6-2.6c0-1 .1-1.9.5-2.7a6.8 6.8 0 0 1 3.6-3.8 7.2 7.2 0 0 1 5.6 0c.7.5 1.3 1 1.7 1.8.5.7.7 1.5.7 2.4 0 .6 0 1.1-.2 1.6a5 5 0 0 1-.6 1.4c-.3.4-.6.8-1 1-.3.3-.8.4-1.3.4s-1-.2-1.2-.5c-.3-.4-.4-.9-.3-1.4v-.5l.3.5a3 3 0 0 1-2.8 1.9c-.7 0-1.2-.2-1.6-.7-.4-.4-.6-1-.6-1.7a4.5 4.5 0 0 1 1-2.7c.2-.4.6-.7 1-.9.4-.2.8-.3 1.3-.3.6 0 1 .1 1.4.4.3.3.5.7.5 1.3l-.3.2.4-1.8h1.1l-.7 4v.9c.2.2.4.3.7.3.3 0 .6 0 .8-.3.2-.2.4-.4.5-.8l.4-1v-1.2c0-.8 0-1.5-.4-2-.4-.6-.9-1-1.5-1.4a5.7 5.7 0 0 0-4.6 0 5.5 5.5 0 0 0-3 3.2c-.2.7-.3 1.5-.3 2.3 0 .9.1 1.6.5 2.2.3.6.8 1 1.4 1.3a5 5 0 0 0 2.2.5 6 6 0 0 0 2.4-.5l.2 1-1.4.3-1.4.2Zm.6-3.9c.3 0 .7 0 1-.3.3-.2.5-.4.7-.8.2-.4.4-.8.4-1.2v-1c-.2-.2-.3-.5-.6-.6-.2-.2-.5-.3-.8-.3l-.9.3-.7.6a3.2 3.2 0 0 0-.5 1.8c0 .4.1.8.3 1.1.3.3.6.4 1 .4Zm8.6 1v-7h1.3v1.1l1-1c.4-.2.9-.3 1.4-.3.6 0 1 0 1.5.3.4.2.7.6.9 1 .2.5.3 1 .3 1.7v4.2h-1.4v-4c0-.7-.1-1.2-.4-1.5-.3-.4-.7-.5-1.3-.5a1.8 1.8 0 0 0-1.6 1c-.2.3-.3.7-.3 1.2v3.8h-1.4Zm10.8.2a3 3 0 0 1-1.4-.4c-.4-.2-.8-.5-1-1a4 4 0 0 1-.3-1.7V386h1.4v4c0 .7.1 1.2.4 1.6.3.3.7.5 1.3.5a1.8 1.8 0 0 0 1.7-1l.2-1.3V386h1.4v7.1h-1.2l-.1-1.2a2.8 2.8 0 0 1-2.4 1.4Zm5-.2 2.4-3.5-2.4-3.6h1.5l1.8 2.8 1.9-2.8h1.5l-2.5 3.6 2.5 3.5h-1.5l-1.9-2.8-1.8 2.8H371Zm10.8 0a3 3 0 0 1-1.1-.2c-.4-.2-.6-.4-.8-.7-.2-.3-.3-.8-.3-1.3V387h-1.2V386h1.2l.2-1.7h1.2v1.7h2v1.2h-2v3.7c0 .4.1.7.3.8.2.1.4.2.9.2h.8v1.2h-1.2Zm1.4 3V395h.6c.3 0 .6 0 .7-.2l.2-.7v-8h1.4v8c0 .5 0 .9-.2 1.2l-.7.7-1.2.2h-.8Zm2.2-11.4a1 1 0 0 1-.6-.2.9.9 0 0 1-.3-.7c0-.2 0-.4.3-.6.1-.2.4-.3.6-.3.3 0 .5.1.7.3.2.2.2.4.2.6 0 .3 0 .5-.2.7l-.7.2Zm2.7 8.4v-10h1.4v4l1-.9c.4-.2.9-.3 1.4-.3.5 0 1 0 1.4.3l1 1 .2 1.7v4.2h-1.3v-4c0-.7-.2-1.2-.5-1.5-.2-.3-.7-.5-1.2-.5a2 2 0 0 0-1 .2c-.3.2-.6.5-.7.8-.2.4-.3.8-.3 1.3v3.7h-1.4Zm13.8 3v-4a2.8 2.8 0 0 1-2.4 1.2c-.7 0-1.3-.2-1.8-.5s-1-.8-1.2-1.3c-.3-.6-.4-1.2-.4-2 0-.6.1-1.3.4-1.8a3.3 3.3 0 0 1 3-1.8 3 3 0 0 1 1.8.6l.6.6.2-1h1.2v10H402Zm-2.2-4c.4 0 .8-.2 1.2-.4.3-.2.6-.5.7-.8.2-.4.3-.8.3-1.3s0-1-.3-1.3a2.1 2.1 0 0 0-2-1.2 2 2 0 0 0-1 .3 2 2 0 0 0-.8.9c-.2.3-.3.8-.3 1.3s0 .9.3 1.3a2 2 0 0 0 1.9 1.1Zm5 2.4 3.5-12.2h1.3l-3.5 12.2h-1.3Zm8.8-1.2a3 3 0 0 1-1.5-.4c-.4-.2-.7-.5-1-1a4 4 0 0 1-.2-1.7V386h1.4v4c0 .7.1 1.2.4 1.6.3.3.7.5 1.3.5a1.8 1.8 0 0 0 1.6-1c.2-.4.3-.8.3-1.3V386h1.4v7.1h-1.3v-1.2c-.3.4-.6.8-1 1-.4.2-.9.4-1.4.4Zm5.7-.2v-7h1.4v7h-1.4Zm.7-8.4a1 1 0 0 1-.7-.2.9.9 0 0 1-.2-.7c0-.2 0-.4.2-.6.2-.2.4-.3.7-.3.3 0 .5.1.7.3l.2.6c0 .3 0 .5-.2.7a1 1 0 0 1-.7.2Z" />
      <path fill="#1E293B" d="M36 442h513v1H36z" />
      <path fill="#94A3B8"
        d="M36.9 476.5v-8.4h2.7c.7 0 1.2.1 1.7.3.4.3.7.5 1 1l.2 1.2c0 .4 0 .8-.3 1.2-.2.4-.5.7-1 1l-1.6.2H38v3.5h-1Zm1-4.3h1.7c.7 0 1.2-.2 1.5-.5.3-.2.4-.6.4-1.1 0-.5-.1-1-.4-1.2-.3-.3-.8-.5-1.5-.5H38v3.3Zm8.1 4.4c-.5 0-.9 0-1.2-.2-.4-.2-.6-.5-.8-.9-.2-.4-.3-.8-.3-1.4v-3.6h1v3.5c0 .6.1 1 .4 1.3.3.3.6.5 1.1.5.3 0 .7-.1 1-.3l.6-.7.2-1.1v-3.2h1v6h-.9v-1a2 2 0 0 1-.9.8c-.3.2-.7.3-1.2.3Zm7.8 0-.9-.1-.7-.4-.5-.6-.1 1h-1v-8.6h1v3.5l1-.8c.3-.2.7-.3 1.2-.3a2.8 2.8 0 0 1 2.6 1.6c.3.4.4 1 .4 1.6 0 .6-.1 1.1-.4 1.6a2.7 2.7 0 0 1-2.6 1.5Zm0-.8a2 2 0 0 0 1.7-1.1c.2-.4.2-.8.2-1.2 0-.5 0-.9-.2-1.2a2 2 0 0 0-1.8-1 2 2 0 0 0-1 .2 2 2 0 0 0-.7.8c-.2.3-.3.7-.3 1.2l.3 1.2c.1.3.4.6.7.8.3.2.6.3 1 .3Zm4.4.7v-8.6h1v8.6h-1Zm2.8 0v-6h1v6h-1Zm.5-7.3-.5-.2a.7.7 0 0 1-.2-.5c0-.2 0-.4.2-.5l.5-.2c.2 0 .3 0 .5.2l.2.5-.2.5-.5.2Zm4.5 7.4c-.5 0-1 0-1.3-.2-.4-.2-.7-.4-.9-.7l-.4-1h1a1.4 1.4 0 0 0 .8 1h1.5a1 1 0 0 0 .6-.8c0-.3 0-.5-.2-.6l-.5-.3a5 5 0 0 0-.8-.2l-.8-.2-.7-.3-.5-.5-.1-.7c0-.4 0-.7.2-1l.8-.6 1.2-.2c.6 0 1.1.2 1.5.5.4.3.7.7.7 1.3h-1a1 1 0 0 0-.4-.7c-.2-.2-.5-.2-.9-.2-.3 0-.6 0-.8.2-.2.1-.3.3-.3.6 0 .1 0 .3.2.4l.4.3.8.2 1.1.3c.3.2.6.3.8.6.2.2.3.5.3 1 0 .3 0 .7-.3 1-.2.2-.4.5-.8.6a3 3 0 0 1-1.2.2Zm3.8-.1v-8.6h1v3.6c.2-.4.5-.7.8-.9l1.2-.3c.5 0 .9.1 1.2.3.4.2.6.5.8.8.2.4.3 1 .3 1.5v3.6h-1V473c0-.6-.1-1-.4-1.4-.2-.3-.6-.4-1.1-.4-.3 0-.7 0-1 .2l-.6.7-.2 1.2v3.2h-1Zm9.5.1c-.5 0-1 0-1.5-.4-.4-.2-.8-.6-1-1-.3-.5-.4-1-.4-1.7s.1-1.2.4-1.7a2.7 2.7 0 0 1 2.5-1.5c.6 0 1.1.1 1.5.4.5.3.8.6 1 1l.3 1.5v.5h-5v-.8h4c0-.5-.2-1-.5-1.3-.3-.3-.8-.4-1.3-.4a2 2 0 0 0-1 .2c-.2.2-.5.4-.6.7-.2.3-.3.7-.3 1.1v.3c0 .5 0 1 .3 1.3.2.3.4.6.7.7.3.2.6.3 1 .3.3 0 .7-.1 1-.3l.6-.8h1a2.5 2.5 0 0 1-1.4 1.7 3 3 0 0 1-1.3.2Zm6.9 0c-.6 0-1.1 0-1.6-.4-.4-.2-.8-.6-1-1.1a3.5 3.5 0 0 1 0-3.3 2.7 2.7 0 0 1 2.6-1.5c.5 0 .9.1 1.3.3l.8.8V468h1v8.6h-.9v-1l-.6.6-.7.4-1 .1Zm0-.8a2 2 0 0 0 1.1-.3c.3-.2.6-.5.7-.8l.3-1.2c0-.5 0-.9-.3-1.2a2 2 0 0 0-.7-.8 2 2 0 0 0-1-.3 2 2 0 0 0-1.8 1l-.2 1.3c0 .4 0 .8.2 1.2l.7.8c.3.2.7.3 1 .3Zm10.2.8c-.5 0-.9 0-1.2-.2-.4-.2-.6-.5-.8-.9-.2-.4-.3-.8-.3-1.4v-3.6h1v3.5c0 .6.1 1 .4 1.3.3.3.6.5 1.1.5.4 0 .7-.1 1-.3l.6-.7.2-1.1v-3.2h1v6h-.9v-1a2 2 0 0 1-.9.8c-.3.2-.7.3-1.2.3Zm4.7-.1v-6h.9v1c.2-.4.5-.7.9-.9.3-.2.7-.3 1.2-.3s.9.1 1.2.3c.4.2.6.5.8.8.2.4.3.9.3 1.5v3.6h-1V473c0-.6-.1-1-.4-1.4-.3-.3-.7-.4-1.1-.4-.4 0-.7 0-1 .2l-.6.7-.2 1.2v3.2h-1Zm9.5.1c-.5 0-1 0-1.5-.4-.4-.2-.8-.6-1-1.1-.3-.5-.4-1-.4-1.6 0-.6.1-1.2.4-1.7a2.7 2.7 0 0 1 2.5-1.5c.5 0 1 .1 1.3.3l1 .8V468h1v8.6h-1v-1l-.6.6-.7.4-1 .1Zm.2-.8a2 2 0 0 0 1-.3c.3-.2.6-.5.7-.8l.3-1.2c0-.5-.1-.9-.3-1.2a2 2 0 0 0-.7-.8 2 2 0 0 0-1-.3 2 2 0 0 0-1.8 1c-.2.4-.2.8-.2 1.3 0 .4 0 .8.2 1.2l.7.8c.3.2.7.3 1 .3Zm7.3.8c-.5 0-1 0-1.5-.4-.4-.2-.7-.6-1-1-.2-.5-.4-1-.4-1.7s.2-1.2.4-1.7a2.7 2.7 0 0 1 2.6-1.5 2.6 2.6 0 0 1 2.4 1.4c.2.5.4 1 .4 1.5v.5h-5v-.8h4c0-.5-.2-1-.6-1.3-.3-.3-.7-.4-1.3-.4a2 2 0 0 0-1 .2l-.6.7c-.2.3-.3.7-.3 1.1v.3c0 .5.1 1 .3 1.3.2.3.4.6.7.7.3.2.6.3 1 .3s.7-.1 1-.3c.3-.2.5-.4.6-.8h1a2.5 2.5 0 0 1-1.4 1.7 3 3 0 0 1-1.3.2Zm4.2-.1v-6h1v1.1l.5-.7.8-.4 1-.2v1h-.4l-.7.2-.6.3c-.2.1-.3.4-.4.6l-.2 1v3.1h-1Zm7.7 0v-8.4h1.2l3 5.9 3-5.9h1.1v8.4h-1v-6.6l-2.8 5.4h-.7L131 470v6.6h-1Zm10 0v-8.4h1.1v8.4h-1Zm4.9 0v-7.6h-2.5v-.8h6v.8h-2.5v7.6h-1Zm7.9 0v-8.6h1v8.6h-1Zm2.7 0v-6h1v6h-1Zm.5-7.3-.5-.2a.7.7 0 0 1-.2-.5l.2-.5.5-.2c.2 0 .4 0 .5.2.2.1.2.3.2.5s0 .3-.2.5l-.5.2Zm5 7.4a2.8 2.8 0 0 1-2.6-1.5c-.2-.4-.3-1-.3-1.6 0-.7 0-1.2.3-1.7s.7-.8 1.1-1a3 3 0 0 1 1.5-.5c.8 0 1.4.2 1.8.6.5.3.8.8 1 1.5h-1l-.7-1a2 2 0 0 0-1-.2 1.8 1.8 0 0 0-1.7 1c-.2.3-.3.8-.3 1.3 0 .4 0 .7.2 1 0 .3.2.5.4.7.1.2.4.3.6.4l.7.2.8-.1.6-.5c.2-.1.3-.4.3-.6h1c0 .6-.4 1.1-.9 1.5-.5.4-1 .5-1.8.5Zm6.8 0c-.5 0-1 0-1.5-.4-.4-.2-.7-.6-1-1-.2-.5-.4-1-.4-1.7s.2-1.2.4-1.7a2.7 2.7 0 0 1 2.6-1.5 2.6 2.6 0 0 1 2.4 1.4l.3 1.5v.5h-5v-.8h4c0-.5-.1-1-.5-1.3-.3-.3-.8-.4-1.3-.4a2 2 0 0 0-1 .2l-.6.7c-.2.3-.3.7-.3 1.1v.3c0 .5.1 1 .3 1.3.2.3.4.6.7.7.3.2.6.3 1 .3s.7-.1 1-.3c.3-.2.5-.4.6-.8h1a2.5 2.5 0 0 1-1.4 1.7 3 3 0 0 1-1.3.2Zm4.2-.1v-6h1v1c.2-.4.4-.7.8-.9.3-.2.7-.3 1.2-.3s.9.1 1.2.3c.4.2.6.5.8.8.2.4.3.9.3 1.5v3.6h-1V473c0-.6-.1-1-.4-1.4-.3-.3-.6-.4-1.1-.4-.4 0-.7 0-1 .2l-.6.7-.2 1.2v3.2h-1Zm9.2.1c-.5 0-1 0-1.3-.2l-1-.7-.3-1h1a1.4 1.4 0 0 0 .8 1h1.5a1 1 0 0 0 .5-.8l-.1-.6-.5-.3a5 5 0 0 0-.9-.2l-.7-.2c-.3 0-.5-.2-.7-.3l-.5-.5-.2-.7c0-.4.1-.7.3-1l.7-.6 1.2-.2c.7 0 1.2.2 1.6.5.4.3.6.7.7 1.3h-1a1 1 0 0 0-.4-.7c-.2-.2-.5-.2-1-.2-.3 0-.6 0-.8.2-.2.1-.3.3-.3.6 0 .1 0 .3.2.4l.5.3.8.2 1 .3c.4.2.7.3.9.6.2.2.3.5.3 1 0 .3-.1.7-.3 1-.2.2-.5.5-.8.6a3 3 0 0 1-1.2.2Zm6.4 0c-.6 0-1.1 0-1.5-.4-.5-.2-.8-.6-1-1-.3-.5-.4-1-.4-1.7s0-1.2.3-1.7a2.7 2.7 0 0 1 2.6-1.5 2.6 2.6 0 0 1 2.4 1.4c.3.5.4 1 .4 1.5v.5h-5v-.8h4c0-.5-.2-1-.6-1.3-.3-.3-.7-.4-1.2-.4a2 2 0 0 0-1 .2l-.7.7c-.2.3-.3.7-.3 1.1v.3c0 .5.1 1 .3 1.3.2.3.4.6.7.7.3.2.6.3 1 .3s.7-.1 1-.3c.3-.2.5-.4.6-.8h1a2.5 2.5 0 0 1-1.4 1.7 3 3 0 0 1-1.2.2Zm4.5 0-.5-.2a.7.7 0 0 1-.2-.5c0-.2 0-.4.2-.5l.5-.2c.2 0 .4 0 .5.2l.2.5c0 .2 0 .3-.2.5l-.5.2ZM129.1 478h64.2v.6H129v-.6ZM507 464.4a8.3 8.3 0 0 0-2.6 16.2c.4 0 .5-.2.5-.4v-1.5c-2 .3-2.6-.5-2.8-1a3 3 0 0 0-.8-1.2c-.3-.1-.7-.5 0-.5a1.7 1.7 0 0 1 1.2.8 1.8 1.8 0 0 0 1.8 1l.7-.3c0-.4.2-.8.5-1.1-1.9-.2-3.8-1-3.8-4.1 0-.9.3-1.7.9-2.3a3 3 0 0 1 0-2.2s.7-.2 2.3.9c1.4-.4 2.8-.4 4.2 0 1.6-1.1 2.3-.9 2.3-.9a3 3 0 0 1 0 2.2c.6.6 1 1.4 1 2.3 0 3.2-2 3.9-3.9 4a2 2 0 0 1 .6 1.6v2.3c0 .2.1.5.6.4a8.3 8.3 0 0 0-2.7-16.2ZM544.8 463.5h3l-6.7 7.6 7.9 10.4h-6.2l-4.8-6.3-5.5 6.3h-3.1l7.2-8.2-7.6-9.8h6.3l4.4 5.7 5-5.7Zm-1.1 16.2h1.7l-11-14.5h-1.8l11 14.5Z" />
    </g>
    <rect width="560" height="504" x="12.5" y="2.5" stroke="#1E293B" rx="11.5" />
  </g>
  <defs>
    <linearGradient id="e" x1="116.2" x2="116.2" y1="130" y2="144.9" gradientUnits="userSpaceOnUse">
      <stop stop-color="#1E293B" />
      <stop offset="1" stop-color="#0F172A" />
    </linearGradient>
    <linearGradient id="f" x1="292.5" x2="292.5" y1="130" y2="144.9" gradientUnits="userSpaceOnUse">
      <stop stop-color="#1E293B" />
      <stop offset="1" stop-color="#0F172A" />
    </linearGradient>
    <linearGradient id="g" x1="468.8" x2="468.8" y1="130" y2="144.9" gradientUnits="userSpaceOnUse">
      <stop stop-color="#1E293B" />
      <stop offset="1" stop-color="#0F172A" />
    </linearGradient>
    <linearGradient id="i" x1="116.2" x2="116.2" y1="190" y2="204.9" gradientUnits="userSpaceOnUse">
      <stop stop-color="#1E293B" />
      <stop offset="1" stop-color="#0F172A" />
    </linearGradient>
    <linearGradient id="j" x1="292.5" x2="292.5" y1="190" y2="204.9" gradientUnits="userSpaceOnUse">
      <stop stop-color="#1E293B" />
      <stop offset="1" stop-color="#0F172A" />
    </linearGradient>
    <clipPath id="b">
      <rect width="561" height="505" x="12" y="2" fill="#fff" rx="12" />
    </clipPath>
    <clipPath id="d">
      <path fill="#fff" d="M214.5 26h156v24h-156z" />
    </clipPath>
    <clipPath id="h">
      <path fill="#fff" d="M400.7 142h20v20h-20z" />
    </clipPath>
    <filter id="a" width="585" height="529" x="0" y="0" color-interpolation-filters="sRGB" filterUnits="userSpaceOnUse">
      <feFlood flood-opacity="0" result="BackgroundImageFix" />
      <feColorMatrix in="SourceAlpha" result="hardAlpha" values="0 0 0 0 0 0 0 0 0 0 0 0 0 0 0 0 0 0 127 0" />
      <feMorphology in="SourceAlpha" radius="2" result="effect1_dropShadow_157_2155" />
      <feOffset dy="4" />
      <feGaussianBlur stdDeviation="3" />
      <feColorMatrix values="0 0 0 0 0 0 0 0 0 0 0 0 0 0 0 0 0 0 0.05 0" />
      <feBlend in2="BackgroundImageFix" result="effect1_dropShadow_157_2155" />
      <feColorMatrix in="SourceAlpha" result="hardAlpha" values="0 0 0 0 0 0 0 0 0 0 0 0 0 0 0 0 0 0 127 0" />
      <feMorphology in="SourceAlpha" radius="3" result="effect2_dropShadow_157_2155" />
      <feOffset dy="10" />
      <feGaussianBlur stdDeviation="7.5" />
      <feColorMatrix values="0 0 0 0 0 0 0 0 0 0 0 0 0 0 0 0 0 0 0.1 0" />
      <feBlend in2="effect1_dropShadow_157_2155" result="effect2_dropShadow_157_2155" />
      <feBlend in="SourceGraphic" in2="effect2_dropShadow_157_2155" result="shape" />
    </filter>
  </defs>
</svg>
