<svg xmlns="http://www.w3.org/2000/svg" width="90" height="90" fill="none">
  <g clip-path="url(#a)">
    <path fill="#fff"
      d="M0 31.2c0-14.7 0-22 4.6-26.6C9 0 16.5 0 31.2 0h27.6c14.7 0 22 0 26.6 4.6C90 9 90 16.5 90 31.2v27.6c0 14.7 0 22-4.6 26.6C81 90 73.5 90 58.8 90H31.2c-14.7 0-22 0-26.6-4.6C0 81 0 73.5 0 58.8V31.2Z" />
    <path fill="#000"
      d="M34.3 58c-4.2 0-8.3 1.6-11.5 4.3 0 0-2.2 2.3-.7 3.9 1.4 1.5 3.4.1 3.7-.6.8-1.7 2-2.7 3.4-3.3a14.4 14.4 0 0 1 13.7 1.9 99 99 0 0 0-2.4-5c-2-.8-4-1.1-6.2-1.1Z" />
    <path fill="#000"
      d="M59.4 48.4c.3-1.5 0-3.2-1-8-.8-4.2-1.3-7.9-2-13.6.5-.7 2.6-3.5 2.4-9.8-3.5.5-7 2.5-7.4 2.7-2.5-1-5.3-1-7.8 0-.4-.2-3.8-2.2-7.3-2.7-.2 6.2 1.7 9 2.4 9.7-.8 5.8-1.3 9.5-2.1 13.8-1.2 6.4-1.4 7.3-.3 9.4 4.4 8.3 8.8 15.8 10 22.2.2.8.7.9 1 .9l-.2-27.5a2 2 0 1 1 .9 0L47.6 73h.2c.3 0 .8-.1 1-1 1-6 4.9-12.9 9.1-20.6a9 9 0 1 1-7.2 16.2 30 30 0 0 0-1 3.2 12.2 12.2 0 0 0 14.5-1.2 12.3 12.3 0 0 0-4.8-21.2Z" />
  </g>
  <defs>
    <clipPath id="a">
      <path fill="#fff" d="M0 0h90v90H0z" />
    </clipPath>
  </defs>
</svg>
