<svg xmlns="http://www.w3.org/2000/svg" width="90" height="90" fill="none">
  <g clip-path="url(#a)">
    <path fill="#fff"
      d="M0 31.2c0-14.7 0-22 4.6-26.6C9 0 16.5 0 31.2 0h27.6c14.7 0 22 0 26.6 4.6C90 9 90 16.5 90 31.2v27.6c0 14.7 0 22-4.6 26.6C81 90 73.5 90 58.8 90H31.2c-14.7 0-22 0-26.6-4.6C0 81 0 73.5 0 58.8V31.2Z" />
    <path fill="#263A21" fill-rule="evenodd"
      d="M24.2 39a8.4 8.4 0 0 1-.8-10.4 12 12 0 0 1 5.7-4.7c.6-.3 1.1-.4 1.7-.4.8 0 1 .3 1 1-.3 1.5-.4 2.9-.2 4.3.4 2.8 1.7 5.1 3.6 7.2l1.4 1.6.7.5c.5.4.6 1 .2 1.6-.7 1-1.6 1.4-2.7 1.7-3.9.9-7.6.7-10.6-2.4ZM37 35.6c1.4 1.9 3.2 3.1 5.6 2.9 1.3-.2 2.5-.4 3.4-1.4.2-.3.3-.5 0-.8-.4-.3-.6-.9-.8-1.4-.7-1.3-1-2.8-1.3-4.2-.6-3.9-.5-7.7 1.3-11.3.4-.7.2-1.3-.5-1.8-.4-.3-1-.5-1.5-.5-1.5-.3-3 .2-4.3.7A9 9 0 0 0 33 28.6c.6 2.8 2.1 5 4 7ZM24.4 50.8c3.4.2 6.4-.8 9-3 .5-.3.8-.6 1-1.1.6-.8 1-1.7.9-2.6 0-.6-.2-1.1-1-1.2-.3-.4-.7-.2-1.1-.2-1.8.3-3.7.3-5.5 0a7 7 0 0 1-5.2-3c-.4-.8-1.2-1-2-.6a3.7 3.7 0 0 0-2.1 2.7c-.5 2 0 3.7.8 5.3 1 2.3 2.8 3.5 5.2 3.7Zm20.5-20.4c.2 2 .8 3.8 2 5.5a4.9 4.9 0 0 0 4.4 2.1c.5 0 .7 0 .5-.6-.3-.7-.4-1.6-.6-2.4-.3-1.7 0-3.4.2-5 .2-.8.3-1.5.6-2.1 1-2.3 2.3-4.2 4-5.9 1.2-1 1-2.5-.2-3.4-.9-.7-2-1-3-1.1-3.4-.6-6.1.4-7.5 3.9-1.1 3-.9 6-.4 9Zm-8 32.1c.8-1.2 1.6-2.4 1.6-4 0-1.3-.5-2.4-1.7-3-1-.6-2-.4-2.7.5-.4.7-1 1.3-1.7 1.7a15.7 15.7 0 0 1-6 2.3c-1.7.4-2.2 1.7-1.5 3.1 1.5 2.7 5 4 7.7 2.8 1.8-.7 3.1-2 4.2-3.4ZM69.4 29c-1.2-1.2-2.8-1.4-4.4-.5-2 1.1-3.4 2.8-4.7 4.5a16.6 16.6 0 0 0-3.7 7c-.2 1.3.2 1.8 1.4 2h.7a22 22 0 0 0 7.5-1.5c.8-.3 1.5-.5 2.2-1 1.6-.7 2.7-1.8 3.1-3.5.6-2.7-.3-5-2.1-7ZM25.3 59c3.4-.2 6.1-1.7 8.1-4.5.7-1 1-2 .9-3.3-.1-1.4-.9-1.8-2-1-1.8 1-3.7 1.8-5.7 2a9 9 0 0 1-5.1-.9c-.9-.4-1.5 0-1.8.9v.7c-.2 2.5 1.7 6.3 5.6 6.1Zm30.5-35.1a16.6 16.6 0 0 0-3.3 6c-1 2.8-1 5.6.6 8.3.5 1 1.3 1.7 2.2 2.3.7.3.9.2 1-.5l.1-1.4c.4-2.3 1.7-4.3 3-6.2 1.2-1.3 2.4-2.6 3.8-3.7 1.3-1.2 2-3 1.5-4.4-.5-1.5-2.4-2.8-4-2.9-2.1 0-3.6 1-4.9 2.5ZM44 61.1c-.5-1.1-1.4-1.6-2.6-1.6-1.1 0-1.9.6-2.3 1.7-.7 1.8-2 3.1-3.5 4.1-.7.4-1.4.8-1.9 1.4-.7 1-.8 1.9 0 2.7 1.2 1.2 2.6 2 4.4 2 1.8 0 3.3-.8 4.5-2.2.8-.9 1.2-2 1.6-3 .5-1.8.7-3.5-.2-5.1Zm2.8-.1c-1.5.2-1.8.6-1.6 2 .2 1 .4 2 .2 3a8.4 8.4 0 0 1-1.4 3.4c-1 1.4-.4 2.8 1.3 3.4 1.6.5 3 .1 4.2-.9 1.8-1.4 2.4-3.4 2.4-5.7v-1a4.7 4.7 0 0 0-5.1-4.2Zm11 1.1c-1-.8-2.4-.9-4-.1-1.1.6-1.3 1-1 2.7.2 1.2.2 2.5 0 3.7-.1 1.5.7 2.5 2.1 2.6h1.3c2.3-.1 3.6-1.5 3.6-4.4 0-1.4-.5-3.1-2-4.5Zm5.7-2.6c-1.3.1-2.7.4-3.9 1.1-.7.5-.7.7-.2 1.2.5.6 1 1.2 1.1 2 .3.8.3 1.7.4 2.5.1 1.4 1 1.9 2.1 1.1 1.1-.6 2-1.5 2.8-2.4.6-.7 1.2-1.4 1.2-2.3 0-1.7-1-3.2-3.5-3.2Zm5.5-4.3c-1.6.7-2.9 1.8-4 3-.2.2-.3.3-.3.5.1.2.4.2.5.2 1 0 1.8.2 2.3 1.1.3.6.5 1.3.5 2 0 .1 0 .3.2.4l.3-.2c1.3-1.7 2.2-3.5 2.5-5.4 0-1.5-.8-2-2-1.6ZM57.7 42.6c-.4 0-.4.2-.4.5 0 1 .6 2 2 2.3 3 .7 5.9.2 8.3-2 1.5-1.2 2.6-2.8 3.4-4.6a23 23 0 0 1-4.1 2.4c-3 1-6 1.6-9.2 1.4Zm-10-2c0 .8.6 1.6 1.3 1.6.7 0 1.3-.8 1.3-1.6S49.7 39 49 39c-.7 0-1.3.7-1.3 1.6ZM36.1 51c0 .7.5 1.2 1.2 1.2.9 0 1.9-.9 1.9-1.7 0-.6-.5-1.1-1.2-1.1-.9 0-1.8.8-1.9 1.6Zm4.5-8.6c0-1-.8-1.6-1.8-1.6-.7 0-1.2.4-1.2 1 0 .9.9 1.7 1.8 1.7.8 0 1.2-.4 1.2-1.1Zm2.3 15.9c0 .5.3.9.9.8.7 0 1.3-.7 1.3-1.4 0-.5-.3-.9-1-.9-.6 0-1.3.8-1.2 1.5Zm11.5.6c-.5 0-.7.4-.7.9s.3 1 .8 1c.6 0 .8-.4.8-1 0-.5-.3-1-.9-1Zm8-1.5c0-.5-.2-.9-.7-1-.4 0-.7.5-.7.9s.2.9.8 1c.5 0 .6-.4.7-.9Z"
      clip-rule="evenodd" />
    <mask id="b" width="54" height="56" x="18" y="17" maskUnits="userSpaceOnUse" style="mask-type:alpha">
      <path fill="#fff"
        d="M24.2 39a8.4 8.4 0 0 1-.8-10.4 12 12 0 0 1 5.7-4.7c.6-.3 1.1-.4 1.7-.4.8 0 1 .3 1 1-.3 1.5-.4 2.9-.2 4.3.4 2.8 1.7 5.1 3.6 7.2l1.4 1.6.7.5c.5.4.6 1 .2 1.6-.7 1-1.6 1.4-2.7 1.7-3.9.9-7.6.7-10.6-2.4ZM37 35.6c1.4 1.9 3.2 3.1 5.6 2.9 1.3-.2 2.5-.4 3.4-1.4.2-.3.3-.5 0-.8-.4-.3-.6-.9-.8-1.4-.7-1.3-1-2.8-1.3-4.2-.6-3.9-.5-7.7 1.3-11.3.4-.7.2-1.3-.5-1.8-.4-.3-1-.5-1.5-.5-1.5-.3-3 .2-4.3.7A9 9 0 0 0 33 28.6c.6 2.8 2.1 5 4 7ZM24.4 50.8c3.4.2 6.4-.8 9-3 .5-.3.8-.6 1-1.1.6-.8 1-1.7.9-2.6 0-.6-.2-1.1-1-1.2-.3-.4-.7-.2-1.1-.2-1.8.3-3.7.3-5.5 0a7 7 0 0 1-5.2-3c-.4-.8-1.2-1-2-.6a3.7 3.7 0 0 0-2.1 2.7c-.5 2 0 3.7.8 5.3 1 2.3 2.8 3.5 5.2 3.7Zm20.5-20.4c.2 2 .8 3.8 2 5.5a4.9 4.9 0 0 0 4.4 2.1c.5 0 .7 0 .5-.6-.3-.7-.4-1.6-.6-2.4-.3-1.7 0-3.4.2-5 .2-.8.3-1.5.6-2.1 1-2.3 2.3-4.2 4-5.9 1.2-1 1-2.5-.2-3.4-.9-.7-2-1-3-1.1-3.4-.6-6.1.4-7.5 3.9-1.1 3-.9 6-.4 9Zm-8 32.1c.8-1.2 1.6-2.4 1.6-4 0-1.3-.5-2.4-1.7-3-1-.6-2-.4-2.7.5-.4.7-1 1.3-1.7 1.7a15.7 15.7 0 0 1-6 2.3c-1.7.4-2.2 1.7-1.5 3.1 1.5 2.7 5 4 7.7 2.8 1.8-.7 3.1-2 4.2-3.4ZM69.4 29c-1.2-1.2-2.8-1.4-4.4-.5-2 1.1-3.4 2.8-4.7 4.5a16.6 16.6 0 0 0-3.7 7c-.2 1.3.2 1.8 1.4 2h.7a22 22 0 0 0 7.5-1.5c.8-.3 1.5-.5 2.2-1 1.6-.7 2.7-1.8 3.1-3.5.6-2.7-.3-5-2.1-7ZM25.3 59c3.4-.2 6.1-1.7 8.1-4.5.7-1 1-2 .9-3.3-.1-1.4-.9-1.8-2-1-1.8 1-3.7 1.8-5.7 2a9 9 0 0 1-5.1-.9c-.9-.4-1.5 0-1.8.9v.7c-.2 2.5 1.7 6.3 5.6 6.1Zm30.5-35.1a16.6 16.6 0 0 0-3.3 6c-1 2.8-1 5.6.6 8.3.5 1 1.3 1.7 2.2 2.3.7.3.9.2 1-.5l.1-1.4c.4-2.3 1.7-4.3 3-6.2 1.2-1.3 2.4-2.6 3.8-3.7 1.3-1.2 2-3 1.5-4.4-.5-1.5-2.4-2.8-4-2.9-2.1 0-3.6 1-4.9 2.5ZM44 61.1c-.5-1.1-1.4-1.6-2.6-1.6-1.1 0-1.9.6-2.3 1.7-.7 1.8-2 3.1-3.5 4.1-.7.4-1.4.8-1.9 1.4-.7 1-.8 1.9 0 2.7 1.2 1.2 2.6 2 4.4 2 1.8 0 3.3-.8 4.5-2.2.8-.9 1.2-2 1.6-3 .5-1.8.7-3.5-.2-5.1Zm2.8-.1c-1.5.2-1.8.6-1.6 2 .2 1 .4 2 .2 3a8.4 8.4 0 0 1-1.4 3.4c-1 1.4-.4 2.8 1.3 3.4 1.6.5 3 .1 4.2-.9 1.8-1.4 2.4-3.4 2.4-5.7v-1a4.7 4.7 0 0 0-5.1-4.2Zm11 1.1c-1-.8-2.4-.9-4-.1-1.1.6-1.3 1-1 2.7.2 1.2.2 2.5 0 3.7-.1 1.5.7 2.5 2.1 2.6h1.3c2.3-.1 3.6-1.5 3.6-4.4 0-1.4-.5-3.1-2-4.5Zm5.7-2.6c-1.3.1-2.7.4-3.9 1.1-.7.5-.7.7-.2 1.2.5.6 1 1.2 1.1 2 .3.8.3 1.7.4 2.5.1 1.4 1 1.9 2.1 1.1 1.1-.6 2-1.5 2.8-2.4.6-.7 1.2-1.4 1.2-2.3 0-1.7-1-3.2-3.5-3.2Zm5.5-4.3c-1.6.7-2.9 1.8-4 3-.2.2-.3.3-.3.5.1.2.4.2.5.2 1 0 1.8.2 2.3 1.1.3.6.5 1.3.5 2 0 .1 0 .3.2.4l.3-.2c1.3-1.7 2.2-3.5 2.5-5.4 0-1.5-.8-2-2-1.6ZM57.7 42.6c-.4 0-.4.2-.4.5 0 1 .6 2 2 2.3 3 .7 5.9.2 8.3-2 1.5-1.2 2.6-2.8 3.4-4.6a23 23 0 0 1-4.1 2.4c-3 1-6 1.6-9.2 1.4Zm-10-2c0 .8.6 1.6 1.3 1.6.7 0 1.3-.8 1.3-1.6S49.7 39 49 39c-.7 0-1.3.7-1.3 1.6ZM36.1 51c0 .7.5 1.2 1.2 1.2.9 0 1.9-.9 1.9-1.7 0-.6-.5-1.1-1.2-1.1-.9 0-1.8.8-1.9 1.6Zm4.5-8.6c0-1-.8-1.6-1.8-1.6-.7 0-1.2.4-1.2 1 0 .9.9 1.7 1.8 1.7.8 0 1.2-.4 1.2-1.1Zm2.3 15.9c0 .5.3.9.9.8.7 0 1.3-.7 1.3-1.4 0-.5-.3-.9-1-.9-.6 0-1.3.8-1.2 1.5Zm11.5.6c-.5 0-.7.4-.7.9s.3 1 .8 1c.6 0 .8-.4.8-1 0-.5-.3-1-.9-1Zm8-1.5c0-.5-.2-.9-.7-1-.4 0-.7.5-.7.9s.2.9.8 1c.5 0 .6-.4.7-.9Z" />
    </mask>
    <g mask="url(#b)">
      <path fill="#95C11F" fill-rule="evenodd"
        d="M32.3 43.3c0-6.8 7-12.3 16.4-12.3 9.4 0 17 5.5 17 12.3 0 3.9 3.2 15.7-7.4 16.2-2.9.2-1.6 1.6-3.8 2-.8 0-4.4-.8-5.5-.8-9.4 0-16.7-10.6-16.7-17.4Z"
        clip-rule="evenodd" />
    </g>
  </g>
  <defs>
    <clipPath id="a">
      <path fill="#fff" d="M0 0h90v90H0z" />
    </clipPath>
  </defs>
</svg>
