<svg xmlns="http://www.w3.org/2000/svg" width="90" height="90" fill="none">
  <g clip-path="url(#a)">
    <path fill="#fff"
      d="M0 31.2c0-14.7 0-22 4.6-26.6C9 0 16.5 0 31.2 0h27.6c14.7 0 22 0 26.6 4.6C90 9 90 16.5 90 31.2v27.6c0 14.7 0 22-4.6 26.6C81 90 73.5 90 58.8 90H31.2c-14.7 0-22 0-26.6-4.6C0 81 0 73.5 0 58.8V31.2Z" />
    <g clip-path="url(#b)">
      <path fill="#fff" d="M45 73a28 28 0 1 0 0-56 28 28 0 0 0 0 56Z" />
      <path fill="#263238" d="M49.6 45a4.6 4.6 0 1 1-9.2 0 4.6 4.6 0 0 1 9.2 0Z" />
      <path fill="#1976D2"
        d="M65.3 33.3c-1-1.8-2.2-3.3-3.6-4.7l-5.3 3a17.6 17.6 0 0 0-5.5-3.2 21.7 21.7 0 0 0-4.3 6.1 26 26 0 0 1 17.7 6.2l3.3-2c-.5-1.9-1.3-3.7-2.3-5.4Z" />
      <path fill="#42A5F5"
        d="M65.3 56.7c1-1.7 1.8-3.5 2.3-5.4l-5.3-3c.4-2.2.4-4.4 0-6.5-2.5-.6-5-.8-7.4-.6a26 26 0 0 1 3.5 18.3l3.3 2c1.4-1.5 2.6-3 3.6-4.8Z" />
      <path fill="#1976D2"
        d="M45 68.5c2 0 4-.3 5.9-.8v-6.1c2-.7 3.9-1.8 5.5-3.2-.7-2.5-1.7-4.7-3.1-6.7A26 26 0 0 1 39 63.9v3.8c2 .5 4 .8 5.9.8Z" />
      <path fill="#42A5F5"
        d="M24.7 56.7c1 1.8 2.2 3.3 3.6 4.7l5.3-3c1.6 1.4 3.5 2.5 5.5 3.2 1.8-1.8 3.2-3.9 4.3-6.1a26 26 0 0 1-17.7-6.2l-3.3 2c.5 1.9 1.3 3.7 2.3 5.4Z" />
      <path fill="#1976D2"
        d="M24.7 33.3c-1 1.7-1.8 3.5-2.3 5.4l5.3 3c-.4 2.2-.4 4.4 0 6.5 2.5.6 5 .8 7.4.6a26 26 0 0 1-3.5-18.3l-3.3-2c-1.4 1.5-2.6 3-3.6 4.8Z" />
      <path fill="#42A5F5"
        d="M45 21.5c-2 0-4 .3-5.9.8v6.1c-2 .7-3.9 1.8-5.5 3.2.7 2.5 1.7 4.7 3.1 6.7A26 26 0 0 1 51 26.1v-3.8c-2-.5-4-.8-5.9-.8Z" />
    </g>
  </g>
  <defs>
    <clipPath id="a">
      <path fill="#fff" d="M0 0h90v90H0z" />
    </clipPath>
    <clipPath id="b">
      <path fill="#fff" d="M17 17h56v56H17z" />
    </clipPath>
  </defs>
</svg>
