<svg xmlns="http://www.w3.org/2000/svg" width="90" height="90" fill="none">
  <g clip-path="url(#a)">
    <path fill="#38BDF8"
      d="M0 31.2c0-14.7 0-22 4.6-26.6C9 0 16.5 0 31.2 0h27.6c14.7 0 22 0 26.6 4.6C90 9 90 16.5 90 31.2v27.6c0 14.7 0 22-4.6 26.6C81 90 73.5 90 58.8 90H31.2c-14.7 0-22 0-26.6-4.6C0 81 0 73.5 0 58.8V31.2Z" />
    <g clip-path="url(#b)">
      <mask id="c" width="54" height="33" x="18" y="28" maskUnits="userSpaceOnUse" style="mask-type:luminance">
        <path fill="#fff" d="M18 28h54v32.4H18V28Z" />
      </mask>
      <g mask="url(#c)">
        <path fill="#fff" fill-rule="evenodd"
          d="M45 28c-7.2 0-11.7 3.6-13.5 10.8 2.7-3.6 5.9-5 9.5-4 2 .5 3.5 2 5.1 3.6 2.6 2.7 5.7 5.8 12.4 5.8 7.2 0 11.7-3.6 13.5-10.8-2.7 3.6-5.8 5-9.5 4-2-.5-3.5-2-5.1-3.6C54.8 31.1 51.7 28 45 28ZM31.5 44.2c-7.2 0-11.7 3.6-13.5 10.8 2.7-3.6 5.9-5 9.4-4 2.1.5 3.6 2 5.2 3.6 2.6 2.7 5.7 5.8 12.4 5.8 7.2 0 11.7-3.6 13.5-10.8-2.7 3.6-5.9 5-9.5 4-2-.5-3.5-2-5.1-3.6-2.6-2.7-5.7-5.8-12.4-5.8Z"
          clip-rule="evenodd" />
      </g>
    </g>
  </g>
  <defs>
    <clipPath id="a">
      <path fill="#fff" d="M0 0h90v90H0z" />
    </clipPath>
    <clipPath id="b">
      <path fill="#fff" d="M18 28h54v33H18z" />
    </clipPath>
  </defs>
</svg>
