<svg width="90" height="90" viewBox="0 0 90 90" fill="none" xmlns="http://www.w3.org/2000/svg">
  <g clip-path="url(#clip0_80_2652)">
    <path
      d="M0 31.1996C0 16.4925 0 9.13837 4.56862 4.56862C9.13837 0 16.4925 0 31.1996 0H58.8004C73.5075 0 80.8616 0 85.4314 4.56862C90 9.13837 90 16.4925 90 31.1996V58.8004C90 73.5075 90 80.8616 85.4314 85.4314C80.8616 90 73.5075 90 58.8004 90H31.1996C16.4925 90 9.13837 90 4.56862 85.4314C0 80.8616 0 73.5075 0 58.8004V31.1996Z"
      fill="white" />
    <g clip-path="url(#clip1_80_2652)">
      <path d="M52.2577 17.2693L45.0045 29.8307L37.7468 17.2693H13.5898L45.0001 71.673L76.4104 17.2693H52.2577Z"
        fill="#41B38A" />
      <path d="M52.2578 17.2693L45.0046 29.8307L37.7469 17.2693H26.1558L45.0002 49.9089L63.8489 17.2693H52.2578Z"
        fill="#243746" />
    </g>
  </g>
  <defs>
    <clipPath id="clip0_80_2652">
      <rect width="90" height="90" fill="white" />
    </clipPath>
    <clipPath id="clip1_80_2652">
      <rect width="63.1795" height="56" fill="white" transform="translate(13.4102 17)" />
    </clipPath>
  </defs>
</svg>
