<svg xmlns="http://www.w3.org/2000/svg" width="90" height="90" fill="none">
  <g clip-path="url(#a)">
    <path fill="#7703FC"
      d="M0 31.2c0-14.7 0-22 4.6-26.6C9 0 16.5 0 31.2 0h27.6c14.7 0 22 0 26.6 4.6C90 9 90 16.5 90 31.2v27.6c0 14.7 0 22-4.6 26.6C81 90 73.5 90 58.8 90H31.2c-14.7 0-22 0-26.6-4.6C0 81 0 73.5 0 58.8V31.2Z" />
    <g stroke="#fff" stroke-miterlimit="10" stroke-width="2.5" clip-path="url(#b)">
      <path
        d="M68.9 55.8V34.2c0-1.8-1-3.6-2.6-4.5L47.6 18.9c-1.6-1-3.6-1-5.2 0L23.7 29.7a5.3 5.3 0 0 0-2.6 4.5v21.6c0 1.8 1 3.6 2.6 4.5l18.7 10.8c1.6 1 3.6 1 5.2 0l18.7-10.8c1.6-1 2.6-2.7 2.6-4.5Z" />
      <path
        d="m51.6 59.3 7.7-7.7a5.3 5.3 0 0 0 1.4-5.1l-2.9-10.6c-.4-1.8-1.9-3.2-3.7-3.7l-10.6-2.9c-1.8-.5-3.7 0-5 1.4l-7.8 7.8a5.3 5.3 0 0 0-1.4 5l2.9 10.6c.4 1.9 1.9 3.3 3.7 3.8l10.6 2.8c1.8.5 3.7 0 5-1.4Z" />
    </g>
  </g>
  <defs>
    <clipPath id="a">
      <path fill="#fff" d="M0 0h90v90H0z" />
    </clipPath>
    <clipPath id="b">
      <path fill="#fff" d="M19.9 17H70v56H19.9z" />
    </clipPath>
  </defs>
</svg>
