<svg viewBox="0 0 24 20" fill="none" xmlns="http://www.w3.org/2000/svg">
<path d="M24 9.79645C24 9.47334 23.8708 9.17609 23.6123 8.93053L15.0436 0.387722C14.7593 0.103393 14.4879 0 14.1777 0C13.5444 0 13.0533 0.465267 13.0533 1.11147C13.0533 1.42165 13.1567 1.7189 13.3635 1.92569L16.2585 4.87237L20.601 8.84006L17.4863 8.6462H1.13732C0.465267 8.6462 0 9.12439 0 9.79645C0 10.4685 0.465267 10.9467 1.13732 10.9467H17.4863L20.6139 10.7528L16.2585 14.7205L13.3635 17.6672C13.1567 17.8611 13.0533 18.1712 13.0533 18.4814C13.0533 19.1276 13.5444 19.5929 14.1777 19.5929C14.4879 19.5929 14.7593 19.4766 15.0178 19.231L23.6123 10.6624C23.8708 10.4168 24 10.1195 24 9.79645Z" fill="currentColor"/>
</svg>
