<svg width="24" height="23" viewBox="0 0 24 23" fill="none" xmlns="http://www.w3.org/2000/svg">
<path d="M2.8441 22.0884H21.1559C22.9043 22.0884 24 20.8295 24 19.2443C24 18.7664 23.8834 18.2885 23.627 17.8456L14.4536 1.43371C13.9291 0.489558 12.9616 0 12.0058 0C11.0384 0 10.0709 0.489558 9.54638 1.43371L0.384653 17.8572C0.128218 18.3001 0 18.7664 0 19.2443C0 20.8295 1.09568 22.0884 2.8441 22.0884ZM12.0058 14.1039C11.3881 14.1039 11.05 13.7542 11.0267 13.1248L10.8635 7.36668C10.8402 6.73725 11.3298 6.27101 11.9942 6.27101C12.6469 6.27101 13.1481 6.74891 13.1248 7.37834L12.9616 13.1248C12.9383 13.7659 12.5886 14.1039 12.0058 14.1039ZM12.0058 18.4051C11.3298 18.4051 10.7003 17.8689 10.7003 17.1462C10.7003 16.4235 11.3181 15.8873 12.0058 15.8873C12.6819 15.8873 13.3113 16.4118 13.3113 17.1462C13.3113 17.8805 12.6702 18.4051 12.0058 18.4051Z" fill="currentColor"/>
</svg>
