<svg width="24" height="24" viewBox="0 0 24 24" fill="none" xmlns="http://www.w3.org/2000/svg">
<path d="M12.75 3H12C11.7937 3 11.625 3.16875 11.625 3.375V6.75C11.625 6.95625 11.9812 7.125 12.1875 7.125H12.75C12.9563 7.125 13.125 6.95625 13.125 6.75V3.375C13.125 3.16875 12.9563 3 12.75 3Z" fill="currentColor"/>
<path d="M21.2656 5.44271L18.5625 2.73958C18.0937 2.27083 17.4531 2 16.7865 2H15.3281C14.8698 2 14.4948 2.38021 14.4948 2.84375V7.01042C14.4948 7.46875 14.1198 7.84375 13.6615 7.84375H7C6.54167 7.84375 6.16667 7.46875 6.16667 7.01042V2.84375C6.16667 2.38542 5.79167 2 5.33333 2H3.66667C2.75 2 2 2.75 2 3.66667V20.3333C2 21.25 2.75 22 3.66667 22H20.3333C21.25 22 22 21.25 22 20.3333V7.20833C22 6.54687 21.7344 5.91146 21.2656 5.44271ZM15.4375 19.5052C15.4375 19.9635 15.0208 20.3385 14.5104 20.3385H6.15625C5.64583 20.3385 5.22917 19.9635 5.22917 19.5052V14.5052C5.22917 14.0469 5.64583 13.6719 6.15625 13.6719H14.5104C15.0208 13.6719 15.4375 14.0469 15.4375 14.5052V19.5052V19.5052Z" fill="currentColor"/>
</svg>
