<svg width="24" height="24" viewBox="0 0 24 24" fill="none" xmlns="http://www.w3.org/2000/svg">
<path d="M3.25062 7.45429C3.94541 7.45429 4.50124 6.90672 4.50124 6.23203C4.50124 5.54757 3.94541 5 3.25062 5C2.55583 5 2 5.54757 2 6.23203C2 6.90672 2.55583 7.45429 3.25062 7.45429ZM7.63772 7.01428H21.196C21.6427 7.01428 22 6.67204 22 6.23203C22 5.78224 21.6427 5.44001 21.196 5.44001H7.63772C7.18114 5.44001 6.83375 5.78224 6.83375 6.23203C6.83375 6.67204 7.18114 7.01428 7.63772 7.01428ZM3.25062 13.37C3.94541 13.37 4.50124 12.8224 4.50124 12.138C4.50124 11.4535 3.94541 10.9059 3.25062 10.9059C2.55583 10.9059 2 11.4535 2 12.138C2 12.8224 2.55583 13.37 3.25062 13.37ZM7.63772 12.93H21.196C21.6427 12.93 22 12.578 22 12.138C22 11.698 21.6427 11.3557 21.196 11.3557H7.63772C7.18114 11.3557 6.83375 11.698 6.83375 12.138C6.83375 12.578 7.18114 12.93 7.63772 12.93ZM3.25062 19.2857C3.94541 19.2857 4.50124 18.7284 4.50124 18.0537C4.50124 17.3692 3.94541 16.8216 3.25062 16.8216C2.55583 16.8216 2 17.3692 2 18.0537C2 18.7284 2.55583 19.2857 3.25062 19.2857ZM7.63772 18.8359H21.196C21.6427 18.8359 22 18.4937 22 18.0537C22 17.6039 21.6427 17.2617 21.196 17.2617H7.63772C7.18114 17.2617 6.83375 17.6039 6.83375 18.0537C6.83375 18.4937 7.18114 18.8359 7.63772 18.8359Z" fill="currentColor"/>
</svg>
