<svg width="24" height="24" viewBox="0 0 24 24" fill="none" xmlns="http://www.w3.org/2000/svg">
<path d="M12 22C17.4706 22 22 17.4706 22 12C22 6.53922 17.4608 2 11.9902 2C6.52941 2 2 6.53922 2 12C2 17.4706 6.53922 22 12 22ZM12 20.3333C7.37255 20.3333 3.67647 16.6275 3.67647 12C3.67647 7.38235 7.36274 3.66667 11.9902 3.66667C16.6176 3.66667 20.3235 7.38235 20.3333 12C20.3431 16.6275 16.6275 20.3333 12 20.3333ZM8.64706 16.1569C8.86275 16.1569 9.06863 16.0686 9.20588 15.9118L11.9902 13.1176L14.7843 15.9118C14.9314 16.0588 15.1176 16.1569 15.3431 16.1569C15.7745 16.1569 16.1275 15.7941 16.1275 15.3627C16.1275 15.1373 16.049 14.951 15.8922 14.8039L13.1078 12.0196L15.902 9.21569C16.0686 9.04902 16.1373 8.88235 16.1373 8.66667C16.1373 8.22549 15.7843 7.88235 15.3529 7.88235C15.1471 7.88235 14.9804 7.95098 14.8137 8.11765L11.9902 10.9216L9.18627 8.12745C9.04902 7.97059 8.86275 7.90196 8.64706 7.90196C8.21569 7.90196 7.86274 8.23529 7.86274 8.67647C7.86274 8.89216 7.94118 9.07843 8.09804 9.22549L10.8824 12.0196L8.09804 14.8137C7.94118 14.951 7.86274 15.1471 7.86274 15.3627C7.86274 15.7941 8.21569 16.1569 8.64706 16.1569Z" fill="currentColor"/>
</svg>
