<svg width="25" height="25" viewBox="0 0 25 25" fill="none" xmlns="http://www.w3.org/2000/svg">
<path d="M13.9181 9.43011L13.2323 10.6203L10.887 6.54895L3.68727 19.0456H8.56195C8.56195 19.7029 9.09361 20.2357 9.74944 20.2357H3.68727C3.26306 20.2357 2.87111 20.0088 2.65904 19.6405C2.44697 19.2723 2.44699 18.8187 2.65909 18.4505L9.85879 5.95387C10.0709 5.58562 10.4629 5.35876 10.8872 5.35876C11.3115 5.35876 11.7035 5.58562 11.9156 5.95387L13.9181 9.43011V9.43011Z" fill="#00C58E"/>
<path d="M19.1157 18.4505L14.6042 10.6203L13.9184 9.43011L13.2326 10.6203L8.72159 18.4505C8.50949 18.8187 8.50947 19.2723 8.72154 19.6405C8.93361 20.0088 9.32556 20.2357 9.74977 20.2357H18.086C18.5103 20.2357 18.9024 20.009 19.1146 19.6408C19.3268 19.2725 19.3268 18.8188 19.1147 18.4505H19.1157ZM9.74977 19.0456L13.9184 11.8104L18.086 19.0456H9.74977L9.74977 19.0456Z" fill="#2F495E"/>
<path d="M22.3408 19.6407C22.1287 20.0088 21.7368 20.2357 21.3126 20.2357H18.0856C18.7414 20.2357 19.2731 19.7029 19.2731 19.0456H21.3101L15.53 9.01209L14.6037 10.6203L13.918 9.43013L14.5018 8.41701C14.7139 8.04876 15.106 7.8219 15.5302 7.8219C15.9545 7.8219 16.3465 8.04876 16.5587 8.41701L22.3408 18.4505C22.5529 18.8187 22.5529 19.2724 22.3408 19.6407V19.6407Z" fill="#108775"/>
</svg>
