<svg viewBox="0 0 25 20" fill="none" xmlns="http://www.w3.org/2000/svg">
<path d="M0.494141 10.1246C0.494141 10.4477 0.636305 10.7449 0.894787 10.9905L9.47637 19.5591C9.73485 19.8047 10.0063 19.921 10.3164 19.921C10.9497 19.921 11.4538 19.4557 11.4538 18.8095C11.4538 18.4994 11.3374 18.1892 11.1307 17.9953L8.23566 15.0486L3.88025 11.081L7.00787 11.2748H23.3568C24.0289 11.2748 24.4941 10.7966 24.4941 10.1246C24.4941 9.45252 24.0289 8.97433 23.3568 8.97433H7.00787L3.89317 9.16819L8.23566 5.2005L11.1307 2.25381C11.3374 2.04703 11.4538 1.74977 11.4538 1.4396C11.4538 0.793392 10.9497 0.328125 10.3164 0.328125C10.0063 0.328125 9.73485 0.431518 9.45052 0.715847L0.894787 9.25866C0.636305 9.50421 0.494141 9.80147 0.494141 10.1246Z" fill="currentColor"/>
</svg>
