<svg viewBox="0 0 20 25" fill="none" xmlns="http://www.w3.org/2000/svg">
<path d="M9.89496 24.7964C10.2181 24.7964 10.5153 24.6671 10.7609 24.4087L19.3037 15.84C19.588 15.5557 19.6914 15.2843 19.6914 14.9741C19.6914 14.3408 19.2261 13.8497 18.5799 13.8497C18.2698 13.8497 17.9725 13.9531 17.7657 14.1599L14.819 17.0549L10.8513 21.3974L11.0452 18.2827L11.0452 1.9337C11.0452 1.26165 10.567 0.796386 9.89496 0.796386C9.22291 0.796386 8.74472 1.26165 8.74472 1.9337L8.74472 18.2827L8.93858 21.4103L4.97089 17.0549L2.0242 14.1599C1.83034 13.9531 1.52016 13.8497 1.20998 13.8497C0.563781 13.8497 0.0985148 14.3408 0.0985148 14.9741C0.0985148 15.2843 0.214831 15.5557 0.460389 15.8142L9.02905 24.4087C9.2746 24.6671 9.57186 24.7964 9.89496 24.7964Z" fill="currentColor"/>
</svg>
