<svg viewBox="0 0 256 256" fill="none" xmlns="http://www.w3.org/2000/svg">
<g clip-path="url(#clip0_3_7)">
<path d="M231.1 190.5C227.667 192.284 224.127 193.854 220.5 195.2C209.015 199.475 196.854 201.643 184.6 201.6C137.3 201.6 96.0999 169.1 96.0999 127.3C96.1614 121.703 97.7133 116.223 100.596 111.425C103.478 106.626 107.587 102.683 112.5 100C69.7 101.8 58.7 146.4 58.7 172.5C58.7 246.5 126.8 253.9 141.5 253.9C149.4 253.9 161.3 251.6 168.5 249.3L169.8 248.9C197.354 239.378 220.843 220.755 236.4 196.1C236.852 195.351 237.046 194.474 236.952 193.604C236.858 192.734 236.482 191.919 235.881 191.284C235.279 190.648 234.486 190.227 233.622 190.086C232.759 189.944 231.873 190.09 231.1 190.5V190.5Z" fill="url(#paint0_linear_3_7)"/>
<path opacity="0.35" d="M231.1 190.5C227.667 192.284 224.127 193.854 220.5 195.2C209.015 199.475 196.854 201.643 184.6 201.6C137.3 201.6 96.0999 169.1 96.0999 127.3C96.1614 121.703 97.7133 116.223 100.596 111.425C103.478 106.626 107.587 102.683 112.5 100C69.7 101.8 58.7 146.4 58.7 172.5C58.7 246.5 126.8 253.9 141.5 253.9C149.4 253.9 161.3 251.6 168.5 249.3L169.8 248.9C197.354 239.378 220.843 220.755 236.4 196.1C236.852 195.351 237.046 194.474 236.952 193.604C236.858 192.734 236.482 191.919 235.881 191.284C235.279 190.648 234.486 190.227 233.622 190.086C232.759 189.944 231.873 190.09 231.1 190.5V190.5Z" fill="url(#paint1_radial_3_7)"/>
<path d="M105.7 241.3C96.7988 235.772 89.0831 228.532 83 220C76.0534 210.492 71.2717 199.579 68.9905 188.026C66.7093 176.474 66.9839 164.563 69.795 153.128C72.6061 141.693 77.8855 131.012 85.2629 121.834C92.6403 112.656 101.937 105.204 112.5 100C115.7 98.5 121 95.9 128.1 96C133.096 96.0387 138.016 97.2322 142.474 99.4874C146.932 101.743 150.809 104.998 153.8 109C157.824 114.411 160.029 120.957 160.1 127.7C160.1 127.5 184.6 48.1 80.1 48.1C36.2 48.1 0.0999762 89.7 0.0999762 126.3C-0.0746385 145.634 4.05875 164.763 12.2 182.3C25.5327 210.69 48.8253 233.197 77.6563 245.548C106.487 257.899 138.85 259.234 168.6 249.3C158.177 252.592 147.164 253.581 136.321 252.2C125.478 250.819 115.065 247.1 105.8 241.3H105.7Z" fill="url(#paint2_linear_3_7)"/>
<path opacity="0.41" d="M105.7 241.3C96.7988 235.772 89.0831 228.532 83 220C76.0534 210.492 71.2717 199.579 68.9905 188.026C66.7093 176.474 66.9839 164.563 69.795 153.128C72.6061 141.693 77.8855 131.012 85.2629 121.834C92.6403 112.656 101.937 105.204 112.5 100C115.7 98.5 121 95.9 128.1 96C133.096 96.0387 138.016 97.2322 142.474 99.4874C146.932 101.743 150.809 104.998 153.8 109C157.824 114.411 160.029 120.957 160.1 127.7C160.1 127.5 184.6 48.1 80.1 48.1C36.2 48.1 0.0999762 89.7 0.0999762 126.3C-0.0746385 145.634 4.05875 164.763 12.2 182.3C25.5327 210.69 48.8253 233.197 77.6563 245.548C106.487 257.899 138.85 259.234 168.6 249.3C158.177 252.592 147.164 253.581 136.321 252.2C125.478 250.819 115.065 247.1 105.8 241.3H105.7Z" fill="url(#paint3_radial_3_7)"/>
<path d="M152.4 148.8C151.5 149.8 149 151.3 149 154.4C149 157 150.7 159.6 153.8 161.7C168.1 171.7 195.2 170.3 195.3 170.3C205.961 170.293 216.424 167.427 225.6 162C234.838 156.597 242.503 148.872 247.836 139.593C253.168 130.314 255.983 119.802 256 109.1C256.3 86.7 248 71.8 244.7 65.2C223.4 23.8 177.7 6.26642e-07 128 6.26642e-07C94.3619 -0.00332557 62.0744 13.235 38.1208 36.8517C14.1673 60.4684 0.473036 92.5652 0 126.2C0.5 89.7 36.8 60.2 80 60.2C83.5 60.2 103.5 60.5 122 70.2C134.997 76.6585 145.76 86.8643 152.9 99.5C159 110.1 160.1 123.6 160.1 129C160.1 134.4 157.4 142.3 152.3 148.9L152.4 148.8Z" fill="url(#paint4_radial_3_7)"/>
<path d="M152.4 148.8C151.5 149.8 149 151.3 149 154.4C149 157 150.7 159.6 153.8 161.7C168.1 171.7 195.2 170.3 195.3 170.3C205.961 170.293 216.424 167.427 225.6 162C234.838 156.597 242.503 148.872 247.836 139.593C253.168 130.314 255.983 119.802 256 109.1C256.3 86.7 248 71.8 244.7 65.2C223.4 23.8 177.7 6.26642e-07 128 6.26642e-07C94.3619 -0.00332557 62.0744 13.235 38.1208 36.8517C14.1673 60.4684 0.473036 92.5652 0 126.2C0.5 89.7 36.8 60.2 80 60.2C83.5 60.2 103.5 60.5 122 70.2C134.997 76.6585 145.76 86.8643 152.9 99.5C159 110.1 160.1 123.6 160.1 129C160.1 134.4 157.4 142.3 152.3 148.9L152.4 148.8Z" fill="url(#paint5_radial_3_7)"/>
</g>
<defs>
<linearGradient id="paint0_linear_3_7" x1="58.7" y1="177" x2="237.1" y2="177" gradientUnits="userSpaceOnUse">
<stop stop-color="#0C59A4"/>
<stop offset="1" stop-color="#114A8B"/>
</linearGradient>
<radialGradient id="paint1_radial_3_7" cx="0" cy="0" r="1" gradientUnits="userSpaceOnUse" gradientTransform="translate(157.2 178.345) scale(95.4 90.63)">
<stop offset="0.7" stop-opacity="0"/>
<stop offset="0.9" stop-opacity="0.5"/>
<stop offset="1"/>
</radialGradient>
<linearGradient id="paint2_linear_3_7" x1="152.7" y1="99.6" x2="41.4" y2="220.9" gradientUnits="userSpaceOnUse">
<stop stop-color="#1B9DE2"/>
<stop offset="0.2" stop-color="#1595DF"/>
<stop offset="0.7" stop-color="#0680D7"/>
<stop offset="1" stop-color="#0078D4"/>
</linearGradient>
<radialGradient id="paint3_radial_3_7" cx="0" cy="0" r="1" gradientUnits="userSpaceOnUse" gradientTransform="translate(70.555 198.937) rotate(-81.3844) scale(143.386 115.842)">
<stop offset="0.8" stop-opacity="0"/>
<stop offset="0.9" stop-opacity="0.5"/>
<stop offset="1"/>
</radialGradient>
<radialGradient id="paint4_radial_3_7" cx="0" cy="0" r="1" gradientUnits="userSpaceOnUse" gradientTransform="translate(25.89 47.316) rotate(92.2906) scale(202.562 431.415)">
<stop stop-color="#35C1F1"/>
<stop offset="0.1" stop-color="#34C1ED"/>
<stop offset="0.2" stop-color="#2FC2DF"/>
<stop offset="0.3" stop-color="#2BC3D2"/>
<stop offset="0.7" stop-color="#36C752"/>
</radialGradient>
<radialGradient id="paint5_radial_3_7" cx="0" cy="0" r="1" gradientUnits="userSpaceOnUse" gradientTransform="translate(240.06 77.3) rotate(73.7398) scale(97.3 79.1244)">
<stop stop-color="#66EB6E"/>
<stop offset="1" stop-color="#66EB6E" stop-opacity="0"/>
</radialGradient>
<clipPath id="clip0_3_7">
<rect width="256" height="256" fill="white"/>
</clipPath>
</defs>
</svg>
