<svg width="24" height="22" viewBox="0 0 24 22" fill="none" xmlns="http://www.w3.org/2000/svg">
<path d="M3.16786 21.7504H20.8321C22.7834 21.7504 24 20.3501 24 18.5825C24 18.0545 23.8623 17.5151 23.5753 17.0215L14.726 1.60689C14.1291 0.56241 13.0732 0 12.0057 0C10.9268 0 9.87088 0.56241 9.27403 1.60689L0.424677 17.033C0.137733 17.5265 0 18.0545 0 18.5825C0 20.3501 1.21664 21.7504 3.16786 21.7504ZM3.17934 19.9484C2.38737 19.9484 1.8594 19.2941 1.8594 18.5825C1.8594 18.3759 1.89383 18.1349 2.00861 17.8938L10.8465 2.4792C11.099 2.04304 11.5581 1.83644 12.0057 1.83644C12.4534 1.83644 12.8895 2.03156 13.142 2.4792L21.9684 17.9053C22.0947 18.1349 22.1521 18.3759 22.1521 18.5825C22.1521 19.2941 21.6011 19.9484 20.8092 19.9484H3.17934ZM12.0057 14.0143C12.5567 14.0143 12.8666 13.693 12.878 13.0961L13.0502 7.04735C13.0617 6.46198 12.6026 6.02583 11.9943 6.02583C11.3745 6.02583 10.9383 6.4505 10.9498 7.03587L11.099 13.0961C11.1105 13.6815 11.4319 14.0143 12.0057 14.0143ZM12.0057 17.7446C12.66 17.7446 13.2453 17.2166 13.2453 16.5509C13.2453 15.8737 12.6714 15.3572 12.0057 15.3572C11.3286 15.3572 10.7661 15.8852 10.7661 16.5509C10.7661 17.2052 11.34 17.7446 12.0057 17.7446Z" fill="currentColor"/>
</svg>
