<svg viewBox="0 0 24 24" fill="none" xmlns="http://www.w3.org/2000/svg">
<path fill-rule="evenodd" clip-rule="evenodd" d="M15.8553 5.51515C15.3941 5.51515 15.0605 5.87647 15.0605 6.27273C15.0605 6.66898 15.3941 7.0303 15.8553 7.0303C16.3164 7.0303 16.6501 6.66898 16.6501 6.27273C16.6501 5.87647 16.3164 5.51515 15.8553 5.51515ZM13.6953 5.51515C14.0122 4.62273 14.8727 4 15.8553 4C16.8378 4 17.6984 4.62273 18.0152 5.51515H21.2527C21.6654 5.51515 22 5.85433 22 6.27273C22 6.69112 21.6654 7.0303 21.2527 7.0303H18.0152C17.6984 7.92273 16.8378 8.54545 15.8553 8.54545C14.8727 8.54545 14.0122 7.92273 13.6953 7.0303H2.74733C2.33459 7.0303 2 6.69112 2 6.27273C2 5.85433 2.33459 5.51515 2.74733 5.51515H13.6953ZM8.14472 11.5758C7.68359 11.5758 7.34994 11.9371 7.34994 12.3333C7.34994 12.7296 7.68359 13.0909 8.14472 13.0909C8.60585 13.0909 8.9395 12.7296 8.9395 12.3333C8.9395 11.9371 8.60585 11.5758 8.14472 11.5758ZM5.98478 11.5758C6.30162 10.6833 7.16217 10.0606 8.14472 10.0606C9.12728 10.0606 9.98782 10.6833 10.3047 11.5758H21.2527C21.6654 11.5758 22 11.9149 22 12.3333C22 12.7517 21.6654 13.0909 21.2527 13.0909H10.3047C9.98782 13.9833 9.12728 14.6061 8.14472 14.6061C7.16217 14.6061 6.30162 13.9833 5.98478 13.0909H2.74733C2.33459 13.0909 2 12.7517 2 12.3333C2 11.9149 2.33459 11.5758 2.74733 11.5758H5.98478ZM15.8553 17.6364C15.3941 17.6364 15.0605 17.9977 15.0605 18.3939C15.0605 18.7902 15.3941 19.1515 15.8553 19.1515C16.3164 19.1515 16.6501 18.7902 16.6501 18.3939C16.6501 17.9977 16.3164 17.6364 15.8553 17.6364ZM13.6953 17.6364C14.0122 16.7439 14.8727 16.1212 15.8553 16.1212C16.8378 16.1212 17.6984 16.7439 18.0152 17.6364H21.2527C21.6654 17.6364 22 17.9755 22 18.3939C22 18.8123 21.6654 19.1515 21.2527 19.1515H18.0152C17.6984 20.0439 16.8378 20.6667 15.8553 20.6667C14.8727 20.6667 14.0122 20.0439 13.6953 19.1515H2.74733C2.33459 19.1515 2 18.8123 2 18.3939C2 17.9755 2.33459 17.6364 2.74733 17.6364H13.6953Z" fill="currentColor"/>
</svg>
