<svg width="24" height="24" viewBox="0 0 24 24" fill="none" xmlns="http://www.w3.org/2000/svg">
<path d="M21 10.4998V9.5C21 8.67157 20.3284 8 19.5 8H14C12.8954 8 12 7.10457 12 6C12 5.44772 11.5523 5 11 5H4.5C3.67157 5 3 5.67157 3 6.5V17.5C3 18.3284 3.67157 19 4.5 19H5.5C6.32843 19 7 18.3284 7 17.5V12.5C7 11.1193 8.11929 10 9.5 10H19.5C20.0628 10 20.5822 10.186 21 10.4998ZM21 12.5C21 11.6716 20.3284 11 19.5 11H9.5C8.67157 11 8 11.6716 8 12.5V17.5C8 18.0628 7.81403 18.5822 7.50018 19H19.5C20.3284 19 21 18.3284 21 17.5V12.5V12.5ZM4.5 4H11C12.1046 4 13 4.89543 13 6C13 6.55228 13.4477 7 14 7H19.5C20.8807 7 22 8.11929 22 9.5V17.5C22 18.8807 20.8807 20 19.5 20H4.5C3.11929 20 2 18.8807 2 17.5V6.5C2 5.11929 3.11929 4 4.5 4Z" fill="currentColor" stroke="currentColor" stroke-width="0.75"/>
</svg>
