<svg width="24" height="24" viewBox="0 0 24 24" fill="none" xmlns="http://www.w3.org/2000/svg">
<path d="M6.87148 1.71429H2.19762C1.88734 1.71429 1.77729 1.71807 1.72698 1.72698C1.71807 1.77729 1.71429 1.88734 1.71429 2.19762V21.8024C1.71429 22.1127 1.71807 22.2227 1.72698 22.273C1.77729 22.2819 1.88734 22.2857 2.19762 22.2857H21.8024C22.1127 22.2857 22.2227 22.2819 22.273 22.273C22.2819 22.2227 22.2857 22.1127 22.2857 21.8024V6.20504C22.2857 5.98183 22.2835 5.89741 22.2792 5.85562C22.2527 5.82307 22.1946 5.76179 22.0367 5.60397L18.396 1.96326C18.2382 1.80543 18.1769 1.74731 18.1444 1.72075C18.1026 1.71652 18.0182 1.71429 17.795 1.71429H17.1285C17.138 1.85072 17.1429 2.00939 17.1429 2.19762V6.37381C17.1429 7.13797 17.0633 7.41507 16.9139 7.69444C16.7645 7.9738 16.5452 8.19305 16.2659 8.34246C15.9865 8.49186 15.7094 8.57143 14.9452 8.57143H9.05476C8.2906 8.57143 8.0135 8.49186 7.73413 8.34246C7.45477 8.19305 7.23552 7.9738 7.08611 7.69444C6.93671 7.41507 6.85714 7.13797 6.85714 6.37381V2.19762C6.85714 2.00939 6.86197 1.85072 6.87148 1.71429ZM2.19762 0H17.795C18.2376 0 18.3907 0.0160274 18.5604 0.0551407C18.7301 0.094254 18.8803 0.156453 19.028 0.248797C19.1756 0.341141 19.2952 0.438079 19.6082 0.751074L23.2489 4.39178C23.5619 4.70478 23.6589 4.82438 23.7512 4.97204C23.8435 5.1197 23.9057 5.26986 23.9449 5.43957C23.984 5.60928 24 5.76239 24 6.20504V21.8024C24 22.5665 23.9204 22.8436 23.771 23.123C23.6216 23.4024 23.4024 23.6216 23.123 23.771C22.8436 23.9204 22.5665 24 21.8024 24H2.19762C1.43346 24 1.15635 23.9204 0.876989 23.771C0.597624 23.6216 0.378377 23.4024 0.228971 23.123C0.0795649 22.8436 0 22.5665 0 21.8024V2.19762C0 1.43346 0.0795649 1.15635 0.228971 0.876989C0.378377 0.597624 0.597624 0.378377 0.876989 0.228971C1.15635 0.0795649 1.43346 0 2.19762 0ZM8.57143 2.19762V6.37381C8.57143 6.68409 8.57522 6.79414 8.58412 6.84445C8.63443 6.85335 8.74448 6.85714 9.05476 6.85714H14.9452C15.2555 6.85714 15.3656 6.85335 15.4159 6.84445C15.4248 6.79414 15.4286 6.68409 15.4286 6.37381V2.19762C15.4286 1.88734 15.4248 1.77729 15.4159 1.72698C15.3656 1.71807 15.2555 1.71429 14.9452 1.71429H9.05476C8.74448 1.71429 8.63443 1.71807 8.58412 1.72698C8.57522 1.77729 8.57143 1.88734 8.57143 2.19762ZM12 18.8571C10.1065 18.8571 8.57143 17.3221 8.57143 15.4286C8.57143 13.535 10.1065 12 12 12C13.8935 12 15.4286 13.535 15.4286 15.4286C15.4286 17.3221 13.8935 18.8571 12 18.8571ZM12 17.1429C12.9468 17.1429 13.7143 16.3753 13.7143 15.4286C13.7143 14.4818 12.9468 13.7143 12 13.7143C11.0532 13.7143 10.2857 14.4818 10.2857 15.4286C10.2857 16.3753 11.0532 17.1429 12 17.1429Z" fill="currentColor"/>
</svg>
