<svg width="24" height="24" viewBox="0 0 24 24" fill="none" xmlns="http://www.w3.org/2000/svg">
<path fill-rule="evenodd" clip-rule="evenodd" d="M7.99998 12C7.99998 13.3254 6.92546 14.4 5.59998 14.4C4.27449 14.4 3.19998 13.3254 3.19998 12C3.19998 10.6745 4.27449 9.59998 5.59998 9.59998C6.92546 9.59998 7.99998 10.6745 7.99998 12ZM9.14098 13.8621C8.4711 15.1333 7.13674 16 5.59998 16C3.39084 16 1.59998 14.2091 1.59998 12C1.59998 9.79082 3.39084 7.99998 5.59998 7.99998C7.13674 7.99998 8.4711 8.8666 9.14098 10.1378L14.5668 6.74666C14.4583 6.38342 14.4 5.9985 14.4 5.59998C14.4 3.39084 16.1909 1.59998 18.4 1.59998C20.6091 1.59997 22.4 3.39084 22.4 5.59998C22.4 7.80911 20.6091 9.59998 18.4 9.59998C17.1064 9.59998 15.9562 8.98591 15.225 8.03337L9.57646 11.5637C9.59201 11.707 9.59998 11.8526 9.59998 12C9.59998 12.1474 9.59201 12.2929 9.57646 12.4362L15.225 15.9666C15.9562 15.014 17.1064 14.4 18.4 14.4C20.6091 14.4 22.4 16.1909 22.4 18.4C22.4 20.6091 20.6091 22.4 18.4 22.4C16.1909 22.4 14.4 20.6091 14.4 18.4C14.4 18.0014 14.4583 17.6165 14.5668 17.2533L9.14098 13.8621ZM18.4 7.99998C19.7254 7.99998 20.8 6.92546 20.8 5.59998C20.8 4.27449 19.7254 3.19998 18.4 3.19998C17.0745 3.19998 16 4.27449 16 5.59998C16 6.92546 17.0745 7.99998 18.4 7.99998ZM20.8 18.4C20.8 19.7254 19.7254 20.8 18.4 20.8C17.0745 20.8 16 19.7254 16 18.4C16 17.0745 17.0745 16 18.4 16C19.7254 16 20.8 17.0745 20.8 18.4Z" fill="currentColor"/>
</svg>
