<svg width="24" height="24" viewBox="0 0 24 24" fill="none" xmlns="http://www.w3.org/2000/svg">
<path d="M18.0247 19.8806L18.6444 6.82263H19.722C20.0903 6.82263 20.3866 6.50831 20.3866 6.1401C20.3866 5.77189 20.0903 5.46655 19.722 5.46655H15.6179V4.11944C15.6179 2.82622 14.7467 2 13.3637 2H10.0049C8.62191 2 7.75977 2.82622 7.75977 4.11944V5.46655H3.66457C3.30534 5.46655 3 5.78087 3 6.1401C3 6.50831 3.30534 6.82263 3.66457 6.82263H4.75123L5.3709 19.8895C5.43377 21.1738 6.27795 22 7.58015 22H15.8154C17.0997 22 17.9618 21.1648 18.0247 19.8806ZM9.19668 4.20925C9.19668 3.69735 9.56489 3.33812 10.1127 3.33812H13.2649C13.8128 3.33812 14.1899 3.69735 14.1899 4.20925V5.46655H9.19668V4.20925ZM7.70588 20.6439C7.19398 20.6439 6.80781 20.2577 6.78087 19.7279L6.15222 6.82263H17.2075L16.6147 19.7279C16.5878 20.2667 16.2106 20.6439 15.6718 20.6439H7.70588ZM14.3606 19.0723C14.6569 19.0723 14.8725 18.8298 14.8815 18.4885L15.1509 9.0678C15.1599 8.73552 14.9353 8.48406 14.63 8.48406C14.3516 8.48406 14.1181 8.7445 14.1091 9.0678L13.8397 18.4796C13.8307 18.8119 14.0552 19.0723 14.3606 19.0723ZM9.03502 19.0723C9.34037 19.0723 9.56489 18.8119 9.5559 18.4796L9.2775 9.0678C9.26852 8.7445 9.03502 8.48406 8.75662 8.48406C8.45128 8.48406 8.22676 8.73552 8.23574 9.0678L8.50516 18.4885C8.51414 18.8298 8.72968 19.0723 9.03502 19.0723ZM11.6933 19.0723C11.9897 19.0723 12.2411 18.8119 12.2411 18.4885V9.0678C12.2411 8.7445 11.9897 8.48406 11.6933 8.48406C11.4059 8.48406 11.1545 8.7445 11.1545 9.0678V18.4885C11.1545 18.8119 11.4059 19.0723 11.6933 19.0723Z" fill="currentColor"/>
</svg>
